0
SECTION
2
HEADER
9
$INSUNITS
70
4
9
$ACADVER
1
AC1014
9
$HANDSEED
5
FFFF
0
ENDSEC
0
SECTION
2
TABLES
0
TABLE
2
VPORT
5
8
100
AcDbSymbolTable
0
ENDTAB
0
TABLE
2
LTYPE
5
5
100
AcDbSymbolTable
0
LTYPE
5
14
100
AcDbSymbolTableRecord
100
AcDbLinetypeTableRecord
2
BYBLOCK
70
0
0
LTYPE
5
15
100
AcDbSymbolTableRecord
100
AcDbLinetypeTableRecord
2
BYLAYER
70
0
0
ENDTAB
0
TABLE
2
LAYER
5
2
100
AcDbSymbolTable
70
2
0
LAYER
5
50
100
AcDbSymbolTableRecord
100
AcDbLayerTableRecord
2
0
70
0
6
CONTINUOUS
0
ENDTAB
0
TABLE
2
STYLE
5
3
100
AcDbSymbolTable
70
1
0
STYLE
5
11
100
AcDbSymbolTableRecord
100
AcDbTextStyleTableRecord
2
STANDARD
70
0
0
ENDTAB
0
TABLE
2
VIEW
5
6
100
AcDbSymbolTable
70
0
0
ENDTAB
0
TABLE
2
UCS
5
7
100
AcDbSymbolTable
70
0
0
ENDTAB
0
TABLE
2
APPID
5
9
100
AcDbSymbolTable
70
2
0
APPID
5
12
100
AcDbSymbolTableRecord
100
AcDbRegAppTableRecord
2
ACAD
70
0
0
ENDTAB
0
TABLE
2
DIMSTYLE
5
A
100
AcDbSymbolTable
70
1
0
ENDTAB
0
TABLE
2
BLOCK_RECORD
5
1
100
AcDbSymbolTable
70
1
0
BLOCK_RECORD
5
1F
100
AcDbSymbolTableRecord
100
AcDbBlockTableRecord
2
*MODEL_SPACE
0
BLOCK_RECORD
5
1B
100
AcDbSymbolTableRecord
100
AcDbBlockTableRecord
2
*PAPER_SPACE
0
ENDTAB
0
ENDSEC
0
SECTION
2
BLOCKS
0
BLOCK
5
20
100
AcDbEntity
100
AcDbBlockBegin
2
*MODEL_SPACE
0
ENDBLK
5
21
100
AcDbEntity
100
AcDbBlockEnd
0
BLOCK
5
1C
100
AcDbEntity
100
AcDbBlockBegin
2
*PAPER_SPACE
0
ENDBLK
5
1D
100
AcDbEntity
100
AcDbBlockEnd
0
ENDSEC
0
SECTION
2
ENTITIES
0
LWPOLYLINE
5
100
100
AcDbEntity
8
0
100
AcDbPolyline
90
28
70
1
43
0.0
10
-271.49999999999989
20
-923.5
10
-271.49999999999994
20
-935
10
-267.49999999999994
20
-934.99999999999989
10
-267.50000000000011
20
-965
10
-271.50000000000011
20
-965
10
-271.50000000000011
20
-976.5
10
-267.50000000000011
20
-976.49999999999989
10
-267.50000000000011
20
-1006.4999999999999
10
-271.50000000000011
20
-1006.4999999999999
10
-271.50000000000011
20
-1018
10
-267.50000000000011
20
-1018
10
-267.50000000000011
20
-1029
10
-282.50000000000011
20
-1029
10
-282.50000000000011
20
-1033
10
-297.50000000000011
20
-1033
10
-297.50000000000011
20
-1029
10
-312.50000000000011
20
-1029
10
-312.50000000000011
20
-871
10
-297.50000000000011
20
-871
10
-297.50000000000011
20
-867
10
-282.50000000000011
20
-866.99999999999989
10
-282.50000000000011
20
-871
10
-267.50000000000011
20
-871
10
-267.49999999999983
20
-881.99999999999989
10
-271.49999999999983
20
-881.99999999999989
10
-271.49999999999989
20
-893.5
10
-267.49999999999989
20
-893.5
10
-267.49999999999994
20
-923.5
0
LWPOLYLINE
5
101
100
AcDbEntity
8
0
100
AcDbPolyline
90
44
70
1
43
0.0
10
-246.75000000000006
20
-893.5
10
-246.75000000000006
20
-923.5
10
-250.75000000000003
20
-923.5
10
-250.75000000000003
20
-935
10
-246.75000000000006
20
-935
10
-246.75000000000006
20
-965
10
-250.75000000000003
20
-965
10
-250.75000000000003
20
-976.49999999999989
10
-246.75000000000006
20
-976.49999999999989
10
-246.75000000000006
20
-1006.4999999999999
10
-250.75000000000003
20
-1006.4999999999999
10
-250.75000000000003
20
-1018
10
-246.75000000000006
20
-1018
10
-246.75000000000006
20
-1029
10
-235.75000000000003
20
-1029
10
-235.75000000000003
20
-1033
10
-224.25000000000006
20
-1033
10
-224.25000000000006
20
-1029
10
-213.25000000000003
20
-1029
10
-213.25000000000003
20
-1018
10
-209.25000000000006
20
-1018
10
-209.25000000000006
20
-1006.4999999999999
10
-213.25000000000003
20
-1006.4999999999999
10
-213.25000000000003
20
-976.49999999999989
10
-209.25000000000006
20
-976.49999999999989
10
-209.25000000000006
20
-965
10
-213.25000000000003
20
-965
10
-213.25000000000003
20
-935
10
-209.25000000000006
20
-935
10
-209.25000000000006
20
-923.5
10
-213.25000000000003
20
-923.5
10
-213.25000000000003
20
-893.5
10
-209.25000000000006
20
-893.5
10
-209.25000000000006
20
-881.99999999999989
10
-213.25000000000003
20
-881.99999999999989
10
-213.25000000000003
20
-871
10
-224.25000000000006
20
-871
10
-224.25000000000006
20
-866.99999999999989
10
-235.75000000000003
20
-866.99999999999989
10
-235.75000000000003
20
-871
10
-246.75000000000006
20
-871
10
-246.75000000000006
20
-881.99999999999989
10
-250.75000000000003
20
-881.99999999999989
10
-250.75000000000003
20
-893.5
0
LWPOLYLINE
5
102
100
AcDbEntity
8
0
100
AcDbPolyline
90
16
70
1
43
0.0
10
-159.25000000000006
20
-897.5
10
-174.25000000000006
20
-897.5
10
-174.25000000000006
20
-901.5
10
-185.75000000000003
20
-901.5
10
-185.75000000000003
20
-897.5
10
-200.75000000000003
20
-897.5
10
-200.75000000000003
20
-912.5
10
-196.75000000000006
20
-912.5
10
-196.75000000000006
20
-927.5
10
-200.75000000000003
20
-927.5
10
-200.75000000000003
20
-942.5
10
-159.25000000000006
20
-942.5
10
-159.25000000000006
20
-927.5
10
-163.25000000000003
20
-927.5
10
-163.25000000000003
20
-912.5
10
-159.25000000000006
20
-912.5
0
LWPOLYLINE
5
103
100
AcDbEntity
8
0
100
AcDbPolyline
90
16
70
1
43
0.0
10
-159.25000000000006
20
-967.5
10
-174.25000000000006
20
-967.5
10
-174.25000000000006
20
-971.5
10
-185.75000000000003
20
-971.5
10
-185.75000000000003
20
-967.5
10
-200.75000000000003
20
-967.5
10
-200.75000000000003
20
-982.5
10
-196.75000000000006
20
-982.5
10
-196.75000000000006
20
-997.5
10
-200.75000000000003
20
-997.5
10
-200.75000000000003
20
-1012.5
10
-159.25000000000006
20
-1012.5
10
-159.25000000000006
20
-997.5
10
-163.25000000000003
20
-997.5
10
-163.25000000000003
20
-982.5
10
-159.25000000000006
20
-982.5
0
LWPOLYLINE
5
104
100
AcDbEntity
8
0
100
AcDbPolyline
90
28
70
1
43
0.0
10
-351.49999999999989
20
-923.5
10
-351.49999999999989
20
-935
10
-347.5
20
-934.99999999999989
10
-347.50000000000011
20
-965
10
-351.50000000000011
20
-965
10
-351.50000000000011
20
-976.5
10
-347.50000000000011
20
-976.49999999999989
10
-347.50000000000011
20
-1006.4999999999999
10
-351.50000000000011
20
-1006.4999999999999
10
-351.50000000000011
20
-1018
10
-347.50000000000011
20
-1018
10
-347.50000000000011
20
-1029
10
-362.50000000000011
20
-1029
10
-362.50000000000011
20
-1033
10
-377.50000000000011
20
-1033
10
-377.50000000000011
20
-1029
10
-392.50000000000011
20
-1029
10
-392.50000000000011
20
-871
10
-377.50000000000011
20
-871
10
-377.50000000000011
20
-867
10
-362.50000000000011
20
-866.99999999999989
10
-362.50000000000011
20
-871
10
-347.50000000000011
20
-871
10
-347.49999999999989
20
-881.99999999999989
10
-351.49999999999983
20
-881.99999999999989
10
-351.49999999999983
20
-893.5
10
-347.49999999999989
20
-893.5
10
-347.49999999999989
20
-923.5
0
ENDSEC
0
SECTION
2
OBJECTS
0
DICTIONARY
5
C
100
AcDbDictionary
3
ACAD_GROUP
350
D
3
ACAD_MLINESTYLE
350
17
0
DICTIONARY
5
D
100
AcDbDictionary
0
DICTIONARY
5
1A
330
C
100
AcDbDictionary
0
DICTIONARY
5
17
100
AcDbDictionary
0
ENDSEC
0
EOF
