0
SECTION
2
HEADER
9
$INSUNITS
70
4
9
$ACADVER
1
AC1014
9
$HANDSEED
5
FFFF
0
ENDSEC
0
SECTION
2
TABLES
0
TABLE
2
VPORT
5
8
100
AcDbSymbolTable
0
ENDTAB
0
TABLE
2
LTYPE
5
5
100
AcDbSymbolTable
0
LTYPE
5
14
100
AcDbSymbolTableRecord
100
AcDbLinetypeTableRecord
2
BYBLOCK
70
0
0
LTYPE
5
15
100
AcDbSymbolTableRecord
100
AcDbLinetypeTableRecord
2
BYLAYER
70
0
0
ENDTAB
0
TABLE
2
LAYER
5
2
100
AcDbSymbolTable
70
2
0
LAYER
5
50
100
AcDbSymbolTableRecord
100
AcDbLayerTableRecord
2
0
70
0
6
CONTINUOUS
0
ENDTAB
0
TABLE
2
STYLE
5
3
100
AcDbSymbolTable
70
1
0
STYLE
5
11
100
AcDbSymbolTableRecord
100
AcDbTextStyleTableRecord
2
STANDARD
70
0
0
ENDTAB
0
TABLE
2
VIEW
5
6
100
AcDbSymbolTable
70
0
0
ENDTAB
0
TABLE
2
UCS
5
7
100
AcDbSymbolTable
70
0
0
ENDTAB
0
TABLE
2
APPID
5
9
100
AcDbSymbolTable
70
2
0
APPID
5
12
100
AcDbSymbolTableRecord
100
AcDbRegAppTableRecord
2
ACAD
70
0
0
ENDTAB
0
TABLE
2
DIMSTYLE
5
A
100
AcDbSymbolTable
70
1
0
ENDTAB
0
TABLE
2
BLOCK_RECORD
5
1
100
AcDbSymbolTable
70
1
0
BLOCK_RECORD
5
1F
100
AcDbSymbolTableRecord
100
AcDbBlockTableRecord
2
*MODEL_SPACE
0
BLOCK_RECORD
5
1B
100
AcDbSymbolTableRecord
100
AcDbBlockTableRecord
2
*PAPER_SPACE
0
ENDTAB
0
ENDSEC
0
SECTION
2
BLOCKS
0
BLOCK
5
20
100
AcDbEntity
100
AcDbBlockBegin
2
*MODEL_SPACE
0
ENDBLK
5
21
100
AcDbEntity
100
AcDbBlockEnd
0
BLOCK
5
1C
100
AcDbEntity
100
AcDbBlockBegin
2
*PAPER_SPACE
0
ENDBLK
5
1D
100
AcDbEntity
100
AcDbBlockEnd
0
ENDSEC
0
SECTION
2
ENTITIES
0
LWPOLYLINE
5
100
100
AcDbEntity
8
0
100
AcDbPolyline
90
68
70
1
43
0.0
10
35.750000000000099
20
522.24999999999977
10
35.750000000000099
20
518.24999999999977
10
5.7500000000001172
20
518.24999999999977
10
5.7500000000000995
20
522.24999999999977
10
-5.7499999999999041
20
522.24999999999977
10
-5.7499999999999041
20
518.24999999999977
10
-35.749999999999886
20
518.24999999999977
10
-35.749999999999901
20
522.24999999999977
10
-47.249999999999908
20
522.24999999999977
10
-47.249999999999908
20
518.24999999999977
10
-77.249999999999886
20
518.24999999999977
10
-77.249999999999915
20
522.24999999999977
10
-88.749999999999915
20
522.24999999999977
10
-88.749999999999915
20
518.24999999999977
10
-99.749999999999915
20
518.24999999999977
10
-99.749999999999915
20
507.24999999999977
10
-103.74999999999991
20
507.24999999999972
10
-103.74999999999991
20
495.74999999999977
10
-99.749999999999915
20
495.74999999999977
10
-99.749999999999915
20
465.74999999999977
10
-103.74999999999991
20
465.74999999999977
10
-103.74999999999991
20
454.24999999999977
10
-99.749999999999915
20
454.24999999999977
10
-99.749999999999915
20
424.24999999999977
10
-103.74999999999991
20
424.24999999999977
10
-103.74999999999991
20
412.74999999999977
10
-99.749999999999915
20
412.74999999999977
10
-99.749999999999915
20
401.74999999999977
10
-88.749999999999915
20
401.74999999999977
10
-88.749999999999915
20
397.74999999999977
10
-77.249999999999886
20
397.74999999999977
10
-77.249999999999886
20
401.74999999999977
10
-47.249999999999908
20
401.74999999999977
10
-47.249999999999908
20
397.74999999999977
10
-35.749999999999886
20
397.74999999999977
10
-35.749999999999893
20
401.74999999999977
10
-5.7499999999999041
20
401.74999999999977
10
-5.7499999999999041
20
397.74999999999977
10
5.7500000000001172
20
397.74999999999977
10
5.7500000000000995
20
401.74999999999977
10
35.750000000000099
20
401.74999999999977
10
35.750000000000099
20
397.74999999999977
10
47.250000000000121
20
397.74999999999977
10
47.250000000000156
20
401.74999999999977
10
77.250000000000114
20
401.74999999999977
10
77.250000000000114
20
397.74999999999977
10
88.750000000000114
20
397.74999999999977
10
88.750000000000114
20
401.74999999999977
10
99.750000000000114
20
401.74999999999977
10
99.750000000000114
20
412.74999999999977
10
103.75000000000011
20
412.74999999999977
10
103.75000000000011
20
424.24999999999977
10
99.750000000000114
20
424.24999999999977
10
99.750000000000114
20
454.24999999999977
10
103.75000000000011
20
454.24999999999977
10
103.75000000000011
20
465.74999999999977
10
99.750000000000114
20
465.74999999999977
10
99.750000000000114
20
495.74999999999977
10
103.75000000000011
20
495.74999999999977
10
103.75000000000011
20
507.24999999999977
10
99.750000000000114
20
507.24999999999972
10
99.750000000000114
20
518.24999999999977
10
88.750000000000114
20
518.24999999999977
10
88.750000000000114
20
522.24999999999977
10
77.250000000000114
20
522.24999999999977
10
77.250000000000114
20
518.24999999999977
10
47.250000000000121
20
518.24999999999977
10
47.250000000000099
20
522.24999999999977
0
LWPOLYLINE
5
101
100
AcDbEntity
8
0
100
AcDbPolyline
90
32
70
1
43
0.0
10
103.74999999999945
20
337.49999999999898
10
88.749999999999545
20
337.49999999999898
10
88.749999999999517
20
341.49999999999898
10
77.249999999999574
20
341.49999999999898
10
77.249999999999602
20
337.49999999999898
10
47.249999999999808
20
337.49999999999898
10
47.249999999999801
20
341.49999999999898
10
35.749999999999872
20
341.49999999999898
10
35.749999999999851
20
337.49999999999898
10
5.7500000000000551
20
337.49999999999898
10
5.7500000000000639
20
341.49999999999898
10
-5.7499999999998863
20
341.49999999999898
10
-5.7499999999998863
20
337.49999999999898
10
-35.74999999999968
20
337.49999999999898
10
-35.749999999999687
20
341.49999999999898
10
-47.249999999999645
20
341.49999999999898
10
-47.249999999999645
20
337.49999999999898
10
-77.249999999999432
20
337.49999999999898
10
-77.249999999999432
20
341.49999999999898
10
-88.749999999999375
20
341.49999999999898
10
-88.749999999999375
20
337.49999999999898
10
-103.74999999999929
20
337.49999999999898
10
-103.74999999999928
20
352.49999999999892
10
-99.749999999999304
20
352.49999999999892
10
-99.749999999999304
20
367.49999999999886
10
-103.74999999999928
20
367.49999999999892
10
-103.74999999999928
20
382.49999999999886
10
103.74999999999945
20
382.49999999999886
10
103.74999999999945
20
367.49999999999892
10
99.74999999999946
20
367.49999999999886
10
99.74999999999946
20
352.49999999999892
10
103.74999999999945
20
352.49999999999892
0
LWPOLYLINE
5
102
100
AcDbEntity
8
0
100
AcDbPolyline
90
32
70
1
43
0.0
10
103.75000000000003
20
257.50000000000006
10
88.750000000000028
20
257.50000000000006
10
88.750000000000028
20
261.5
10
77.250000000000014
20
261.5
10
77.250000000000057
20
257.50000000000006
10
47.250000000000071
20
257.50000000000006
10
47.25000000000005
20
261.5
10
35.750000000000043
20
261.5
10
35.750000000000028
20
257.50000000000006
10
5.7500000000000462
20
257.50000000000006
10
5.7500000000000462
20
261.5
10
-5.7499999999999751
20
261.5
10
-5.7499999999999751
20
257.50000000000006
10
-35.749999999999957
20
257.50000000000006
10
-35.749999999999957
20
261.5
10
-47.249999999999979
20
261.5
10
-47.249999999999979
20
257.50000000000006
10
-77.249999999999957
20
257.50000000000006
10
-77.249999999999957
20
261.5
10
-88.749999999999986
20
261.5
10
-88.749999999999986
20
257.50000000000006
10
-103.74999999999999
20
257.50000000000006
10
-103.74999999999997
20
272.50000000000006
10
-99.749999999999957
20
272.50000000000006
10
-99.749999999999957
20
287.50000000000006
10
-103.74999999999997
20
287.50000000000006
10
-103.74999999999997
20
302.50000000000006
10
103.75000000000003
20
302.50000000000006
10
103.75000000000003
20
287.50000000000006
10
99.750000000000057
20
287.50000000000006
10
99.750000000000057
20
272.50000000000006
10
103.75000000000003
20
272.50000000000006
0
LWPOLYLINE
5
103
100
AcDbEntity
8
0
100
AcDbPolyline
90
24
70
1
43
0.0
10
58.249999999999922
20
197.50000000000003
10
-58.250000000000085
20
197.50000000000006
10
-58.250000000000085
20
212.50000000000006
10
-62.250000000000071
20
212.50000000000006
10
-62.250000000000085
20
227.50000000000006
10
-58.250000000000085
20
227.50000000000006
10
-58.250000000000085
20
242.50000000000006
10
-47.250000000000085
20
242.50000000000006
10
-47.250000000000099
20
238.50000000000006
10
-35.750000000000085
20
238.50000000000006
10
-35.750000000000085
20
242.50000000000003
10
-5.7500000000000817
20
242.50000000000003
10
-5.7500000000000817
20
238.50000000000006
10
5.7499999999999218
20
238.50000000000006
10
5.7499999999999218
20
242.50000000000003
10
35.749999999999922
20
242.50000000000003
10
35.749999999999922
20
238.50000000000006
10
47.249999999999929
20
238.50000000000006
10
47.249999999999929
20
242.50000000000003
10
58.249999999999922
20
242.50000000000003
10
58.249999999999922
20
227.50000000000003
10
62.249999999999929
20
227.50000000000003
10
62.249999999999915
20
212.50000000000003
10
58.249999999999922
20
212.50000000000003
0
LWPOLYLINE
5
104
100
AcDbEntity
8
0
100
AcDbPolyline
90
24
70
1
43
0.0
10
-58.249999999999687
20
172.49999999999946
10
58.250000000000099
20
172.49999999999946
10
58.250000000000099
20
157.49999999999949
10
62.250000000000092
20
157.49999999999949
10
62.250000000000085
20
142.49999999999955
10
58.250000000000085
20
142.49999999999955
10
58.250000000000085
20
127.49999999999959
10
47.250000000000092
20
127.49999999999959
10
47.250000000000092
20
131.49999999999957
10
35.750000000000107
20
131.49999999999957
10
35.750000000000114
20
127.49999999999959
10
5.7500000000001616
20
127.49999999999959
10
5.7500000000001652
20
131.49999999999957
10
-5.7499999999998224
20
131.49999999999957
10
-5.7499999999998197
20
127.49999999999959
10
-35.749999999999758
20
127.49999999999959
10
-35.749999999999758
20
131.49999999999957
10
-47.249999999999766
20
131.49999999999957
10
-47.249999999999744
20
127.4999999999996
10
-58.24999999999973
20
127.49999999999959
10
-58.249999999999709
20
142.49999999999955
10
-62.249999999999702
20
142.49999999999955
10
-62.249999999999702
20
157.49999999999949
10
-58.249999999999716
20
157.49999999999949
0
ENDSEC
0
SECTION
2
OBJECTS
0
DICTIONARY
5
C
100
AcDbDictionary
3
ACAD_GROUP
350
D
3
ACAD_MLINESTYLE
350
17
0
DICTIONARY
5
D
100
AcDbDictionary
0
DICTIONARY
5
1A
330
C
100
AcDbDictionary
0
DICTIONARY
5
17
100
AcDbDictionary
0
ENDSEC
0
EOF
