0
SECTION
2
HEADER
9
$INSUNITS
70
4
9
$ACADVER
1
AC1014
9
$HANDSEED
5
FFFF
0
ENDSEC
0
SECTION
2
TABLES
0
TABLE
2
VPORT
5
8
100
AcDbSymbolTable
0
ENDTAB
0
TABLE
2
LTYPE
5
5
100
AcDbSymbolTable
0
LTYPE
5
14
100
AcDbSymbolTableRecord
100
AcDbLinetypeTableRecord
2
BYBLOCK
70
0
0
LTYPE
5
15
100
AcDbSymbolTableRecord
100
AcDbLinetypeTableRecord
2
BYLAYER
70
0
0
ENDTAB
0
TABLE
2
LAYER
5
2
100
AcDbSymbolTable
70
2
0
LAYER
5
50
100
AcDbSymbolTableRecord
100
AcDbLayerTableRecord
2
0
70
0
6
CONTINUOUS
0
ENDTAB
0
TABLE
2
STYLE
5
3
100
AcDbSymbolTable
70
1
0
STYLE
5
11
100
AcDbSymbolTableRecord
100
AcDbTextStyleTableRecord
2
STANDARD
70
0
0
ENDTAB
0
TABLE
2
VIEW
5
6
100
AcDbSymbolTable
70
0
0
ENDTAB
0
TABLE
2
UCS
5
7
100
AcDbSymbolTable
70
0
0
ENDTAB
0
TABLE
2
APPID
5
9
100
AcDbSymbolTable
70
2
0
APPID
5
12
100
AcDbSymbolTableRecord
100
AcDbRegAppTableRecord
2
ACAD
70
0
0
ENDTAB
0
TABLE
2
DIMSTYLE
5
A
100
AcDbSymbolTable
70
1
0
ENDTAB
0
TABLE
2
BLOCK_RECORD
5
1
100
AcDbSymbolTable
70
1
0
BLOCK_RECORD
5
1F
100
AcDbSymbolTableRecord
100
AcDbBlockTableRecord
2
*MODEL_SPACE
0
BLOCK_RECORD
5
1B
100
AcDbSymbolTableRecord
100
AcDbBlockTableRecord
2
*PAPER_SPACE
0
ENDTAB
0
ENDSEC
0
SECTION
2
BLOCKS
0
BLOCK
5
20
100
AcDbEntity
100
AcDbBlockBegin
2
*MODEL_SPACE
0
ENDBLK
5
21
100
AcDbEntity
100
AcDbBlockEnd
0
BLOCK
5
1C
100
AcDbEntity
100
AcDbBlockBegin
2
*PAPER_SPACE
0
ENDBLK
5
1D
100
AcDbEntity
100
AcDbBlockEnd
0
ENDSEC
0
SECTION
2
ENTITIES
0
LWPOLYLINE
5
100
100
AcDbEntity
8
0
100
AcDbPolyline
90
40
70
1
43
0.0
10
145.24999999999918
20
-102.4999999999996
10
130.24999999999929
20
-102.4999999999996
10
130.24999999999932
20
-98.499999999999631
10
118.74999999999932
20
-98.499999999999631
10
118.74999999999932
20
-102.4999999999996
10
88.749999999999503
20
-102.4999999999996
10
88.749999999999503
20
-98.499999999999631
10
77.249999999999545
20
-98.499999999999631
10
77.249999999999588
20
-102.4999999999996
10
47.249999999999773
20
-102.4999999999996
10
47.249999999999766
20
-98.499999999999631
10
35.749999999999815
20
-98.499999999999631
10
35.749999999999851
20
-102.4999999999996
10
5.7500000000000551
20
-102.4999999999996
10
5.7500000000000462
20
-98.499999999999631
10
-5.7499999999998863
20
-98.499999999999631
10
-5.7499999999999041
20
-102.4999999999996
10
-35.749999999999702
20
-102.4999999999996
10
-35.749999999999687
20
-98.499999999999631
10
-47.249999999999645
20
-98.499999999999631
10
-47.249999999999645
20
-102.4999999999996
10
-77.249999999999432
20
-102.4999999999996
10
-77.249999999999446
20
-98.499999999999631
10
-88.749999999999403
20
-98.499999999999631
10
-88.749999999999403
20
-102.4999999999996
10
-118.7499999999992
20
-102.4999999999996
10
-118.74999999999918
20
-98.499999999999631
10
-130.24999999999915
20
-98.499999999999631
10
-130.24999999999915
20
-102.4999999999996
10
-145.24999999999903
20
-102.4999999999996
10
-145.24999999999903
20
-87.499999999999659
10
-141.24999999999906
20
-87.499999999999659
10
-141.24999999999906
20
-72.499999999999716
10
-145.24999999999903
20
-72.499999999999716
10
-145.24999999999903
20
-57.499999999999773
10
145.24999999999918
20
-57.499999999999773
10
145.24999999999918
20
-72.499999999999716
10
141.2499999999992
20
-72.499999999999716
10
141.2499999999992
20
-87.499999999999659
10
145.24999999999918
20
-87.499999999999659
0
LWPOLYLINE
5
101
100
AcDbEntity
8
0
100
AcDbPolyline
90
40
70
1
43
0.0
10
118.75
20
-117.5
10
88.75
20
-117.5
10
88.75
20
-121.5
10
77.250000000000014
20
-121.5
10
77.250000000000014
20
-117.5
10
47.250000000000014
20
-117.5
10
47.250000000000014
20
-121.5
10
35.750000000000028
20
-121.5
10
35.750000000000028
20
-117.5
10
5.7500000000000284
20
-117.5
10
5.7500000000000284
20
-121.5
10
-5.7499999999999929
20
-121.5
10
-5.7500000000000107
20
-117.5
10
-35.749999999999972
20
-117.5
10
-35.749999999999972
20
-121.5
10
-47.25
20
-121.5
10
-47.250000000000014
20
-117.5
10
-77.249999999999972
20
-117.5
10
-77.249999999999972
20
-121.5
10
-88.75
20
-121.5
10
-88.75
20
-117.5
10
-118.74999999999999
20
-117.5
10
-118.74999999999999
20
-121.5
10
-130.25
20
-121.5
10
-130.25
20
-117.5
10
-145.25
20
-117.5
10
-145.25
20
-132.5
10
-141.24999999999997
20
-132.5
10
-141.24999999999997
20
-147.5
10
-145.25
20
-147.5
10
-145.25
20
-162.5
10
145.25000000000003
20
-162.5
10
145.25000000000003
20
-147.5
10
141.25000000000003
20
-147.5
10
141.25000000000003
20
-132.5
10
145.25000000000003
20
-132.5
10
145.25000000000003
20
-117.5
10
130.25000000000006
20
-117.5
10
130.25000000000003
20
-121.5
10
118.75
20
-121.5
0
LWPOLYLINE
5
102
100
AcDbEntity
8
0
100
AcDbPolyline
90
84
70
1
43
0.0
10
-77.249999999999972
20
-292.25
10
-77.249999999999972
20
-288.25
10
-47.25
20
-288.25
10
-47.25
20
-292.25
10
-35.749999999999972
20
-292.25
10
-35.749999999999972
20
-288.25
10
-5.7499999999999929
20
-288.25
10
-5.7499999999999929
20
-292.25
10
5.7500000000000284
20
-292.25
10
5.7500000000000284
20
-288.25
10
35.750000000000028
20
-288.25
10
35.750000000000028
20
-292.25
10
47.250000000000014
20
-292.25
10
47.250000000000014
20
-288.25
10
77.250000000000014
20
-288.25
10
77.250000000000014
20
-292.25
10
88.75
20
-292.25
10
88.75
20
-288.25
10
118.75
20
-288.25
10
118.75
20
-292.25
10
130.25000000000006
20
-292.25
10
130.25000000000006
20
-288.25
10
141.25000000000003
20
-288.25
10
141.25000000000003
20
-277.25
10
145.25000000000006
20
-277.25
10
145.25000000000003
20
-265.75
10
141.25000000000003
20
-265.75
10
141.25000000000003
20
-235.75000000000003
10
145.25000000000006
20
-235.75000000000003
10
145.25000000000003
20
-224.25
10
141.25000000000003
20
-224.25
10
141.25000000000003
20
-194.25
10
145.25000000000006
20
-194.25
10
145.25000000000003
20
-182.75
10
141.25000000000003
20
-182.75
10
141.25000000000006
20
-171.75
10
130.25000000000006
20
-171.74999999999997
10
130.25
20
-167.75
10
118.75
20
-167.75
10
118.75
20
-171.75
10
88.75
20
-171.74999999999997
10
88.75
20
-167.75
10
77.250000000000014
20
-167.75
10
77.250000000000014
20
-171.75
10
47.250000000000014
20
-171.74999999999997
10
47.250000000000014
20
-167.75
10
35.750000000000028
20
-167.75
10
35.750000000000028
20
-171.75
10
5.7500000000000284
20
-171.74999999999997
10
5.7500000000000107
20
-167.75
10
-5.7499999999999929
20
-167.75
10
-5.7499999999999929
20
-171.75
10
-35.749999999999972
20
-171.74999999999997
10
-35.749999999999993
20
-167.75
10
-47.25
20
-167.75
10
-47.25
20
-171.75
10
-77.249999999999972
20
-171.74999999999997
10
-77.25
20
-167.75
10
-88.75
20
-167.75
10
-88.75
20
-171.75
10
-118.74999999999999
20
-171.74999999999997
10
-118.75
20
-167.75
10
-130.25
20
-167.75
10
-130.25
20
-171.75
10
-141.25
20
-171.75
10
-141.25
20
-182.75
10
-145.25
20
-182.75
10
-145.25
20
-194.25
10
-141.25
20
-194.25
10
-141.25
20
-224.25
10
-145.25
20
-224.25
10
-145.25
20
-235.75000000000003
10
-141.25
20
-235.75000000000003
10
-141.25
20
-265.75
10
-145.25
20
-265.75
10
-145.25
20
-277.25
10
-141.25
20
-277.25
10
-141.25
20
-288.25
10
-130.25
20
-288.25
10
-130.25
20
-292.25
10
-118.74999999999999
20
-292.25
10
-118.74999999999999
20
-288.25
10
-88.75
20
-288.25
10
-88.75
20
-292.25
0
LWPOLYLINE
5
103
100
AcDbEntity
8
0
100
AcDbPolyline
90
24
70
1
43
0.0
10
-118.24999999999983
20
-307.49999999999898
10
-1.7500000000000604
20
-307.49999999999898
10
-1.7500000000000806
20
-322.49999999999892
10
2.2499999999999103
20
-322.49999999999892
10
2.2499999999998992
20
-337.49999999999886
10
-1.7500000000000924
20
-337.49999999999892
10
-1.7500000000001026
20
-352.49999999999886
10
-12.750000000000082
20
-352.49999999999886
10
-12.750000000000078
20
-348.49999999999886
10
-24.25000000000006
20
-348.49999999999886
10
-24.25000000000006
20
-352.49999999999886
10
-54.25
20
-352.49999999999886
10
-54.25
20
-348.49999999999886
10
-65.749999999999972
20
-348.49999999999886
10
-65.749999999999986
20
-352.49999999999886
10
-95.749999999999915
20
-352.49999999999886
10
-95.749999999999915
20
-348.49999999999886
10
-107.24999999999993
20
-348.49999999999886
10
-107.24999999999991
20
-352.49999999999886
10
-118.24999999999987
20
-352.49999999999886
10
-118.24999999999986
20
-337.49999999999892
10
-122.24999999999986
20
-337.49999999999892
10
-122.24999999999983
20
-322.49999999999898
10
-118.24999999999986
20
-322.49999999999892
0
LWPOLYLINE
5
104
100
AcDbEntity
8
0
100
AcDbPolyline
90
24
70
1
43
0.0
10
21.749999999999989
20
-307.5
10
138.25
20
-307.5
10
138.25
20
-322.5
10
142.25
20
-322.5
10
142.25
20
-337.5
10
138.25
20
-337.5
10
138.25
20
-352.5
10
127.25
20
-352.5
10
127.25
20
-348.5
10
115.75
20
-348.5
10
115.75
20
-352.5
10
85.75
20
-352.5
10
85.75
20
-348.5
10
74.249999999999986
20
-348.5
10
74.249999999999986
20
-352.5
10
44.249999999999986
20
-352.5
10
44.249999999999986
20
-348.5
10
32.749999999999972
20
-348.5
10
32.749999999999986
20
-352.5
10
21.749999999999989
20
-352.5
10
21.749999999999989
20
-337.5
10
17.749999999999986
20
-337.5
10
17.749999999999986
20
-322.5
10
21.749999999999989
20
-322.5
0
ENDSEC
0
SECTION
2
OBJECTS
0
DICTIONARY
5
C
100
AcDbDictionary
3
ACAD_GROUP
350
D
3
ACAD_MLINESTYLE
350
17
0
DICTIONARY
5
D
100
AcDbDictionary
0
DICTIONARY
5
1A
330
C
100
AcDbDictionary
0
DICTIONARY
5
17
100
AcDbDictionary
0
ENDSEC
0
EOF
