0
SECTION
2
HEADER
9
$INSUNITS
70
4
9
$ACADVER
1
AC1014
9
$HANDSEED
5
FFFF
0
ENDSEC
0
SECTION
2
TABLES
0
TABLE
2
VPORT
5
8
100
AcDbSymbolTable
0
ENDTAB
0
TABLE
2
LTYPE
5
5
100
AcDbSymbolTable
0
LTYPE
5
14
100
AcDbSymbolTableRecord
100
AcDbLinetypeTableRecord
2
BYBLOCK
70
0
0
LTYPE
5
15
100
AcDbSymbolTableRecord
100
AcDbLinetypeTableRecord
2
BYLAYER
70
0
0
ENDTAB
0
TABLE
2
LAYER
5
2
100
AcDbSymbolTable
70
2
0
LAYER
5
50
100
AcDbSymbolTableRecord
100
AcDbLayerTableRecord
2
0
70
0
6
CONTINUOUS
0
ENDTAB
0
TABLE
2
STYLE
5
3
100
AcDbSymbolTable
70
1
0
STYLE
5
11
100
AcDbSymbolTableRecord
100
AcDbTextStyleTableRecord
2
STANDARD
70
0
0
ENDTAB
0
TABLE
2
VIEW
5
6
100
AcDbSymbolTable
70
0
0
ENDTAB
0
TABLE
2
UCS
5
7
100
AcDbSymbolTable
70
0
0
ENDTAB
0
TABLE
2
APPID
5
9
100
AcDbSymbolTable
70
2
0
APPID
5
12
100
AcDbSymbolTableRecord
100
AcDbRegAppTableRecord
2
ACAD
70
0
0
ENDTAB
0
TABLE
2
DIMSTYLE
5
A
100
AcDbSymbolTable
70
1
0
ENDTAB
0
TABLE
2
BLOCK_RECORD
5
1
100
AcDbSymbolTable
70
1
0
BLOCK_RECORD
5
1F
100
AcDbSymbolTableRecord
100
AcDbBlockTableRecord
2
*MODEL_SPACE
0
BLOCK_RECORD
5
1B
100
AcDbSymbolTableRecord
100
AcDbBlockTableRecord
2
*PAPER_SPACE
0
ENDTAB
0
ENDSEC
0
SECTION
2
BLOCKS
0
BLOCK
5
20
100
AcDbEntity
100
AcDbBlockBegin
2
*MODEL_SPACE
0
ENDBLK
5
21
100
AcDbEntity
100
AcDbBlockEnd
0
BLOCK
5
1C
100
AcDbEntity
100
AcDbBlockBegin
2
*PAPER_SPACE
0
ENDBLK
5
1D
100
AcDbEntity
100
AcDbBlockEnd
0
ENDSEC
0
SECTION
2
ENTITIES
0
LWPOLYLINE
5
100
100
AcDbEntity
8
0
100
AcDbPolyline
90
68
70
1
43
0.0
10
-14.999999999999964
20
16.999999999999993
10
-14.999999999999964
20
20.999999999999993
10
15.000000000000018
20
20.999999999999993
10
15.000000000000018
20
16.999999999999993
10
26.500000000000039
20
16.999999999999993
10
26.500000000000039
20
20.999999999999993
10
56.500000000000021
20
20.999999999999993
10
56.500000000000021
20
16.999999999999993
10
68.000000000000043
20
16.999999999999993
10
68.000000000000043
20
20.999999999999993
10
79.000000000000057
20
20.999999999999993
10
79.000000000000057
20
31.999999999999993
10
83.000000000000043
20
31.999999999999993
10
83.000000000000043
20
43.5
10
79.000000000000057
20
43.5
10
79.000000000000057
20
73.5
10
83.000000000000043
20
73.5
10
83.000000000000043
20
85
10
79.000000000000057
20
85
10
79.000000000000057
20
115
10
83.000000000000043
20
115
10
83.000000000000043
20
126.5
10
79.000000000000057
20
126.5
10
79.000000000000057
20
156.5
10
83.000000000000043
20
156.5
10
83.000000000000043
20
168
10
79.000000000000057
20
168
10
79.000000000000057
20
179.00000000000003
10
68.000000000000043
20
179.00000000000003
10
68.000000000000043
20
183
10
56.500000000000021
20
183
10
56.500000000000021
20
179.00000000000003
10
26.500000000000039
20
179.00000000000003
10
26.500000000000039
20
183
10
15.000000000000018
20
183
10
15.000000000000018
20
179.00000000000003
10
-14.999999999999964
20
179.00000000000003
10
-14.999999999999964
20
183
10
-26.499999999999986
20
183
10
-26.499999999999986
20
179.00000000000003
10
-56.499999999999972
20
179.00000000000003
10
-56.499999999999972
20
183
10
-67.999999999999986
20
183
10
-67.999999999999986
20
179.00000000000003
10
-78.999999999999986
20
179.00000000000003
10
-78.999999999999986
20
168
10
-82.999999999999986
20
168
10
-82.999999999999986
20
156.5
10
-78.999999999999986
20
156.5
10
-78.999999999999986
20
126.5
10
-82.999999999999986
20
126.5
10
-82.999999999999986
20
115
10
-78.999999999999986
20
115
10
-78.999999999999986
20
85
10
-82.999999999999986
20
85
10
-82.999999999999986
20
73.5
10
-78.999999999999986
20
73.5
10
-78.999999999999986
20
43.5
10
-82.999999999999986
20
43.5
10
-82.999999999999986
20
31.999999999999993
10
-78.999999999999986
20
31.999999999999993
10
-78.999999999999986
20
20.999999999999993
10
-67.999999999999986
20
20.999999999999993
10
-67.999999999999986
20
16.999999999999993
10
-56.499999999999972
20
16.999999999999993
10
-56.499999999999972
20
20.999999999999993
10
-26.499999999999986
20
20.999999999999993
10
-26.499999999999986
20
16.999999999999993
0
LWPOLYLINE
5
101
100
AcDbEntity
8
0
100
AcDbPolyline
90
28
70
1
43
0.0
10
-15.000000000000036
20
-38.500000000000057
10
-26.500000000000039
20
-38.500000000000078
10
-26.500000000000039
20
-42.500000000000078
10
-56.500000000000057
20
-42.500000000000135
10
-56.500000000000043
20
-38.500000000000128
10
-68.000000000000043
20
-38.500000000000149
10
-68.000000000000043
20
-42.500000000000149
10
-79.000000000000057
20
-42.499999999999865
10
-79.000000000000057
20
-27.499999999999865
10
-83.000000000000043
20
-27.499999999999865
10
-83.000000000000043
20
-12.499999999999867
10
-79.000000000000057
20
-12.499999999999867
10
-79.000000000000057
20
2.5000000000001332
10
78.999999999999972
20
2.5000000000001239
10
78.999999999999972
20
-12.499999999999876
10
82.999999999999972
20
-12.499999999999876
10
82.999999999999972
20
-27.499999999999876
10
78.999999999999972
20
-27.499999999999876
10
78.999999999999972
20
-42.499999999999872
10
67.999999999999972
20
-42.499999999999872
10
67.999999999999972
20
-38.499999999999879
10
56.499999999999972
20
-38.499999999999872
10
56.499999999999972
20
-42.499999999999872
10
26.499999999999968
20
-42.499999999999872
10
26.499999999999968
20
-38.499999999999879
10
14.999999999999964
20
-38.499999999999872
10
14.999999999999964
20
-42.499999999999865
10
-15.000000000000036
20
-42.500000000000057
0
LWPOLYLINE
5
102
100
AcDbEntity
8
0
100
AcDbPolyline
90
28
70
1
43
0.0
10
-15.000000000000036
20
-88.500000000000014
10
-26.500000000000039
20
-88.500000000000028
10
-26.500000000000039
20
-92.500000000000028
10
-56.500000000000057
20
-92.500000000000085
10
-56.500000000000043
20
-88.500000000000099
10
-68.000000000000043
20
-88.500000000000114
10
-68.000000000000043
20
-92.500000000000128
10
-79.000000000000057
20
-92.499999999999829
10
-79.000000000000057
20
-77.499999999999829
10
-83.000000000000043
20
-77.499999999999829
10
-83.000000000000043
20
-62.499999999999829
10
-79.000000000000057
20
-62.499999999999829
10
-79.000000000000057
20
-47.499999999999829
10
78.999999999999972
20
-47.499999999999844
10
78.999999999999972
20
-62.499999999999844
10
82.999999999999972
20
-62.499999999999844
10
82.999999999999972
20
-77.499999999999844
10
78.999999999999972
20
-77.499999999999844
10
78.999999999999972
20
-92.499999999999844
10
67.999999999999972
20
-92.499999999999844
10
67.999999999999972
20
-88.499999999999829
10
56.499999999999972
20
-88.499999999999829
10
56.499999999999972
20
-92.499999999999844
10
26.499999999999968
20
-92.499999999999844
10
26.499999999999968
20
-88.499999999999829
10
14.999999999999964
20
-88.499999999999829
10
14.999999999999964
20
-92.499999999999844
10
-15.000000000000036
20
-92.500000000000014
0
LWPOLYLINE
5
103
100
AcDbEntity
8
0
100
AcDbPolyline
90
28
70
1
43
0.0
10
56.5
20
-97.5
10
26.500000000000039
20
-97.5
10
26.500000000000039
20
-101.5
10
15.000000000000018
20
-101.5
10
15
20
-97.5
10
-14.999999999999964
20
-97.5
10
-14.999999999999964
20
-101.5
10
-26.499999999999986
20
-101.5
10
-26.499999999999986
20
-97.5
10
-56.499999999999972
20
-97.5
10
-56.499999999999972
20
-101.5
10
-67.999999999999986
20
-101.5
10
-67.999999999999986
20
-97.5
10
-82.999999999999972
20
-97.5
10
-82.999999999999972
20
-112.5
10
-78.999999999999972
20
-112.5
10
-78.999999999999972
20
-127.5
10
-82.999999999999972
20
-127.5
10
-82.999999999999972
20
-142.5
10
83.000000000000043
20
-142.5
10
83.000000000000043
20
-127.5
10
79.000000000000028
20
-127.5
10
79.000000000000057
20
-112.5
10
83.000000000000043
20
-112.5
10
83.000000000000043
20
-97.5
10
68.000000000000043
20
-97.5
10
68.000000000000043
20
-101.5
10
56.500000000000021
20
-101.5
0
LWPOLYLINE
5
104
100
AcDbEntity
8
0
100
AcDbPolyline
90
28
70
1
43
0.0
10
56.5
20
-147.5
10
26.500000000000039
20
-147.5
10
26.500000000000039
20
-151.5
10
15.000000000000018
20
-151.5
10
15
20
-147.5
10
-14.999999999999964
20
-147.5
10
-14.999999999999964
20
-151.5
10
-26.499999999999986
20
-151.5
10
-26.499999999999986
20
-147.5
10
-56.499999999999972
20
-147.5
10
-56.499999999999972
20
-151.5
10
-67.999999999999986
20
-151.5
10
-67.999999999999986
20
-147.5
10
-82.999999999999972
20
-147.5
10
-82.999999999999972
20
-162.5
10
-78.999999999999972
20
-162.5
10
-78.999999999999972
20
-177.5
10
-82.999999999999972
20
-177.5
10
-82.999999999999972
20
-192.5
10
83.000000000000043
20
-192.5
10
83.000000000000043
20
-177.5
10
79.000000000000028
20
-177.5
10
79.000000000000057
20
-162.5
10
83.000000000000043
20
-162.5
10
83.000000000000043
20
-147.5
10
68.000000000000043
20
-147.5
10
68.000000000000043
20
-151.5
10
56.500000000000021
20
-151.5
0
ENDSEC
0
SECTION
2
OBJECTS
0
DICTIONARY
5
C
100
AcDbDictionary
3
ACAD_GROUP
350
D
3
ACAD_MLINESTYLE
350
17
0
DICTIONARY
5
D
100
AcDbDictionary
0
DICTIONARY
5
1A
330
C
100
AcDbDictionary
0
DICTIONARY
5
17
100
AcDbDictionary
0
ENDSEC
0
EOF
