0
SECTION
2
HEADER
9
$INSUNITS
70
4
9
$ACADVER
1
AC1014
9
$HANDSEED
5
FFFF
0
ENDSEC
0
SECTION
2
TABLES
0
TABLE
2
VPORT
5
8
100
AcDbSymbolTable
0
ENDTAB
0
TABLE
2
LTYPE
5
5
100
AcDbSymbolTable
0
LTYPE
5
14
100
AcDbSymbolTableRecord
100
AcDbLinetypeTableRecord
2
BYBLOCK
70
0
0
LTYPE
5
15
100
AcDbSymbolTableRecord
100
AcDbLinetypeTableRecord
2
BYLAYER
70
0
0
ENDTAB
0
TABLE
2
LAYER
5
2
100
AcDbSymbolTable
70
2
0
LAYER
5
50
100
AcDbSymbolTableRecord
100
AcDbLayerTableRecord
2
0
70
0
6
CONTINUOUS
0
ENDTAB
0
TABLE
2
STYLE
5
3
100
AcDbSymbolTable
70
1
0
STYLE
5
11
100
AcDbSymbolTableRecord
100
AcDbTextStyleTableRecord
2
STANDARD
70
0
0
ENDTAB
0
TABLE
2
VIEW
5
6
100
AcDbSymbolTable
70
0
0
ENDTAB
0
TABLE
2
UCS
5
7
100
AcDbSymbolTable
70
0
0
ENDTAB
0
TABLE
2
APPID
5
9
100
AcDbSymbolTable
70
2
0
APPID
5
12
100
AcDbSymbolTableRecord
100
AcDbRegAppTableRecord
2
ACAD
70
0
0
ENDTAB
0
TABLE
2
DIMSTYLE
5
A
100
AcDbSymbolTable
70
1
0
ENDTAB
0
TABLE
2
BLOCK_RECORD
5
1
100
AcDbSymbolTable
70
1
0
BLOCK_RECORD
5
1F
100
AcDbSymbolTableRecord
100
AcDbBlockTableRecord
2
*MODEL_SPACE
0
BLOCK_RECORD
5
1B
100
AcDbSymbolTableRecord
100
AcDbBlockTableRecord
2
*PAPER_SPACE
0
ENDTAB
0
ENDSEC
0
SECTION
2
BLOCKS
0
BLOCK
5
20
100
AcDbEntity
100
AcDbBlockBegin
2
*MODEL_SPACE
0
ENDBLK
5
21
100
AcDbEntity
100
AcDbBlockEnd
0
BLOCK
5
1C
100
AcDbEntity
100
AcDbBlockBegin
2
*PAPER_SPACE
0
ENDBLK
5
1D
100
AcDbEntity
100
AcDbBlockEnd
0
ENDSEC
0
SECTION
2
ENTITIES
0
LWPOLYLINE
5
100
100
AcDbEntity
8
0
100
AcDbPolyline
90
24
70
1
43
0.0
10
281.75000000000045
20
82.499999999999716
10
398.25000000000017
20
82.499999999999716
10
398.25000000000017
20
67.499999999999773
10
402.25000000000017
20
67.499999999999773
10
402.25000000000017
20
52.499999999999822
10
398.25000000000017
20
52.499999999999815
10
398.25000000000017
20
37.499999999999865
10
387.25000000000017
20
37.499999999999865
10
387.25000000000017
20
41.499999999999851
10
375.75000000000017
20
41.499999999999851
10
375.75000000000023
20
37.499999999999865
10
345.75000000000023
20
37.499999999999865
10
345.75000000000023
20
41.499999999999851
10
334.25000000000023
20
41.499999999999851
10
334.25000000000023
20
37.499999999999865
10
304.25000000000034
20
37.499999999999865
10
304.25000000000034
20
41.499999999999851
10
292.75000000000034
20
41.499999999999851
10
292.75000000000034
20
37.499999999999865
10
281.7500000000004
20
37.499999999999872
10
281.7500000000004
20
52.499999999999822
10
277.7500000000004
20
52.499999999999822
10
277.7500000000004
20
67.499999999999773
10
281.7500000000004
20
67.499999999999773
0
LWPOLYLINE
5
101
100
AcDbEntity
8
0
100
AcDbPolyline
90
24
70
1
43
0.0
10
281.75
20
32.500000000000007
10
398.25
20
32.499999999999993
10
398.25
20
17.499999999999996
10
402.25
20
17.499999999999996
10
402.25
20
2.4999999999999956
10
398.25
20
2.499999999999996
10
398.25
20
-12.500000000000004
10
387.25
20
-12.500000000000004
10
387.25
20
-8.5000000000000036
10
375.75
20
-8.5000000000000018
10
375.75
20
-12.500000000000004
10
345.75
20
-12.5
10
345.75
20
-8.5
10
334.25000000000006
20
-8.5
10
334.25
20
-12.5
10
304.25
20
-12.499999999999998
10
304.25
20
-8.4999999999999982
10
292.75
20
-8.4999999999999982
10
292.75
20
-12.499999999999998
10
281.75
20
-12.499999999999998
10
281.75
20
2.5000000000000022
10
277.75
20
2.5000000000000022
10
277.75
20
17.500000000000004
10
281.75
20
17.500000000000004
0
LWPOLYLINE
5
102
100
AcDbEntity
8
0
100
AcDbPolyline
90
36
70
1
43
0.0
10
498
20
-17.5
10
468
20
-17.5
10
468
20
-21.5
10
456.5
20
-21.5
10
456.5
20
-17.5
10
426.5
20
-17.5
10
426.5
20
-21.5
10
415
20
-21.5
10
414.99999999999994
20
-17.5
10
385
20
-17.5
10
385
20
-21.5
10
373.49999999999994
20
-21.5
10
373.49999999999994
20
-17.5
10
343.49999999999994
20
-17.5
10
343.49999999999994
20
-21.5
10
331.99999999999994
20
-21.5
10
331.99999999999994
20
-17.5
10
301.99999999999994
20
-17.5
10
301.99999999999994
20
-21.5
10
290.5
20
-21.5
10
290.5
20
-17.5
10
275.5
20
-17.5
10
275.5
20
-32.5
10
279.49999999999994
20
-32.5
10
279.49999999999994
20
-47.5
10
275.5
20
-47.5
10
275.49999999999994
20
-62.5
10
524.5
20
-62.5
10
524.5
20
-47.5
10
520.5
20
-47.5
10
520.5
20
-32.5
10
524.5
20
-32.5
10
524.5
20
-17.5
10
509.49999999999994
20
-17.5
10
509.49999999999994
20
-21.5
10
498
20
-21.5
0
LWPOLYLINE
5
103
100
AcDbEntity
8
0
100
AcDbPolyline
90
36
70
1
43
0.0
10
524.4999999999992
20
-112.49999999999963
10
509.49999999999926
20
-112.49999999999963
10
509.49999999999932
20
-108.49999999999964
10
497.99999999999943
20
-108.49999999999964
10
497.99999999999943
20
-112.49999999999963
10
467.9999999999996
20
-112.49999999999963
10
467.99999999999955
20
-108.49999999999964
10
456.49999999999966
20
-108.49999999999964
10
456.49999999999966
20
-112.49999999999963
10
426.49999999999983
20
-112.49999999999963
10
426.49999999999983
20
-108.49999999999964
10
414.99999999999994
20
-108.49999999999964
10
414.99999999999994
20
-112.49999999999963
10
385.00000000000011
20
-112.49999999999963
10
385.00000000000011
20
-108.49999999999964
10
373.50000000000017
20
-108.49999999999964
10
373.50000000000017
20
-112.49999999999963
10
343.50000000000045
20
-112.49999999999963
10
343.50000000000034
20
-108.49999999999964
10
332.00000000000045
20
-108.49999999999964
10
332.00000000000045
20
-112.49999999999963
10
302.00000000000068
20
-112.49999999999963
10
302.00000000000063
20
-108.49999999999964
10
290.50000000000068
20
-108.49999999999964
10
290.50000000000068
20
-112.49999999999963
10
275.5000000000008
20
-112.49999999999963
10
275.5000000000008
20
-97.499999999999687
10
279.5000000000008
20
-97.499999999999687
10
279.5000000000008
20
-82.49999999999973
10
275.5000000000008
20
-82.49999999999973
10
275.5000000000008
20
-67.499999999999787
10
524.4999999999992
20
-67.499999999999787
10
524.4999999999992
20
-82.49999999999973
10
520.49999999999932
20
-82.49999999999973
10
520.49999999999932
20
-97.499999999999687
10
524.4999999999992
20
-97.499999999999687
0
LWPOLYLINE
5
104
100
AcDbEntity
8
0
100
AcDbPolyline
90
76
70
1
43
0.0
10
456.50000000000006
20
-117.75
10
456.50000000000006
20
-121.75
10
426.50000000000006
20
-121.75
10
426.5
20
-117.75
10
415
20
-117.75
10
415
20
-121.75
10
385.00000000000006
20
-121.75
10
385
20
-117.75
10
373.5
20
-117.75
10
373.5
20
-121.75
10
343.50000000000011
20
-121.75
10
343.5
20
-117.75
10
332
20
-117.75
10
332
20
-121.75
10
302
20
-121.75
10
302
20
-117.75
10
290.50000000000006
20
-117.75
10
290.50000000000006
20
-121.75
10
279.5
20
-121.75
10
279.5
20
-132.75
10
275.50000000000006
20
-132.75
10
275.50000000000006
20
-144.25
10
279.5
20
-144.25
10
279.5
20
-174.25
10
275.50000000000006
20
-174.25
10
275.50000000000006
20
-185.75000000000003
10
279.5
20
-185.75000000000003
10
279.5
20
-215.75000000000003
10
275.50000000000006
20
-215.75000000000003
10
275.50000000000006
20
-227.25
10
279.5
20
-227.25
10
279.5
20
-238.25000000000003
10
290.50000000000006
20
-238.25000000000003
10
290.50000000000006
20
-242.25
10
302
20
-242.25
10
302
20
-238.25000000000003
10
332
20
-238.25000000000003
10
332
20
-242.25
10
343.50000000000011
20
-242.25
10
343.5
20
-238.25000000000003
10
373.5
20
-238.25000000000003
10
373.5
20
-242.25
10
385.00000000000006
20
-242.25
10
385
20
-238.25000000000003
10
415
20
-238.25000000000003
10
415
20
-242.25
10
426.50000000000006
20
-242.25
10
426.50000000000006
20
-238.25000000000003
10
456.50000000000006
20
-238.25000000000003
10
456.50000000000006
20
-242.25
10
468.00000000000006
20
-242.25
10
468.00000000000011
20
-238.25000000000003
10
498.00000000000006
20
-238.25000000000003
10
498.00000000000006
20
-242.25
10
509.5
20
-242.25
10
509.5
20
-238.25000000000003
10
520.5
20
-238.25000000000003
10
520.5
20
-227.25
10
524.5
20
-227.25
10
524.5
20
-215.75000000000003
10
520.5
20
-215.75000000000003
10
520.5
20
-185.75000000000003
10
524.5
20
-185.75000000000003
10
524.5
20
-174.25
10
520.5
20
-174.25
10
520.5
20
-144.25
10
524.5
20
-144.25
10
524.5
20
-132.75
10
520.5
20
-132.75
10
520.5
20
-121.75
10
509.5
20
-121.75
10
509.5
20
-117.75
10
498.00000000000006
20
-117.75
10
498.00000000000006
20
-121.75
10
468.00000000000006
20
-121.75
10
468.00000000000006
20
-117.75
0
ENDSEC
0
SECTION
2
OBJECTS
0
DICTIONARY
5
C
100
AcDbDictionary
3
ACAD_GROUP
350
D
3
ACAD_MLINESTYLE
350
17
0
DICTIONARY
5
D
100
AcDbDictionary
0
DICTIONARY
5
1A
330
C
100
AcDbDictionary
0
DICTIONARY
5
17
100
AcDbDictionary
0
ENDSEC
0
EOF
