0
SECTION
2
HEADER
9
$INSUNITS
70
4
9
$ACADVER
1
AC1014
9
$HANDSEED
5
FFFF
0
ENDSEC
0
SECTION
2
TABLES
0
TABLE
2
VPORT
5
8
100
AcDbSymbolTable
0
ENDTAB
0
TABLE
2
LTYPE
5
5
100
AcDbSymbolTable
0
LTYPE
5
14
100
AcDbSymbolTableRecord
100
AcDbLinetypeTableRecord
2
BYBLOCK
70
0
0
LTYPE
5
15
100
AcDbSymbolTableRecord
100
AcDbLinetypeTableRecord
2
BYLAYER
70
0
0
ENDTAB
0
TABLE
2
LAYER
5
2
100
AcDbSymbolTable
70
2
0
LAYER
5
50
100
AcDbSymbolTableRecord
100
AcDbLayerTableRecord
2
0
70
0
6
CONTINUOUS
0
ENDTAB
0
TABLE
2
STYLE
5
3
100
AcDbSymbolTable
70
1
0
STYLE
5
11
100
AcDbSymbolTableRecord
100
AcDbTextStyleTableRecord
2
STANDARD
70
0
0
ENDTAB
0
TABLE
2
VIEW
5
6
100
AcDbSymbolTable
70
0
0
ENDTAB
0
TABLE
2
UCS
5
7
100
AcDbSymbolTable
70
0
0
ENDTAB
0
TABLE
2
APPID
5
9
100
AcDbSymbolTable
70
2
0
APPID
5
12
100
AcDbSymbolTableRecord
100
AcDbRegAppTableRecord
2
ACAD
70
0
0
ENDTAB
0
TABLE
2
DIMSTYLE
5
A
100
AcDbSymbolTable
70
1
0
ENDTAB
0
TABLE
2
BLOCK_RECORD
5
1
100
AcDbSymbolTable
70
1
0
BLOCK_RECORD
5
1F
100
AcDbSymbolTableRecord
100
AcDbBlockTableRecord
2
*MODEL_SPACE
0
BLOCK_RECORD
5
1B
100
AcDbSymbolTableRecord
100
AcDbBlockTableRecord
2
*PAPER_SPACE
0
ENDTAB
0
ENDSEC
0
SECTION
2
BLOCKS
0
BLOCK
5
20
100
AcDbEntity
100
AcDbBlockBegin
2
*MODEL_SPACE
0
ENDBLK
5
21
100
AcDbEntity
100
AcDbBlockEnd
0
BLOCK
5
1C
100
AcDbEntity
100
AcDbBlockBegin
2
*PAPER_SPACE
0
ENDBLK
5
1D
100
AcDbEntity
100
AcDbBlockEnd
0
ENDSEC
0
SECTION
2
ENTITIES
0
LWPOLYLINE
5
100
100
AcDbEntity
8
0
100
AcDbPolyline
90
100
70
1
43
0.0
10
-103.00000000000009
20
81.000000000000014
10
-96.999999999999886
20
80.999999999999943
10
-96.999999999999886
20
62.999999999999936
10
-103.00000000000004
20
62.999999999999936
10
-103.00000000000009
20
45
10
-96.999999999999886
20
44.999999999999929
10
-96.999999999999886
20
26.999999999999957
10
-103.00000000000004
20
26.999999999999957
10
-103.00000000000009
20
9.0000000000000213
10
-96.999999999999886
20
8.9999999999999503
10
-96.999999999999886
20
-9.0000000000000568
10
-103.00000000000004
20
-9.0000000000000568
10
-103.00000000000009
20
-26.999999999999975
10
-96.999999999999886
20
-27.000000000000046
10
-96.999999999999886
20
-45.000000000000057
10
-103.00000000000004
20
-45.000000000000057
10
-103.00000000000009
20
-62.999999999999972
10
-96.999999999999886
20
-63.000000000000043
10
-96.999999999999886
20
-81.000000000000057
10
-103.00000000000004
20
-81.000000000000057
10
-102.9999999999999
20
-105
10
-126.99999999999996
20
-105
10
-126.99999999999991
20
-111.00000000000001
10
-145.00000000003951
20
-111.00000000000001
10
-144.99999999999994
20
-105
10
-164.99999999999997
20
-105
10
-164.99999999999994
20
-111.00000000000001
10
-183.00000000003951
20
-111.00000000000001
10
-182.99999999999994
20
-105
10
-202.99999999999997
20
-105
10
-202.99999999999989
20
-111.00000000000001
10
-221.00000000003948
20
-111.00000000000001
10
-220.99999999999994
20
-105
10
-240.99999999999994
20
-105
10
-240.99999999999991
20
-111.00000000000001
10
-259.00000000003951
20
-111.00000000000001
10
-258.99999999999994
20
-105
10
-278.99999999999994
20
-105
10
-278.99999999999989
20
-111.00000000000001
10
-297.00000000003951
20
-111.00000000000001
10
-296.99999999999994
20
-105
10
-316.99999999999994
20
-105
10
-316.99999999999994
20
-111.00000000000001
10
-335.00000000003951
20
-111.00000000000001
10
-334.99999999999994
20
-105
10
-355
20
-105
10
-354.99999999999994
20
-111.00000000000001
10
-373.00000000003945
20
-111.00000000000001
10
-373
20
-105
10
-396.99999999999994
20
-104.99999999999997
10
-396.99999999999989
20
-81.000000000000156
10
-403.00000000000011
20
-81.000000000000156
10
-403.00000000000006
20
-63.000000000000149
10
-396.99999999999983
20
-63.000000000000078
10
-396.99999999999989
20
-45.000000000000156
10
-403.00000000000011
20
-45.000000000000156
10
-403.00000000000006
20
-27.000000000000153
10
-396.99999999999989
20
-27.000000000000082
10
-396.99999999999989
20
-9.0000000000001634
10
-403.00000000000011
20
-9.0000000000001634
10
-403.00000000000011
20
8.9999999999998437
10
-396.99999999999989
20
8.9999999999999147
10
-396.99999999999994
20
26.999999999999851
10
-403.00000000000011
20
26.999999999999851
10
-403.00000000000011
20
44.999999999999822
10
-396.99999999999989
20
44.999999999999893
10
-396.99999999999994
20
62.999999999999829
10
-403.00000000000017
20
62.999999999999829
10
-403.00000000000011
20
80.999999999999829
10
-396.99999999999994
20
80.999999999999915
10
-396.99999999999994
20
104.99999999999989
10
-373
20
105
10
-373.00000000003956
20
111.00000000000001
10
-354.99999999999994
20
111.00000000000001
10
-355
20
105
10
-335
20
105
10
-335.00000000003951
20
111.00000000000001
10
-316.99999999999994
20
111.00000000000001
10
-317
20
105
10
-297
20
105
10
-297.00000000003956
20
111.00000000000001
10
-278.99999999999994
20
111.00000000000001
10
-279
20
105
10
-259
20
105
10
-259.00000000003951
20
111.00000000000001
10
-240.99999999999994
20
111.00000000000001
10
-240.99999999999997
20
105
10
-220.99999999999997
20
105
10
-221.00000000003948
20
111.00000000000001
10
-202.99999999999994
20
111.00000000000001
10
-202.99999999999997
20
105
10
-182.99999999999997
20
105
10
-183.00000000003951
20
111.00000000000001
10
-164.99999999999994
20
111.00000000000001
10
-164.99999999999997
20
105
10
-144.99999999999997
20
105
10
-145.00000000003951
20
111.00000000000001
10
-126.99999999999991
20
111.00000000000001
10
-126.99999999999996
20
105
10
-103.00000000000009
20
105
0
ENDSEC
0
SECTION
2
OBJECTS
0
DICTIONARY
5
C
100
AcDbDictionary
3
ACAD_GROUP
350
D
3
ACAD_MLINESTYLE
350
17
0
DICTIONARY
5
D
100
AcDbDictionary
0
DICTIONARY
5
1A
330
C
100
AcDbDictionary
0
DICTIONARY
5
17
100
AcDbDictionary
0
ENDSEC
0
EOF
