0
SECTION
2
HEADER
9
$INSUNITS
70
4
9
$ACADVER
1
AC1014
9
$HANDSEED
5
FFFF
0
ENDSEC
0
SECTION
2
TABLES
0
TABLE
2
VPORT
5
8
100
AcDbSymbolTable
0
ENDTAB
0
TABLE
2
LTYPE
5
5
100
AcDbSymbolTable
0
LTYPE
5
14
100
AcDbSymbolTableRecord
100
AcDbLinetypeTableRecord
2
BYBLOCK
70
0
0
LTYPE
5
15
100
AcDbSymbolTableRecord
100
AcDbLinetypeTableRecord
2
BYLAYER
70
0
0
ENDTAB
0
TABLE
2
LAYER
5
2
100
AcDbSymbolTable
70
2
0
LAYER
5
50
100
AcDbSymbolTableRecord
100
AcDbLayerTableRecord
2
0
70
0
6
CONTINUOUS
0
ENDTAB
0
TABLE
2
STYLE
5
3
100
AcDbSymbolTable
70
1
0
STYLE
5
11
100
AcDbSymbolTableRecord
100
AcDbTextStyleTableRecord
2
STANDARD
70
0
0
ENDTAB
0
TABLE
2
VIEW
5
6
100
AcDbSymbolTable
70
0
0
ENDTAB
0
TABLE
2
UCS
5
7
100
AcDbSymbolTable
70
0
0
ENDTAB
0
TABLE
2
APPID
5
9
100
AcDbSymbolTable
70
2
0
APPID
5
12
100
AcDbSymbolTableRecord
100
AcDbRegAppTableRecord
2
ACAD
70
0
0
ENDTAB
0
TABLE
2
DIMSTYLE
5
A
100
AcDbSymbolTable
70
1
0
ENDTAB
0
TABLE
2
BLOCK_RECORD
5
1
100
AcDbSymbolTable
70
1
0
BLOCK_RECORD
5
1F
100
AcDbSymbolTableRecord
100
AcDbBlockTableRecord
2
*MODEL_SPACE
0
BLOCK_RECORD
5
1B
100
AcDbSymbolTableRecord
100
AcDbBlockTableRecord
2
*PAPER_SPACE
0
ENDTAB
0
ENDSEC
0
SECTION
2
BLOCKS
0
BLOCK
5
20
100
AcDbEntity
100
AcDbBlockBegin
2
*MODEL_SPACE
0
ENDBLK
5
21
100
AcDbEntity
100
AcDbBlockEnd
0
BLOCK
5
1C
100
AcDbEntity
100
AcDbBlockBegin
2
*PAPER_SPACE
0
ENDBLK
5
1D
100
AcDbEntity
100
AcDbBlockEnd
0
ENDSEC
0
SECTION
2
ENTITIES
0
LWPOLYLINE
5
100
100
AcDbEntity
8
0
100
AcDbPolyline
90
52
70
1
43
0.0
10
747.50000000000023
20
15
10
747.50000000000023
20
-14.999999999999991
10
751.50000000000034
20
-15
10
751.50000000000023
20
-26.500000000000004
10
747.50000000000023
20
-26.499999999999993
10
747.50000000000023
20
-56.499999999999993
10
751.50000000000034
20
-56.499999999999986
10
751.50000000000023
20
-67.999999999999986
10
747.50000000000023
20
-67.999999999999986
10
747.50000000000023
20
-78.999999999999986
10
736.50000000000023
20
-78.999999999999986
10
736.50000000000023
20
-82.999999999999986
10
725.00000000000011
20
-82.999999999999986
10
725.00000000000023
20
-78.999999999999986
10
695.00000000000023
20
-78.999999999999986
10
695.00000000000023
20
-82.999999999999986
10
683.50000000000023
20
-82.999999999999986
10
683.50000000000023
20
-78.999999999999986
10
672.50000000000023
20
-78.999999999999986
10
672.50000000000011
20
-67.999999999999986
10
668.50000000000011
20
-67.999999999999986
10
668.50000000000023
20
-56.499999999999986
10
672.50000000000011
20
-56.499999999999986
10
672.50000000000011
20
-26.5
10
668.50000000000011
20
-26.499999999999993
10
668.50000000000023
20
-15
10
672.50000000000011
20
-15
10
672.50000000000011
20
14.999999999999991
10
668.50000000000011
20
15
10
668.50000000000023
20
26.500000000000004
10
672.50000000000011
20
26.500000000000004
10
672.50000000000011
20
56.499999999999993
10
668.50000000000011
20
56.499999999999986
10
668.50000000000023
20
67.999999999999986
10
672.50000000000011
20
67.999999999999986
10
672.50000000000011
20
79
10
683.50000000000023
20
79
10
683.50000000000023
20
82.999999999999986
10
695.00000000000023
20
82.999999999999986
10
695.00000000000023
20
79
10
725.00000000000023
20
79
10
725.00000000000023
20
82.999999999999986
10
736.50000000000023
20
82.999999999999986
10
736.50000000000023
20
79
10
747.50000000000011
20
79
10
747.50000000000023
20
67.999999999999986
10
751.50000000000034
20
67.999999999999986
10
751.50000000000023
20
56.499999999999986
10
747.50000000000023
20
56.499999999999986
10
747.50000000000023
20
26.500000000000004
10
751.50000000000034
20
26.500000000000004
10
751.50000000000023
20
15
0
LWPOLYLINE
5
101
100
AcDbEntity
8
0
100
AcDbPolyline
90
28
70
1
43
0.0
10
607.50000000000045
20
56.499999999999929
10
611.50000000000045
20
56.499999999999929
10
611.50000000000045
20
67.999999999999915
10
607.50000000000045
20
67.999999999999915
10
607.50000000000045
20
78.999999999999929
10
622.50000000000045
20
78.999999999999929
10
622.50000000000045
20
82.999999999999915
10
637.50000000000057
20
82.999999999999915
10
637.50000000000057
20
78.999999999999929
10
652.50000000000057
20
78.999999999999929
10
652.50000000000057
20
-79.000000000000028
10
637.50000000000057
20
-79.000000000000028
10
637.50000000000057
20
-83.000000000000028
10
622.50000000000057
20
-83.000000000000028
10
622.50000000000045
20
-79.000000000000028
10
607.50000000000045
20
-79.000000000000028
10
607.50000000000045
20
-68.000000000000028
10
611.50000000000045
20
-68.000000000000028
10
611.50000000000045
20
-56.500000000000043
10
607.50000000000045
20
-56.500000000000043
10
607.50000000000045
20
-26.50000000000005
10
611.50000000000045
20
-26.50000000000005
10
611.50000000000045
20
-15.00000000000005
10
607.50000000000045
20
-15.000000000000039
10
607.50000000000045
20
14.999999999999947
10
611.50000000000045
20
14.999999999999947
10
611.50000000000045
20
26.499999999999932
10
607.50000000000045
20
26.499999999999947
0
LWPOLYLINE
5
102
100
AcDbEntity
8
0
100
AcDbPolyline
90
28
70
1
43
0.0
10
588.49999999999932
20
56.499999999999631
10
592.49999999999932
20
56.499999999999631
10
592.49999999999932
20
26.499999999999826
10
588.49999999999932
20
26.499999999999826
10
588.49999999999932
20
14.999999999999893
10
592.49999999999932
20
14.999999999999893
10
592.49999999999932
20
-14.999999999999929
10
588.49999999999932
20
-14.999999999999929
10
588.49999999999932
20
-26.499999999999861
10
592.49999999999932
20
-26.499999999999861
10
592.49999999999932
20
-56.499999999999666
10
588.49999999999932
20
-56.499999999999666
10
588.49999999999932
20
-67.999999999999602
10
592.49999999999932
20
-67.999999999999602
10
592.49999999999932
20
-78.999999999999531
10
577.49999999999932
20
-78.999999999999531
10
577.49999999999932
20
-82.999999999999517
10
562.49999999999943
20
-82.999999999999517
10
562.49999999999943
20
-78.999999999999531
10
547.49999999999943
20
-78.999999999999545
10
547.49999999999955
20
78.999999999999517
10
562.49999999999943
20
78.999999999999517
10
562.49999999999943
20
82.999999999999488
10
577.49999999999932
20
82.999999999999474
10
577.49999999999932
20
78.999999999999517
10
592.49999999999932
20
78.999999999999517
10
592.49999999999932
20
67.999999999999559
10
588.49999999999932
20
67.999999999999559
0
LWPOLYLINE
5
103
100
AcDbEntity
8
0
100
AcDbPolyline
90
20
70
1
43
0.0
10
509.99999999999966
20
22.500000000000036
10
509.99999999999966
20
18.500000000000028
10
521.49999999999966
20
18.500000000000028
10
521.49999999999966
20
22.500000000000036
10
536.49999999999966
20
22.500000000000036
10
536.49999999999966
20
7.5000000000000133
10
532.49999999999966
20
7.5000000000000133
10
532.49999999999966
20
-7.5000000000000089
10
536.49999999999966
20
-7.5000000000000089
10
536.49999999999966
20
-22.500000000000032
10
453.49999999999972
20
-22.500000000000036
10
453.49999999999972
20
-7.5000000000000089
10
457.49999999999972
20
-7.5000000000000089
10
457.49999999999972
20
7.5000000000000133
10
453.49999999999972
20
7.5000000000000133
10
453.49999999999972
20
22.500000000000036
10
468.49999999999972
20
22.500000000000036
10
468.49999999999972
20
18.500000000000028
10
479.99999999999972
20
18.500000000000028
10
479.99999999999972
20
22.500000000000036
0
LWPOLYLINE
5
104
100
AcDbEntity
8
0
100
AcDbPolyline
90
20
70
1
43
0.0
10
509.99999999999972
20
41.500000000000021
10
509.99999999999972
20
37.500000000000014
10
479.99999999999989
20
37.500000000000021
10
479.99999999999989
20
41.500000000000021
10
468.49999999999977
20
41.500000000000021
10
468.49999999999977
20
37.500000000000014
10
453.49999999999989
20
37.500000000000021
10
453.49999999999989
20
52.500000000000028
10
457.49999999999989
20
52.500000000000028
10
457.49999999999989
20
67.500000000000028
10
453.49999999999989
20
67.500000000000028
10
453.49999999999989
20
82.500000000000028
10
536.49999999999966
20
82.500000000000028
10
536.49999999999966
20
67.500000000000028
10
532.49999999999977
20
67.500000000000028
10
532.49999999999977
20
52.500000000000028
10
536.49999999999966
20
52.500000000000028
10
536.49999999999966
20
37.500000000000021
10
521.49999999999966
20
37.500000000000021
10
521.49999999999977
20
41.500000000000021
0
ENDSEC
0
SECTION
2
OBJECTS
0
DICTIONARY
5
C
100
AcDbDictionary
3
ACAD_GROUP
350
D
3
ACAD_MLINESTYLE
350
17
0
DICTIONARY
5
D
100
AcDbDictionary
0
DICTIONARY
5
1A
330
C
100
AcDbDictionary
0
DICTIONARY
5
17
100
AcDbDictionary
0
ENDSEC
0
EOF
