  0
SECTION
  2
HEADER
  9
$ACADVER
  1
AC1014
  9
$ACADMAINTVER
 70
     9
  9
$DWGCODEPAGE
  3
ANSI_1252
  9
$INSBASE
 10
0.0
 20
0.0
 30
0.0
  9
$EXTMIN
 10
0.2499982603479225
 20
0.7753263035102975
 30
-2.25843476866936
  9
$EXTMAX
 10
35.54244556858303
 20
23.70947756161936
 30
0.0
  9
$LIMMIN
 10
0.0
 20
0.0
  9
$LIMMAX
 10
12.0
 20
9.0
  9
$ORTHOMODE
 70
     0
  9
$REGENMODE
 70
     1
  9
$FILLMODE
 70
     1
  9
$QTEXTMODE
 70
     0
  9
$MIRRTEXT
 70
     1
  9
$DRAGMODE
 70
     2
  9
$LTSCALE
 40
100.0
  9
$OSMODE
 70
    37
  9
$ATTMODE
 70
     1
  9
$TEXTSIZE
 40
0.2
  9
$TRACEWID
 40
0.05
  9
$TEXTSTYLE
  7
STANDARD
  9
$CLAYER
  8
0
  9
$CELTYPE
  6
BYLAYER
  9
$CECOLOR
 62
   256
  9
$CELTSCALE
 40
1.0
  9
$DELOBJ
 70
     1
  9
$DISPSILH
 70
     0
  9
$DIMSCALE
 40
1.0
  9
$DIMASZ
 40
0.18
  9
$DIMEXO
 40
0.0625
  9
$DIMDLI
 40
0.38
  9
$DIMRND
 40
0.0
  9
$DIMDLE
 40
0.0
  9
$DIMEXE
 40
0.18
  9
$DIMTP
 40
0.0
  9
$DIMTM
 40
0.0
  9
$DIMTXT
 40
0.18
  9
$DIMCEN
 40
0.09
  9
$DIMTSZ
 40
0.0
  9
$DIMTOL
 70
     0
  9
$DIMLIM
 70
     0
  9
$DIMTIH
 70
     1
  9
$DIMTOH
 70
     1
  9
$DIMSE1
 70
     0
  9
$DIMSE2
 70
     0
  9
$DIMTAD
 70
     0
  9
$DIMZIN
 70
     0
  9
$DIMBLK
  1

  9
$DIMASO
 70
     1
  9
$DIMSHO
 70
     1
  9
$DIMPOST
  1

  9
$DIMAPOST
  1

  9
$DIMALT
 70
     0
  9
$DIMALTD
 70
     2
  9
$DIMALTF
 40
25.4
  9
$DIMLFAC
 40
1.0
  9
$DIMTOFL
 70
     0
  9
$DIMTVP
 40
0.0
  9
$DIMTIX
 70
     0
  9
$DIMSOXD
 70
     0
  9
$DIMSAH
 70
     0
  9
$DIMBLK1
  1

  9
$DIMBLK2
  1

  9
$DIMSTYLE
  2
STANDARD_ACAD
  9
$DIMCLRD
 70
     0
  9
$DIMCLRE
 70
     0
  9
$DIMCLRT
 70
     0
  9
$DIMTFAC
 40
1.0
  9
$DIMGAP
 40
0.09
  9
$DIMJUST
 70
     0
  9
$DIMSD1
 70
     0
  9
$DIMSD2
 70
     0
  9
$DIMTOLJ
 70
     1
  9
$DIMTZIN
 70
     0
  9
$DIMALTZ
 70
     0
  9
$DIMALTTZ
 70
     0
  9
$DIMFIT
 70
     5
  9
$DIMUPT
 70
     0
  9
$DIMUNIT
 70
     2
  9
$DIMDEC
 70
     4
  9
$DIMTDEC
 70
     4
  9
$DIMALTU
 70
     2
  9
$DIMALTTD
 70
     2
  9
$DIMTXSTY
  7
STANDARD
  9
$DIMAUNIT
 70
     0
  9
$LUNITS
 70
     4
  9
$LUPREC
 70
     2
  9
$SKETCHINC
 40
0.1
  9
$FILLETRAD
 40
0.0
  9
$AUNITS
 70
     0
  9
$AUPREC
 70
     0
  9
$MENU
  1
.
  9
$ELEVATION
 40
0.0
  9
$PELEVATION
 40
0.0
  9
$THICKNESS
 40
0.0
  9
$LIMCHECK
 70
     0
  9
$CHAMFERA
 40
0.0
  9
$CHAMFERB
 40
0.0
  9
$CHAMFERC
 40
0.0
  9
$CHAMFERD
 40
0.0
  9
$SKPOLY
 70
     0
  9
$TDCREATE
 40
2460647.203290602
  9
$TDUPDATE
 40
2460702.834447616
  9
$TDINDWG
 40
0.0000000116
  9
$TDUSRTIMER
 40
0.0000000116
  9
$USRTIMER
 70
     1
  9
$ANGBASE
 50
0.0
  9
$ANGDIR
 70
     0
  9
$PDMODE
 70
     0
  9
$PDSIZE
 40
0.0
  9
$PLINEWID
 40
0.0
  9
$COORDS
 70
     1
  9
$SPLFRAME
 70
     0
  9
$SPLINETYPE
 70
     6
  9
$SPLINESEGS
 70
     8
  9
$ATTDIA
 70
     1
  9
$ATTREQ
 70
     1
  9
$HANDLING
 70
     1
  9
$HANDSEED
  5
42B
  9
$SURFTAB1
 70
     6
  9
$SURFTAB2
 70
     6
  9
$SURFTYPE
 70
     6
  9
$SURFU
 70
     6
  9
$SURFV
 70
     6
  9
$UCSNAME
  2

  9
$UCSORG
 10
0.0
 20
0.0
 30
0.0
  9
$UCSXDIR
 10
1.0
 20
0.0
 30
0.0
  9
$UCSYDIR
 10
0.0
 20
1.0
 30
0.0
  9
$PUCSNAME
  2

  9
$PUCSORG
 10
0.0
 20
0.0
 30
0.0
  9
$PUCSXDIR
 10
1.0
 20
0.0
 30
0.0
  9
$PUCSYDIR
 10
0.0
 20
1.0
 30
0.0
  9
$USERI1
 70
     0
  9
$USERI2
 70
     0
  9
$USERI3
 70
     0
  9
$USERI4
 70
     0
  9
$USERI5
 70
     0
  9
$USERR1
 40
0.0
  9
$USERR2
 40
0.0
  9
$USERR3
 40
0.0
  9
$USERR4
 40
0.0
  9
$USERR5
 40
0.0
  9
$WORLDVIEW
 70
     1
  9
$SHADEDGE
 70
     3
  9
$SHADEDIF
 70
    70
  9
$TILEMODE
 70
     1
  9
$MAXACTVP
 70
    64
  9
$PINSBASE
 10
0.0
 20
0.0
 30
0.0
  9
$PLIMCHECK
 70
     0
  9
$PEXTMIN
 10
1.000000000000000E+20
 20
1.000000000000000E+20
 30
1.000000000000000E+20
  9
$PEXTMAX
 10
-1.000000000000000E+20
 20
-1.000000000000000E+20
 30
-1.000000000000000E+20
  9
$PLIMMIN
 10
0.0
 20
0.0
  9
$PLIMMAX
 10
12.0
 20
9.0
  9
$UNITMODE
 70
     0
  9
$VISRETAIN
 70
     1
  9
$PLINEGEN
 70
     0
  9
$PSLTSCALE
 70
     1
  9
$TREEDEPTH
 70
  3020
  9
$PICKSTYLE
 70
     1
  9
$CMLSTYLE
  2
STANDARD
  9
$CMLJUST
 70
     0
  9
$CMLSCALE
 40
1.0
  9
$PROXYGRAPHICS
 70
     1
  9
$MEASUREMENT
 70
     0
  0
ENDSEC
  0
SECTION
  2
CLASSES
  0
CLASS
  1
ACDBDICTIONARYWDFLT
  2
AcDbDictionaryWithDefault
  3
ObjectDBX Classes
 90
        0
280
     0
281
     0
  0
CLASS
  1
VISUALSTYLE
  2
AcDbVisualStyle
  3
ObjectDBX Classes
 90
     4095
280
     0
281
     0
  0
CLASS
  1
MATERIAL
  2
AcDbMaterial
  3
ObjectDBX Classes
 90
     1153
280
     0
281
     0
  0
CLASS
  1
SCALE
  2
AcDbScale
  3
ObjectDBX Classes
 90
     1153
280
     0
281
     0
  0
CLASS
  1
TABLESTYLE
  2
AcDbTableStyle
  3
ObjectDBX Classes
 90
     4095
280
     0
281
     0
  0
CLASS
  1
MLEADERSTYLE
  2
AcDbMLeaderStyle
  3
ACDB_MLEADERSTYLE_CLASS
 90
     4095
280
     0
281
     0
  0
CLASS
  1
SUN
  2
AcDbSun
  3
SCENEOE
 90
     1153
280
     0
281
     0
  0
CLASS
  1
DICTIONARYVAR
  2
AcDbDictionaryVar
  3
ObjectDBX Classes
 90
        0
280
     0
281
     0
  0
CLASS
  1
CELLSTYLEMAP
  2
AcDbCellStyleMap
  3
ObjectDBX Classes
 90
     1152
280
     0
281
     0
  0
CLASS
  1
XRECORD
  2
AcDbXrecord
  3
ObjectDBX Classes
 90
        0
280
     0
281
     0
  0
CLASS
  1
LWPOLYLINE
  2
AcDbPolyline
  3
ObjectDBX Classes
 90
        0
280
     0
281
     1
  0
CLASS
  1
HATCH
  2
AcDbHatch
  3
ObjectDBX Classes
 90
        0
280
     0
281
     1
  0
CLASS
  1
ACDBPLACEHOLDER
  2
AcDbPlaceHolder
  3
ObjectDBX Classes
 90
        0
280
     0
281
     0
  0
CLASS
  1
LAYOUT
  2
AcDbLayout
  3
ObjectDBX Classes
 90
        0
280
     0
281
     0
  0
ENDSEC
  0
SECTION
  2
TABLES
  0
TABLE
  2
VPORT
  5
8
102
{ACAD_XDICTIONARY
360
422
102
}
330
0
100
AcDbSymbolTable
 70
     1
  0
VPORT
  5
29
330
8
100
AcDbSymbolTableRecord
100
AcDbViewportTableRecord
  2
*ACTIVE
 70
     0
 10
0.0
 20
0.0
 11
1.0
 21
1.0
 12
10.42990654205607
 22
4.5
 13
0.0
 23
0.0
 14
0.5
 24
0.5
 15
0.5
 25
0.5
 16
0.0
 26
0.0
 36
1.0
 17
0.0
 27
0.0
 37
0.0
 40
9.0
 41
1.972972972850329
 42
50.0
 43
0.0
 44
0.0
 50
0.0
 51
0.0
 71
     0
 72
   100
 73
     1
 74
     3
 75
     0
 76
     0
 77
     0
 78
     0
  0
ENDTAB
  0
TABLE
  2
LTYPE
  5
5
330
0
100
AcDbSymbolTable
 70
     1
  0
LTYPE
  5
14
330
5
100
AcDbSymbolTableRecord
100
AcDbLinetypeTableRecord
  2
BYBLOCK
 70
     0
  3

 72
    65
 73
     0
 40
0.0
  0
LTYPE
  5
15
330
5
100
AcDbSymbolTableRecord
100
AcDbLinetypeTableRecord
  2
BYLAYER
 70
     0
  3

 72
    65
 73
     0
 40
0.0
  0
LTYPE
  5
16
330
5
100
AcDbSymbolTableRecord
100
AcDbLinetypeTableRecord
  2
CONTINUOUS
 70
     0
  3
Solid line
 72
    65
 73
     0
 40
0.0
  0
ENDTAB
  0
TABLE
  2
LAYER
  5
2
330
0
100
AcDbSymbolTable
 70
     2
  0
LAYER
  5
10
330
2
100
AcDbSymbolTableRecord
100
AcDbLayerTableRecord
  2
0
 70
     0
 62
     7
  6
CONTINUOUS
  0
LAYER
  5
5F
330
2
100
AcDbSymbolTableRecord
100
AcDbLayerTableRecord
  2
PROJECT$CURVES
 70
     0
 62
    18
  6
CONTINUOUS
  0
ENDTAB
  0
TABLE
  2
STYLE
  5
3
330
0
100
AcDbSymbolTable
 70
     1
  0
STYLE
  5
11
330
3
100
AcDbSymbolTableRecord
100
AcDbTextStyleTableRecord
  2
STANDARD
 70
     0
 40
0.0
 41
1.0
 50
0.0
 71
     0
 42
0.2
  3
txt
  4

  0
ENDTAB
  0
TABLE
  2
VIEW
  5
6
330
0
100
AcDbSymbolTable
 70
     0
  0
ENDTAB
  0
TABLE
  2
UCS
  5
7
330
0
100
AcDbSymbolTable
 70
     0
  0
ENDTAB
  0
TABLE
  2
APPID
  5
9
330
0
100
AcDbSymbolTable
 70
     3
  0
APPID
  5
12
330
9
100
AcDbSymbolTableRecord
100
AcDbRegAppTableRecord
  2
ACAD
 70
     0
  0
APPID
  5
5E
330
9
100
AcDbSymbolTableRecord
100
AcDbRegAppTableRecord
  2
RHINO
 70
     0
  0
APPID
  5
3F6
330
9
100
AcDbSymbolTableRecord
100
AcDbRegAppTableRecord
  2
ACAD_MLEADERVER
 70
     0
  0
ENDTAB
  0
TABLE
  2
DIMSTYLE
  5
A
330
0
100
AcDbSymbolTable
 70
     1
  0
DIMSTYLE
105
27
330
A
100
AcDbSymbolTableRecord
100
AcDbDimStyleTableRecord
  2
STANDARD_ACAD
 70
     0
  3

  4

  5

  6

  7

 40
1.0
 41
0.18
 42
0.0625
 43
0.38
 44
0.18
 45
0.0
 46
0.0
 47
0.0
 48
0.0
140
0.18
141
0.09
142
0.0
143
25.4
144
1.0
145
0.0
146
1.0
147
0.09
 71
     0
 72
     0
 73
     1
 74
     1
 75
     0
 76
     0
 77
     0
 78
     0
170
     0
171
     2
172
     0
173
     0
174
     0
175
     0
176
     0
177
     0
178
     0
270
     2
271
     4
272
     4
273
     2
274
     2
340
11
275
     0
280
     0
281
     0
282
     0
283
     1
284
     0
285
     0
286
     0
287
     3
288
     0
  0
ENDTAB
  0
TABLE
  2
BLOCK_RECORD
  5
1
330
0
100
AcDbSymbolTable
 70
     0
  0
BLOCK_RECORD
  5
1F
330
1
100
AcDbSymbolTableRecord
100
AcDbBlockTableRecord
  2
*MODEL_SPACE
  0
BLOCK_RECORD
  5
1B
330
1
100
AcDbSymbolTableRecord
100
AcDbBlockTableRecord
  2
*PAPER_SPACE
  0
ENDTAB
  0
ENDSEC
  0
SECTION
  2
BLOCKS
  0
BLOCK
  5
20
330
1F
100
AcDbEntity
  8
0
100
AcDbBlockBegin
  2
*MODEL_SPACE
 70
     0
 10
0.0
 20
0.0
 30
0.0
  3
*MODEL_SPACE
  1

  0
ENDBLK
  5
21
330
1F
100
AcDbEntity
  8
0
100
AcDbBlockEnd
  0
BLOCK
  5
1C
330
1B
100
AcDbEntity
 67
     1
  8
0
100
AcDbBlockBegin
  2
*PAPER_SPACE
 70
     0
 10
0.0
 20
0.0
 30
0.0
  3
*PAPER_SPACE
  1

  0
ENDBLK
  5
1D
330
1B
100
AcDbEntity
 67
     1
  8
0
100
AcDbBlockEnd
  0
ENDSEC
  0
SECTION
  2
ENTITIES
  0
POLYLINE
  5
60
330
1F
100
AcDbEntity
  8
PROJECT$CURVES
 62
     1
100
AcDb2dPolyline
 66
     1
 10
0.0
 20
0.0
 30
0.0
  0
VERTEX
  5
61
330
60
100
AcDbEntity
  8
PROJECT$CURVES
 62
     1
100
AcDbVertex
100
AcDb2dVertex
 10
3.51414814581163
 20
10.48713718954948
 30
0.0
  0
VERTEX
  5
62
330
60
100
AcDbEntity
  8
PROJECT$CURVES
 62
     1
100
AcDbVertex
100
AcDb2dVertex
 10
3.569194916522759
 20
10.51673622727497
 30
0.0
  0
VERTEX
  5
63
330
60
100
AcDbEntity
  8
PROJECT$CURVES
 62
     1
100
AcDbVertex
100
AcDb2dVertex
 10
3.624241687233889
 20
10.54633526500046
 30
0.0
  0
SEQEND
  5
64
330
60
100
AcDbEntity
  8
PROJECT$CURVES
 62
     1
  0
POLYLINE
  5
65
330
1F
100
AcDbEntity
  8
PROJECT$CURVES
 62
     1
100
AcDb2dPolyline
 66
     1
 10
0.0
 20
0.0
 30
0.0
  0
VERTEX
  5
66
330
65
100
AcDbEntity
  8
PROJECT$CURVES
 62
     1
100
AcDbVertex
100
AcDb2dVertex
 10
1.468933423098134
 20
7.695297459436516
 30
0.0
  0
VERTEX
  5
67
330
65
100
AcDbEntity
  8
PROJECT$CURVES
 62
     1
100
AcDbVertex
100
AcDb2dVertex
 10
1.441328171527642
 20
7.751370626689036
 30
0.0
  0
VERTEX
  5
68
330
65
100
AcDbEntity
  8
PROJECT$CURVES
 62
     1
100
AcDbVertex
100
AcDb2dVertex
 10
1.41372291995715
 20
7.807443793941557
 30
0.0
  0
SEQEND
  5
69
330
65
100
AcDbEntity
  8
PROJECT$CURVES
 62
     1
  0
POLYLINE
  5
6A
330
1F
100
AcDbEntity
  8
PROJECT$CURVES
 62
     1
100
AcDb2dPolyline
 66
     1
 10
0.0
 20
0.0
 30
0.0
  0
VERTEX
  5
6B
330
6A
100
AcDbEntity
  8
PROJECT$CURVES
 62
     1
100
AcDbVertex
100
AcDb2dVertex
 10
9.437677308116845
 20
10.99578570594096
 30
0.0
  0
VERTEX
  5
6C
330
6A
100
AcDbEntity
  8
PROJECT$CURVES
 62
     1
100
AcDbVertex
100
AcDb2dVertex
 10
9.46837246779229
 20
10.94134255051716
 30
0.0
  0
VERTEX
  5
6D
330
6A
100
AcDbEntity
  8
PROJECT$CURVES
 62
     1
100
AcDbVertex
100
AcDb2dVertex
 10
9.499067627467737
 20
10.88689939509336
 30
0.0
  0
SEQEND
  5
6E
330
6A
100
AcDbEntity
  8
PROJECT$CURVES
 62
     1
  0
POLYLINE
  5
6F
330
1F
100
AcDbEntity
  8
PROJECT$CURVES
 62
     1
100
AcDb2dPolyline
 66
     1
 10
0.0
 20
0.0
 30
0.0
  0
VERTEX
  5
70
330
6F
100
AcDbEntity
  8
PROJECT$CURVES
 62
     1
100
AcDbVertex
100
AcDb2dVertex
 10
7.26630885411886
 20
7.780090619210908
 30
0.0
  0
VERTEX
  5
71
330
6F
100
AcDbEntity
  8
PROJECT$CURVES
 62
     1
100
AcDbVertex
100
AcDb2dVertex
 10
7.210798386371392
 20
7.751370626689036
 30
0.0
  0
VERTEX
  5
72
330
6F
100
AcDbEntity
  8
PROJECT$CURVES
 62
     1
100
AcDbVertex
100
AcDb2dVertex
 10
7.155287918623925
 20
7.722650634167165
 30
0.0
  0
SEQEND
  5
73
330
6F
100
AcDbEntity
  8
PROJECT$CURVES
 62
     1
  0
POLYLINE
  5
74
330
1F
100
AcDbEntity
  8
PROJECT$CURVES
 62
     1
100
AcDb2dPolyline
 66
     1
 10
0.0
 20
0.0
 30
0.0
  0
VERTEX
  5
75
330
74
100
AcDbEntity
  8
PROJECT$CURVES
 62
     1
100
AcDbVertex
100
AcDb2dVertex
 10
3.539595878797256
 20
10.5717829979861
 30
0.0
  0
VERTEX
  5
76
330
74
100
AcDbEntity
  8
PROJECT$CURVES
 62
     1
100
AcDbVertex
100
AcDb2dVertex
 10
3.569194916522759
 20
10.51673622727497
 30
0.0
  0
VERTEX
  5
77
330
74
100
AcDbEntity
  8
PROJECT$CURVES
 62
     1
100
AcDbVertex
100
AcDb2dVertex
 10
3.598793954248249
 20
10.46168945656384
 30
0.0
  0
SEQEND
  5
78
330
74
100
AcDbEntity
  8
PROJECT$CURVES
 62
     1
  0
POLYLINE
  5
79
330
1F
100
AcDbEntity
  8
PROJECT$CURVES
 62
     1
100
AcDb2dPolyline
 66
     1
 10
0.0
 20
0.0
 30
0.0
  0
VERTEX
  5
7A
330
79
100
AcDbEntity
  8
PROJECT$CURVES
 62
     1
100
AcDbVertex
100
AcDb2dVertex
 10
1.385255004275093
 20
7.723765375118544
 30
0.0
  0
VERTEX
  5
7B
330
79
100
AcDbEntity
  8
PROJECT$CURVES
 62
     1
100
AcDbVertex
100
AcDb2dVertex
 10
1.441328171527642
 20
7.751370626689036
 30
0.0
  0
VERTEX
  5
7C
330
79
100
AcDbEntity
  8
PROJECT$CURVES
 62
     1
100
AcDbVertex
100
AcDb2dVertex
 10
1.497401338780163
 20
7.778975878259528
 30
0.0
  0
SEQEND
  5
7D
330
79
100
AcDbEntity
  8
PROJECT$CURVES
 62
     1
  0
POLYLINE
  5
7E
330
1F
100
AcDbEntity
  8
PROJECT$CURVES
 62
     1
100
AcDb2dPolyline
 66
     1
 10
0.0
 20
0.0
 30
0.0
  0
VERTEX
  5
7F
330
7E
100
AcDbEntity
  8
PROJECT$CURVES
 62
     1
100
AcDbVertex
100
AcDb2dVertex
 10
9.522815623216088
 20
10.97203771019261
 30
0.0
  0
VERTEX
  5
80
330
7E
100
AcDbEntity
  8
PROJECT$CURVES
 62
     1
100
AcDbVertex
100
AcDb2dVertex
 10
9.46837246779229
 20
10.94134255051716
 30
0.0
  0
VERTEX
  5
81
330
7E
100
AcDbEntity
  8
PROJECT$CURVES
 62
     1
100
AcDbVertex
100
AcDb2dVertex
 10
9.413929312368493
 20
10.91064739084172
 30
0.0
  0
SEQEND
  5
82
330
7E
100
AcDbEntity
  8
PROJECT$CURVES
 62
     1
  0
POLYLINE
  5
83
330
1F
100
AcDbEntity
  8
PROJECT$CURVES
 62
     1
100
AcDb2dPolyline
 66
     1
 10
0.0
 20
0.0
 30
0.0
  0
VERTEX
  5
84
330
83
100
AcDbEntity
  8
PROJECT$CURVES
 62
     1
100
AcDbVertex
100
AcDb2dVertex
 10
7.239518378893264
 20
7.695860158941569
 30
0.0
  0
VERTEX
  5
85
330
83
100
AcDbEntity
  8
PROJECT$CURVES
 62
     1
100
AcDbVertex
100
AcDb2dVertex
 10
7.210798386371392
 20
7.751370626689036
 30
0.0
  0
VERTEX
  5
86
330
83
100
AcDbEntity
  8
PROJECT$CURVES
 62
     1
100
AcDbVertex
100
AcDb2dVertex
 10
7.182078393849507
 20
7.806881094436504
 30
0.0
  0
SEQEND
  5
87
330
83
100
AcDbEntity
  8
PROJECT$CURVES
 62
     1
  0
POLYLINE
  5
88
330
1F
100
AcDbEntity
  8
PROJECT$CURVES
 62
     1
100
AcDb2dPolyline
 66
     1
 10
0.0
 20
0.0
 30
0.0
 70
     1
  0
VERTEX
  5
89
330
88
100
AcDbEntity
  8
PROJECT$CURVES
 62
     1
100
AcDbVertex
100
AcDb2dVertex
 10
7.210797994130187
 20
7.626375886259352
 30
0.0
  0
VERTEX
  5
8A
330
88
100
AcDbEntity
  8
PROJECT$CURVES
 62
     1
100
AcDbVertex
100
AcDb2dVertex
 10
1.187421996714717
 20
7.626375886259352
 30
0.0
  0
VERTEX
  5
8B
330
88
100
AcDbEntity
  8
PROJECT$CURVES
 62
     1
100
AcDbVertex
100
AcDb2dVertex
 10
3.504311651186311
 20
10.63739561381507
 30
0.0
  0
VERTEX
  5
8C
330
88
100
AcDbEntity
  8
PROJECT$CURVES
 62
     1
100
AcDbVertex
100
AcDb2dVertex
 10
9.723180953105254
 20
11.08500150102185
 30
0.0
  0
VERTEX
  5
8D
330
88
100
AcDbEntity
  8
PROJECT$CURVES
 62
     1
100
AcDbVertex
100
AcDb2dVertex
 10
7.275470804134043
 20
7.626375886259352
 30
0.0
  0
SEQEND
  5
8E
330
88
100
AcDbEntity
  8
PROJECT$CURVES
 62
     1
  0
POLYLINE
  5
8F
330
1F
100
AcDbEntity
  8
PROJECT$CURVES
 62
     1
100
AcDb2dPolyline
 66
     1
 10
0.0
 20
0.0
 30
0.0
  0
VERTEX
  5
90
330
8F
100
AcDbEntity
  8
PROJECT$CURVES
 62
     1
100
AcDbVertex
100
AcDb2dVertex
 10
10.78889094414388
 20
11.26931967014574
 30
0.0
  0
VERTEX
  5
91
330
8F
100
AcDbEntity
  8
PROJECT$CURVES
 62
     1
100
AcDbVertex
100
AcDb2dVertex
 10
10.8386074096664
 20
11.30719476824394
 30
0.0
  0
VERTEX
  5
92
330
8F
100
AcDbEntity
  8
PROJECT$CURVES
 62
     1
100
AcDbVertex
100
AcDb2dVertex
 10
10.88832387518892
 20
11.34506986634213
 30
0.0
  0
SEQEND
  5
93
330
8F
100
AcDbEntity
  8
PROJECT$CURVES
 62
     1
  0
POLYLINE
  5
94
330
1F
100
AcDbEntity
  8
PROJECT$CURVES
 62
     1
100
AcDb2dPolyline
 66
     1
 10
0.0
 20
0.0
 30
0.0
  0
VERTEX
  5
95
330
94
100
AcDbEntity
  8
PROJECT$CURVES
 62
     1
100
AcDbVertex
100
AcDb2dVertex
 10
10.05366395402687
 20
8.512186001515406
 30
0.0
  0
VERTEX
  5
96
330
94
100
AcDbEntity
  8
PROJECT$CURVES
 62
     1
100
AcDbVertex
100
AcDb2dVertex
 10
10.01634559936367
 20
8.562321721368935
 30
0.0
  0
VERTEX
  5
97
330
94
100
AcDbEntity
  8
PROJECT$CURVES
 62
     1
100
AcDbVertex
100
AcDb2dVertex
 10
9.979027244700474
 20
8.612457441222464
 30
0.0
  0
SEQEND
  5
98
330
94
100
AcDbEntity
  8
PROJECT$CURVES
 62
     1
  0
POLYLINE
  5
99
330
1F
100
AcDbEntity
  8
PROJECT$CURVES
 62
     1
100
AcDb2dPolyline
 66
     1
 10
0.0
 20
0.0
 30
0.0
  0
VERTEX
  5
9A
330
99
100
AcDbEntity
  8
PROJECT$CURVES
 62
     1
100
AcDbVertex
100
AcDb2dVertex
 10
16.79464244279249
 20
11.49071737717906
 30
0.0
  0
VERTEX
  5
9B
330
99
100
AcDbEntity
  8
PROJECT$CURVES
 62
     1
100
AcDbVertex
100
AcDb2dVertex
 10
16.83204994506679
 20
11.44064813738457
 30
0.0
  0
VERTEX
  5
9C
330
99
100
AcDbEntity
  8
PROJECT$CURVES
 62
     1
100
AcDbVertex
100
AcDb2dVertex
 10
16.8694574473411
 20
11.39057889759009
 30
0.0
  0
SEQEND
  5
9D
330
99
100
AcDbEntity
  8
PROJECT$CURVES
 62
     1
  0
POLYLINE
  5
9E
330
1F
100
AcDbEntity
  8
PROJECT$CURVES
 62
     1
100
AcDb2dPolyline
 66
     1
 10
0.0
 20
0.0
 30
0.0
  0
VERTEX
  5
9F
330
9E
100
AcDbEntity
  8
PROJECT$CURVES
 62
     1
100
AcDbVertex
100
AcDb2dVertex
 10
15.96120736885366
 20
8.599168781892091
 30
0.0
  0
VERTEX
  5
A0
330
9E
100
AcDbEntity
  8
PROJECT$CURVES
 62
     1
100
AcDbVertex
100
AcDb2dVertex
 10
15.91072426147305
 20
8.562321721368948
 30
0.0
  0
VERTEX
  5
A1
330
9E
100
AcDbEntity
  8
PROJECT$CURVES
 62
     1
100
AcDbVertex
100
AcDb2dVertex
 10
15.86024115409243
 20
8.525474660845804
 30
0.0
  0
SEQEND
  5
A2
330
9E
100
AcDbEntity
  8
PROJECT$CURVES
 62
     1
  0
POLYLINE
  5
A3
330
1F
100
AcDbEntity
  8
PROJECT$CURVES
 62
     1
100
AcDb2dPolyline
 66
     1
 10
0.0
 20
0.0
 30
0.0
  0
VERTEX
  5
A4
330
A3
100
AcDbEntity
  8
PROJECT$CURVES
 62
     1
100
AcDbVertex
100
AcDb2dVertex
 10
10.8007323115682
 20
11.35691123376646
 30
0.0
  0
VERTEX
  5
A5
330
A3
100
AcDbEntity
  8
PROJECT$CURVES
 62
     1
100
AcDbVertex
100
AcDb2dVertex
 10
10.8386074096664
 20
11.30719476824394
 30
0.0
  0
VERTEX
  5
A6
330
A3
100
AcDbEntity
  8
PROJECT$CURVES
 62
     1
100
AcDbVertex
100
AcDb2dVertex
 10
10.87648250776461
 20
11.25747830272141
 30
0.0
  0
SEQEND
  5
A7
330
A3
100
AcDbEntity
  8
PROJECT$CURVES
 62
     1
  0
POLYLINE
  5
A8
330
1F
100
AcDbEntity
  8
PROJECT$CURVES
 62
     1
100
AcDb2dPolyline
 66
     1
 10
0.0
 20
0.0
 30
0.0
  0
VERTEX
  5
A9
330
A8
100
AcDbEntity
  8
PROJECT$CURVES
 62
     1
100
AcDbVertex
100
AcDb2dVertex
 10
9.966209879510144
 20
8.525003366705736
 30
0.0
  0
VERTEX
  5
AA
330
A8
100
AcDbEntity
  8
PROJECT$CURVES
 62
     1
100
AcDbVertex
100
AcDb2dVertex
 10
10.01634559936367
 20
8.562321721368935
 30
0.0
  0
VERTEX
  5
AB
330
A8
100
AcDbEntity
  8
PROJECT$CURVES
 62
     1
100
AcDbVertex
100
AcDb2dVertex
 10
10.06648131921722
 20
8.599640076032134
 30
0.0
  0
SEQEND
  5
AC
330
A8
100
AcDbEntity
  8
PROJECT$CURVES
 62
     1
  0
POLYLINE
  5
AD
330
1F
100
AcDbEntity
  8
PROJECT$CURVES
 62
     1
100
AcDb2dPolyline
 66
     1
 10
0.0
 20
0.0
 30
0.0
  0
VERTEX
  5
AE
330
AD
100
AcDbEntity
  8
PROJECT$CURVES
 62
     1
100
AcDbVertex
100
AcDb2dVertex
 10
16.88211918486129
 20
11.47805563965888
 30
0.0
  0
VERTEX
  5
AF
330
AD
100
AcDbEntity
  8
PROJECT$CURVES
 62
     1
100
AcDbVertex
100
AcDb2dVertex
 10
16.83204994506679
 20
11.44064813738457
 30
0.0
  0
VERTEX
  5
B0
330
AD
100
AcDbEntity
  8
PROJECT$CURVES
 62
     1
100
AcDbVertex
100
AcDb2dVertex
 10
16.78198070527231
 20
11.40324063511027
 30
0.0
  0
SEQEND
  5
B1
330
AD
100
AcDbEntity
  8
PROJECT$CURVES
 62
     1
  0
POLYLINE
  5
B2
330
1F
100
AcDbEntity
  8
PROJECT$CURVES
 62
     1
100
AcDb2dPolyline
 66
     1
 10
0.0
 20
0.0
 30
0.0
  0
VERTEX
  5
B3
330
B2
100
AcDbEntity
  8
PROJECT$CURVES
 62
     1
100
AcDbVertex
100
AcDb2dVertex
 10
15.94757132199619
 20
8.511838613988333
 30
0.0
  0
VERTEX
  5
B4
330
B2
100
AcDbEntity
  8
PROJECT$CURVES
 62
     1
100
AcDbVertex
100
AcDb2dVertex
 10
15.91072426147305
 20
8.562321721368948
 30
0.0
  0
VERTEX
  5
B5
330
B2
100
AcDbEntity
  8
PROJECT$CURVES
 62
     1
100
AcDbVertex
100
AcDb2dVertex
 10
15.8738772009499
 20
8.612804828749562
 30
0.0
  0
SEQEND
  5
B6
330
B2
100
AcDbEntity
  8
PROJECT$CURVES
 62
     1
  0
POLYLINE
  5
B7
330
1F
100
AcDbEntity
  8
PROJECT$CURVES
 62
     1
100
AcDb2dPolyline
 66
     1
 10
0.0
 20
0.0
 30
0.0
 70
     1
  0
VERTEX
  5
B8
330
B7
100
AcDbEntity
  8
PROJECT$CURVES
 62
     1
100
AcDbVertex
100
AcDb2dVertex
 10
15.91072459855313
 20
8.43731646179866
 30
0.0
  0
VERTEX
  5
B9
330
B7
100
AcDbEntity
  8
PROJECT$CURVES
 62
     1
100
AcDbVertex
100
AcDb2dVertex
 10
9.848413030336415
 20
8.437316461798646
 30
0.0
  0
VERTEX
  5
BA
330
B7
100
AcDbEntity
  8
PROJECT$CURVES
 62
     1
100
AcDbVertex
100
AcDb2dVertex
 10
10.74494895177667
 20
11.43013363211049
 30
0.0
  0
VERTEX
  5
BB
330
B7
100
AcDbEntity
  8
PROJECT$CURVES
 62
     1
100
AcDbVertex
100
AcDb2dVertex
 10
17.00454782558908
 20
11.56952158598715
 30
0.0
  0
VERTEX
  5
BC
330
B7
100
AcDbEntity
  8
PROJECT$CURVES
 62
     1
100
AcDbVertex
100
AcDb2dVertex
 10
16.0019608405472
 20
8.43731646179866
 30
0.0
  0
SEQEND
  5
BD
330
B7
100
AcDbEntity
  8
PROJECT$CURVES
 62
     1
  0
POLYLINE
  5
BE
330
1F
100
AcDbEntity
  8
PROJECT$CURVES
 62
     1
100
AcDb2dPolyline
 66
     1
 10
0.0
 20
0.0
 30
0.0
  0
VERTEX
  5
BF
330
BE
100
AcDbEntity
  8
PROJECT$CURVES
 62
     1
100
AcDbVertex
100
AcDb2dVertex
 10
5.711400058311936
 20
3.440447912966451
 30
0.0
  0
VERTEX
  5
C0
330
BE
100
AcDbEntity
  8
PROJECT$CURVES
 62
     1
100
AcDbVertex
100
AcDb2dVertex
 10
5.761098407157531
 20
3.478346779994669
 30
0.0
  0
VERTEX
  5
C1
330
BE
100
AcDbEntity
  8
PROJECT$CURVES
 62
     1
100
AcDbVertex
100
AcDb2dVertex
 10
5.810796756003127
 20
3.516245647022887
 30
0.0
  0
SEQEND
  5
C2
330
BE
100
AcDbEntity
  8
PROJECT$CURVES
 62
     1
  0
POLYLINE
  5
C3
330
1F
100
AcDbEntity
  8
PROJECT$CURVES
 62
     1
100
AcDb2dPolyline
 66
     1
 10
0.0
 20
0.0
 30
0.0
  0
VERTEX
  5
C4
330
C3
100
AcDbEntity
  8
PROJECT$CURVES
 62
     1
100
AcDbVertex
100
AcDb2dVertex
 10
5.083541918024761
 20
0.8505755513625712
 30
0.0
  0
VERTEX
  5
C5
330
C3
100
AcDbEntity
  8
PROJECT$CURVES
 62
     1
100
AcDbVertex
100
AcDb2dVertex
 10
5.045714877494444
 20
0.9003285915181083
 30
0.0
  0
VERTEX
  5
C6
330
C3
100
AcDbEntity
  8
PROJECT$CURVES
 62
     1
100
AcDbVertex
100
AcDb2dVertex
 10
5.007887836964127
 20
0.9500816316736449
 30
0.0
  0
SEQEND
  5
C7
330
C3
100
AcDbEntity
  8
PROJECT$CURVES
 62
     1
  0
POLYLINE
  5
C8
330
1F
100
AcDbEntity
  8
PROJECT$CURVES
 62
     1
100
AcDb2dPolyline
 66
     1
 10
0.0
 20
0.0
 30
0.0
  0
VERTEX
  5
C9
330
C8
100
AcDbEntity
  8
PROJECT$CURVES
 62
     1
100
AcDbVertex
100
AcDb2dVertex
 10
12.16003300676019
 20
3.548335070197055
 30
0.0
  0
VERTEX
  5
CA
330
C8
100
AcDbEntity
  8
PROJECT$CURVES
 62
     1
100
AcDbVertex
100
AcDb2dVertex
 10
12.19567348802911
 20
3.496993020229041
 30
0.0
  0
VERTEX
  5
CB
330
C8
100
AcDbEntity
  8
PROJECT$CURVES
 62
     1
100
AcDbVertex
100
AcDb2dVertex
 10
12.23131396929804
 20
3.445650970261027
 30
0.0
  0
SEQEND
  5
CC
330
C8
100
AcDbEntity
  8
PROJECT$CURVES
 62
     1
  0
POLYLINE
  5
CD
330
1F
100
AcDbEntity
  8
PROJECT$CURVES
 62
     1
100
AcDb2dPolyline
 66
     1
 10
0.0
 20
0.0
 30
0.0
  0
VERTEX
  5
CE
330
CD
100
AcDbEntity
  8
PROJECT$CURVES
 62
     1
100
AcDbVertex
100
AcDb2dVertex
 10
11.26957388363581
 20
0.9358959572065828
 30
0.0
  0
VERTEX
  5
CF
330
CD
100
AcDbEntity
  8
PROJECT$CURVES
 62
     1
100
AcDbVertex
100
AcDb2dVertex
 10
11.21818115557062
 20
0.9003285915181038
 30
0.0
  0
VERTEX
  5
D0
330
CD
100
AcDbEntity
  8
PROJECT$CURVES
 62
     1
100
AcDbVertex
100
AcDb2dVertex
 10
11.16678842750542
 20
0.8647612258296253
 30
0.0
  0
SEQEND
  5
D1
330
CD
100
AcDbEntity
  8
PROJECT$CURVES
 62
     1
  0
POLYLINE
  5
D2
330
1F
100
AcDbEntity
  8
PROJECT$CURVES
 62
     1
100
AcDb2dPolyline
 66
     1
 10
0.0
 20
0.0
 30
0.0
  0
VERTEX
  5
D3
330
D2
100
AcDbEntity
  8
PROJECT$CURVES
 62
     1
100
AcDbVertex
100
AcDb2dVertex
 10
5.723199540129327
 20
3.528045128840264
 30
0.0
  0
VERTEX
  5
D4
330
D2
100
AcDbEntity
  8
PROJECT$CURVES
 62
     1
100
AcDbVertex
100
AcDb2dVertex
 10
5.761098407157531
 20
3.478346779994669
 30
0.0
  0
VERTEX
  5
D5
330
D2
100
AcDbEntity
  8
PROJECT$CURVES
 62
     1
100
AcDbVertex
100
AcDb2dVertex
 10
5.79899727418575
 20
3.428648431149074
 30
0.0
  0
SEQEND
  5
D6
330
D2
100
AcDbEntity
  8
PROJECT$CURVES
 62
     1
  0
POLYLINE
  5
D7
330
1F
100
AcDbEntity
  8
PROJECT$CURVES
 62
     1
100
AcDb2dPolyline
 66
     1
 10
0.0
 20
0.0
 30
0.0
  0
VERTEX
  5
D8
330
D7
100
AcDbEntity
  8
PROJECT$CURVES
 62
     1
100
AcDbVertex
100
AcDb2dVertex
 10
4.995961837338921
 20
0.8625015509877914
 30
0.0
  0
VERTEX
  5
D9
330
D7
100
AcDbEntity
  8
PROJECT$CURVES
 62
     1
100
AcDbVertex
100
AcDb2dVertex
 10
5.045714877494444
 20
0.9003285915181083
 30
0.0
  0
VERTEX
  5
DA
330
D7
100
AcDbEntity
  8
PROJECT$CURVES
 62
     1
100
AcDbVertex
100
AcDb2dVertex
 10
5.09546791764998
 20
0.9381556320484248
 30
0.0
  0
SEQEND
  5
DB
330
D7
100
AcDbEntity
  8
PROJECT$CURVES
 62
     1
  0
POLYLINE
  5
DC
330
1F
100
AcDbEntity
  8
PROJECT$CURVES
 62
     1
100
AcDb2dPolyline
 66
     1
 10
0.0
 20
0.0
 30
0.0
  0
VERTEX
  5
DD
330
DC
100
AcDbEntity
  8
PROJECT$CURVES
 62
     1
100
AcDbVertex
100
AcDb2dVertex
 10
12.24701553799714
 20
3.532633501497969
 30
0.0
  0
VERTEX
  5
DE
330
DC
100
AcDbEntity
  8
PROJECT$CURVES
 62
     1
100
AcDbVertex
100
AcDb2dVertex
 10
12.19567348802911
 20
3.496993020229041
 30
0.0
  0
VERTEX
  5
DF
330
DC
100
AcDbEntity
  8
PROJECT$CURVES
 62
     1
100
AcDbVertex
100
AcDb2dVertex
 10
12.1443314380611
 20
3.461352538960114
 30
0.0
  0
SEQEND
  5
E0
330
DC
100
AcDbEntity
  8
PROJECT$CURVES
 62
     1
  0
POLYLINE
  5
E1
330
1F
100
AcDbEntity
  8
PROJECT$CURVES
 62
     1
100
AcDb2dPolyline
 66
     1
 10
0.0
 20
0.0
 30
0.0
  0
VERTEX
  5
E2
330
E1
100
AcDbEntity
  8
PROJECT$CURVES
 62
     1
100
AcDbVertex
100
AcDb2dVertex
 10
11.25374852125911
 20
0.8489358634529083
 30
0.0
  0
VERTEX
  5
E3
330
E1
100
AcDbEntity
  8
PROJECT$CURVES
 62
     1
100
AcDbVertex
100
AcDb2dVertex
 10
11.21818115557062
 20
0.9003285915181038
 30
0.0
  0
VERTEX
  5
E4
330
E1
100
AcDbEntity
  8
PROJECT$CURVES
 62
     1
100
AcDbVertex
100
AcDb2dVertex
 10
11.18261378988214
 20
0.9517213195832999
 30
0.0
  0
SEQEND
  5
E5
330
E1
100
AcDbEntity
  8
PROJECT$CURVES
 62
     1
  0
POLYLINE
  5
E6
330
1F
100
AcDbEntity
  8
PROJECT$CURVES
 62
     1
100
AcDb2dPolyline
 66
     1
 10
0.0
 20
0.0
 30
0.0
 70
     1
  0
VERTEX
  5
E7
330
E6
100
AcDbEntity
  8
PROJECT$CURVES
 62
     1
100
AcDbVertex
100
AcDb2dVertex
 10
11.21818128087092
 20
0.7753263035102975
 30
0.0
  0
VERTEX
  5
E8
330
E6
100
AcDbEntity
  8
PROJECT$CURVES
 62
     1
100
AcDbVertex
100
AcDb2dVertex
 10
4.881305217117397
 20
0.7753263035103024
 30
0.0
  0
VERTEX
  5
E9
330
E6
100
AcDbEntity
  8
PROJECT$CURVES
 62
     1
100
AcDbVertex
100
AcDb2dVertex
 10
5.665985579606071
 20
3.603078504969463
 30
0.0
  0
VERTEX
  5
EA
330
E6
100
AcDbEntity
  8
PROJECT$CURVES
 62
     1
100
AcDbVertex
100
AcDb2dVertex
 10
12.37648997131084
 20
3.62251110478391
 30
0.0
  0
VERTEX
  5
EB
330
E6
100
AcDbEntity
  8
PROJECT$CURVES
 62
     1
100
AcDbVertex
100
AcDb2dVertex
 10
11.30468947009322
 20
0.7753263035102975
 30
0.0
  0
SEQEND
  5
EC
330
E6
100
AcDbEntity
  8
PROJECT$CURVES
 62
     1
  0
POLYLINE
  5
ED
330
1F
100
AcDbEntity
  8
PROJECT$CURVES
 62
     1
100
AcDb2dPolyline
 66
     1
 10
0.0
 20
0.0
 30
0.0
  0
VERTEX
  5
EE
330
ED
100
AcDbEntity
  8
PROJECT$CURVES
 62
     1
100
AcDbVertex
100
AcDb2dVertex
 10
13.3621794517432
 20
3.560466179389423
 30
0.0
  0
VERTEX
  5
EF
330
ED
100
AcDbEntity
  8
PROJECT$CURVES
 62
     1
100
AcDbVertex
100
AcDb2dVertex
 10
13.4137574989858
 20
3.595764267760319
 30
0.0
  0
VERTEX
  5
F0
330
ED
100
AcDbEntity
  8
PROJECT$CURVES
 62
     1
100
AcDbVertex
100
AcDb2dVertex
 10
13.4653355462284
 20
3.631062356131213
 30
0.0
  0
SEQEND
  5
F1
330
ED
100
AcDbEntity
  8
PROJECT$CURVES
 62
     1
  0
POLYLINE
  5
F2
330
1F
100
AcDbEntity
  8
PROJECT$CURVES
 62
     1
100
AcDb2dPolyline
 66
     1
 10
0.0
 20
0.0
 30
0.0
  0
VERTEX
  5
F3
330
F2
100
AcDbEntity
  8
PROJECT$CURVES
 62
     1
100
AcDbVertex
100
AcDb2dVertex
 10
12.34608809029289
 20
0.8584120128278547
 30
0.0
  0
VERTEX
  5
F4
330
F2
100
AcDbEntity
  8
PROJECT$CURVES
 62
     1
100
AcDbVertex
100
AcDb2dVertex
 10
12.31128328633932
 20
0.9103242042837527
 30
0.0
  0
VERTEX
  5
F5
330
F2
100
AcDbEntity
  8
PROJECT$CURVES
 62
     1
100
AcDbVertex
100
AcDb2dVertex
 10
12.27647848238576
 20
0.9622363957396507
 30
0.0
  0
SEQEND
  5
F6
330
F2
100
AcDbEntity
  8
PROJECT$CURVES
 62
     1
  0
POLYLINE
  5
F7
330
1F
100
AcDbEntity
  8
PROJECT$CURVES
 62
     1
100
AcDb2dPolyline
 66
     1
 10
0.0
 20
0.0
 30
0.0
  0
VERTEX
  5
F8
330
F7
100
AcDbEntity
  8
PROJECT$CURVES
 62
     1
100
AcDbVertex
100
AcDb2dVertex
 10
19.48377363195846
 20
3.764369742483495
 30
0.0
  0
VERTEX
  5
F9
330
F7
100
AcDbEntity
  8
PROJECT$CURVES
 62
     1
100
AcDbVertex
100
AcDb2dVertex
 10
19.51858728719381
 20
3.712463486510329
 30
0.0
  0
VERTEX
  5
FA
330
F7
100
AcDbEntity
  8
PROJECT$CURVES
 62
     1
100
AcDbVertex
100
AcDb2dVertex
 10
19.55340094242916
 20
3.660557230537164
 30
0.0
  0
SEQEND
  5
FB
330
F7
100
AcDbEntity
  8
PROJECT$CURVES
 62
     1
  0
POLYLINE
  5
FC
330
1F
100
AcDbEntity
  8
PROJECT$CURVES
 62
     1
100
AcDb2dPolyline
 66
     1
 10
0.0
 20
0.0
 30
0.0
  0
VERTEX
  5
FD
330
FC
100
AcDbEntity
  8
PROJECT$CURVES
 62
     1
100
AcDbVertex
100
AcDb2dVertex
 10
18.35844854775213
 20
0.9446397420073778
 30
0.0
  0
VERTEX
  5
FE
330
FC
100
AcDbEntity
  8
PROJECT$CURVES
 62
     1
100
AcDbVertex
100
AcDb2dVertex
 10
18.30621164632468
 20
0.9103242042837634
 30
0.0
  0
VERTEX
  5
FF
330
FC
100
AcDbEntity
  8
PROJECT$CURVES
 62
     1
100
AcDbVertex
100
AcDb2dVertex
 10
18.25397474489723
 20
0.876008666560149
 30
0.0
  0
SEQEND
  5
100
330
FC
100
AcDbEntity
  8
PROJECT$CURVES
 62
     1
  0
POLYLINE
  5
101
330
1F
100
AcDbEntity
  8
PROJECT$CURVES
 62
     1
100
AcDb2dPolyline
 66
     1
 10
0.0
 20
0.0
 30
0.0
  0
VERTEX
  5
102
330
101
100
AcDbEntity
  8
PROJECT$CURVES
 62
     1
100
AcDbVertex
100
AcDb2dVertex
 10
13.37845941061491
 20
3.647342315002917
 30
0.0
  0
VERTEX
  5
103
330
101
100
AcDbEntity
  8
PROJECT$CURVES
 62
     1
100
AcDbVertex
100
AcDb2dVertex
 10
13.4137574989858
 20
3.595764267760319
 30
0.0
  0
VERTEX
  5
104
330
101
100
AcDbEntity
  8
PROJECT$CURVES
 62
     1
100
AcDbVertex
100
AcDb2dVertex
 10
13.44905558735668
 20
3.544186220517719
 30
0.0
  0
SEQEND
  5
105
330
101
100
AcDbEntity
  8
PROJECT$CURVES
 62
     1
  0
POLYLINE
  5
106
330
1F
100
AcDbEntity
  8
PROJECT$CURVES
 62
     1
100
AcDb2dPolyline
 66
     1
 10
0.0
 20
0.0
 30
0.0
  0
VERTEX
  5
107
330
106
100
AcDbEntity
  8
PROJECT$CURVES
 62
     1
100
AcDbVertex
100
AcDb2dVertex
 10
12.25937109488341
 20
0.87551940033019
 30
0.0
  0
VERTEX
  5
108
330
106
100
AcDbEntity
  8
PROJECT$CURVES
 62
     1
100
AcDbVertex
100
AcDb2dVertex
 10
12.31128328633932
 20
0.9103242042837527
 30
0.0
  0
VERTEX
  5
109
330
106
100
AcDbEntity
  8
PROJECT$CURVES
 62
     1
100
AcDbVertex
100
AcDb2dVertex
 10
12.36319547779522
 20
0.9451290082373154
 30
0.0
  0
SEQEND
  5
10A
330
106
100
AcDbEntity
  8
PROJECT$CURVES
 62
     1
  0
POLYLINE
  5
10B
330
1F
100
AcDbEntity
  8
PROJECT$CURVES
 62
     1
100
AcDb2dPolyline
 66
     1
 10
0.0
 20
0.0
 30
0.0
  0
VERTEX
  5
10C
330
10B
100
AcDbEntity
  8
PROJECT$CURVES
 62
     1
100
AcDbVertex
100
AcDb2dVertex
 10
19.57049354316698
 20
3.747277141745683
 30
0.0
  0
VERTEX
  5
10D
330
10B
100
AcDbEntity
  8
PROJECT$CURVES
 62
     1
100
AcDbVertex
100
AcDb2dVertex
 10
19.51858728719381
 20
3.712463486510329
 30
0.0
  0
VERTEX
  5
10E
330
10B
100
AcDbEntity
  8
PROJECT$CURVES
 62
     1
100
AcDbVertex
100
AcDb2dVertex
 10
19.46668103122062
 20
3.677649831274976
 30
0.0
  0
SEQEND
  5
10F
330
10B
100
AcDbEntity
  8
PROJECT$CURVES
 62
     1
  0
POLYLINE
  5
110
330
1F
100
AcDbEntity
  8
PROJECT$CURVES
 62
     1
100
AcDb2dPolyline
 66
     1
 10
0.0
 20
0.0
 30
0.0
  0
VERTEX
  5
111
330
110
100
AcDbEntity
  8
PROJECT$CURVES
 62
     1
100
AcDbVertex
100
AcDb2dVertex
 10
18.34052718404828
 20
0.8580873028563145
 30
0.0
  0
VERTEX
  5
112
330
110
100
AcDbEntity
  8
PROJECT$CURVES
 62
     1
100
AcDbVertex
100
AcDb2dVertex
 10
18.30621164632468
 20
0.9103242042837634
 30
0.0
  0
VERTEX
  5
113
330
110
100
AcDbEntity
  8
PROJECT$CURVES
 62
     1
100
AcDbVertex
100
AcDb2dVertex
 10
18.27189610860106
 20
0.9625611057112122
 30
0.0
  0
SEQEND
  5
114
330
110
100
AcDbEntity
  8
PROJECT$CURVES
 62
     1
  0
POLYLINE
  5
115
330
1F
100
AcDbEntity
  8
PROJECT$CURVES
 62
     1
100
AcDb2dPolyline
 66
     1
 10
0.0
 20
0.0
 30
0.0
 70
     1
  0
VERTEX
  5
116
330
115
100
AcDbEntity
  8
PROJECT$CURVES
 62
     1
100
AcDbVertex
100
AcDb2dVertex
 10
18.30621158979148
 20
0.7853246607290556
 30
0.0
  0
VERTEX
  5
117
330
115
100
AcDbEntity
  8
PROJECT$CURVES
 62
     1
100
AcDbVertex
100
AcDb2dVertex
 10
12.12484242146913
 20
0.7853246607290449
 30
0.0
  0
VERTEX
  5
118
330
115
100
AcDbEntity
  8
PROJECT$CURVES
 62
     1
100
AcDbVertex
100
AcDb2dVertex
 10
13.32929746798055
 20
3.719177050036863
 30
0.0
  0
VERTEX
  5
119
330
115
100
AcDbEntity
  8
PROJECT$CURVES
 62
     1
100
AcDbVertex
100
AcDb2dVertex
 10
19.71046415991356
 20
3.841160428720882
 30
0.0
  0
VERTEX
  5
11A
330
115
100
AcDbEntity
  8
PROJECT$CURVES
 62
     1
100
AcDbVertex
100
AcDb2dVertex
 10
18.38832719217104
 20
0.7853246607290556
 30
0.0
  0
SEQEND
  5
11B
330
115
100
AcDbEntity
  8
PROJECT$CURVES
 62
     1
  0
POLYLINE
  5
11C
330
1F
100
AcDbEntity
  8
PROJECT$CURVES
 62
     1
100
AcDb2dPolyline
 66
     1
 10
0.0
 20
0.0
 30
0.0
  0
VERTEX
  5
11D
330
11C
100
AcDbEntity
  8
PROJECT$CURVES
 62
     1
100
AcDbVertex
100
AcDb2dVertex
 10
16.47369853895945
 20
7.452236189088006
 30
0.0
  0
VERTEX
  5
11E
330
11C
100
AcDbEntity
  8
PROJECT$CURVES
 62
     1
100
AcDbVertex
100
AcDb2dVertex
 10
16.52939793918823
 20
7.480588028784148
 30
0.0
  0
VERTEX
  5
11F
330
11C
100
AcDbEntity
  8
PROJECT$CURVES
 62
     1
100
AcDbVertex
100
AcDb2dVertex
 10
16.585097339417
 20
7.508939868480291
 30
0.0
  0
SEQEND
  5
120
330
11C
100
AcDbEntity
  8
PROJECT$CURVES
 62
     1
  0
POLYLINE
  5
121
330
1F
100
AcDbEntity
  8
PROJECT$CURVES
 62
     1
100
AcDb2dPolyline
 66
     1
 10
0.0
 20
0.0
 30
0.0
  0
VERTEX
  5
122
330
121
100
AcDbEntity
  8
PROJECT$CURVES
 62
     1
100
AcDbVertex
100
AcDb2dVertex
 10
14.51692397422361
 20
4.834835805166329
 30
0.0
  0
VERTEX
  5
123
330
121
100
AcDbEntity
  8
PROJECT$CURVES
 62
     1
100
AcDbVertex
100
AcDb2dVertex
 10
14.48963734958861
 20
4.891064713354461
 30
0.0
  0
VERTEX
  5
124
330
121
100
AcDbEntity
  8
PROJECT$CURVES
 62
     1
100
AcDbVertex
100
AcDb2dVertex
 10
14.46235072495362
 20
4.947293621542593
 30
0.0
  0
SEQEND
  5
125
330
121
100
AcDbEntity
  8
PROJECT$CURVES
 62
     1
  0
POLYLINE
  5
126
330
1F
100
AcDbEntity
  8
PROJECT$CURVES
 62
     1
100
AcDb2dPolyline
 66
     1
 10
0.0
 20
0.0
 30
0.0
  0
VERTEX
  5
127
330
126
100
AcDbEntity
  8
PROJECT$CURVES
 62
     1
100
AcDbVertex
100
AcDb2dVertex
 10
22.40811391965267
 20
7.760776668135338
 30
0.0
  0
VERTEX
  5
128
330
126
100
AcDbEntity
  8
PROJECT$CURVES
 62
     1
100
AcDbVertex
100
AcDb2dVertex
 10
22.43743035648559
 20
7.705578873510706
 30
0.0
  0
VERTEX
  5
129
330
126
100
AcDbEntity
  8
PROJECT$CURVES
 62
     1
100
AcDbVertex
100
AcDb2dVertex
 10
22.4667467933185
 20
7.650381078886073
 30
0.0
  0
SEQEND
  5
12A
330
126
100
AcDbEntity
  8
PROJECT$CURVES
 62
     1
  0
POLYLINE
  5
12B
330
1F
100
AcDbEntity
  8
PROJECT$CURVES
 62
     1
100
AcDb2dPolyline
 66
     1
 10
0.0
 20
0.0
 30
0.0
  0
VERTEX
  5
12C
330
12B
100
AcDbEntity
  8
PROJECT$CURVES
 62
     1
100
AcDbVertex
100
AcDb2dVertex
 10
20.43075407288593
 20
4.919325773941797
 30
0.0
  0
VERTEX
  5
12D
330
12B
100
AcDbEntity
  8
PROJECT$CURVES
 62
     1
100
AcDbVertex
100
AcDb2dVertex
 10
20.37500855777953
 20
4.891064713354457
 30
0.0
  0
VERTEX
  5
12E
330
12B
100
AcDbEntity
  8
PROJECT$CURVES
 62
     1
100
AcDbVertex
100
AcDb2dVertex
 10
20.31926304267314
 20
4.862803652767117
 30
0.0
  0
SEQEND
  5
12F
330
12B
100
AcDbEntity
  8
PROJECT$CURVES
 62
     1
  0
POLYLINE
  5
130
330
1F
100
AcDbEntity
  8
PROJECT$CURVES
 62
     1
100
AcDb2dPolyline
 66
     1
 10
0.0
 20
0.0
 30
0.0
  0
VERTEX
  5
131
330
130
100
AcDbEntity
  8
PROJECT$CURVES
 62
     1
100
AcDbVertex
100
AcDb2dVertex
 10
16.50104609949207
 20
7.536287429012924
 30
0.0
  0
VERTEX
  5
132
330
130
100
AcDbEntity
  8
PROJECT$CURVES
 62
     1
100
AcDbVertex
100
AcDb2dVertex
 10
16.52939793918823
 20
7.480588028784148
 30
0.0
  0
VERTEX
  5
133
330
130
100
AcDbEntity
  8
PROJECT$CURVES
 62
     1
100
AcDbVertex
100
AcDb2dVertex
 10
16.55774977888437
 20
7.424888628555373
 30
0.0
  0
SEQEND
  5
134
330
130
100
AcDbEntity
  8
PROJECT$CURVES
 62
     1
  0
POLYLINE
  5
135
330
1F
100
AcDbEntity
  8
PROJECT$CURVES
 62
     1
100
AcDb2dPolyline
 66
     1
 10
0.0
 20
0.0
 30
0.0
  0
VERTEX
  5
136
330
135
100
AcDbEntity
  8
PROJECT$CURVES
 62
     1
100
AcDbVertex
100
AcDb2dVertex
 10
14.43340844140048
 20
4.863778088719465
 30
0.0
  0
VERTEX
  5
137
330
135
100
AcDbEntity
  8
PROJECT$CURVES
 62
     1
100
AcDbVertex
100
AcDb2dVertex
 10
14.48963734958861
 20
4.891064713354461
 30
0.0
  0
VERTEX
  5
138
330
135
100
AcDbEntity
  8
PROJECT$CURVES
 62
     1
100
AcDbVertex
100
AcDb2dVertex
 10
14.54586625777675
 20
4.918351337989457
 30
0.0
  0
SEQEND
  5
139
330
135
100
AcDbEntity
  8
PROJECT$CURVES
 62
     1
  0
POLYLINE
  5
13A
330
1F
100
AcDbEntity
  8
PROJECT$CURVES
 62
     1
100
AcDb2dPolyline
 66
     1
 10
0.0
 20
0.0
 30
0.0
  0
VERTEX
  5
13B
330
13A
100
AcDbEntity
  8
PROJECT$CURVES
 62
     1
100
AcDbVertex
100
AcDb2dVertex
 10
22.49262815111021
 20
7.73489531034362
 30
0.0
  0
VERTEX
  5
13C
330
13A
100
AcDbEntity
  8
PROJECT$CURVES
 62
     1
100
AcDbVertex
100
AcDb2dVertex
 10
22.43743035648559
 20
7.705578873510706
 30
0.0
  0
VERTEX
  5
13D
330
13A
100
AcDbEntity
  8
PROJECT$CURVES
 62
     1
100
AcDbVertex
100
AcDb2dVertex
 10
22.38223256186096
 20
7.676262436677791
 30
0.0
  0
SEQEND
  5
13E
330
13A
100
AcDbEntity
  8
PROJECT$CURVES
 62
     1
  0
POLYLINE
  5
13F
330
1F
100
AcDbEntity
  8
PROJECT$CURVES
 62
     1
100
AcDb2dPolyline
 66
     1
 10
0.0
 20
0.0
 30
0.0
  0
VERTEX
  5
140
330
13F
100
AcDbEntity
  8
PROJECT$CURVES
 62
     1
100
AcDbVertex
100
AcDb2dVertex
 10
20.40326961836687
 20
4.835319198248063
 30
0.0
  0
VERTEX
  5
141
330
13F
100
AcDbEntity
  8
PROJECT$CURVES
 62
     1
100
AcDbVertex
100
AcDb2dVertex
 10
20.37500855777953
 20
4.891064713354457
 30
0.0
  0
VERTEX
  5
142
330
13F
100
AcDbEntity
  8
PROJECT$CURVES
 62
     1
100
AcDbVertex
100
AcDb2dVertex
 10
20.34674749719218
 20
4.946810228460852
 30
0.0
  0
SEQEND
  5
143
330
13F
100
AcDbEntity
  8
PROJECT$CURVES
 62
     1
  0
POLYLINE
  5
144
330
1F
100
AcDbEntity
  8
PROJECT$CURVES
 62
     1
100
AcDb2dPolyline
 66
     1
 10
0.0
 20
0.0
 30
0.0
 70
     1
  0
VERTEX
  5
145
330
144
100
AcDbEntity
  8
PROJECT$CURVES
 62
     1
100
AcDbVertex
100
AcDb2dVertex
 10
20.37500828157836
 20
4.766064496166895
 30
0.0
  0
VERTEX
  5
146
330
144
100
AcDbEntity
  8
PROJECT$CURVES
 62
     1
100
AcDbVertex
100
AcDb2dVertex
 10
14.23205308887396
 20
4.766064496166899
 30
0.0
  0
VERTEX
  5
147
330
144
100
AcDbEntity
  8
PROJECT$CURVES
 62
     1
100
AcDbVertex
100
AcDb2dVertex
 10
16.46693605546413
 20
7.603305721453148
 30
0.0
  0
VERTEX
  5
148
330
144
100
AcDbEntity
  8
PROJECT$CURVES
 62
     1
100
AcDbVertex
100
AcDb2dVertex
 10
22.6911422159082
 20
7.840329692835511
 30
0.0
  0
VERTEX
  5
149
330
144
100
AcDbEntity
  8
PROJECT$CURVES
 62
     1
100
AcDbVertex
100
AcDb2dVertex
 10
20.43837879321275
 20
4.766064496166895
 30
0.0
  0
SEQEND
  5
14A
330
144
100
AcDbEntity
  8
PROJECT$CURVES
 62
     1
  0
POLYLINE
  5
14B
330
1F
100
AcDbEntity
  8
PROJECT$CURVES
 62
     1
100
AcDb2dPolyline
 66
     1
 10
0.0
 20
0.0
 30
0.0
  0
VERTEX
  5
14C
330
14B
100
AcDbEntity
  8
PROJECT$CURVES
 62
     1
100
AcDbVertex
100
AcDb2dVertex
 10
29.68987694306766
 20
6.218159500169755
 30
0.0
  0
VERTEX
  5
14D
330
14B
100
AcDbEntity
  8
PROJECT$CURVES
 62
     1
100
AcDbVertex
100
AcDb2dVertex
 10
29.63907711983393
 20
6.181750326059054
 30
0.0
  0
VERTEX
  5
14E
330
14B
100
AcDbEntity
  8
PROJECT$CURVES
 62
     1
100
AcDbVertex
100
AcDb2dVertex
 10
29.58827729660021
 20
6.145341151948352
 30
0.0
  0
SEQEND
  5
14F
330
14B
100
AcDbEntity
  8
PROJECT$CURVES
 62
     1
  0
POLYLINE
  5
150
330
1F
100
AcDbEntity
  8
PROJECT$CURVES
 62
     1
100
AcDb2dPolyline
 66
     1
 10
0.0
 20
0.0
 30
0.0
  0
VERTEX
  5
151
330
150
100
AcDbEntity
  8
PROJECT$CURVES
 62
     1
100
AcDbVertex
100
AcDb2dVertex
 10
29.60266794572323
 20
6.232550149292771
 30
0.0
  0
VERTEX
  5
152
330
150
100
AcDbEntity
  8
PROJECT$CURVES
 62
     1
100
AcDbVertex
100
AcDb2dVertex
 10
29.63907711983393
 20
6.181750326059054
 30
0.0
  0
VERTEX
  5
153
330
150
100
AcDbEntity
  8
PROJECT$CURVES
 62
     1
100
AcDbVertex
100
AcDb2dVertex
 10
29.67548629394463
 20
6.130950502825336
 30
0.0
  0
SEQEND
  5
154
330
150
100
AcDbEntity
  8
PROJECT$CURVES
 62
     1
  0
POLYLINE
  5
155
330
1F
100
AcDbEntity
  8
PROJECT$CURVES
 62
     1
100
AcDb2dPolyline
 66
     1
 10
0.0
 20
0.0
 30
0.0
  0
VERTEX
  5
156
330
155
100
AcDbEntity
  8
PROJECT$CURVES
 62
     1
100
AcDbVertex
100
AcDb2dVertex
 10
24.04796612865755
 20
5.887483154771449
 30
0.0
  0
VERTEX
  5
157
330
155
100
AcDbEntity
  8
PROJECT$CURVES
 62
     1
100
AcDbVertex
100
AcDb2dVertex
 10
24.09913399946029
 20
5.923373250863738
 30
0.0
  0
VERTEX
  5
158
330
155
100
AcDbEntity
  8
PROJECT$CURVES
 62
     1
100
AcDbVertex
100
AcDb2dVertex
 10
24.15030187026304
 20
5.959263346956026
 30
0.0
  0
SEQEND
  5
159
330
155
100
AcDbEntity
  8
PROJECT$CURVES
 62
     1
  0
POLYLINE
  5
15A
330
1F
100
AcDbEntity
  8
PROJECT$CURVES
 62
     1
100
AcDb2dPolyline
 66
     1
 10
0.0
 20
0.0
 30
0.0
  0
VERTEX
  5
15B
330
15A
100
AcDbEntity
  8
PROJECT$CURVES
 62
     1
100
AcDbVertex
100
AcDb2dVertex
 10
22.81855858260827
 20
2.696174148470306
 30
0.0
  0
VERTEX
  5
15C
330
15A
100
AcDbEntity
  8
PROJECT$CURVES
 62
     1
100
AcDbVertex
100
AcDb2dVertex
 10
22.78383591901596
 20
2.748141317269984
 30
0.0
  0
VERTEX
  5
15D
330
15A
100
AcDbEntity
  8
PROJECT$CURVES
 62
     1
100
AcDbVertex
100
AcDb2dVertex
 10
22.74911325542366
 20
2.800108486069662
 30
0.0
  0
SEQEND
  5
15E
330
15A
100
AcDbEntity
  8
PROJECT$CURVES
 62
     1
  0
POLYLINE
  5
15F
330
1F
100
AcDbEntity
  8
PROJECT$CURVES
 62
     1
100
AcDb2dPolyline
 66
     1
 10
0.0
 20
0.0
 30
0.0
  0
VERTEX
  5
160
330
15F
100
AcDbEntity
  8
PROJECT$CURVES
 62
     1
100
AcDbVertex
100
AcDb2dVertex
 10
28.50506888166595
 20
2.78339117965323
 30
0.0
  0
VERTEX
  5
161
330
15F
100
AcDbEntity
  8
PROJECT$CURVES
 62
     1
100
AcDbVertex
100
AcDb2dVertex
 10
28.45345786344345
 20
2.748141317269988
 30
0.0
  0
VERTEX
  5
162
330
15F
100
AcDbEntity
  8
PROJECT$CURVES
 62
     1
100
AcDbVertex
100
AcDb2dVertex
 10
28.40184684522095
 20
2.712891454886749
 30
0.0
  0
SEQEND
  5
163
330
15F
100
AcDbEntity
  8
PROJECT$CURVES
 62
     1
  0
POLYLINE
  5
164
330
1F
100
AcDbEntity
  8
PROJECT$CURVES
 62
     1
100
AcDb2dPolyline
 66
     1
 10
0.0
 20
0.0
 30
0.0
  0
VERTEX
  5
165
330
164
100
AcDbEntity
  8
PROJECT$CURVES
 62
     1
100
AcDbVertex
100
AcDb2dVertex
 10
24.06324390336802
 20
5.974541121666481
 30
0.0
  0
VERTEX
  5
166
330
164
100
AcDbEntity
  8
PROJECT$CURVES
 62
     1
100
AcDbVertex
100
AcDb2dVertex
 10
24.09913399946029
 20
5.923373250863738
 30
0.0
  0
VERTEX
  5
167
330
164
100
AcDbEntity
  8
PROJECT$CURVES
 62
     1
100
AcDbVertex
100
AcDb2dVertex
 10
24.13502409555258
 20
5.872205380060994
 30
0.0
  0
SEQEND
  5
168
330
164
100
AcDbEntity
  8
PROJECT$CURVES
 62
     1
  0
POLYLINE
  5
169
330
1F
100
AcDbEntity
  8
PROJECT$CURVES
 62
     1
100
AcDb2dPolyline
 66
     1
 10
0.0
 20
0.0
 30
0.0
  0
VERTEX
  5
16A
330
169
100
AcDbEntity
  8
PROJECT$CURVES
 62
     1
100
AcDbVertex
100
AcDb2dVertex
 10
22.73186875021628
 20
2.713418653677679
 30
0.0
  0
VERTEX
  5
16B
330
169
100
AcDbEntity
  8
PROJECT$CURVES
 62
     1
100
AcDbVertex
100
AcDb2dVertex
 10
22.78383591901596
 20
2.748141317269984
 30
0.0
  0
VERTEX
  5
16C
330
169
100
AcDbEntity
  8
PROJECT$CURVES
 62
     1
100
AcDbVertex
100
AcDb2dVertex
 10
22.83580308781565
 20
2.782863980862289
 30
0.0
  0
SEQEND
  5
16D
330
169
100
AcDbEntity
  8
PROJECT$CURVES
 62
     1
  0
POLYLINE
  5
16E
330
1F
100
AcDbEntity
  8
PROJECT$CURVES
 62
     1
100
AcDb2dPolyline
 66
     1
 10
0.0
 20
0.0
 30
0.0
  0
VERTEX
  5
16F
330
16E
100
AcDbEntity
  8
PROJECT$CURVES
 62
     1
100
AcDbVertex
100
AcDb2dVertex
 10
28.48870772582669
 20
2.696530299047489
 30
0.0
  0
VERTEX
  5
170
330
16E
100
AcDbEntity
  8
PROJECT$CURVES
 62
     1
100
AcDbVertex
100
AcDb2dVertex
 10
28.45345786344345
 20
2.748141317269988
 30
0.0
  0
VERTEX
  5
171
330
16E
100
AcDbEntity
  8
PROJECT$CURVES
 62
     1
100
AcDbVertex
100
AcDb2dVertex
 10
28.41820800106021
 20
2.79975233549249
 30
0.0
  0
SEQEND
  5
172
330
16E
100
AcDbEntity
  8
PROJECT$CURVES
 62
     1
  0
POLYLINE
  5
173
330
1F
100
AcDbEntity
  8
PROJECT$CURVES
 62
     1
100
AcDb2dPolyline
 66
     1
 10
0.0
 20
0.0
 30
0.0
 70
     1
  0
VERTEX
  5
174
330
173
100
AcDbEntity
  8
PROJECT$CURVES
 62
     1
100
AcDbVertex
100
AcDb2dVertex
 10
28.45345777631578
 20
2.623135656332498
 30
0.0
  0
VERTEX
  5
175
330
173
100
AcDbEntity
  8
PROJECT$CURVES
 62
     1
100
AcDbVertex
100
AcDb2dVertex
 10
22.59675669199126
 20
2.623135656332495
 30
0.0
  0
VERTEX
  5
176
330
173
100
AcDbEntity
  8
PROJECT$CURVES
 62
     1
100
AcDbVertex
100
AcDb2dVertex
 10
24.01406776929784
 20
6.044650106313672
 30
0.0
  0
VERTEX
  5
177
330
173
100
AcDbEntity
  8
PROJECT$CURVES
 62
     1
100
AcDbVertex
100
AcDb2dVertex
 10
29.98092290889622
 20
6.315327859751542
 30
0.0
  0
VERTEX
  5
178
330
173
100
AcDbEntity
  8
PROJECT$CURVES
 62
     1
100
AcDbVertex
100
AcDb2dVertex
 10
28.53883164883311
 20
2.623135656332502
 30
0.0
  0
SEQEND
  5
179
330
173
100
AcDbEntity
  8
PROJECT$CURVES
 62
     1
  0
POLYLINE
  5
17A
330
1F
100
AcDbEntity
  8
PROJECT$CURVES
 62
     1
100
AcDb2dPolyline
 66
     1
 10
0.0
 20
0.0
 30
0.0
  0
VERTEX
  5
17B
330
17A
100
AcDbEntity
  8
PROJECT$CURVES
 62
     1
100
AcDbVertex
100
AcDb2dVertex
 10
17.34586381742661
 20
16.59027476208794
 30
0.0
  0
VERTEX
  5
17C
330
17A
100
AcDbEntity
  8
PROJECT$CURVES
 62
     1
100
AcDbVertex
100
AcDb2dVertex
 10
17.39980617603955
 20
16.6218417059893
 30
0.0
  0
VERTEX
  5
17D
330
17A
100
AcDbEntity
  8
PROJECT$CURVES
 62
     1
100
AcDbVertex
100
AcDb2dVertex
 10
17.4537485346525
 20
16.65340864989067
 30
0.0
  0
SEQEND
  5
17E
330
17A
100
AcDbEntity
  8
PROJECT$CURVES
 62
     1
  0
POLYLINE
  5
17F
330
1F
100
AcDbEntity
  8
PROJECT$CURVES
 62
     1
100
AcDb2dPolyline
 66
     1
 10
0.0
 20
0.0
 30
0.0
  0
VERTEX
  5
180
330
17F
100
AcDbEntity
  8
PROJECT$CURVES
 62
     1
100
AcDbVertex
100
AcDb2dVertex
 10
15.8391286620876
 20
13.90445606764736
 30
0.0
  0
VERTEX
  5
181
330
17F
100
AcDbEntity
  8
PROJECT$CURVES
 62
     1
100
AcDbVertex
100
AcDb2dVertex
 10
15.80828777393994
 20
13.95881680364555
 30
0.0
  0
VERTEX
  5
182
330
17F
100
AcDbEntity
  8
PROJECT$CURVES
 62
     1
100
AcDbVertex
100
AcDb2dVertex
 10
15.77744688579229
 20
14.01317753964374
 30
0.0
  0
SEQEND
  5
183
330
17F
100
AcDbEntity
  8
PROJECT$CURVES
 62
     1
  0
POLYLINE
  5
184
330
1F
100
AcDbEntity
  8
PROJECT$CURVES
 62
     1
100
AcDb2dPolyline
 66
     1
 10
0.0
 20
0.0
 30
0.0
  0
VERTEX
  5
185
330
184
100
AcDbEntity
  8
PROJECT$CURVES
 62
     1
100
AcDbVertex
100
AcDb2dVertex
 10
23.38252545399867
 20
16.83641901952179
 30
0.0
  0
VERTEX
  5
186
330
184
100
AcDbEntity
  8
PROJECT$CURVES
 62
     1
100
AcDbVertex
100
AcDb2dVertex
 10
23.41444507679639
 20
16.78268460149712
 30
0.0
  0
VERTEX
  5
187
330
184
100
AcDbEntity
  8
PROJECT$CURVES
 62
     1
100
AcDbVertex
100
AcDb2dVertex
 10
23.44636469959411
 20
16.72895018347244
 30
0.0
  0
SEQEND
  5
188
330
184
100
AcDbEntity
  8
PROJECT$CURVES
 62
     1
  0
POLYLINE
  5
189
330
1F
100
AcDbEntity
  8
PROJECT$CURVES
 62
     1
100
AcDb2dPolyline
 66
     1
 10
0.0
 20
0.0
 30
0.0
  0
VERTEX
  5
18A
330
189
100
AcDbEntity
  8
PROJECT$CURVES
 62
     1
100
AcDbVertex
100
AcDb2dVertex
 10
21.83078701751426
 20
13.99001334628282
 30
0.0
  0
VERTEX
  5
18B
330
189
100
AcDbEntity
  8
PROJECT$CURVES
 62
     1
100
AcDbVertex
100
AcDb2dVertex
 10
21.77662960133252
 20
13.95881680364555
 30
0.0
  0
VERTEX
  5
18C
330
189
100
AcDbEntity
  8
PROJECT$CURVES
 62
     1
100
AcDbVertex
100
AcDb2dVertex
 10
21.72247218515079
 20
13.92762026100827
 30
0.0
  0
SEQEND
  5
18D
330
189
100
AcDbEntity
  8
PROJECT$CURVES
 62
     1
  0
POLYLINE
  5
18E
330
1F
100
AcDbEntity
  8
PROJECT$CURVES
 62
     1
100
AcDb2dPolyline
 66
     1
 10
0.0
 20
0.0
 30
0.0
  0
VERTEX
  5
18F
330
18E
100
AcDbEntity
  8
PROJECT$CURVES
 62
     1
100
AcDbVertex
100
AcDb2dVertex
 10
17.3682392321382
 20
16.67578406460225
 30
0.0
  0
VERTEX
  5
190
330
18E
100
AcDbEntity
  8
PROJECT$CURVES
 62
     1
100
AcDbVertex
100
AcDb2dVertex
 10
17.39980617603955
 20
16.6218417059893
 30
0.0
  0
VERTEX
  5
191
330
18E
100
AcDbEntity
  8
PROJECT$CURVES
 62
     1
100
AcDbVertex
100
AcDb2dVertex
 10
17.43137311994092
 20
16.56789934737636
 30
0.0
  0
SEQEND
  5
192
330
18E
100
AcDbEntity
  8
PROJECT$CURVES
 62
     1
  0
POLYLINE
  5
193
330
1F
100
AcDbEntity
  8
PROJECT$CURVES
 62
     1
100
AcDb2dPolyline
 66
     1
 10
0.0
 20
0.0
 30
0.0
  0
VERTEX
  5
194
330
193
100
AcDbEntity
  8
PROJECT$CURVES
 62
     1
100
AcDbVertex
100
AcDb2dVertex
 10
15.75392703794177
 20
13.9279759154979
 30
0.0
  0
VERTEX
  5
195
330
193
100
AcDbEntity
  8
PROJECT$CURVES
 62
     1
100
AcDbVertex
100
AcDb2dVertex
 10
15.80828777393994
 20
13.95881680364555
 30
0.0
  0
VERTEX
  5
196
330
193
100
AcDbEntity
  8
PROJECT$CURVES
 62
     1
100
AcDbVertex
100
AcDb2dVertex
 10
15.86264850993813
 20
13.9896576917932
 30
0.0
  0
SEQEND
  5
197
330
193
100
AcDbEntity
  8
PROJECT$CURVES
 62
     1
  0
POLYLINE
  5
198
330
1F
100
AcDbEntity
  8
PROJECT$CURVES
 62
     1
100
AcDb2dPolyline
 66
     1
 10
0.0
 20
0.0
 30
0.0
  0
VERTEX
  5
199
330
198
100
AcDbEntity
  8
PROJECT$CURVES
 62
     1
100
AcDbVertex
100
AcDb2dVertex
 10
23.46817949482108
 20
16.81460422429483
 30
0.0
  0
VERTEX
  5
19A
330
198
100
AcDbEntity
  8
PROJECT$CURVES
 62
     1
100
AcDbVertex
100
AcDb2dVertex
 10
23.41444507679639
 20
16.78268460149712
 30
0.0
  0
VERTEX
  5
19B
330
198
100
AcDbEntity
  8
PROJECT$CURVES
 62
     1
100
AcDbVertex
100
AcDb2dVertex
 10
23.36071065877172
 20
16.7507649786994
 30
0.0
  0
SEQEND
  5
19C
330
198
100
AcDbEntity
  8
PROJECT$CURVES
 62
     1
  0
POLYLINE
  5
19D
330
1F
100
AcDbEntity
  8
PROJECT$CURVES
 62
     1
100
AcDb2dPolyline
 66
     1
 10
0.0
 20
0.0
 30
0.0
  0
VERTEX
  5
19E
330
19D
100
AcDbEntity
  8
PROJECT$CURVES
 62
     1
100
AcDbVertex
100
AcDb2dVertex
 10
21.8078261439698
 20
13.90465938746381
 30
0.0
  0
VERTEX
  5
19F
330
19D
100
AcDbEntity
  8
PROJECT$CURVES
 62
     1
100
AcDbVertex
100
AcDb2dVertex
 10
21.77662960133252
 20
13.95881680364555
 30
0.0
  0
VERTEX
  5
1A0
330
19D
100
AcDbEntity
  8
PROJECT$CURVES
 62
     1
100
AcDbVertex
100
AcDb2dVertex
 10
21.74543305869525
 20
14.01297421982729
 30
0.0
  0
SEQEND
  5
1A1
330
19D
100
AcDbEntity
  8
PROJECT$CURVES
 62
     1
  0
POLYLINE
  5
1A2
330
1F
100
AcDbEntity
  8
PROJECT$CURVES
 62
     1
100
AcDb2dPolyline
 66
     1
 10
0.0
 20
0.0
 30
0.0
 70
     1
  0
VERTEX
  5
1A3
330
1A2
100
AcDbEntity
  8
PROJECT$CURVES
 62
     1
100
AcDbVertex
100
AcDb2dVertex
 10
21.77662961491651
 20
13.83381634720023
 30
0.0
  0
VERTEX
  5
1A4
330
1A2
100
AcDbEntity
  8
PROJECT$CURVES
 62
     1
100
AcDbVertex
100
AcDb2dVertex
 10
15.58796029086334
 20
13.83381634720023
 30
0.0
  0
VERTEX
  5
1A5
330
1A2
100
AcDbEntity
  8
PROJECT$CURVES
 62
     1
100
AcDbVertex
100
AcDb2dVertex
 10
17.32776329017508
 20
16.74495437967521
 30
0.0
  0
VERTEX
  5
1A6
330
1A2
100
AcDbEntity
  8
PROJECT$CURVES
 62
     1
100
AcDbVertex
100
AcDb2dVertex
 10
23.63489207754922
 20
16.91363078356334
 30
0.0
  0
VERTEX
  5
1A7
330
1A2
100
AcDbEntity
  8
PROJECT$CURVES
 62
     1
100
AcDbVertex
100
AcDb2dVertex
 10
21.84863376389543
 20
13.83381634720023
 30
0.0
  0
SEQEND
  5
1A8
330
1A2
100
AcDbEntity
  8
PROJECT$CURVES
 62
     1
  0
POLYLINE
  5
1A9
330
1F
100
AcDbEntity
  8
PROJECT$CURVES
 62
     1
100
AcDb2dPolyline
 66
     1
 10
0.0
 20
0.0
 30
0.0
  0
VERTEX
  5
1AA
330
1A9
100
AcDbEntity
  8
PROJECT$CURVES
 62
     1
100
AcDbVertex
100
AcDb2dVertex
 10
21.06133942495639
 20
13.39759093378606
 30
0.0
  0
VERTEX
  5
1AB
330
1A9
100
AcDbEntity
  8
PROJECT$CURVES
 62
     1
100
AcDbVertex
100
AcDb2dVertex
 10
21.11532687347641
 20
13.42908070041426
 30
0.0
  0
VERTEX
  5
1AC
330
1A9
100
AcDbEntity
  8
PROJECT$CURVES
 62
     1
100
AcDbVertex
100
AcDb2dVertex
 10
21.16931432199643
 20
13.46057046704245
 30
0.0
  0
SEQEND
  5
1AD
330
1A9
100
AcDbEntity
  8
PROJECT$CURVES
 62
     1
  0
POLYLINE
  5
1AE
330
1F
100
AcDbEntity
  8
PROJECT$CURVES
 62
     1
100
AcDb2dPolyline
 66
     1
 10
0.0
 20
0.0
 30
0.0
  0
VERTEX
  5
1AF
330
1AE
100
AcDbEntity
  8
PROJECT$CURVES
 62
     1
100
AcDbVertex
100
AcDb2dVertex
 10
19.63812509800978
 20
10.81154750561733
 30
0.0
  0
VERTEX
  5
1B0
330
1AE
100
AcDbEntity
  8
PROJECT$CURVES
 62
     1
100
AcDbVertex
100
AcDb2dVertex
 10
19.60709857147446
 20
10.86580250217206
 30
0.0
  0
VERTEX
  5
1B1
330
1AE
100
AcDbEntity
  8
PROJECT$CURVES
 62
     1
100
AcDbVertex
100
AcDb2dVertex
 10
19.57607204493913
 20
10.9200574987268
 30
0.0
  0
SEQEND
  5
1B2
330
1AE
100
AcDbEntity
  8
PROJECT$CURVES
 62
     1
  0
POLYLINE
  5
1B3
330
1F
100
AcDbEntity
  8
PROJECT$CURVES
 62
     1
100
AcDb2dPolyline
 66
     1
 10
0.0
 20
0.0
 30
0.0
  0
VERTEX
  5
1B4
330
1B3
100
AcDbEntity
  8
PROJECT$CURVES
 62
     1
100
AcDbVertex
100
AcDb2dVertex
 10
27.26350914038794
 20
13.58861893034208
 30
0.0
  0
VERTEX
  5
1B5
330
1B3
100
AcDbEntity
  8
PROJECT$CURVES
 62
     1
100
AcDbVertex
100
AcDb2dVertex
 10
27.29491042297592
 20
13.53457996799238
 30
0.0
  0
VERTEX
  5
1B6
330
1B3
100
AcDbEntity
  8
PROJECT$CURVES
 62
     1
100
AcDbVertex
100
AcDb2dVertex
 10
27.3263117055639
 20
13.48054100564269
 30
0.0
  0
SEQEND
  5
1B7
330
1B3
100
AcDbEntity
  8
PROJECT$CURVES
 62
     1
  0
POLYLINE
  5
1B8
330
1F
100
AcDbEntity
  8
PROJECT$CURVES
 62
     1
100
AcDb2dPolyline
 66
     1
 10
0.0
 20
0.0
 30
0.0
  0
VERTEX
  5
1B9
330
1B8
100
AcDbEntity
  8
PROJECT$CURVES
 62
     1
100
AcDbVertex
100
AcDb2dVertex
 10
25.76734802898604
 20
10.89674173434289
 30
0.0
  0
VERTEX
  5
1BA
330
1B8
100
AcDbEntity
  8
PROJECT$CURVES
 62
     1
100
AcDbVertex
100
AcDb2dVertex
 10
25.71304320495834
 20
10.86580250217207
 30
0.0
  0
VERTEX
  5
1BB
330
1B8
100
AcDbEntity
  8
PROJECT$CURVES
 62
     1
100
AcDbVertex
100
AcDb2dVertex
 10
25.65873838093065
 20
10.83486327000124
 30
0.0
  0
SEQEND
  5
1BC
330
1B8
100
AcDbEntity
  8
PROJECT$CURVES
 62
     1
  0
POLYLINE
  5
1BD
330
1F
100
AcDbEntity
  8
PROJECT$CURVES
 62
     1
100
AcDb2dPolyline
 66
     1
 10
0.0
 20
0.0
 30
0.0
  0
VERTEX
  5
1BE
330
1BD
100
AcDbEntity
  8
PROJECT$CURVES
 62
     1
100
AcDbVertex
100
AcDb2dVertex
 10
21.0838371068482
 20
13.48306814893427
 30
0.0
  0
VERTEX
  5
1BF
330
1BD
100
AcDbEntity
  8
PROJECT$CURVES
 62
     1
100
AcDbVertex
100
AcDb2dVertex
 10
21.11532687347641
 20
13.42908070041426
 30
0.0
  0
VERTEX
  5
1C0
330
1BD
100
AcDbEntity
  8
PROJECT$CURVES
 62
     1
100
AcDbVertex
100
AcDb2dVertex
 10
21.14681664010461
 20
13.37509325189424
 30
0.0
  0
SEQEND
  5
1C1
330
1BD
100
AcDbEntity
  8
PROJECT$CURVES
 62
     1
  0
POLYLINE
  5
1C2
330
1F
100
AcDbEntity
  8
PROJECT$CURVES
 62
     1
100
AcDb2dPolyline
 66
     1
 10
0.0
 20
0.0
 30
0.0
  0
VERTEX
  5
1C3
330
1C2
100
AcDbEntity
  8
PROJECT$CURVES
 62
     1
100
AcDbVertex
100
AcDb2dVertex
 10
19.55284357491972
 20
10.83477597563674
 30
0.0
  0
VERTEX
  5
1C4
330
1C2
100
AcDbEntity
  8
PROJECT$CURVES
 62
     1
100
AcDbVertex
100
AcDb2dVertex
 10
19.60709857147446
 20
10.86580250217206
 30
0.0
  0
VERTEX
  5
1C5
330
1C2
100
AcDbEntity
  8
PROJECT$CURVES
 62
     1
100
AcDbVertex
100
AcDb2dVertex
 10
19.66135356802917
 20
10.89682902870739
 30
0.0
  0
SEQEND
  5
1C6
330
1C2
100
AcDbEntity
  8
PROJECT$CURVES
 62
     1
  0
POLYLINE
  5
1C7
330
1F
100
AcDbEntity
  8
PROJECT$CURVES
 62
     1
100
AcDb2dPolyline
 66
     1
 10
0.0
 20
0.0
 30
0.0
  0
VERTEX
  5
1C8
330
1C7
100
AcDbEntity
  8
PROJECT$CURVES
 62
     1
100
AcDbVertex
100
AcDb2dVertex
 10
27.34894938532559
 20
13.56598125058036
 30
0.0
  0
VERTEX
  5
1C9
330
1C7
100
AcDbEntity
  8
PROJECT$CURVES
 62
     1
100
AcDbVertex
100
AcDb2dVertex
 10
27.29491042297592
 20
13.53457996799238
 30
0.0
  0
VERTEX
  5
1CA
330
1C7
100
AcDbEntity
  8
PROJECT$CURVES
 62
     1
100
AcDbVertex
100
AcDb2dVertex
 10
27.24087146062623
 20
13.50317868540441
 30
0.0
  0
SEQEND
  5
1CB
330
1C7
100
AcDbEntity
  8
PROJECT$CURVES
 62
     1
  0
POLYLINE
  5
1CC
330
1F
100
AcDbEntity
  8
PROJECT$CURVES
 62
     1
100
AcDb2dPolyline
 66
     1
 10
0.0
 20
0.0
 30
0.0
  0
VERTEX
  5
1CD
330
1CC
100
AcDbEntity
  8
PROJECT$CURVES
 62
     1
100
AcDbVertex
100
AcDb2dVertex
 10
25.74398243712915
 20
10.81149767814437
 30
0.0
  0
VERTEX
  5
1CE
330
1CC
100
AcDbEntity
  8
PROJECT$CURVES
 62
     1
100
AcDbVertex
100
AcDb2dVertex
 10
25.71304320495834
 20
10.86580250217207
 30
0.0
  0
VERTEX
  5
1CF
330
1CC
100
AcDbEntity
  8
PROJECT$CURVES
 62
     1
100
AcDbVertex
100
AcDb2dVertex
 10
25.68210397278752
 20
10.92010732619976
 30
0.0
  0
SEQEND
  5
1D0
330
1CC
100
AcDbEntity
  8
PROJECT$CURVES
 62
     1
  0
POLYLINE
  5
1D1
330
1F
100
AcDbEntity
  8
PROJECT$CURVES
 62
     1
100
AcDb2dPolyline
 66
     1
 10
0.0
 20
0.0
 30
0.0
 70
     1
  0
VERTEX
  5
1D2
330
1D1
100
AcDbEntity
  8
PROJECT$CURVES
 62
     1
100
AcDbVertex
100
AcDb2dVertex
 10
25.71304350028061
 20
10.7408079801799
 30
0.0
  0
VERTEX
  5
1D3
330
1D1
100
AcDbEntity
  8
PROJECT$CURVES
 62
     1
100
AcDbVertex
100
AcDb2dVertex
 10
19.38851576257331
 20
10.7408079801799
 30
0.0
  0
VERTEX
  5
1D4
330
1D1
100
AcDbEntity
  8
PROJECT$CURVES
 62
     1
100
AcDbVertex
100
AcDb2dVertex
 10
21.04312890525894
 20
13.55285937414362
 30
0.0
  0
VERTEX
  5
1D5
330
1D1
100
AcDbEntity
  8
PROJECT$CURVES
 62
     1
100
AcDbVertex
100
AcDb2dVertex
 10
27.51656372451564
 20
13.66337497372481
 30
0.0
  0
VERTEX
  5
1D6
330
1D1
100
AcDbEntity
  8
PROJECT$CURVES
 62
     1
100
AcDbVertex
100
AcDb2dVertex
 10
25.7842603749469
 20
10.7408079801799
 30
0.0
  0
SEQEND
  5
1D7
330
1D1
100
AcDbEntity
  8
PROJECT$CURVES
 62
     1
  0
POLYLINE
  5
1D8
330
1F
100
AcDbEntity
  8
PROJECT$CURVES
 62
     1
100
AcDb2dPolyline
 66
     1
 10
0.0
 20
0.0
 30
0.0
  0
VERTEX
  5
1D9
330
1D8
100
AcDbEntity
  8
PROJECT$CURVES
 62
     1
100
AcDbVertex
100
AcDb2dVertex
 10
33.32839161641115
 20
10.6415471798176
 30
0.0
  0
VERTEX
  5
1DA
330
1D8
100
AcDbEntity
  8
PROJECT$CURVES
 62
     1
100
AcDbVertex
100
AcDb2dVertex
 10
33.30129095664083
 20
10.69786595324186
 30
0.0
  0
VERTEX
  5
1DB
330
1D8
100
AcDbEntity
  8
PROJECT$CURVES
 62
     1
100
AcDbVertex
100
AcDb2dVertex
 10
33.27419029687051
 20
10.75418472666613
 30
0.0
  0
SEQEND
  5
1DC
330
1D8
100
AcDbEntity
  8
PROJECT$CURVES
 62
     1
  0
POLYLINE
  5
1DD
330
1F
100
AcDbEntity
  8
PROJECT$CURVES
 62
     1
100
AcDb2dPolyline
 66
     1
 10
0.0
 20
0.0
 30
0.0
  0
VERTEX
  5
1DE
330
1DD
100
AcDbEntity
  8
PROJECT$CURVES
 62
     1
100
AcDbVertex
100
AcDb2dVertex
 10
35.33485188984633
 20
13.20206017363867
 30
0.0
  0
VERTEX
  5
1DF
330
1DD
100
AcDbEntity
  8
PROJECT$CURVES
 62
     1
100
AcDbVertex
100
AcDb2dVertex
 10
35.27878424277365
 20
13.17444371203093
 30
0.0
  0
VERTEX
  5
1E0
330
1DD
100
AcDbEntity
  8
PROJECT$CURVES
 62
     1
100
AcDbVertex
100
AcDb2dVertex
 10
35.22271659570095
 20
13.14682725042318
 30
0.0
  0
SEQEND
  5
1E1
330
1DD
100
AcDbEntity
  8
PROJECT$CURVES
 62
     1
  0
POLYLINE
  5
1E2
330
1F
100
AcDbEntity
  8
PROJECT$CURVES
 62
     1
100
AcDb2dPolyline
 66
     1
 10
0.0
 20
0.0
 30
0.0
  0
VERTEX
  5
1E3
330
1E2
100
AcDbEntity
  8
PROJECT$CURVES
 62
     1
100
AcDbVertex
100
AcDb2dVertex
 10
27.0641568887175
 20
10.67146521102191
 30
0.0
  0
VERTEX
  5
1E4
330
1E2
100
AcDbEntity
  8
PROJECT$CURVES
 62
     1
100
AcDbVertex
100
AcDb2dVertex
 10
27.12080713858663
 20
10.69786595324186
 30
0.0
  0
VERTEX
  5
1E5
330
1E2
100
AcDbEntity
  8
PROJECT$CURVES
 62
     1
100
AcDbVertex
100
AcDb2dVertex
 10
27.17745738845577
 20
10.72426669546181
 30
0.0
  0
SEQEND
  5
1E6
330
1E2
100
AcDbEntity
  8
PROJECT$CURVES
 62
     1
  0
POLYLINE
  5
1E7
330
1F
100
AcDbEntity
  8
PROJECT$CURVES
 62
     1
100
AcDb2dPolyline
 66
     1
 10
0.0
 20
0.0
 30
0.0
  0
VERTEX
  5
1E8
330
1E7
100
AcDbEntity
  8
PROJECT$CURVES
 62
     1
100
AcDbVertex
100
AcDb2dVertex
 10
29.07845748215301
 20
13.11720107053631
 30
0.0
  0
VERTEX
  5
1E9
330
1E7
100
AcDbEntity
  8
PROJECT$CURVES
 62
     1
100
AcDbVertex
100
AcDb2dVertex
 10
29.10537859549581
 20
13.06079625109342
 30
0.0
  0
VERTEX
  5
1EA
330
1E7
100
AcDbEntity
  8
PROJECT$CURVES
 62
     1
100
AcDbVertex
100
AcDb2dVertex
 10
29.13229970883862
 20
13.00439143165053
 30
0.0
  0
SEQEND
  5
1EB
330
1E7
100
AcDbEntity
  8
PROJECT$CURVES
 62
     1
  0
POLYLINE
  5
1EC
330
1F
100
AcDbEntity
  8
PROJECT$CURVES
 62
     1
100
AcDb2dPolyline
 66
     1
 10
0.0
 20
0.0
 30
0.0
  0
VERTEX
  5
1ED
330
1EC
100
AcDbEntity
  8
PROJECT$CURVES
 62
     1
100
AcDbVertex
100
AcDb2dVertex
 10
33.3576097300651
 20
10.72496661301219
 30
0.0
  0
VERTEX
  5
1EE
330
1EC
100
AcDbEntity
  8
PROJECT$CURVES
 62
     1
100
AcDbVertex
100
AcDb2dVertex
 10
33.30129095664083
 20
10.69786595324186
 30
0.0
  0
VERTEX
  5
1EF
330
1EC
100
AcDbEntity
  8
PROJECT$CURVES
 62
     1
100
AcDbVertex
100
AcDb2dVertex
 10
33.24497218321657
 20
10.67076529347154
 30
0.0
  0
SEQEND
  5
1F0
330
1EC
100
AcDbEntity
  8
PROJECT$CURVES
 62
     1
  0
POLYLINE
  5
1F1
330
1F
100
AcDbEntity
  8
PROJECT$CURVES
 62
     1
100
AcDb2dPolyline
 66
     1
 10
0.0
 20
0.0
 30
0.0
  0
VERTEX
  5
1F2
330
1F1
100
AcDbEntity
  8
PROJECT$CURVES
 62
     1
100
AcDbVertex
100
AcDb2dVertex
 10
35.2511677811659
 20
13.23051135910362
 30
0.0
  0
VERTEX
  5
1F3
330
1F1
100
AcDbEntity
  8
PROJECT$CURVES
 62
     1
100
AcDbVertex
100
AcDb2dVertex
 10
35.27878424277365
 20
13.17444371203093
 30
0.0
  0
VERTEX
  5
1F4
330
1F1
100
AcDbEntity
  8
PROJECT$CURVES
 62
     1
100
AcDbVertex
100
AcDb2dVertex
 10
35.3064007043814
 20
13.11837606495823
 30
0.0
  0
SEQEND
  5
1F5
330
1F1
100
AcDbEntity
  8
PROJECT$CURVES
 62
     1
  0
POLYLINE
  5
1F6
330
1F
100
AcDbEntity
  8
PROJECT$CURVES
 62
     1
100
AcDb2dPolyline
 66
     1
 10
0.0
 20
0.0
 30
0.0
  0
VERTEX
  5
1F7
330
1F6
100
AcDbEntity
  8
PROJECT$CURVES
 62
     1
100
AcDbVertex
100
AcDb2dVertex
 10
27.14720788080658
 20
10.64121570337272
 30
0.0
  0
VERTEX
  5
1F8
330
1F6
100
AcDbEntity
  8
PROJECT$CURVES
 62
     1
100
AcDbVertex
100
AcDb2dVertex
 10
27.12080713858663
 20
10.69786595324186
 30
0.0
  0
VERTEX
  5
1F9
330
1F6
100
AcDbEntity
  8
PROJECT$CURVES
 62
     1
100
AcDbVertex
100
AcDb2dVertex
 10
27.09440639636669
 20
10.754516203111
 30
0.0
  0
SEQEND
  5
1FA
330
1F6
100
AcDbEntity
  8
PROJECT$CURVES
 62
     1
  0
POLYLINE
  5
1FB
330
1F
100
AcDbEntity
  8
PROJECT$CURVES
 62
     1
100
AcDb2dPolyline
 66
     1
 10
0.0
 20
0.0
 30
0.0
  0
VERTEX
  5
1FC
330
1FB
100
AcDbEntity
  8
PROJECT$CURVES
 62
     1
100
AcDbVertex
100
AcDb2dVertex
 10
29.04897377605293
 20
13.03387513775061
 30
0.0
  0
VERTEX
  5
1FD
330
1FB
100
AcDbEntity
  8
PROJECT$CURVES
 62
     1
100
AcDbVertex
100
AcDb2dVertex
 10
29.10537859549581
 20
13.06079625109342
 30
0.0
  0
VERTEX
  5
1FE
330
1FB
100
AcDbEntity
  8
PROJECT$CURVES
 62
     1
100
AcDbVertex
100
AcDb2dVertex
 10
29.1617834149387
 20
13.08771736443623
 30
0.0
  0
SEQEND
  5
1FF
330
1FB
100
AcDbEntity
  8
PROJECT$CURVES
 62
     1
  0
POLYLINE
  5
200
330
1F
100
AcDbEntity
  8
PROJECT$CURVES
 62
     1
100
AcDb2dPolyline
 66
     1
 10
0.0
 20
0.0
 30
0.0
 70
     1
  0
VERTEX
  5
201
330
200
100
AcDbEntity
  8
PROJECT$CURVES
 62
     1
100
AcDbVertex
100
AcDb2dVertex
 10
33.30129117274435
 20
10.57286877003873
 30
0.0
  0
VERTEX
  5
202
330
200
100
AcDbEntity
  8
PROJECT$CURVES
 62
     1
100
AcDbVertex
100
AcDb2dVertex
 10
26.85258432090229
 20
10.57286877003872
 30
0.0
  0
VERTEX
  5
203
330
200
100
AcDbEntity
  8
PROJECT$CURVES
 62
     1
100
AcDbVertex
100
AcDb2dVertex
 10
29.04622778377091
 20
13.18472936034345
 30
0.0
  0
VERTEX
  5
204
330
200
100
AcDbEntity
  8
PROJECT$CURVES
 62
     1
100
AcDbVertex
100
AcDb2dVertex
 10
35.54244556858303
 20
13.30431498133487
 30
0.0
  0
VERTEX
  5
205
330
200
100
AcDbEntity
  8
PROJECT$CURVES
 62
     1
100
AcDbVertex
100
AcDb2dVertex
 10
33.36144065993786
 20
10.57286877003873
 30
0.0
  0
SEQEND
  5
206
330
200
100
AcDbEntity
  8
PROJECT$CURVES
 62
     1
  0
POLYLINE
  5
207
330
1F
100
AcDbEntity
  8
PROJECT$CURVES
 62
     1
100
AcDb2dPolyline
 66
     1
 10
0.0
 20
0.0
 30
0.0
 70
     1
  0
VERTEX
  5
208
330
207
100
AcDbEntity
  8
PROJECT$CURVES
 62
     1
100
AcDbVertex
100
AcDb2dVertex
 10
30.57802382612383
 20
16.42480202011146
 30
0.0
  0
VERTEX
  5
209
330
207
100
AcDbEntity
  8
PROJECT$CURVES
 62
     1
100
AcDbVertex
100
AcDb2dVertex
 10
24.66110001402513
 20
16.42480202011146
 30
0.0
  0
VERTEX
  5
20A
330
207
100
AcDbEntity
  8
PROJECT$CURVES
 62
     1
100
AcDbVertex
100
AcDb2dVertex
 10
26.53107561539241
 20
19.68959870284616
 30
0.0
  0
VERTEX
  5
20B
330
207
100
AcDbEntity
  8
PROJECT$CURVES
 62
     1
100
AcDbVertex
100
AcDb2dVertex
 10
32.58195146698274
 20
20.02069884914644
 30
0.0
  0
VERTEX
  5
20C
330
207
100
AcDbEntity
  8
PROJECT$CURVES
 62
     1
100
AcDbVertex
100
AcDb2dVertex
 10
30.65281585257059
 20
16.42480202011146
 30
0.0
  0
SEQEND
  5
20D
330
207
100
AcDbEntity
  8
PROJECT$CURVES
 62
     1
  0
POLYLINE
  5
20E
330
1F
100
AcDbEntity
  8
PROJECT$CURVES
 62
     1
100
AcDb2dPolyline
 66
     1
 10
0.0
 20
0.0
 30
0.0
  0
VERTEX
  5
20F
330
20E
100
AcDbEntity
  8
PROJECT$CURVES
 62
     1
100
AcDbVertex
100
AcDb2dVertex
 10
30.61011412267192
 20
16.49616807206718
 30
0.0
  0
VERTEX
  5
210
330
20E
100
AcDbEntity
  8
PROJECT$CURVES
 62
     1
100
AcDbVertex
100
AcDb2dVertex
 10
30.57802381215898
 20
16.54980072975988
 30
0.0
  0
VERTEX
  5
211
330
20E
100
AcDbEntity
  8
PROJECT$CURVES
 62
     1
100
AcDbVertex
100
AcDb2dVertex
 10
30.54593350164605
 20
16.60343338745258
 30
0.0
  0
SEQEND
  5
212
330
20E
100
AcDbEntity
  8
PROJECT$CURVES
 62
     1
  0
POLYLINE
  5
213
330
1F
100
AcDbEntity
  8
PROJECT$CURVES
 62
     1
100
AcDb2dPolyline
 66
     1
 10
0.0
 20
0.0
 30
0.0
  0
VERTEX
  5
214
330
213
100
AcDbEntity
  8
PROJECT$CURVES
 62
     1
100
AcDbVertex
100
AcDb2dVertex
 10
24.82267619861446
 20
16.51845765073021
 30
0.0
  0
VERTEX
  5
215
330
213
100
AcDbEntity
  8
PROJECT$CURVES
 62
     1
100
AcDbVertex
100
AcDb2dVertex
 10
24.87674894033281
 20
16.54980072975989
 30
0.0
  0
VERTEX
  5
216
330
213
100
AcDbEntity
  8
PROJECT$CURVES
 62
     1
100
AcDbVertex
100
AcDb2dVertex
 10
24.93082168205116
 20
16.58114380878957
 30
0.0
  0
SEQEND
  5
217
330
213
100
AcDbEntity
  8
PROJECT$CURVES
 62
     1
  0
POLYLINE
  5
218
330
1F
100
AcDbEntity
  8
PROJECT$CURVES
 62
     1
100
AcDb2dPolyline
 66
     1
 10
0.0
 20
0.0
 30
0.0
  0
VERTEX
  5
219
330
218
100
AcDbEntity
  8
PROJECT$CURVES
 62
     1
100
AcDbVertex
100
AcDb2dVertex
 10
26.57295875223648
 20
19.62168975286509
 30
0.0
  0
VERTEX
  5
21A
330
218
100
AcDbEntity
  8
PROJECT$CURVES
 62
     1
100
AcDbVertex
100
AcDb2dVertex
 10
26.60576619802324
 20
19.56849274636145
 30
0.0
  0
VERTEX
  5
21B
330
218
100
AcDbEntity
  8
PROJECT$CURVES
 62
     1
100
AcDbVertex
100
AcDb2dVertex
 10
26.63857364381002
 20
19.51529573985781
 30
0.0
  0
SEQEND
  5
21C
330
218
100
AcDbEntity
  8
PROJECT$CURVES
 62
     1
  0
POLYLINE
  5
21D
330
1F
100
AcDbEntity
  8
PROJECT$CURVES
 62
     1
100
AcDb2dPolyline
 66
     1
 10
0.0
 20
0.0
 30
0.0
  0
VERTEX
  5
21E
330
21D
100
AcDbEntity
  8
PROJECT$CURVES
 62
     1
100
AcDbVertex
100
AcDb2dVertex
 10
30.63165646985168
 20
16.58189104027281
 30
0.0
  0
VERTEX
  5
21F
330
21D
100
AcDbEntity
  8
PROJECT$CURVES
 62
     1
100
AcDbVertex
100
AcDb2dVertex
 10
30.57802381215898
 20
16.54980072975988
 30
0.0
  0
VERTEX
  5
220
330
21D
100
AcDbEntity
  8
PROJECT$CURVES
 62
     1
100
AcDbVertex
100
AcDb2dVertex
 10
30.52439115446628
 20
16.51771041924695
 30
0.0
  0
SEQEND
  5
221
330
21D
100
AcDbEntity
  8
PROJECT$CURVES
 62
     1
  0
POLYLINE
  5
222
330
1F
100
AcDbEntity
  8
PROJECT$CURVES
 62
     1
100
AcDb2dPolyline
 66
     1
 10
0.0
 20
0.0
 30
0.0
  0
VERTEX
  5
223
330
222
100
AcDbEntity
  8
PROJECT$CURVES
 62
     1
100
AcDbVertex
100
AcDb2dVertex
 10
32.33307154463057
 20
19.93645873960421
 30
0.0
  0
VERTEX
  5
224
330
222
100
AcDbEntity
  8
PROJECT$CURVES
 62
     1
100
AcDbVertex
100
AcDb2dVertex
 10
32.36661710439532
 20
19.88372406960363
 30
0.0
  0
VERTEX
  5
225
330
222
100
AcDbEntity
  8
PROJECT$CURVES
 62
     1
100
AcDbVertex
100
AcDb2dVertex
 10
32.40016266416006
 20
19.83098939960306
 30
0.0
  0
SEQEND
  5
226
330
222
100
AcDbEntity
  8
PROJECT$CURVES
 62
     1
  0
POLYLINE
  5
227
330
1F
100
AcDbEntity
  8
PROJECT$CURVES
 62
     1
100
AcDb2dPolyline
 66
     1
 10
0.0
 20
0.0
 30
0.0
  0
VERTEX
  5
228
330
227
100
AcDbEntity
  8
PROJECT$CURVES
 62
     1
100
AcDbVertex
100
AcDb2dVertex
 10
24.90809201936249
 20
16.49572798804153
 30
0.0
  0
VERTEX
  5
229
330
227
100
AcDbEntity
  8
PROJECT$CURVES
 62
     1
100
AcDbVertex
100
AcDb2dVertex
 10
24.87674894033281
 20
16.54980072975989
 30
0.0
  0
VERTEX
  5
22A
330
227
100
AcDbEntity
  8
PROJECT$CURVES
 62
     1
100
AcDbVertex
100
AcDb2dVertex
 10
24.84540586130312
 20
16.60387347147824
 30
0.0
  0
SEQEND
  5
22B
330
227
100
AcDbEntity
  8
PROJECT$CURVES
 62
     1
  0
POLYLINE
  5
22C
330
1F
100
AcDbEntity
  8
PROJECT$CURVES
 62
     1
100
AcDb2dPolyline
 66
     1
 10
0.0
 20
0.0
 30
0.0
  0
VERTEX
  5
22D
330
22C
100
AcDbEntity
  8
PROJECT$CURVES
 62
     1
100
AcDbVertex
100
AcDb2dVertex
 10
26.55256919151961
 20
19.53568530057468
 30
0.0
  0
VERTEX
  5
22E
330
22C
100
AcDbEntity
  8
PROJECT$CURVES
 62
     1
100
AcDbVertex
100
AcDb2dVertex
 10
26.60576619802324
 20
19.56849274636145
 30
0.0
  0
VERTEX
  5
22F
330
22C
100
AcDbEntity
  8
PROJECT$CURVES
 62
     1
100
AcDbVertex
100
AcDb2dVertex
 10
26.65896320452688
 20
19.60130019214822
 30
0.0
  0
SEQEND
  5
230
330
22C
100
AcDbEntity
  8
PROJECT$CURVES
 62
     1
  0
POLYLINE
  5
231
330
1F
100
AcDbEntity
  8
PROJECT$CURVES
 62
     1
100
AcDb2dPolyline
 66
     1
 10
0.0
 20
0.0
 30
0.0
  0
VERTEX
  5
232
330
231
100
AcDbEntity
  8
PROJECT$CURVES
 62
     1
100
AcDbVertex
100
AcDb2dVertex
 10
32.41935177439589
 20
19.91726962936838
 30
0.0
  0
VERTEX
  5
233
330
231
100
AcDbEntity
  8
PROJECT$CURVES
 62
     1
100
AcDbVertex
100
AcDb2dVertex
 10
32.36661710439532
 20
19.88372406960363
 30
0.0
  0
VERTEX
  5
234
330
231
100
AcDbEntity
  8
PROJECT$CURVES
 62
     1
100
AcDbVertex
100
AcDb2dVertex
 10
32.31388243439474
 20
19.85017850983888
 30
0.0
  0
SEQEND
  5
235
330
231
100
AcDbEntity
  8
PROJECT$CURVES
 62
     1
  0
POLYLINE
  5
236
330
1F
100
AcDbEntity
  8
PROJECT$CURVES
 62
     1
100
AcDb2dPolyline
 66
     1
 10
0.0
 20
0.0
 30
-1.12921738433468
  0
VERTEX
  5
237
330
236
100
AcDbEntity
  8
PROJECT$CURVES
 62
     1
100
AcDbVertex
100
AcDb2dVertex
 10
21.41235448478352
 20
17.7344593855485
 30
-1.12921738433468
  0
VERTEX
  5
238
330
236
100
AcDbEntity
  8
PROJECT$CURVES
 62
     1
100
AcDbVertex
100
AcDb2dVertex
 10
21.35845182573255
 20
17.70282469972367
 30
-1.12921738433468
  0
VERTEX
  5
239
330
236
100
AcDbEntity
  8
PROJECT$CURVES
 62
     1
100
AcDbVertex
100
AcDb2dVertex
 10
21.30454916668159
 20
17.67119001389885
 30
-1.12921738433468
  0
SEQEND
  5
23A
330
236
100
AcDbEntity
  8
PROJECT$CURVES
 62
     1
  0
POLYLINE
  5
23B
330
1F
100
AcDbEntity
  8
PROJECT$CURVES
 62
     1
100
AcDb2dPolyline
 66
     1
 10
0.0
 20
0.0
 30
-1.12921738433468
  0
VERTEX
  5
23C
330
23B
100
AcDbEntity
  8
PROJECT$CURVES
 62
     1
100
AcDbVertex
100
AcDb2dVertex
 10
22.72884114378904
 20
20.26750107166433
 30
-1.12921738433468
  0
VERTEX
  5
23D
330
23B
100
AcDbEntity
  8
PROJECT$CURVES
 62
     1
100
AcDbVertex
100
AcDb2dVertex
 10
22.76031616813709
 20
20.21350502697317
 30
-1.12921738433468
  0
VERTEX
  5
23E
330
23B
100
AcDbEntity
  8
PROJECT$CURVES
 62
     1
100
AcDbVertex
100
AcDb2dVertex
 10
22.79179119248514
 20
20.15950898228201
 30
-1.12921738433468
  0
SEQEND
  5
23F
330
23B
100
AcDbEntity
  8
PROJECT$CURVES
 62
     1
  0
POLYLINE
  5
240
330
1F
100
AcDbEntity
  8
PROJECT$CURVES
 62
     1
100
AcDb2dPolyline
 66
     1
 10
0.0
 20
0.0
 30
-1.12921738433468
  0
VERTEX
  5
241
330
240
100
AcDbEntity
  8
PROJECT$CURVES
 62
     1
100
AcDbVertex
100
AcDb2dVertex
 10
14.99784526716973
 20
17.64841881123533
 30
-1.12921738433468
  0
VERTEX
  5
242
330
240
100
AcDbEntity
  8
PROJECT$CURVES
 62
     1
100
AcDbVertex
100
AcDb2dVertex
 10
14.96708531557532
 20
17.70282538600261
 30
-1.12921738433468
  0
VERTEX
  5
243
330
240
100
AcDbEntity
  8
PROJECT$CURVES
 62
     1
100
AcDbVertex
100
AcDb2dVertex
 10
14.93632536398091
 20
17.75723196076989
 30
-1.12921738433468
  0
SEQEND
  5
244
330
240
100
AcDbEntity
  8
PROJECT$CURVES
 62
     1
  0
POLYLINE
  5
245
330
1F
100
AcDbEntity
  8
PROJECT$CURVES
 62
     1
100
AcDb2dPolyline
 66
     1
 10
0.0
 20
0.0
 30
-1.12921738433468
  0
VERTEX
  5
246
330
245
100
AcDbEntity
  8
PROJECT$CURVES
 62
     1
100
AcDbVertex
100
AcDb2dVertex
 10
16.44583186050432
 20
20.22060515671724
 30
-1.12921738433468
  0
VERTEX
  5
247
330
245
100
AcDbEntity
  8
PROJECT$CURVES
 62
     1
100
AcDbVertex
100
AcDb2dVertex
 10
16.50032837329388
 20
20.25120548504515
 30
-1.12921738433468
  0
VERTEX
  5
248
330
245
100
AcDbEntity
  8
PROJECT$CURVES
 62
     1
100
AcDbVertex
100
AcDb2dVertex
 10
16.55482488608345
 20
20.28180581337307
 30
-1.12921738433468
  0
SEQEND
  5
249
330
245
100
AcDbEntity
  8
PROJECT$CURVES
 62
     1
  0
POLYLINE
  5
24A
330
1F
100
AcDbEntity
  8
PROJECT$CURVES
 62
     1
100
AcDb2dPolyline
 66
     1
 10
0.0
 20
0.0
 30
-1.12921738433468
  0
VERTEX
  5
24B
330
24A
100
AcDbEntity
  8
PROJECT$CURVES
 62
     1
100
AcDbVertex
100
AcDb2dVertex
 10
21.39008651155738
 20
17.6489220406727
 30
-1.12921738433468
  0
VERTEX
  5
24C
330
24A
100
AcDbEntity
  8
PROJECT$CURVES
 62
     1
100
AcDbVertex
100
AcDb2dVertex
 10
21.35845182573255
 20
17.70282469972367
 30
-1.12921738433468
  0
VERTEX
  5
24D
330
24A
100
AcDbEntity
  8
PROJECT$CURVES
 62
     1
100
AcDbVertex
100
AcDb2dVertex
 10
21.32681713990773
 20
17.75672735877463
 30
-1.12921738433468
  0
SEQEND
  5
24E
330
24A
100
AcDbEntity
  8
PROJECT$CURVES
 62
     1
  0
POLYLINE
  5
24F
330
1F
100
AcDbEntity
  8
PROJECT$CURVES
 62
     1
100
AcDb2dPolyline
 66
     1
 10
0.0
 20
0.0
 30
-1.12921738433468
  0
VERTEX
  5
250
330
24F
100
AcDbEntity
  8
PROJECT$CURVES
 62
     1
100
AcDbVertex
100
AcDb2dVertex
 10
22.81431221282826
 20
20.24498005132121
 30
-1.12921738433468
  0
VERTEX
  5
251
330
24F
100
AcDbEntity
  8
PROJECT$CURVES
 62
     1
100
AcDbVertex
100
AcDb2dVertex
 10
22.76031616813709
 20
20.21350502697317
 30
-1.12921738433468
  0
VERTEX
  5
252
330
24F
100
AcDbEntity
  8
PROJECT$CURVES
 62
     1
100
AcDbVertex
100
AcDb2dVertex
 10
22.70632012344593
 20
20.18203000262511
 30
-1.12921738433468
  0
SEQEND
  5
253
330
24F
100
AcDbEntity
  8
PROJECT$CURVES
 62
     1
  0
POLYLINE
  5
254
330
1F
100
AcDbEntity
  8
PROJECT$CURVES
 62
     1
100
AcDb2dPolyline
 66
     1
 10
0.0
 20
0.0
 30
-1.12921738433468
  0
VERTEX
  5
255
330
254
100
AcDbEntity
  8
PROJECT$CURVES
 62
     1
100
AcDbVertex
100
AcDb2dVertex
 10
14.91267874080804
 20
17.67206543440817
 30
-1.12921738433468
  0
VERTEX
  5
256
330
254
100
AcDbEntity
  8
PROJECT$CURVES
 62
     1
100
AcDbVertex
100
AcDb2dVertex
 10
14.96708531557532
 20
17.70282538600261
 30
-1.12921738433468
  0
VERTEX
  5
257
330
254
100
AcDbEntity
  8
PROJECT$CURVES
 62
     1
100
AcDbVertex
100
AcDb2dVertex
 10
15.0214918903426
 20
17.73358533759701
 30
-1.12921738433468
  0
SEQEND
  5
258
330
254
100
AcDbEntity
  8
PROJECT$CURVES
 62
     1
  0
POLYLINE
  5
259
330
1F
100
AcDbEntity
  8
PROJECT$CURVES
 62
     1
100
AcDb2dPolyline
 66
     1
 10
0.0
 20
0.0
 30
-1.12921738433468
  0
VERTEX
  5
25A
330
259
100
AcDbEntity
  8
PROJECT$CURVES
 62
     1
100
AcDbVertex
100
AcDb2dVertex
 10
16.46972804496597
 20
20.30570199783472
 30
-1.12921738433468
  0
VERTEX
  5
25B
330
259
100
AcDbEntity
  8
PROJECT$CURVES
 62
     1
100
AcDbVertex
100
AcDb2dVertex
 10
16.50032837329388
 20
20.25120548504515
 30
-1.12921738433468
  0
VERTEX
  5
25C
330
259
100
AcDbEntity
  8
PROJECT$CURVES
 62
     1
100
AcDbVertex
100
AcDb2dVertex
 10
16.5309287016218
 20
20.19670897225559
 30
-1.12921738433468
  0
SEQEND
  5
25D
330
259
100
AcDbEntity
  8
PROJECT$CURVES
 62
     1
  0
POLYLINE
  5
25E
330
1F
100
AcDbEntity
  8
PROJECT$CURVES
 62
     1
100
AcDb2dPolyline
 66
     1
 10
0.0
 20
0.0
 30
-1.12921738433468
 70
     1
  0
VERTEX
  5
25F
330
25E
100
AcDbEntity
  8
PROJECT$CURVES
 62
     1
100
AcDbVertex
100
AcDb2dVertex
 10
16.50107545527587
 20
20.37620357268923
 30
-1.12921738433468
  0
VERTEX
  5
260
330
25E
100
AcDbEntity
  8
PROJECT$CURVES
 62
     1
100
AcDbVertex
100
AcDb2dVertex
 10
22.97256372507885
 20
20.33722936376505
 30
-1.12921738433468
  0
VERTEX
  5
261
330
25E
100
AcDbEntity
  8
PROJECT$CURVES
 62
     1
100
AcDbVertex
100
AcDb2dVertex
 10
21.43181551703506
 20
17.57782462439585
 30
-1.12921738433468
  0
VERTEX
  5
262
330
25E
100
AcDbEntity
  8
PROJECT$CURVES
 62
     1
100
AcDbVertex
100
AcDb2dVertex
 10
14.74599372261714
 20
17.57782462439585
 30
-1.12921738433468
  0
VERTEX
  5
263
330
25E
100
AcDbEntity
  8
PROJECT$CURVES
 62
     1
100
AcDbVertex
100
AcDb2dVertex
 10
16.42990560990062
 20
20.37663218946286
 30
-1.12921738433468
  0
SEQEND
  5
264
330
25E
100
AcDbEntity
  8
PROJECT$CURVES
 62
     1
  0
POLYLINE
  5
265
330
1F
100
AcDbEntity
  8
PROJECT$CURVES
 62
     1
100
AcDb2dPolyline
 66
     1
 10
0.0
 20
0.0
 30
-2.25843476866936
  0
VERTEX
  5
266
330
265
100
AcDbEntity
  8
PROJECT$CURVES
 62
     1
100
AcDbVertex
100
AcDb2dVertex
 10
14.04320275451394
 20
17.56765468365342
 30
-2.25843476866936
  0
VERTEX
  5
267
330
265
100
AcDbEntity
  8
PROJECT$CURVES
 62
     1
100
AcDbVertex
100
AcDb2dVertex
 10
13.99063167065014
 20
17.53385333543497
 30
-2.25843476866936
  0
VERTEX
  5
268
330
265
100
AcDbEntity
  8
PROJECT$CURVES
 62
     1
100
AcDbVertex
100
AcDb2dVertex
 10
13.93806058678634
 20
17.50005198721651
 30
-2.25843476866936
  0
SEQEND
  5
269
330
265
100
AcDbEntity
  8
PROJECT$CURVES
 62
     1
  0
POLYLINE
  5
26A
330
1F
100
AcDbEntity
  8
PROJECT$CURVES
 62
     1
100
AcDb2dPolyline
 66
     1
 10
0.0
 20
0.0
 30
-2.25843476866936
  0
VERTEX
  5
26B
330
26A
100
AcDbEntity
  8
PROJECT$CURVES
 62
     1
100
AcDbVertex
100
AcDb2dVertex
 10
15.12376126642473
 20
20.14484699400233
 30
-2.25843476866936
  0
VERTEX
  5
26C
330
26A
100
AcDbEntity
  8
PROJECT$CURVES
 62
     1
100
AcDbVertex
100
AcDb2dVertex
 10
15.15776062493341
 20
20.09240375210217
 30
-2.25843476866936
  0
VERTEX
  5
26D
330
26A
100
AcDbEntity
  8
PROJECT$CURVES
 62
     1
100
AcDbVertex
100
AcDb2dVertex
 10
15.19175998344209
 20
20.03996051020201
 30
-2.25843476866936
  0
SEQEND
  5
26E
330
26A
100
AcDbEntity
  8
PROJECT$CURVES
 62
     1
  0
POLYLINE
  5
26F
330
1F
100
AcDbEntity
  8
PROJECT$CURVES
 62
     1
100
AcDb2dPolyline
 66
     1
 10
0.0
 20
0.0
 30
-2.25843476866936
  0
VERTEX
  5
270
330
26F
100
AcDbEntity
  8
PROJECT$CURVES
 62
     1
100
AcDbVertex
100
AcDb2dVertex
 10
8.669555284561229
 20
20.01186939354493
 30
-2.25843476866936
  0
VERTEX
  5
271
330
26F
100
AcDbEntity
  8
PROJECT$CURVES
 62
     1
100
AcDbVertex
100
AcDb2dVertex
 10
8.723344139033014
 20
20.04369719797144
 30
-2.25843476866936
  0
VERTEX
  5
272
330
26F
100
AcDbEntity
  8
PROJECT$CURVES
 62
     1
100
AcDbVertex
100
AcDb2dVertex
 10
8.777132993504798
 20
20.07552500239795
 30
-2.25843476866936
  0
SEQEND
  5
273
330
26F
100
AcDbEntity
  8
PROJECT$CURVES
 62
     1
  0
POLYLINE
  5
274
330
1F
100
AcDbEntity
  8
PROJECT$CURVES
 62
     1
100
AcDb2dPolyline
 66
     1
 10
0.0
 20
0.0
 30
-2.25843476866936
  0
VERTEX
  5
275
330
274
100
AcDbEntity
  8
PROJECT$CURVES
 62
     1
100
AcDbVertex
100
AcDb2dVertex
 10
14.02443301886859
 20
17.48128225157117
 30
-2.25843476866936
  0
VERTEX
  5
276
330
274
100
AcDbEntity
  8
PROJECT$CURVES
 62
     1
100
AcDbVertex
100
AcDb2dVertex
 10
13.99063167065014
 20
17.53385333543497
 30
-2.25843476866936
  0
VERTEX
  5
277
330
274
100
AcDbEntity
  8
PROJECT$CURVES
 62
     1
100
AcDbVertex
100
AcDb2dVertex
 10
13.95683032243168
 20
17.58642441929877
 30
-2.25843476866936
  0
SEQEND
  5
278
330
274
100
AcDbEntity
  8
PROJECT$CURVES
 62
     1
  0
POLYLINE
  5
279
330
1F
100
AcDbEntity
  8
PROJECT$CURVES
 62
     1
100
AcDb2dPolyline
 66
     1
 10
0.0
 20
0.0
 30
-2.25843476866936
  0
VERTEX
  5
27A
330
279
100
AcDbEntity
  8
PROJECT$CURVES
 62
     1
100
AcDbVertex
100
AcDb2dVertex
 10
15.21020386683357
 20
20.12640311061086
 30
-2.25843476866936
  0
VERTEX
  5
27B
330
279
100
AcDbEntity
  8
PROJECT$CURVES
 62
     1
100
AcDbVertex
100
AcDb2dVertex
 10
15.15776062493341
 20
20.09240375210217
 30
-2.25843476866936
  0
VERTEX
  5
27C
330
279
100
AcDbEntity
  8
PROJECT$CURVES
 62
     1
100
AcDbVertex
100
AcDb2dVertex
 10
15.10531738303325
 20
20.05840439359347
 30
-2.25843476866936
  0
SEQEND
  5
27D
330
279
100
AcDbEntity
  8
PROJECT$CURVES
 62
     1
  0
POLYLINE
  5
27E
330
1F
100
AcDbEntity
  8
PROJECT$CURVES
 62
     1
100
AcDb2dPolyline
 66
     1
 10
0.0
 20
0.0
 30
-2.25843476866936
  0
VERTEX
  5
27F
330
27E
100
AcDbEntity
  8
PROJECT$CURVES
 62
     1
100
AcDbVertex
100
AcDb2dVertex
 10
8.691516334606506
 20
20.09748605244322
 30
-2.25843476866936
  0
VERTEX
  5
280
330
27E
100
AcDbEntity
  8
PROJECT$CURVES
 62
     1
100
AcDbVertex
100
AcDb2dVertex
 10
8.723344139033014
 20
20.04369719797144
 30
-2.25843476866936
  0
VERTEX
  5
281
330
27E
100
AcDbEntity
  8
PROJECT$CURVES
 62
     1
100
AcDbVertex
100
AcDb2dVertex
 10
8.755171943459521
 20
19.98990834349962
 30
-2.25843476866936
  0
SEQEND
  5
282
330
27E
100
AcDbEntity
  8
PROJECT$CURVES
 62
     1
  0
POLYLINE
  5
283
330
1F
100
AcDbEntity
  8
PROJECT$CURVES
 62
     1
100
AcDb2dPolyline
 66
     1
 10
0.0
 20
0.0
 30
-1.12921738433468
 70
     1
  0
VERTEX
  5
284
330
283
100
AcDbEntity
  8
PROJECT$CURVES
 62
     1
100
AcDbVertex
100
AcDb2dVertex
 10
8.722395916818835
 20
20.16869430937016
 30
-1.12921738433468
  0
VERTEX
  5
285
330
283
100
AcDbEntity
  8
PROJECT$CURVES
 62
     1
100
AcDbVertex
100
AcDb2dVertex
 10
15.35284746363248
 20
20.21888478862865
 30
-1.12921738433468
  0
VERTEX
  5
286
330
283
100
AcDbEntity
  8
PROJECT$CURVES
 62
     1
100
AcDbVertex
100
AcDb2dVertex
 10
14.0710038670918
 20
17.40885299005816
 30
-1.12921738433468
  0
VERTEX
  5
287
330
283
100
AcDbEntity
  8
PROJECT$CURVES
 62
     1
100
AcDbVertex
100
AcDb2dVertex
 10
7.106872354311987
 20
17.40885299005816
 30
-1.12921738433468
  0
VERTEX
  5
288
330
283
100
AcDbEntity
  8
PROJECT$CURVES
 62
     1
100
AcDbVertex
100
AcDb2dVertex
 10
8.649712195456024
 20
20.16814411595064
 30
-1.12921738433468
  0
SEQEND
  5
289
330
283
100
AcDbEntity
  8
PROJECT$CURVES
 62
     1
  0
POLYLINE
  5
28A
330
1F
100
AcDbEntity
  8
PROJECT$CURVES
 62
     1
100
AcDb2dPolyline
 66
     1
 10
0.0
 20
0.0
 30
-1.12921738433468
  0
VERTEX
  5
28B
330
28A
100
AcDbEntity
  8
PROJECT$CURVES
 62
     1
100
AcDbVertex
100
AcDb2dVertex
 10
7.266074234768751
 20
17.50223177840703
 30
-1.12921738433468
  0
VERTEX
  5
28C
330
28A
100
AcDbEntity
  8
PROJECT$CURVES
 62
     1
100
AcDbVertex
100
AcDb2dVertex
 10
7.319984631845765
 20
17.53385327563597
 30
-1.12921738433468
  0
VERTEX
  5
28D
330
28A
100
AcDbEntity
  8
PROJECT$CURVES
 62
     1
100
AcDbVertex
100
AcDb2dVertex
 10
7.37389502892278
 20
17.5654747728649
 30
-1.12921738433468
  0
SEQEND
  5
28E
330
28A
100
AcDbEntity
  8
PROJECT$CURVES
 62
     1
  0
POLYLINE
  5
28F
330
1F
100
AcDbEntity
  8
PROJECT$CURVES
 62
     1
100
AcDb2dPolyline
 66
     1
 10
0.0
 20
0.0
 30
-1.12921738433468
  0
VERTEX
  5
290
330
28F
100
AcDbEntity
  8
PROJECT$CURVES
 62
     1
100
AcDbVertex
100
AcDb2dVertex
 10
7.351606129074704
 20
17.47994287855896
 30
-1.12921738433468
  0
VERTEX
  5
291
330
28F
100
AcDbEntity
  8
PROJECT$CURVES
 62
     1
100
AcDbVertex
100
AcDb2dVertex
 10
7.319984631845765
 20
17.53385327563597
 30
-1.12921738433468
  0
VERTEX
  5
292
330
28F
100
AcDbEntity
  8
PROJECT$CURVES
 62
     1
100
AcDbVertex
100
AcDb2dVertex
 10
7.288363134616826
 20
17.58776367271299
 30
-1.12921738433468
  0
SEQEND
  5
293
330
28F
100
AcDbEntity
  8
PROJECT$CURVES
 62
     1
  0
POLYLINE
  5
294
330
1F
100
AcDbEntity
  8
PROJECT$CURVES
 62
     1
100
AcDb2dPolyline
 66
     1
 10
0.0
 20
0.0
 30
0.0
  0
VERTEX
  5
295
330
294
100
AcDbEntity
  8
PROJECT$CURVES
 62
     1
100
AcDbVertex
100
AcDb2dVertex
 10
1.227632724408409
 20
16.73822860548515
 30
0.0
  0
VERTEX
  5
296
330
294
100
AcDbEntity
  8
PROJECT$CURVES
 62
     1
100
AcDbVertex
100
AcDb2dVertex
 10
1.264017302494892
 20
16.68741116283532
 30
0.0
  0
VERTEX
  5
297
330
294
100
AcDbEntity
  8
PROJECT$CURVES
 62
     1
100
AcDbVertex
100
AcDb2dVertex
 10
1.300401880581376
 20
16.63659372018548
 30
0.0
  0
SEQEND
  5
298
330
294
100
AcDbEntity
  8
PROJECT$CURVES
 62
     1
  0
POLYLINE
  5
299
330
1F
100
AcDbEntity
  8
PROJECT$CURVES
 62
     1
100
AcDb2dPolyline
 66
     1
 10
0.0
 20
0.0
 30
0.0
  0
VERTEX
  5
29A
330
299
100
AcDbEntity
  8
PROJECT$CURVES
 62
     1
100
AcDbVertex
100
AcDb2dVertex
 10
1.213199859845048
 20
16.65102658474884
 30
0.0
  0
VERTEX
  5
29B
330
299
100
AcDbEntity
  8
PROJECT$CURVES
 62
     1
100
AcDbVertex
100
AcDb2dVertex
 10
1.264017302494892
 20
16.68741116283532
 30
0.0
  0
VERTEX
  5
29C
330
299
100
AcDbEntity
  8
PROJECT$CURVES
 62
     1
100
AcDbVertex
100
AcDb2dVertex
 10
1.314834745144736
 20
16.7237957409218
 30
0.0
  0
SEQEND
  5
29D
330
299
100
AcDbEntity
  8
PROJECT$CURVES
 62
     1
  0
POLYLINE
  5
29E
330
1F
100
AcDbEntity
  8
PROJECT$CURVES
 62
     1
100
AcDb2dPolyline
 66
     1
 10
0.0
 20
0.0
 30
0.0
 70
     1
  0
VERTEX
  5
29F
330
29E
100
AcDbEntity
  8
PROJECT$CURVES
 62
     1
100
AcDbVertex
100
AcDb2dVertex
 10
7.043813545698015
 20
13.88868037305015
 30
0.0
  0
VERTEX
  5
2A0
330
29E
100
AcDbEntity
  8
PROJECT$CURVES
 62
     1
100
AcDbVertex
100
AcDb2dVertex
 10
0.2499994767037776
 20
13.88868037305015
 30
0.0
  0
VERTEX
  5
2A1
330
29E
100
AcDbEntity
  8
PROJECT$CURVES
 62
     1
100
AcDbVertex
100
AcDb2dVertex
 10
1.173032196097495
 20
16.81449221269081
 30
0.0
  0
VERTEX
  5
2A2
330
29E
100
AcDbEntity
  8
PROJECT$CURVES
 62
     1
100
AcDbVertex
100
AcDb2dVertex
 10
8.501681288276501
 20
16.64940291554699
 30
0.0
  0
VERTEX
  5
2A3
330
29E
100
AcDbEntity
  8
PROJECT$CURVES
 62
     1
100
AcDbVertex
100
AcDb2dVertex
 10
7.121061319733343
 20
13.88868037305015
 30
0.0
  0
SEQEND
  5
2A4
330
29E
100
AcDbEntity
  8
PROJECT$CURVES
 62
     1
  0
POLYLINE
  5
2A5
330
1F
100
AcDbEntity
  8
PROJECT$CURVES
 62
     1
100
AcDb2dPolyline
 66
     1
 10
0.0
 20
0.0
 30
0.0
  0
VERTEX
  5
2A6
330
2A5
100
AcDbEntity
  8
PROJECT$CURVES
 62
     1
100
AcDbVertex
100
AcDb2dVertex
 10
7.076671523433816
 20
13.96051192503524
 30
0.0
  0
VERTEX
  5
2A7
330
2A5
100
AcDbEntity
  8
PROJECT$CURVES
 62
     1
100
AcDbVertex
100
AcDb2dVertex
 10
7.043817717533955
 20
14.01368031261559
 30
0.0
  0
VERTEX
  5
2A8
330
2A5
100
AcDbEntity
  8
PROJECT$CURVES
 62
     1
100
AcDbVertex
100
AcDb2dVertex
 10
7.010963911634093
 20
14.06684870019594
 30
0.0
  0
SEQEND
  5
2A9
330
2A5
100
AcDbEntity
  8
PROJECT$CURVES
 62
     1
  0
POLYLINE
  5
2AA
330
1F
100
AcDbEntity
  8
PROJECT$CURVES
 62
     1
100
AcDb2dPolyline
 66
     1
 10
0.0
 20
0.0
 30
0.0
  0
VERTEX
  5
2AB
330
2AA
100
AcDbEntity
  8
PROJECT$CURVES
 62
     1
100
AcDbVertex
100
AcDb2dVertex
 10
8.355179693913783
 20
16.56113233053366
 30
0.0
  0
VERTEX
  5
2AC
330
2AA
100
AcDbEntity
  8
PROJECT$CURVES
 62
     1
100
AcDbVertex
100
AcDb2dVertex
 10
8.301645476323017
 20
16.52887806652184
 30
0.0
  0
VERTEX
  5
2AD
330
2AA
100
AcDbEntity
  8
PROJECT$CURVES
 62
     1
100
AcDbVertex
100
AcDb2dVertex
 10
8.248111258732251
 20
16.49662380251
 30
0.0
  0
SEQEND
  5
2AE
330
2AA
100
AcDbEntity
  8
PROJECT$CURVES
 62
     1
  0
POLYLINE
  5
2AF
330
1F
100
AcDbEntity
  8
PROJECT$CURVES
 62
     1
100
AcDb2dPolyline
 66
     1
 10
0.0
 20
0.0
 30
0.0
  0
VERTEX
  5
2B0
330
2AF
100
AcDbEntity
  8
PROJECT$CURVES
 62
     1
100
AcDbVertex
100
AcDb2dVertex
 10
0.370104678517464
 20
13.97672888392448
 30
0.0
  0
VERTEX
  5
2B1
330
2AF
100
AcDbEntity
  8
PROJECT$CURVES
 62
     1
100
AcDbVertex
100
AcDb2dVertex
 10
0.4205114431198922
 20
14.01368031261559
 30
0.0
  0
VERTEX
  5
2B2
330
2AF
100
AcDbEntity
  8
PROJECT$CURVES
 62
     1
100
AcDbVertex
100
AcDb2dVertex
 10
0.4709182077223204
 20
14.05063174130671
 30
0.0
  0
SEQEND
  5
2B3
330
2AF
100
AcDbEntity
  8
PROJECT$CURVES
 62
     1
  0
POLYLINE
  5
2B4
330
1F
100
AcDbEntity
  8
PROJECT$CURVES
 62
     1
100
AcDb2dPolyline
 66
     1
 10
0.0
 20
0.0
 30
0.0
  0
VERTEX
  5
2B5
330
2B4
100
AcDbEntity
  8
PROJECT$CURVES
 62
     1
100
AcDbVertex
100
AcDb2dVertex
 10
7.096986105114297
 20
14.04653411851546
 30
0.0
  0
VERTEX
  5
2B6
330
2B4
100
AcDbEntity
  8
PROJECT$CURVES
 62
     1
100
AcDbVertex
100
AcDb2dVertex
 10
7.043817717533955
 20
14.01368031261559
 30
0.0
  0
VERTEX
  5
2B7
330
2B4
100
AcDbEntity
  8
PROJECT$CURVES
 62
     1
100
AcDbVertex
100
AcDb2dVertex
 10
6.990649329953612
 20
13.98082650671573
 30
0.0
  0
SEQEND
  5
2B8
330
2B4
100
AcDbEntity
  8
PROJECT$CURVES
 62
     1
  0
POLYLINE
  5
2B9
330
1F
100
AcDbEntity
  8
PROJECT$CURVES
 62
     1
100
AcDb2dPolyline
 66
     1
 10
0.0
 20
0.0
 30
0.0
  0
VERTEX
  5
2BA
330
2B9
100
AcDbEntity
  8
PROJECT$CURVES
 62
     1
100
AcDbVertex
100
AcDb2dVertex
 10
8.269391212311177
 20
16.58241228411261
 30
0.0
  0
VERTEX
  5
2BB
330
2B9
100
AcDbEntity
  8
PROJECT$CURVES
 62
     1
100
AcDbVertex
100
AcDb2dVertex
 10
8.301645476323017
 20
16.52887806652184
 30
0.0
  0
VERTEX
  5
2BC
330
2B9
100
AcDbEntity
  8
PROJECT$CURVES
 62
     1
100
AcDbVertex
100
AcDb2dVertex
 10
8.333899740334857
 20
16.47534384893108
 30
0.0
  0
SEQEND
  5
2BD
330
2B9
100
AcDbEntity
  8
PROJECT$CURVES
 62
     1
  0
POLYLINE
  5
2BE
330
1F
100
AcDbEntity
  8
PROJECT$CURVES
 62
     1
100
AcDb2dPolyline
 66
     1
 10
0.0
 20
0.0
 30
0.0
  0
VERTEX
  5
2BF
330
2BE
100
AcDbEntity
  8
PROJECT$CURVES
 62
     1
100
AcDbVertex
100
AcDb2dVertex
 10
0.4574628718110034
 20
13.96327354801317
 30
0.0
  0
VERTEX
  5
2C0
330
2BE
100
AcDbEntity
  8
PROJECT$CURVES
 62
     1
100
AcDbVertex
100
AcDb2dVertex
 10
0.4205114431198922
 20
14.01368031261559
 30
0.0
  0
VERTEX
  5
2C1
330
2BE
100
AcDbEntity
  8
PROJECT$CURVES
 62
     1
100
AcDbVertex
100
AcDb2dVertex
 10
0.383560014428781
 20
14.06408707721802
 30
0.0
  0
SEQEND
  5
2C2
330
2BE
100
AcDbEntity
  8
PROJECT$CURVES
 62
     1
  0
POLYLINE
  5
2C3
330
1F
100
AcDbEntity
  8
PROJECT$CURVES
 62
     1
100
AcDb2dPolyline
 66
     1
 10
0.0
 20
0.0
 30
0.0
  0
VERTEX
  5
2C4
330
2C3
100
AcDbEntity
  8
PROJECT$CURVES
 62
     1
100
AcDbVertex
100
AcDb2dVertex
 10
12.62985308800276
 20
20.4728397939226
 30
0.0
  0
VERTEX
  5
2C5
330
2C3
100
AcDbEntity
  8
PROJECT$CURVES
 62
     1
100
AcDbVertex
100
AcDb2dVertex
 10
12.59829075277232
 20
20.52678484925489
 30
0.0
  0
VERTEX
  5
2C6
330
2C3
100
AcDbEntity
  8
PROJECT$CURVES
 62
     1
100
AcDbVertex
100
AcDb2dVertex
 10
12.56672841754189
 20
20.58072990458716
 30
0.0
  0
SEQEND
  5
2C7
330
2C3
100
AcDbEntity
  8
PROJECT$CURVES
 62
     1
  0
POLYLINE
  5
2C8
330
1F
100
AcDbEntity
  8
PROJECT$CURVES
 62
     1
100
AcDb2dPolyline
 66
     1
 10
0.0
 20
0.0
 30
0.0
  0
VERTEX
  5
2C9
330
2C8
100
AcDbEntity
  8
PROJECT$CURVES
 62
     1
100
AcDbVertex
100
AcDb2dVertex
 10
14.35595921136803
 20
23.59205831487637
 30
0.0
  0
VERTEX
  5
2CA
330
2C8
100
AcDbEntity
  8
PROJECT$CURVES
 62
     1
100
AcDbVertex
100
AcDb2dVertex
 10
14.30262119710826
 20
23.55948061951857
 30
0.0
  0
VERTEX
  5
2CB
330
2C8
100
AcDbEntity
  8
PROJECT$CURVES
 62
     1
100
AcDbVertex
100
AcDb2dVertex
 10
14.2492831828485
 20
23.52690292416075
 30
0.0
  0
SEQEND
  5
2CC
330
2C8
100
AcDbEntity
  8
PROJECT$CURVES
 62
     1
  0
POLYLINE
  5
2CD
330
1F
100
AcDbEntity
  8
PROJECT$CURVES
 62
     1
100
AcDb2dPolyline
 66
     1
 10
0.0
 20
0.0
 30
0.0
  0
VERTEX
  5
2CE
330
2CD
100
AcDbEntity
  8
PROJECT$CURVES
 62
     1
100
AcDbVertex
100
AcDb2dVertex
 10
6.705700624320025
 20
20.4958152578704
 30
0.0
  0
VERTEX
  5
2CF
330
2CD
100
AcDbEntity
  8
PROJECT$CURVES
 62
     1
100
AcDbVertex
100
AcDb2dVertex
 10
6.759988140467636
 20
20.52678484925489
 30
0.0
  0
VERTEX
  5
2D0
330
2CD
100
AcDbEntity
  8
PROJECT$CURVES
 62
     1
100
AcDbVertex
100
AcDb2dVertex
 10
6.814275656615246
 20
20.55775444063939
 30
0.0
  0
SEQEND
  5
2D1
330
2CD
100
AcDbEntity
  8
PROJECT$CURVES
 62
     1
  0
POLYLINE
  5
2D2
330
1F
100
AcDbEntity
  8
PROJECT$CURVES
 62
     1
100
AcDb2dPolyline
 66
     1
 10
0.0
 20
0.0
 30
0.0
  0
VERTEX
  5
2D3
330
2D2
100
AcDbEntity
  8
PROJECT$CURVES
 62
     1
100
AcDbVertex
100
AcDb2dVertex
 10
8.389479927695811
 20
23.3904909455533
 30
0.0
  0
VERTEX
  5
2D4
330
2D2
100
AcDbEntity
  8
PROJECT$CURVES
 62
     1
100
AcDbVertex
100
AcDb2dVertex
 10
8.421471905116073
 20
23.33679957398634
 30
0.0
  0
VERTEX
  5
2D5
330
2D2
100
AcDbEntity
  8
PROJECT$CURVES
 62
     1
100
AcDbVertex
100
AcDb2dVertex
 10
8.453463882536335
 20
23.28310820241937
 30
0.0
  0
SEQEND
  5
2D6
330
2D2
100
AcDbEntity
  8
PROJECT$CURVES
 62
     1
  0
POLYLINE
  5
2D7
330
1F
100
AcDbEntity
  8
PROJECT$CURVES
 62
     1
100
AcDb2dPolyline
 66
     1
 10
0.0
 20
0.0
 30
0.0
  0
VERTEX
  5
2D8
330
2D7
100
AcDbEntity
  8
PROJECT$CURVES
 62
     1
100
AcDbVertex
100
AcDb2dVertex
 10
12.65223580810462
 20
20.55834718448533
 30
0.0
  0
VERTEX
  5
2D9
330
2D7
100
AcDbEntity
  8
PROJECT$CURVES
 62
     1
100
AcDbVertex
100
AcDb2dVertex
 10
12.59829075277232
 20
20.52678484925489
 30
0.0
  0
VERTEX
  5
2DA
330
2D7
100
AcDbEntity
  8
PROJECT$CURVES
 62
     1
100
AcDbVertex
100
AcDb2dVertex
 10
12.54434569744003
 20
20.49522251402446
 30
0.0
  0
SEQEND
  5
2DB
330
2D7
100
AcDbEntity
  8
PROJECT$CURVES
 62
     1
  0
POLYLINE
  5
2DC
330
1F
100
AcDbEntity
  8
PROJECT$CURVES
 62
     1
100
AcDb2dPolyline
 66
     1
 10
0.0
 20
0.0
 30
0.0
  0
VERTEX
  5
2DD
330
2DC
100
AcDbEntity
  8
PROJECT$CURVES
 62
     1
100
AcDbVertex
100
AcDb2dVertex
 10
14.27004350175045
 20
23.61281863377833
 30
0.0
  0
VERTEX
  5
2DE
330
2DC
100
AcDbEntity
  8
PROJECT$CURVES
 62
     1
100
AcDbVertex
100
AcDb2dVertex
 10
14.30262119710826
 20
23.55948061951857
 30
0.0
  0
VERTEX
  5
2DF
330
2DC
100
AcDbEntity
  8
PROJECT$CURVES
 62
     1
100
AcDbVertex
100
AcDb2dVertex
 10
14.33519889246608
 20
23.5061426052588
 30
0.0
  0
SEQEND
  5
2E0
330
2DC
100
AcDbEntity
  8
PROJECT$CURVES
 62
     1
  0
POLYLINE
  5
2E1
330
1F
100
AcDbEntity
  8
PROJECT$CURVES
 62
     1
100
AcDb2dPolyline
 66
     1
 10
0.0
 20
0.0
 30
0.0
  0
VERTEX
  5
2E2
330
2E1
100
AcDbEntity
  8
PROJECT$CURVES
 62
     1
100
AcDbVertex
100
AcDb2dVertex
 10
6.790957731852126
 20
20.47249733310728
 30
0.0
  0
VERTEX
  5
2E3
330
2E1
100
AcDbEntity
  8
PROJECT$CURVES
 62
     1
100
AcDbVertex
100
AcDb2dVertex
 10
6.759988140467636
 20
20.52678484925489
 30
0.0
  0
VERTEX
  5
2E4
330
2E1
100
AcDbEntity
  8
PROJECT$CURVES
 62
     1
100
AcDbVertex
100
AcDb2dVertex
 10
6.729018549083145
 20
20.58107236540251
 30
0.0
  0
SEQEND
  5
2E5
330
2E1
100
AcDbEntity
  8
PROJECT$CURVES
 62
     1
  0
POLYLINE
  5
2E6
330
1F
100
AcDbEntity
  8
PROJECT$CURVES
 62
     1
100
AcDb2dPolyline
 66
     1
 10
0.0
 20
0.0
 30
0.0
  0
VERTEX
  5
2E7
330
2E6
100
AcDbEntity
  8
PROJECT$CURVES
 62
     1
100
AcDbVertex
100
AcDb2dVertex
 10
8.367780533549103
 20
23.30480759656608
 30
0.0
  0
VERTEX
  5
2E8
330
2E6
100
AcDbEntity
  8
PROJECT$CURVES
 62
     1
100
AcDbVertex
100
AcDb2dVertex
 10
8.421471905116073
 20
23.33679957398634
 30
0.0
  0
VERTEX
  5
2E9
330
2E6
100
AcDbEntity
  8
PROJECT$CURVES
 62
     1
100
AcDbVertex
100
AcDb2dVertex
 10
8.475163276683043
 20
23.3687915514066
 30
0.0
  0
SEQEND
  5
2EA
330
2E6
100
AcDbEntity
  8
PROJECT$CURVES
 62
     1
  0
POLYLINE
  5
2EB
330
1F
100
AcDbEntity
  8
PROJECT$CURVES
 62
     1
100
AcDb2dPolyline
 66
     1
 10
0.0
 20
0.0
 30
-1.12921738433468
 70
     1
  0
VERTEX
  5
2EC
330
2EB
100
AcDbEntity
  8
PROJECT$CURVES
 62
     1
100
AcDbVertex
100
AcDb2dVertex
 10
12.5982844212489
 20
20.40178479368846
 30
-1.12921738433468
  0
VERTEX
  5
2ED
330
2EB
100
AcDbEntity
  8
PROJECT$CURVES
 62
     1
100
AcDbVertex
100
AcDb2dVertex
 10
6.540866582344472
 20
20.40178479368846
 30
-1.12921738433468
  0
VERTEX
  5
2EE
330
2EB
100
AcDbEntity
  8
PROJECT$CURVES
 62
     1
100
AcDbVertex
100
AcDb2dVertex
 10
8.348586292452547
 20
23.45913038415576
 30
-1.12921738433468
  0
VERTEX
  5
2EF
330
2EB
100
AcDbEntity
  8
PROJECT$CURVES
 62
     1
100
AcDbVertex
100
AcDb2dVertex
 10
14.52096093238742
 20
23.69283619849521
 30
-1.12921738433468
  0
VERTEX
  5
2F0
330
2EB
100
AcDbEntity
  8
PROJECT$CURVES
 62
     1
100
AcDbVertex
100
AcDb2dVertex
 10
12.67142286163468
 20
20.40178479368846
 30
-1.12921738433468
  0
SEQEND
  5
2F1
330
2EB
100
AcDbEntity
  8
PROJECT$CURVES
 62
     1
  0
POLYLINE
  5
2F2
330
1F
100
AcDbEntity
  8
PROJECT$CURVES
 62
     1
100
AcDb2dPolyline
 66
     1
 10
0.0
 20
0.0
 30
0.0
 70
     1
  0
VERTEX
  5
2F3
330
2F2
100
AcDbEntity
  8
PROJECT$CURVES
 62
     1
100
AcDbVertex
100
AcDb2dVertex
 10
19.92884575653353
 20
20.75982933018483
 30
0.0
  0
VERTEX
  5
2F4
330
2F2
100
AcDbEntity
  8
PROJECT$CURVES
 62
     1
100
AcDbVertex
100
AcDb2dVertex
 10
13.66619375134213
 20
20.75982933018483
 30
0.0
  0
VERTEX
  5
2F5
330
2F2
100
AcDbEntity
  8
PROJECT$CURVES
 62
     1
100
AcDbVertex
100
AcDb2dVertex
 10
14.69906427020866
 20
23.61828434414304
 30
0.0
  0
VERTEX
  5
2F6
330
2F2
100
AcDbEntity
  8
PROJECT$CURVES
 62
     1
100
AcDbVertex
100
AcDb2dVertex
 10
21.2353701063949
 20
23.69093623730969
 30
0.0
  0
VERTEX
  5
2F7
330
2F2
100
AcDbEntity
  8
PROJECT$CURVES
 62
     1
100
AcDbVertex
100
AcDb2dVertex
 10
20.01212800035609
 20
20.75982933018483
 30
0.0
  0
SEQEND
  5
2F8
330
2F2
100
AcDbEntity
  8
PROJECT$CURVES
 62
     1
  0
POLYLINE
  5
2F9
330
1F
100
AcDbEntity
  8
PROJECT$CURVES
 62
     1
100
AcDb2dPolyline
 66
     1
 10
0.0
 20
0.0
 30
0.0
  0
VERTEX
  5
2FA
330
2F9
100
AcDbEntity
  8
PROJECT$CURVES
 62
     1
100
AcDbVertex
100
AcDb2dVertex
 10
19.96349589511303
 20
20.83281571288842
 30
0.0
  0
VERTEX
  5
2FB
330
2F9
100
AcDbEntity
  8
PROJECT$CURVES
 62
     1
100
AcDbVertex
100
AcDb2dVertex
 10
19.92884178629914
 20
20.88482862226979
 30
0.0
  0
VERTEX
  5
2FC
330
2F9
100
AcDbEntity
  8
PROJECT$CURVES
 62
     1
100
AcDbVertex
100
AcDb2dVertex
 10
19.89418767748524
 20
20.93684153165115
 30
0.0
  0
SEQEND
  5
2FD
330
2F9
100
AcDbEntity
  8
PROJECT$CURVES
 62
     1
  0
POLYLINE
  5
2FE
330
1F
100
AcDbEntity
  8
PROJECT$CURVES
 62
     1
100
AcDb2dPolyline
 66
     1
 10
0.0
 20
0.0
 30
0.0
  0
VERTEX
  5
2FF
330
2FE
100
AcDbEntity
  8
PROJECT$CURVES
 62
     1
100
AcDbVertex
100
AcDb2dVertex
 10
21.09870315500707
 20
23.59877613360229
 30
0.0
  0
VERTEX
  5
300
330
2FE
100
AcDbEntity
  8
PROJECT$CURVES
 62
     1
100
AcDbVertex
100
AcDb2dVertex
 10
21.04688377848664
 20
23.56383329145925
 30
0.0
  0
VERTEX
  5
301
330
2FE
100
AcDbEntity
  8
PROJECT$CURVES
 62
     1
100
AcDbVertex
100
AcDb2dVertex
 10
20.99506440196621
 20
23.52889044931619
 30
0.0
  0
SEQEND
  5
302
330
2FE
100
AcDbEntity
  8
PROJECT$CURVES
 62
     1
  0
POLYLINE
  5
303
330
1F
100
AcDbEntity
  8
PROJECT$CURVES
 62
     1
100
AcDb2dPolyline
 66
     1
 10
0.0
 20
0.0
 30
0.0
  0
VERTEX
  5
304
330
303
100
AcDbEntity
  8
PROJECT$CURVES
 62
     1
100
AcDbVertex
100
AcDb2dVertex
 10
13.79312154468091
 20
20.84892165462891
 30
0.0
  0
VERTEX
  5
305
330
303
100
AcDbEntity
  8
PROJECT$CURVES
 62
     1
100
AcDbVertex
100
AcDb2dVertex
 10
13.84427757731476
 20
20.88482862226979
 30
0.0
  0
VERTEX
  5
306
330
303
100
AcDbEntity
  8
PROJECT$CURVES
 62
     1
100
AcDbVertex
100
AcDb2dVertex
 10
13.89543360994862
 20
20.92073558991066
 30
0.0
  0
SEQEND
  5
307
330
303
100
AcDbEntity
  8
PROJECT$CURVES
 62
     1
  0
POLYLINE
  5
308
330
1F
100
AcDbEntity
  8
PROJECT$CURVES
 62
     1
100
AcDb2dPolyline
 66
     1
 10
0.0
 20
0.0
 30
0.0
  0
VERTEX
  5
309
330
308
100
AcDbEntity
  8
PROJECT$CURVES
 62
     1
100
AcDbVertex
100
AcDb2dVertex
 10
14.75096941752029
 20
23.54520811153657
 30
0.0
  0
VERTEX
  5
30A
330
308
100
AcDbEntity
  8
PROJECT$CURVES
 62
     1
100
AcDbVertex
100
AcDb2dVertex
 10
14.78716392985383
 20
23.49425512068288
 30
0.0
  0
VERTEX
  5
30B
330
308
100
AcDbEntity
  8
PROJECT$CURVES
 62
     1
100
AcDbVertex
100
AcDb2dVertex
 10
14.82335844218736
 20
23.44330212982918
 30
0.0
  0
SEQEND
  5
30C
330
308
100
AcDbEntity
  8
PROJECT$CURVES
 62
     1
  0
POLYLINE
  5
30D
330
1F
100
AcDbEntity
  8
PROJECT$CURVES
 62
     1
100
AcDb2dPolyline
 66
     1
 10
0.0
 20
0.0
 30
0.0
  0
VERTEX
  5
30E
330
30D
100
AcDbEntity
  8
PROJECT$CURVES
 62
     1
100
AcDbVertex
100
AcDb2dVertex
 10
19.98085469568051
 20
20.91948273108369
 30
0.0
  0
VERTEX
  5
30F
330
30D
100
AcDbEntity
  8
PROJECT$CURVES
 62
     1
100
AcDbVertex
100
AcDb2dVertex
 10
19.92884178629914
 20
20.88482862226979
 30
0.0
  0
VERTEX
  5
310
330
30D
100
AcDbEntity
  8
PROJECT$CURVES
 62
     1
100
AcDbVertex
100
AcDb2dVertex
 10
19.87682887691776
 20
20.8501745134559
 30
0.0
  0
SEQEND
  5
311
330
30D
100
AcDbEntity
  8
PROJECT$CURVES
 62
     1
  0
POLYLINE
  5
312
330
1F
100
AcDbEntity
  8
PROJECT$CURVES
 62
     1
100
AcDb2dPolyline
 66
     1
 10
0.0
 20
0.0
 30
0.0
  0
VERTEX
  5
313
330
312
100
AcDbEntity
  8
PROJECT$CURVES
 62
     1
100
AcDbVertex
100
AcDb2dVertex
 10
21.0119409363436
 20
23.61565266797967
 30
0.0
  0
VERTEX
  5
314
330
312
100
AcDbEntity
  8
PROJECT$CURVES
 62
     1
100
AcDbVertex
100
AcDb2dVertex
 10
21.04688377848664
 20
23.56383329145925
 30
0.0
  0
VERTEX
  5
315
330
312
100
AcDbEntity
  8
PROJECT$CURVES
 62
     1
100
AcDbVertex
100
AcDb2dVertex
 10
21.08182662062968
 20
23.51201391493882
 30
0.0
  0
SEQEND
  5
316
330
312
100
AcDbEntity
  8
PROJECT$CURVES
 62
     1
  0
POLYLINE
  5
317
330
1F
100
AcDbEntity
  8
PROJECT$CURVES
 62
     1
100
AcDb2dPolyline
 66
     1
 10
0.0
 20
0.0
 30
0.0
  0
VERTEX
  5
318
330
317
100
AcDbEntity
  8
PROJECT$CURVES
 62
     1
100
AcDbVertex
100
AcDb2dVertex
 10
13.88018454495563
 20
20.83367258963594
 30
0.0
  0
VERTEX
  5
319
330
317
100
AcDbEntity
  8
PROJECT$CURVES
 62
     1
100
AcDbVertex
100
AcDb2dVertex
 10
13.84427757731476
 20
20.88482862226979
 30
0.0
  0
VERTEX
  5
31A
330
317
100
AcDbEntity
  8
PROJECT$CURVES
 62
     1
100
AcDbVertex
100
AcDb2dVertex
 10
13.80837060967389
 20
20.93598465490365
 30
0.0
  0
SEQEND
  5
31B
330
317
100
AcDbEntity
  8
PROJECT$CURVES
 62
     1
  0
POLYLINE
  5
31C
330
1F
100
AcDbEntity
  8
PROJECT$CURVES
 62
     1
100
AcDb2dPolyline
 66
     1
 10
0.0
 20
0.0
 30
0.0
  0
VERTEX
  5
31D
330
31C
100
AcDbEntity
  8
PROJECT$CURVES
 62
     1
100
AcDbVertex
100
AcDb2dVertex
 10
14.73621093900014
 20
23.45806060834934
 30
0.0
  0
VERTEX
  5
31E
330
31C
100
AcDbEntity
  8
PROJECT$CURVES
 62
     1
100
AcDbVertex
100
AcDb2dVertex
 10
14.78716392985383
 20
23.49425512068288
 30
0.0
  0
VERTEX
  5
31F
330
31C
100
AcDbEntity
  8
PROJECT$CURVES
 62
     1
100
AcDbVertex
100
AcDb2dVertex
 10
14.83811692070751
 20
23.53044963301642
 30
0.0
  0
SEQEND
  5
320
330
31C
100
AcDbEntity
  8
PROJECT$CURVES
 62
     1
  0
POLYLINE
  5
321
330
1F
100
AcDbEntity
  8
PROJECT$CURVES
 62
     1
100
AcDb2dPolyline
 66
     1
 10
0.0
 20
0.0
 30
0.0
  0
VERTEX
  5
322
330
321
100
AcDbEntity
  8
PROJECT$CURVES
 62
     1
100
AcDbVertex
100
AcDb2dVertex
 10
27.26972100516709
 20
20.89768665878526
 30
0.0
  0
VERTEX
  5
323
330
321
100
AcDbEntity
  8
PROJECT$CURVES
 62
     1
100
AcDbVertex
100
AcDb2dVertex
 10
27.24196171550945
 20
20.95368372868811
 30
0.0
  0
VERTEX
  5
324
330
321
100
AcDbEntity
  8
PROJECT$CURVES
 62
     1
100
AcDbVertex
100
AcDb2dVertex
 10
27.21420242585182
 20
21.00968079859094
 30
0.0
  0
SEQEND
  5
325
330
321
100
AcDbEntity
  8
PROJECT$CURVES
 62
     1
  0
POLYLINE
  5
326
330
1F
100
AcDbEntity
  8
PROJECT$CURVES
 62
     1
100
AcDb2dPolyline
 66
     1
 10
0.0
 20
0.0
 30
0.0
  0
VERTEX
  5
327
330
326
100
AcDbEntity
  8
PROJECT$CURVES
 62
     1
100
AcDbVertex
100
AcDb2dVertex
 10
29.29323732534927
 20
23.60587712013629
 30
0.0
  0
VERTEX
  5
328
330
326
100
AcDbEntity
  8
PROJECT$CURVES
 62
     1
100
AcDbVertex
100
AcDb2dVertex
 10
29.2376282194157
 20
23.57734858464514
 30
0.0
  0
VERTEX
  5
329
330
326
100
AcDbEntity
  8
PROJECT$CURVES
 62
     1
100
AcDbVertex
100
AcDb2dVertex
 10
29.18201911348213
 20
23.54882004915398
 30
0.0
  0
SEQEND
  5
32A
330
326
100
AcDbEntity
  8
PROJECT$CURVES
 62
     1
  0
POLYLINE
  5
32B
330
1F
100
AcDbEntity
  8
PROJECT$CURVES
 62
     1
100
AcDb2dPolyline
 66
     1
 10
0.0
 20
0.0
 30
0.0
  0
VERTEX
  5
32C
330
32B
100
AcDbEntity
  8
PROJECT$CURVES
 62
     1
100
AcDbVertex
100
AcDb2dVertex
 10
21.16871980923749
 20
20.92684061134819
 30
0.0
  0
VERTEX
  5
32D
330
32B
100
AcDbEntity
  8
PROJECT$CURVES
 62
     1
100
AcDbVertex
100
AcDb2dVertex
 10
21.22516178875164
 20
20.95368372868811
 30
0.0
  0
VERTEX
  5
32E
330
32B
100
AcDbEntity
  8
PROJECT$CURVES
 62
     1
100
AcDbVertex
100
AcDb2dVertex
 10
21.28160376826579
 20
20.980526846028
 30
0.0
  0
SEQEND
  5
32F
330
32B
100
AcDbEntity
  8
PROJECT$CURVES
 62
     1
  0
POLYLINE
  5
330
330
1F
100
AcDbEntity
  8
PROJECT$CURVES
 62
     1
100
AcDb2dPolyline
 66
     1
 10
0.0
 20
0.0
 30
0.0
  0
VERTEX
  5
331
330
330
100
AcDbEntity
  8
PROJECT$CURVES
 62
     1
100
AcDbVertex
100
AcDb2dVertex
 10
23.19766495525069
 20
23.46809367863075
 30
0.0
  0
VERTEX
  5
332
330
330
100
AcDbEntity
  8
PROJECT$CURVES
 62
     1
100
AcDbVertex
100
AcDb2dVertex
 10
23.22528385906414
 20
23.41202723454748
 30
0.0
  0
VERTEX
  5
333
330
330
100
AcDbEntity
  8
PROJECT$CURVES
 62
     1
100
AcDbVertex
100
AcDb2dVertex
 10
23.25290276287759
 20
23.3559607904642
 30
0.0
  0
SEQEND
  5
334
330
330
100
AcDbEntity
  8
PROJECT$CURVES
 62
     1
  0
POLYLINE
  5
335
330
1F
100
AcDbEntity
  8
PROJECT$CURVES
 62
     1
100
AcDb2dPolyline
 66
     1
 10
0.0
 20
0.0
 30
0.0
  0
VERTEX
  5
336
330
335
100
AcDbEntity
  8
PROJECT$CURVES
 62
     1
100
AcDbVertex
100
AcDb2dVertex
 10
27.2979587854123
 20
20.98144301834575
 30
0.0
  0
VERTEX
  5
337
330
335
100
AcDbEntity
  8
PROJECT$CURVES
 62
     1
100
AcDbVertex
100
AcDb2dVertex
 10
27.24196171550945
 20
20.95368372868811
 30
0.0
  0
VERTEX
  5
338
330
335
100
AcDbEntity
  8
PROJECT$CURVES
 62
     1
100
AcDbVertex
100
AcDb2dVertex
 10
27.18596464560661
 20
20.92592443903047
 30
0.0
  0
SEQEND
  5
339
330
335
100
AcDbEntity
  8
PROJECT$CURVES
 62
     1
  0
POLYLINE
  5
33A
330
1F
100
AcDbEntity
  8
PROJECT$CURVES
 62
     1
100
AcDb2dPolyline
 66
     1
 10
0.0
 20
0.0
 30
0.0
  0
VERTEX
  5
33B
330
33A
100
AcDbEntity
  8
PROJECT$CURVES
 62
     1
100
AcDbVertex
100
AcDb2dVertex
 10
29.20909968392456
 20
23.63295769057871
 30
0.0
  0
VERTEX
  5
33C
330
33A
100
AcDbEntity
  8
PROJECT$CURVES
 62
     1
100
AcDbVertex
100
AcDb2dVertex
 10
29.2376282194157
 20
23.57734858464514
 30
0.0
  0
VERTEX
  5
33D
330
33A
100
AcDbEntity
  8
PROJECT$CURVES
 62
     1
100
AcDbVertex
100
AcDb2dVertex
 10
29.26615675490685
 20
23.52173947871157
 30
0.0
  0
SEQEND
  5
33E
330
33A
100
AcDbEntity
  8
PROJECT$CURVES
 62
     1
  0
POLYLINE
  5
33F
330
1F
100
AcDbEntity
  8
PROJECT$CURVES
 62
     1
100
AcDb2dPolyline
 66
     1
 10
0.0
 20
0.0
 30
0.0
  0
VERTEX
  5
340
330
33F
100
AcDbEntity
  8
PROJECT$CURVES
 62
     1
100
AcDbVertex
100
AcDb2dVertex
 10
21.25200490609156
 20
20.89724174917396
 30
0.0
  0
VERTEX
  5
341
330
33F
100
AcDbEntity
  8
PROJECT$CURVES
 62
     1
100
AcDbVertex
100
AcDb2dVertex
 10
21.22516178875164
 20
20.95368372868811
 30
0.0
  0
VERTEX
  5
342
330
33F
100
AcDbEntity
  8
PROJECT$CURVES
 62
     1
100
AcDbVertex
100
AcDb2dVertex
 10
21.19831867141172
 20
21.01012570820226
 30
0.0
  0
SEQEND
  5
343
330
33F
100
AcDbEntity
  8
PROJECT$CURVES
 62
     1
  0
POLYLINE
  5
344
330
1F
100
AcDbEntity
  8
PROJECT$CURVES
 62
     1
100
AcDb2dPolyline
 66
     1
 10
0.0
 20
0.0
 30
0.0
  0
VERTEX
  5
345
330
344
100
AcDbEntity
  8
PROJECT$CURVES
 62
     1
100
AcDbVertex
100
AcDb2dVertex
 10
23.16921741498086
 20
23.38440833073404
 30
0.0
  0
VERTEX
  5
346
330
344
100
AcDbEntity
  8
PROJECT$CURVES
 62
     1
100
AcDbVertex
100
AcDb2dVertex
 10
23.22528385906414
 20
23.41202723454748
 30
0.0
  0
VERTEX
  5
347
330
344
100
AcDbEntity
  8
PROJECT$CURVES
 62
     1
100
AcDbVertex
100
AcDb2dVertex
 10
23.28135030314743
 20
23.43964613836093
 30
0.0
  0
SEQEND
  5
348
330
344
100
AcDbEntity
  8
PROJECT$CURVES
 62
     1
  0
POLYLINE
  5
349
330
1F
100
AcDbEntity
  8
PROJECT$CURVES
 62
     1
100
AcDb2dPolyline
 66
     1
 10
0.0
 20
0.0
 30
0.0
 70
     1
  0
VERTEX
  5
34A
330
349
100
AcDbEntity
  8
PROJECT$CURVES
 62
     1
100
AcDbVertex
100
AcDb2dVertex
 10
27.2419592920329
 20
20.82868404874182
 30
0.0
  0
VERTEX
  5
34B
330
349
100
AcDbEntity
  8
PROJECT$CURVES
 62
     1
100
AcDbVertex
100
AcDb2dVertex
 10
20.9623231164426
 20
20.82868404874182
 30
0.0
  0
VERTEX
  5
34C
330
349
100
AcDbEntity
  8
PROJECT$CURVES
 62
     1
100
AcDbVertex
100
AcDb2dVertex
 10
23.16451153530556
 20
23.53540281771295
 30
0.0
  0
VERTEX
  5
34D
330
349
100
AcDbEntity
  8
PROJECT$CURVES
 62
     1
100
AcDbVertex
100
AcDb2dVertex
 10
29.49517711274702
 20
23.70947756161936
 30
0.0
  0
VERTEX
  5
34E
330
349
100
AcDbEntity
  8
PROJECT$CURVES
 62
     1
100
AcDbVertex
100
AcDb2dVertex
 10
27.30393090606662
 20
20.82868404874182
 30
0.0
  0
SEQEND
  5
34F
330
349
100
AcDbEntity
  8
PROJECT$CURVES
 62
     1
  0
POLYLINE
  5
350
330
1F
100
AcDbEntity
  8
PROJECT$CURVES
 62
     1
100
AcDb2dPolyline
 66
     1
 10
0.0
 20
0.0
 30
-1.12921738433468
  0
VERTEX
  5
351
330
350
100
AcDbEntity
  8
PROJECT$CURVES
 62
     1
100
AcDbVertex
100
AcDb2dVertex
 10
7.639267882813622
 20
20.06409418429783
 30
-1.12921738433468
  0
VERTEX
  5
352
330
350
100
AcDbEntity
  8
PROJECT$CURVES
 62
     1
100
AcDbVertex
100
AcDb2dVertex
 10
7.67170301060631
 20
20.01066935406815
 30
-1.12921738433468
  0
VERTEX
  5
353
330
350
100
AcDbEntity
  8
PROJECT$CURVES
 62
     1
100
AcDbVertex
100
AcDb2dVertex
 10
7.704138138399001
 20
19.95724452383845
 30
-1.12921738433468
  0
SEQEND
  5
354
330
350
100
AcDbEntity
  8
PROJECT$CURVES
 62
     1
  0
POLYLINE
  5
355
330
1F
100
AcDbEntity
  8
PROJECT$CURVES
 62
     1
100
AcDb2dPolyline
 66
     1
 10
0.0
 20
0.0
 30
-1.12921738433468
  0
VERTEX
  5
356
330
355
100
AcDbEntity
  8
PROJECT$CURVES
 62
     1
100
AcDbVertex
100
AcDb2dVertex
 10
7.725127840835997
 20
20.04310448186083
 30
-1.12921738433468
  0
VERTEX
  5
357
330
355
100
AcDbEntity
  8
PROJECT$CURVES
 62
     1
100
AcDbVertex
100
AcDb2dVertex
 10
7.67170301060631
 20
20.01066935406815
 30
-1.12921738433468
  0
VERTEX
  5
358
330
355
100
AcDbEntity
  8
PROJECT$CURVES
 62
     1
100
AcDbVertex
100
AcDb2dVertex
 10
7.618278180376622
 20
19.97823422627544
 30
-1.12921738433468
  0
SEQEND
  5
359
330
355
100
AcDbEntity
  8
PROJECT$CURVES
 62
     1
  0
POLYLINE
  5
35A
330
1F
100
AcDbEntity
  8
PROJECT$CURVES
 62
     1
100
AcDb2dPolyline
 66
     1
 10
0.0
 20
0.0
 30
0.0
 70
     1
  0
VERTEX
  5
35B
330
35A
100
AcDbEntity
  8
PROJECT$CURVES
 62
     1
100
AcDbVertex
100
AcDb2dVertex
 10
1.883486081710593
 20
20.34510007753412
 30
0.0
  0
VERTEX
  5
35C
330
35A
100
AcDbEntity
  8
PROJECT$CURVES
 62
     1
100
AcDbVertex
100
AcDb2dVertex
 10
7.866144146216522
 20
20.12871845569291
 30
0.0
  0
VERTEX
  5
35D
330
35A
100
AcDbEntity
  8
PROJECT$CURVES
 62
     1
100
AcDbVertex
100
AcDb2dVertex
 10
6.366169470008739
 20
16.96996697421003
 30
0.0
  0
VERTEX
  5
35E
330
35A
100
AcDbEntity
  8
PROJECT$CURVES
 62
     1
100
AcDbVertex
100
AcDb2dVertex
 10
0.2541896874279832
 20
16.96996697421002
 30
0.0
  0
VERTEX
  5
35F
330
35A
100
AcDbEntity
  8
PROJECT$CURVES
 62
     1
100
AcDbVertex
100
AcDb2dVertex
 10
1.800046168478466
 20
20.34811794410058
 30
0.0
  0
SEQEND
  5
360
330
35A
100
AcDbEntity
  8
PROJECT$CURVES
 62
     1
  0
POLYLINE
  5
361
330
1F
100
AcDbEntity
  8
PROJECT$CURVES
 62
     1
100
AcDb2dPolyline
 66
     1
 10
0.0
 20
0.0
 30
0.0
  0
VERTEX
  5
362
330
361
100
AcDbEntity
  8
PROJECT$CURVES
 62
     1
100
AcDbVertex
100
AcDb2dVertex
 10
1.84615214810474
 20
20.27337457162377
 30
0.0
  0
VERTEX
  5
363
330
361
100
AcDbEntity
  8
PROJECT$CURVES
 62
     1
100
AcDbVertex
100
AcDb2dVertex
 10
1.878966563512229
 20
20.22018186402711
 30
0.0
  0
VERTEX
  5
364
330
361
100
AcDbEntity
  8
PROJECT$CURVES
 62
     1
100
AcDbVertex
100
AcDb2dVertex
 10
1.911780978919717
 20
20.16698915643043
 30
0.0
  0
SEQEND
  5
365
330
361
100
AcDbEntity
  8
PROJECT$CURVES
 62
     1
  0
POLYLINE
  5
366
330
1F
100
AcDbEntity
  8
PROJECT$CURVES
 62
     1
100
AcDb2dPolyline
 66
     1
 10
0.0
 20
0.0
 30
0.0
  0
VERTEX
  5
367
330
366
100
AcDbEntity
  8
PROJECT$CURVES
 62
     1
100
AcDbVertex
100
AcDb2dVertex
 10
0.3962586570542364
 20
17.06119635803929
 30
0.0
  0
VERTEX
  5
368
330
366
100
AcDbEntity
  8
PROJECT$CURVES
 62
     1
100
AcDbVertex
100
AcDb2dVertex
 10
0.448849583038307
 20
17.0949668259682
 30
0.0
  0
VERTEX
  5
369
330
366
100
AcDbEntity
  8
PROJECT$CURVES
 62
     1
100
AcDbVertex
100
AcDb2dVertex
 10
0.5014405090223768
 20
17.12873729389711
 30
0.0
  0
SEQEND
  5
36A
330
366
100
AcDbEntity
  8
PROJECT$CURVES
 62
     1
  0
POLYLINE
  5
36B
330
1F
100
AcDbEntity
  8
PROJECT$CURVES
 62
     1
100
AcDb2dPolyline
 66
     1
 10
0.0
 20
0.0
 30
0.0
  0
VERTEX
  5
36C
330
36B
100
AcDbEntity
  8
PROJECT$CURVES
 62
     1
100
AcDbVertex
100
AcDb2dVertex
 10
6.320547177073563
 20
17.04213727369829
 30
0.0
  0
VERTEX
  5
36D
330
36B
100
AcDbEntity
  8
PROJECT$CURVES
 62
     1
100
AcDbVertex
100
AcDb2dVertex
 10
6.287152425203243
 20
17.09496757321969
 30
0.0
  0
VERTEX
  5
36E
330
36B
100
AcDbEntity
  8
PROJECT$CURVES
 62
     1
100
AcDbVertex
100
AcDb2dVertex
 10
6.253757673332923
 20
17.14779787274108
 30
0.0
  0
SEQEND
  5
36F
330
36B
100
AcDbEntity
  8
PROJECT$CURVES
 62
     1
  0
POLYLINE
  5
370
330
1F
100
AcDbEntity
  8
PROJECT$CURVES
 62
     1
100
AcDb2dPolyline
 66
     1
 10
0.0
 20
0.0
 30
0.0
  0
VERTEX
  5
371
330
370
100
AcDbEntity
  8
PROJECT$CURVES
 62
     1
100
AcDbVertex
100
AcDb2dVertex
 10
1.825773855915565
 20
20.18736744861962
 30
0.0
  0
VERTEX
  5
372
330
370
100
AcDbEntity
  8
PROJECT$CURVES
 62
     1
100
AcDbVertex
100
AcDb2dVertex
 10
1.878966563512229
 20
20.22018186402711
 30
0.0
  0
VERTEX
  5
373
330
370
100
AcDbEntity
  8
PROJECT$CURVES
 62
     1
100
AcDbVertex
100
AcDb2dVertex
 10
1.932159271108892
 20
20.2529962794346
 30
0.0
  0
SEQEND
  5
374
330
370
100
AcDbEntity
  8
PROJECT$CURVES
 62
     1
  0
POLYLINE
  5
375
330
1F
100
AcDbEntity
  8
PROJECT$CURVES
 62
     1
100
AcDb2dPolyline
 66
     1
 10
0.0
 20
0.0
 30
0.0
  0
VERTEX
  5
376
330
375
100
AcDbEntity
  8
PROJECT$CURVES
 62
     1
100
AcDbVertex
100
AcDb2dVertex
 10
0.4826200509672258
 20
17.04237589998413
 30
0.0
  0
VERTEX
  5
377
330
375
100
AcDbEntity
  8
PROJECT$CURVES
 62
     1
100
AcDbVertex
100
AcDb2dVertex
 10
0.448849583038307
 20
17.0949668259682
 30
0.0
  0
VERTEX
  5
378
330
375
100
AcDbEntity
  8
PROJECT$CURVES
 62
     1
100
AcDbVertex
100
AcDb2dVertex
 10
0.4150791151093882
 20
17.14755775195227
 30
0.0
  0
SEQEND
  5
379
330
375
100
AcDbEntity
  8
PROJECT$CURVES
 62
     1
  0
POLYLINE
  5
37A
330
1F
100
AcDbEntity
  8
PROJECT$CURVES
 62
     1
100
AcDb2dPolyline
 66
     1
 10
0.0
 20
0.0
 30
0.0
  0
VERTEX
  5
37B
330
37A
100
AcDbEntity
  8
PROJECT$CURVES
 62
     1
100
AcDbVertex
100
AcDb2dVertex
 10
6.339982724724644
 20
17.12836232509002
 30
0.0
  0
VERTEX
  5
37C
330
37A
100
AcDbEntity
  8
PROJECT$CURVES
 62
     1
100
AcDbVertex
100
AcDb2dVertex
 10
6.287152425203243
 20
17.09496757321969
 30
0.0
  0
VERTEX
  5
37D
330
37A
100
AcDbEntity
  8
PROJECT$CURVES
 62
     1
100
AcDbVertex
100
AcDb2dVertex
 10
6.234322125681842
 20
17.06157282134938
 30
0.0
  0
SEQEND
  5
37E
330
37A
100
AcDbEntity
  8
PROJECT$CURVES
 62
     1
  0
POLYLINE
  5
37F
330
1F
100
AcDbEntity
  8
PROJECT$CURVES
 62
     1
100
AcDb2dPolyline
 66
     1
 10
0.0
 20
0.0
 30
0.0
  0
VERTEX
  5
380
330
37F
100
AcDbEntity
  8
PROJECT$CURVES
 62
     1
100
AcDbVertex
100
AcDb2dVertex
 10
1.598163848785163
 20
23.29498608739506
 30
0.0
  0
VERTEX
  5
381
330
37F
100
AcDbEntity
  8
PROJECT$CURVES
 62
     1
100
AcDbVertex
100
AcDb2dVertex
 10
1.649912077885517
 20
23.33003420838575
 30
0.0
  0
VERTEX
  5
382
330
37F
100
AcDbEntity
  8
PROJECT$CURVES
 62
     1
100
AcDbVertex
100
AcDb2dVertex
 10
1.701660306985872
 20
23.36508232937645
 30
0.0
  0
SEQEND
  5
383
330
37F
100
AcDbEntity
  8
PROJECT$CURVES
 62
     1
  0
POLYLINE
  5
384
330
1F
100
AcDbEntity
  8
PROJECT$CURVES
 62
     1
100
AcDb2dPolyline
 66
     1
 10
0.0
 20
0.0
 30
0.0
  0
VERTEX
  5
385
330
384
100
AcDbEntity
  8
PROJECT$CURVES
 62
     1
100
AcDbVertex
100
AcDb2dVertex
 10
0.4744276437924952
 20
20.47456348286123
 30
0.0
  0
VERTEX
  5
386
330
384
100
AcDbEntity
  8
PROJECT$CURVES
 62
     1
100
AcDbVertex
100
AcDb2dVertex
 10
0.4400884694870797
 20
20.52678484925489
 30
0.0
  0
VERTEX
  5
387
330
384
100
AcDbEntity
  8
PROJECT$CURVES
 62
     1
100
AcDbVertex
100
AcDb2dVertex
 10
0.4057492951816641
 20
20.57900621564856
 30
0.0
  0
SEQEND
  5
388
330
384
100
AcDbEntity
  8
PROJECT$CURVES
 62
     1
  0
POLYLINE
  5
389
330
1F
100
AcDbEntity
  8
PROJECT$CURVES
 62
     1
100
AcDb2dPolyline
 66
     1
 10
0.0
 20
0.0
 30
0.0
  0
VERTEX
  5
38A
330
389
100
AcDbEntity
  8
PROJECT$CURVES
 62
     1
100
AcDbVertex
100
AcDb2dVertex
 10
7.58096848389269
 20
23.54392639060778
 30
0.0
  0
VERTEX
  5
38B
330
389
100
AcDbEntity
  8
PROJECT$CURVES
 62
     1
100
AcDbVertex
100
AcDb2dVertex
 10
7.61605282495583
 20
23.49220271119337
 30
0.0
  0
VERTEX
  5
38C
330
389
100
AcDbEntity
  8
PROJECT$CURVES
 62
     1
100
AcDbVertex
100
AcDb2dVertex
 10
7.65113716601897
 20
23.44047903177896
 30
0.0
  0
SEQEND
  5
38D
330
389
100
AcDbEntity
  8
PROJECT$CURVES
 62
     1
  0
POLYLINE
  5
38E
330
1F
100
AcDbEntity
  8
PROJECT$CURVES
 62
     1
100
AcDb2dPolyline
 66
     1
 10
0.0
 20
0.0
 30
0.0
  0
VERTEX
  5
38F
330
38E
100
AcDbEntity
  8
PROJECT$CURVES
 62
     1
100
AcDbVertex
100
AcDb2dVertex
 10
6.393634865144776
 20
20.56116489608651
 30
0.0
  0
VERTEX
  5
390
330
38E
100
AcDbEntity
  8
PROJECT$CURVES
 62
     1
100
AcDbVertex
100
AcDb2dVertex
 10
6.341440398198017
 20
20.52678484925489
 30
0.0
  0
VERTEX
  5
391
330
38E
100
AcDbEntity
  8
PROJECT$CURVES
 62
     1
100
AcDbVertex
100
AcDb2dVertex
 10
6.289245931251259
 20
20.49240480242328
 30
0.0
  0
SEQEND
  5
392
330
38E
100
AcDbEntity
  8
PROJECT$CURVES
 62
     1
  0
POLYLINE
  5
393
330
1F
100
AcDbEntity
  8
PROJECT$CURVES
 62
     1
100
AcDb2dPolyline
 66
     1
 10
0.0
 20
0.0
 30
0.0
  0
VERTEX
  5
394
330
393
100
AcDbEntity
  8
PROJECT$CURVES
 62
     1
100
AcDbVertex
100
AcDb2dVertex
 10
1.614863956894823
 20
23.38178243748609
 30
0.0
  0
VERTEX
  5
395
330
393
100
AcDbEntity
  8
PROJECT$CURVES
 62
     1
100
AcDbVertex
100
AcDb2dVertex
 10
1.649912077885517
 20
23.33003420838575
 30
0.0
  0
VERTEX
  5
396
330
393
100
AcDbEntity
  8
PROJECT$CURVES
 62
     1
100
AcDbVertex
100
AcDb2dVertex
 10
1.684960198876212
 20
23.2782859792854
 30
0.0
  0
SEQEND
  5
397
330
393
100
AcDbEntity
  8
PROJECT$CURVES
 62
     1
  0
POLYLINE
  5
398
330
1F
100
AcDbEntity
  8
PROJECT$CURVES
 62
     1
100
AcDb2dPolyline
 66
     1
 10
0.0
 20
0.0
 30
0.0
  0
VERTEX
  5
399
330
398
100
AcDbEntity
  8
PROJECT$CURVES
 62
     1
100
AcDbVertex
100
AcDb2dVertex
 10
0.3878671030934129
 20
20.49244567494947
 30
0.0
  0
VERTEX
  5
39A
330
398
100
AcDbEntity
  8
PROJECT$CURVES
 62
     1
100
AcDbVertex
100
AcDb2dVertex
 10
0.4400884694870797
 20
20.52678484925489
 30
0.0
  0
VERTEX
  5
39B
330
398
100
AcDbEntity
  8
PROJECT$CURVES
 62
     1
100
AcDbVertex
100
AcDb2dVertex
 10
0.4923098358807465
 20
20.56112402356031
 30
0.0
  0
SEQEND
  5
39C
330
398
100
AcDbEntity
  8
PROJECT$CURVES
 62
     1
  0
POLYLINE
  5
39D
330
1F
100
AcDbEntity
  8
PROJECT$CURVES
 62
     1
100
AcDb2dPolyline
 66
     1
 10
0.0
 20
0.0
 30
0.0
  0
VERTEX
  5
39E
330
39D
100
AcDbEntity
  8
PROJECT$CURVES
 62
     1
100
AcDbVertex
100
AcDb2dVertex
 10
7.667776504370238
 20
23.52728705225651
 30
0.0
  0
VERTEX
  5
39F
330
39D
100
AcDbEntity
  8
PROJECT$CURVES
 62
     1
100
AcDbVertex
100
AcDb2dVertex
 10
7.61605282495583
 20
23.49220271119337
 30
0.0
  0
VERTEX
  5
3A0
330
39D
100
AcDbEntity
  8
PROJECT$CURVES
 62
     1
100
AcDbVertex
100
AcDb2dVertex
 10
7.564329145541421
 20
23.45711837013022
 30
0.0
  0
SEQEND
  5
3A1
330
39D
100
AcDbEntity
  8
PROJECT$CURVES
 62
     1
  0
POLYLINE
  5
3A2
330
1F
100
AcDbEntity
  8
PROJECT$CURVES
 62
     1
100
AcDb2dPolyline
 66
     1
 10
0.0
 20
0.0
 30
0.0
  0
VERTEX
  5
3A3
330
3A2
100
AcDbEntity
  8
PROJECT$CURVES
 62
     1
100
AcDbVertex
100
AcDb2dVertex
 10
6.375820445029632
 20
20.47459038230814
 30
0.0
  0
VERTEX
  5
3A4
330
3A2
100
AcDbEntity
  8
PROJECT$CURVES
 62
     1
100
AcDbVertex
100
AcDb2dVertex
 10
6.341440398198017
 20
20.52678484925489
 30
0.0
  0
VERTEX
  5
3A5
330
3A2
100
AcDbEntity
  8
PROJECT$CURVES
 62
     1
100
AcDbVertex
100
AcDb2dVertex
 10
6.307060351366403
 20
20.57897931620164
 30
0.0
  0
SEQEND
  5
3A6
330
3A2
100
AcDbEntity
  8
PROJECT$CURVES
 62
     1
  0
POLYLINE
  5
3A7
330
1F
100
AcDbEntity
  8
PROJECT$CURVES
 62
     1
100
AcDb2dPolyline
 66
     1
 10
0.0
 20
0.0
 30
0.0
 70
     1
  0
VERTEX
  5
3A8
330
3A7
100
AcDbEntity
  8
PROJECT$CURVES
 62
     1
100
AcDbVertex
100
AcDb2dVertex
 10
6.341441785698009
 20
20.40178479368846
 30
0.0
  0
VERTEX
  5
3A9
330
3A7
100
AcDbEntity
  8
PROJECT$CURVES
 62
     1
100
AcDbVertex
100
AcDb2dVertex
 10
0.2499982603479225
 20
20.40178479368846
 30
0.0
  0
VERTEX
  5
3AA
330
3A7
100
AcDbEntity
  8
PROJECT$CURVES
 62
     1
100
AcDbVertex
100
AcDb2dVertex
 10
1.566757779640966
 20
23.45281972645913
 30
0.0
  0
VERTEX
  5
3AB
330
3A7
100
AcDbEntity
  8
PROJECT$CURVES
 62
     1
100
AcDbVertex
100
AcDb2dVertex
 10
7.80809894678697
 20
23.62246821199565
 30
0.0
  0
VERTEX
  5
3AC
330
3A7
100
AcDbEntity
  8
PROJECT$CURVES
 62
     1
100
AcDbVertex
100
AcDb2dVertex
 10
6.423771476278972
 20
20.40178479368846
 30
0.0
  0
SEQEND
  5
3AD
330
3A7
100
AcDbEntity
  8
PROJECT$CURVES
 62
     1
  0
ENDSEC
  0
SECTION
  2
OBJECTS
  0
DICTIONARY
  5
C
330
0
100
AcDbDictionary
  3
ACAD_GROUP
350
D
  3
ACAD_LAYOUT
350
1A
  3
ACAD_MATERIAL
350
43
  3
ACAD_MLEADERSTYLE
350
5B
  3
ACAD_MLINESTYLE
350
17
  3
ACAD_PLOTSETTINGS
350
19
  3
ACAD_SCALELIST
350
47
  3
ACAD_VISUALSTYLE
350
2A
  3
ACDBHEADERROUNDTRIPXREC
350
3FE
  3
ACDBVARIABLEDICTIONARY
350
3C1
  3
DWGPROPS
350
421
  0
DICTIONARY
  5
422
330
8
100
AcDbDictionary
280
     1
  3
ACAD_XREC_ROUNDTRIP
360
423
  0
DICTIONARY
  5
D
102
{ACAD_REACTORS
330
C
102
}
330
C
100
AcDbDictionary
  3
GROUP0
350
3AE
  3
GROUP1
350
3AF
  3
GROUP10
350
3B8
  3
GROUP11
350
3B9
  3
GROUP12
350
3BA
  3
GROUP13
350
3BB
  3
GROUP14
350
3BC
  3
GROUP15
350
3BD
  3
GROUP16
350
3BE
  3
GROUP17
350
3BF
  3
GROUP18
350
3C0
  3
GROUP2
350
3B0
  3
GROUP3
350
3B1
  3
GROUP4
350
3B2
  3
GROUP5
350
3B3
  3
GROUP6
350
3B4
  3
GROUP7
350
3B5
  3
GROUP8
350
3B6
  3
GROUP9
350
3B7
  0
DICTIONARY
  5
1A
102
{ACAD_REACTORS
330
C
102
}
330
C
100
AcDbDictionary
  0
DICTIONARY
  5
43
102
{ACAD_REACTORS
330
C
102
}
330
C
100
AcDbDictionary
  3
BYBLOCK
350
45
  3
BYLAYER
350
44
  3
GLOBAL
350
46
  0
DICTIONARY
  5
5B
102
{ACAD_REACTORS
330
C
102
}
330
C
100
AcDbDictionary
  3
STANDARD
350
5C
  0
DICTIONARY
  5
17
102
{ACAD_REACTORS
330
C
102
}
330
C
100
AcDbDictionary
  3
STANDARD
350
18
  0
DICTIONARY
  5
19
102
{ACAD_REACTORS
330
C
102
}
330
C
100
AcDbDictionary
  0
DICTIONARY
  5
47
102
{ACAD_REACTORS
330
C
102
}
330
C
100
AcDbDictionary
  3
A0
350
48
  3
A1
350
49
  3
A2
350
4A
  3
A3
350
4B
  3
A4
350
4C
  3
A5
350
4D
  3
A6
350
4E
  3
A7
350
4F
  3
A8
350
50
  3
A9
350
51
  3
B1
350
52
  3
B2
350
53
  3
B3
350
54
  3
B4
350
55
  3
B5
350
56
  3
B6
350
57
  3
B7
350
58
  0
DICTIONARY
  5
2A
102
{ACAD_REACTORS
330
C
102
}
330
C
100
AcDbDictionary
  3
2DWIREFRAME
350
2F
  3
BASIC
350
32
  3
BRIGHTEN
350
36
  3
COLORCHANGE
350
3A
  3
CONCEPTUAL
350
34
  3
DIM
350
35
  3
EDGECOLOROFF
350
3D
  3
FACEPATTERN
350
39
  3
FLAT
350
2B
  3
FLATWITHEDGES
350
2C
  3
GOURAUD
350
2D
  3
GOURAUDWITHEDGES
350
2E
  3
HIDDEN
350
31
  3
JITTEROFF
350
3B
  3
LINEPATTERN
350
38
  3
OVERHANGOFF
350
3C
  3
REALISTIC
350
33
  3
SHADED
350
42
  3
SHADED_WITH_EDGES
350
41
  3
SHADES_OF_GRAY
350
3E
  3
SKETCHY
350
3F
  3
THICKEN
350
37
  3
WIREFRAME
350
30
  3
X-RAY
350
40
  0
DICTIONARY
  5
3FE
102
{ACAD_REACTORS
330
C
102
}
330
C
100
AcDbDictionary
  3
CEPSNID
350
408
  3
CEPSNTYPE
350
407
  3
DIMSTYLEDATA
350
41E
  3
FINGERPRINTGUID
350
409
  3
HYPERLINKBASE
350
401
  3
INSUNITS
350
406
  3
LAYOUTDICT
350
403
  3
LWETCUNION
350
405
  3
PLOTSETDICT
350
404
  3
PSVPSCALE
350
40B
  3
PUCSBASE
350
40E
  3
PUCSORGBACK
350
414
  3
PUCSORGBOTTOM
350
410
  3
PUCSORGFRONT
350
413
  3
PUCSORGLEFT
350
411
  3
PUCSORGRIGHT
350
412
  3
PUCSORGTOP
350
40F
  3
PUCSORTHOREF
350
40C
  3
PUCSORTHOVIEW
350
40D
  3
STYLESHEET
350
402
  3
TSTACKALIGN
350
3FF
  3
TSTACKSIZE
350
400
  3
UCSBASE
350
417
  3
UCSORGBACK
350
41D
  3
UCSORGBOTTOM
350
419
  3
UCSORGFRONT
350
41C
  3
UCSORGLEFT
350
41A
  3
UCSORGRIGHT
350
41B
  3
UCSORGTOP
350
418
  3
UCSORTHOREF
350
415
  3
UCSORTHOVIEW
350
416
  3
VERSIONGUID
350
40A
  0
DICTIONARY
  5
3C1
102
{ACAD_REACTORS
330
C
102
}
330
C
100
AcDbDictionary
  3
CANNOSCALE
350
3C2
  3
CMLEADERSTYLE
350
3FB
  3
CTABLESTYLE
350
3FA
  3
DIMASSOC
350
41F
  3
HIDETEXT
350
420
  3
MSLTSCALE
350
424
  3
XCLIPFRAME
350
3C3
  0
XRECORD
  5
421
102
{ACAD_REACTORS
330
C
102
}
330
C
100
AcDbXrecord
  1
DWGPROPS COOKIE
  2

  3

  4

  6

  7

  8
vovastelmashchuk
  9

300
=
301
=
302
=
303
=
304
=
305
=
306
=
307
=
308
=
309
=
 40
0.0
 41
2460647.119957269
 42
2460702.751114283
  1

 90
        0
  0
XRECORD
  5
423
102
{ACAD_REACTORS
330
422
102
}
330
422
100
AcDbXrecord
102
VTR_0.000_0.000_1.000_1.000_VISUALSTYLE
340
2F
102
VTR_0.000_0.000_1.000_1.000_GRIDDISPLAY
 70
     3
102
VTR_0.000_0.000_1.000_1.000_GRIDMAJOR
 70
     5
102
VTR_0.000_0.000_1.000_1.000_DEFAULTLIGHTING
280
     1
102
VTR_0.000_0.000_1.000_1.000_DEFAULTLIGHTINGTYPE
 70
     1
102
VTR_0.000_0.000_1.000_1.000_BRIGHTNESS
141
0.0
102
VTR_0.000_0.000_1.000_1.000_CONTRAST
142
0.0
  0
GROUP
  5
3AE
102
{ACAD_REACTORS
330
D
102
}
330
D
100
AcDbGroup
300

 70
     0
 71
     1
  0
GROUP
  5
3AF
102
{ACAD_REACTORS
330
D
102
}
330
D
100
AcDbGroup
300

 70
     0
 71
     1
  0
GROUP
  5
3B8
102
{ACAD_REACTORS
330
D
102
}
330
D
100
AcDbGroup
300

 70
     0
 71
     1
  0
GROUP
  5
3B9
102
{ACAD_REACTORS
330
D
102
}
330
D
100
AcDbGroup
300

 70
     0
 71
     1
  0
GROUP
  5
3BA
102
{ACAD_REACTORS
330
D
102
}
330
D
100
AcDbGroup
300

 70
     0
 71
     1
  0
GROUP
  5
3BB
102
{ACAD_REACTORS
330
D
102
}
330
D
100
AcDbGroup
300

 70
     0
 71
     1
  0
GROUP
  5
3BC
102
{ACAD_REACTORS
330
D
102
}
330
D
100
AcDbGroup
300

 70
     0
 71
     1
  0
GROUP
  5
3BD
102
{ACAD_REACTORS
330
D
102
}
330
D
100
AcDbGroup
300

 70
     0
 71
     1
  0
GROUP
  5
3BE
102
{ACAD_REACTORS
330
D
102
}
330
D
100
AcDbGroup
300

 70
     0
 71
     1
  0
GROUP
  5
3BF
102
{ACAD_REACTORS
330
D
102
}
330
D
100
AcDbGroup
300

 70
     0
 71
     1
  0
GROUP
  5
3C0
102
{ACAD_REACTORS
330
D
102
}
330
D
100
AcDbGroup
300

 70
     0
 71
     1
  0
GROUP
  5
3B0
102
{ACAD_REACTORS
330
D
102
}
330
D
100
AcDbGroup
300

 70
     0
 71
     1
  0
GROUP
  5
3B1
102
{ACAD_REACTORS
330
D
102
}
330
D
100
AcDbGroup
300

 70
     0
 71
     1
  0
GROUP
  5
3B2
102
{ACAD_REACTORS
330
D
102
}
330
D
100
AcDbGroup
300

 70
     0
 71
     1
  0
GROUP
  5
3B3
102
{ACAD_REACTORS
330
D
102
}
330
D
100
AcDbGroup
300

 70
     0
 71
     1
  0
GROUP
  5
3B4
102
{ACAD_REACTORS
330
D
102
}
330
D
100
AcDbGroup
300

 70
     0
 71
     1
  0
GROUP
  5
3B5
102
{ACAD_REACTORS
330
D
102
}
330
D
100
AcDbGroup
300

 70
     0
 71
     1
  0
GROUP
  5
3B6
102
{ACAD_REACTORS
330
D
102
}
330
D
100
AcDbGroup
300

 70
     0
 71
     1
  0
GROUP
  5
3B7
102
{ACAD_REACTORS
330
D
102
}
330
D
100
AcDbGroup
300

 70
     0
 71
     1
  0
MATERIAL
  5
45
102
{ACAD_REACTORS
330
43
102
}
102
{ACAD_XDICTIONARY
360
425
102
}
330
43
100
AcDbMaterial
  1
BYBLOCK
  0
MATERIAL
  5
44
102
{ACAD_REACTORS
330
43
102
}
102
{ACAD_XDICTIONARY
360
427
102
}
330
43
100
AcDbMaterial
  1
BYLAYER
  0
MATERIAL
  5
46
102
{ACAD_REACTORS
330
43
102
}
102
{ACAD_XDICTIONARY
360
429
102
}
330
43
100
AcDbMaterial
  1
GLOBAL
  0
ACAD_PROXY_OBJECT
  5
5C
102
{ACAD_REACTORS
330
5B
102
}
330
5B
100
AcDbProxyObject
 90
      499
 91
      505
 93
      610
310
40901902A4063FBFFFFFE056BD1B81E855B9FC0AD7A3703D0AD73F4214DD185B99185C9900AD7A3703D0AC73F90141901A02B5E8DC0F42B1CFC02B5E8DC0F42B1CFE5764000000000000300FC0
340
14
340
0
340
11
340
0
 94
        0
1001
ACAD_MLEADERVER
1070
     2
  0
MLINESTYLE
  5
18
102
{ACAD_REACTORS
330
17
102
}
330
17
100
AcDbMlineStyle
  2
Standard
 70
     0
  3

 62
   256
 51
90.0
 52
90.0
 71
     2
 49
0.5
 62
   256
  6
BYLAYER
 49
-0.5
 62
   256
  6
BYLAYER
  0
ACAD_PROXY_OBJECT
  5
48
102
{ACAD_REACTORS
330
47
102
}
330
47
100
AcDbProxyObject
 90
      499
 91
      503
 93
       41
310
903313A31580
  0
ACAD_PROXY_OBJECT
  5
49
102
{ACAD_REACTORS
330
47
102
}
330
47
100
AcDbProxyObject
 90
      499
 91
      503
 93
      257
310
90E312F31323822203D2031272D3022000000000000200FC000000000000284000
  0
ACAD_PROXY_OBJECT
  5
4A
102
{ACAD_REACTORS
330
47
102
}
330
47
100
AcDbProxyObject
 90
      499
 91
      503
 93
      249
310
90D312F363422203D2031272D3022000000000000240FC000000000000284000
  0
ACAD_PROXY_OBJECT
  5
4B
102
{ACAD_REACTORS
330
47
102
}
330
47
100
AcDbProxyObject
 90
      499
 91
      503
 93
      249
310
90D312F333222203D2031272D3022000000000000280FC000000000000284000
  0
ACAD_PROXY_OBJECT
  5
4C
102
{ACAD_REACTORS
330
47
102
}
330
47
100
AcDbProxyObject
 90
      499
 91
      503
 93
      249
310
90D312F313622203D2031272D30220000000000002C0FC000000000000284000
  0
ACAD_PROXY_OBJECT
  5
4D
102
{ACAD_REACTORS
330
47
102
}
330
47
100
AcDbProxyObject
 90
      499
 91
      503
 93
      249
310
90D332F333222203D2031272D30220000000000002E0FC000000000000284000
  0
ACAD_PROXY_OBJECT
  5
4E
102
{ACAD_REACTORS
330
47
102
}
330
47
100
AcDbProxyObject
 90
      499
 91
      503
 93
      241
310
90C312F3822203D2031272D3022000000000000300FC000000000000284000
  0
ACAD_PROXY_OBJECT
  5
4F
102
{ACAD_REACTORS
330
47
102
}
330
47
100
AcDbProxyObject
 90
      499
 91
      503
 93
      249
310
90D332F313622203D2031272D3022000000000000320FC000000000000284000
  0
ACAD_PROXY_OBJECT
  5
50
102
{ACAD_REACTORS
330
47
102
}
330
47
100
AcDbProxyObject
 90
      499
 91
      503
 93
      241
310
90C312F3422203D2031272D3022000000000000340FC000000000000284000
  0
ACAD_PROXY_OBJECT
  5
51
102
{ACAD_REACTORS
330
47
102
}
330
47
100
AcDbProxyObject
 90
      499
 91
      503
 93
      241
310
90C332F3822203D2031272D3022000000000000360FC000000000000284000
  0
ACAD_PROXY_OBJECT
  5
52
102
{ACAD_REACTORS
330
47
102
}
330
47
100
AcDbProxyObject
 90
      499
 91
      503
 93
      241
310
90C312F3222203D2031272D3022000000000000380FC000000000000284000
  0
ACAD_PROXY_OBJECT
  5
53
102
{ACAD_REACTORS
330
47
102
}
330
47
100
AcDbProxyObject
 90
      499
 91
      503
 93
      241
310
90C332F3422203D2031272D30220000000000003A0FC000000000000284000
  0
ACAD_PROXY_OBJECT
  5
54
102
{ACAD_REACTORS
330
47
102
}
330
47
100
AcDbProxyObject
 90
      499
 91
      503
 93
      161
310
90A3122203D2031272D30224000000000000284000
  0
ACAD_PROXY_OBJECT
  5
55
102
{ACAD_REACTORS
330
47
102
}
330
47
100
AcDbProxyObject
 90
      499
 91
      503
 93
      257
310
90E312D312F3222203D2031272D30220000000000003E0FC000000000000284000
  0
ACAD_PROXY_OBJECT
  5
56
102
{ACAD_REACTORS
330
47
102
}
330
47
100
AcDbProxyObject
 90
      499
 91
      503
 93
      225
310
90A3322203D2031272D302200000000000002100000000000000284000
  0
ACAD_PROXY_OBJECT
  5
57
102
{ACAD_REACTORS
330
47
102
}
330
47
100
AcDbProxyObject
 90
      499
 91
      503
 93
      225
310
90A3622203D2031272D302200000000000006100000000000000284000
  0
ACAD_PROXY_OBJECT
  5
58
102
{ACAD_REACTORS
330
47
102
}
330
47
100
AcDbProxyObject
 90
      499
 91
      503
 93
      249
310
90D31272D3022203D2031272D30220000000000000A100000000000000284000
  0
ACAD_PROXY_OBJECT
  5
2F
102
{ACAD_REACTORS
330
2A
102
}
330
2A
100
AcDbProxyObject
 90
      499
 91
      501
 93
      436
310
42CC9915DA5C99599C985B595049028333333333333E33F0000000000000F90107901411070040501600405405064090741402480A0340
1001
ACAD
1000
AcDbSavedByObjectVersion
1070
     0
  0
ACAD_PROXY_OBJECT
  5
32
102
{ACAD_REACTORS
330
2A
102
}
330
2A
100
AcDbProxyObject
 90
      499
 91
      501
 93
      388
310
4150985CDA58D07406404333333333333E33F0000000000000F90107A41107004050150841D405064090741402480A0350
1001
ACAD
1000
AcDbSavedByObjectVersion
1070
     0
  0
ACAD_PROXY_OBJECT
  5
36
102
{ACAD_REACTORS
330
2A
102
}
330
2A
100
AcDbProxyObject
 90
      499
 91
      501
 93
      428
310
42109C9A59DA1D195B90C409028333333333333E33F0000000000000F9010790141107004050150841D405064090741402480A029950
1001
ACAD
1000
AcDbSavedByObjectVersion
1070
     0
  0
ACAD_PROXY_OBJECT
  5
3A
102
{ACAD_REACTORS
330
2A
102
}
330
2A
100
AcDbProxyObject
 90
      499
 91
      501
 93
      452
310
42D0DBDB1BDC90DA185B99D95104090240C333333333333E33F0000000000000F90108901411070040501508421405064090741402480A0350
1001
ACAD
1000
AcDbSavedByObjectVersion
1070
     0
  0
ACAD_PROXY_OBJECT
  5
34
102
{ACAD_REACTORS
330
2A
102
}
330
2A
100
AcDbProxyObject
 90
      499
 91
      501
 93
      500
310
4290DBDB98D95C1D1D585B10940D028333333333333E33F0000000000000F90107902409070040501000000000018199010841D405064090740C02480A0340
1001
ACAD
1000
AcDbSavedByObjectVersion
1070
     0
  0
ACAD_PROXY_OBJECT
  5
35
102
{ACAD_REACTORS
330
2A
102
}
330
2A
100
AcDbProxyObject
 90
      499
 91
      501
 93
      412
310
40D11A5B50B409028333333333333E33F0000000000000F9010790141107004050150841D405064090741402480A02677FFFFFD0
1001
ACAD
1000
AcDbSavedByObjectVersion
1070
     0
  0
ACAD_PROXY_OBJECT
  5
3D
102
{ACAD_REACTORS
330
2A
102
}
330
2A
100
AcDbProxyObject
 90
      499
 91
      501
 93
      452
310
43115919D950DBDB1BDC93D999916409028333333333333E33F0000000000000F9010790141107004050150841D405064090741402480A0350
1001
ACAD
1000
AcDbSavedByObjectVersion
1070
     0
  0
ACAD_PROXY_OBJECT
  5
39
102
{ACAD_REACTORS
330
2A
102
}
330
2A
100
AcDbProxyObject
 90
      499
 91
      501
 93
      444
310
42D19858D95C185D1D195C9B90F409028333333333333E33F0000000000000F9010790141107004050150841D405064090741402480A0350
1001
ACAD
1000
AcDbSavedByObjectVersion
1070
     0
  0
ACAD_PROXY_OBJECT
  5
2B
102
{ACAD_REACTORS
330
2A
102
}
330
2A
100
AcDbProxyObject
 90
      499
 91
      501
 93
      380
310
41119B185D240901404333333333333E33F0000000000000F9010740A907004050150841D405064090741402480A1B50
1001
ACAD
1000
AcDbSavedByObjectVersion
1070
     0
  0
ACAD_PROXY_OBJECT
  5
2C
102
{ACAD_REACTORS
330
2A
102
}
330
2A
100
AcDbProxyObject
 90
      499
 91
      501
 93
      468
310
43519B185D15DA5D1A115919D95CD0140901404333333333333E33F0000000000000F90107409019070040501600405405064090741402480A1B50
1001
ACAD
1000
AcDbSavedByObjectVersion
1070
     0
  0
ACAD_PROXY_OBJECT
  5
2D
102
{ACAD_REACTORS
330
2A
102
}
330
2A
100
AcDbProxyObject
 90
      499
 91
      501
 93
      404
310
41D1DBDD5C985D5910240902404333333333333E33F0000000000000F9010740A9070040501641D405064090741402480A1B50
1001
ACAD
1000
AcDbSavedByObjectVersion
1070
     0
  0
ACAD_PROXY_OBJECT
  5
2E
102
{ACAD_REACTORS
330
2A
102
}
330
2A
100
AcDbProxyObject
 90
      499
 91
      501
 93
      492
310
4411DBDD5C985D5915DA5D1A115919D95CD0340902404333333333333E33F0000000000000F90107409019070040501600405405064090741402480A1B50
1001
ACAD
1000
AcDbSavedByObjectVersion
1070
     0
  0
ACAD_PROXY_OBJECT
  5
31
102
{ACAD_REACTORS
330
2A
102
}
330
2A
100
AcDbProxyObject
 90
      499
 91
      501
 93
      476
310
41921A5919195B90640502408333333333333E33F0000000000000F901079024090700405020000000000001110200405405064090740C02480A0340
1001
ACAD
1000
AcDbSavedByObjectVersion
1070
     0
  0
ACAD_PROXY_OBJECT
  5
3B
102
{ACAD_REACTORS
330
2A
102
}
330
2A
100
AcDbProxyObject
 90
      499
 91
      501
 93
      428
310
42529A5D1D195C93D999914409028333333333333E33F0000000000000F9010790141107004050150A41D405064090741402480A0350
1001
ACAD
1000
AcDbSavedByObjectVersion
1070
     0
  0
ACAD_PROXY_OBJECT
  5
38
102
{ACAD_REACTORS
330
2A
102
}
330
2A
100
AcDbProxyObject
 90
      499
 91
      501
 93
      444
310
42D31A5B995C185D1D195C9B90E409028333333333333E33F0000000000000F9010790141107004050750841D405064090741402483A0350
1001
ACAD
1000
AcDbSavedByObjectVersion
1070
     0
  0
ACAD_PROXY_OBJECT
  5
3C
102
{ACAD_REACTORS
330
2A
102
}
330
2A
100
AcDbProxyObject
 90
      499
 91
      501
 93
      444
310
42D3DD995C9A185B99D3D999915409028333333333333E33F0000000000000F9010790141107004050150941D405064090741402480A0350
1001
ACAD
1000
AcDbSavedByObjectVersion
1070
     0
  0
ACAD_PROXY_OBJECT
  5
33
102
{ACAD_REACTORS
330
2A
102
}
330
2A
100
AcDbProxyObject
 90
      499
 91
      501
 93
      428
310
425499585B1A5CDD1A58D08409038333333333333E33F0000000000000F9010740A907004050150800405405064090740C02480A1B40
1001
ACAD
1000
AcDbSavedByObjectVersion
1070
     0
  0
ACAD_PROXY_OBJECT
  5
42
102
{ACAD_REACTORS
330
2A
102
}
330
2A
100
AcDbProxyObject
 90
      499
 91
      501
 93
      420
310
4194DA1859195911B40902404333333333333E33F0000000000000F9010740A41107004050150800405405064090840C02480A0B40
1001
ACAD
1000
AcDbSavedByObjectVersion
1070
     0
  0
ACAD_PROXY_OBJECT
  5
41
102
{ACAD_REACTORS
330
2A
102
}
330
2A
100
AcDbProxyObject
 90
      499
 91
      501
 93
      516
310
4454DA18591959081DDA5D1A08195919D95CD1A40902404333333333333E33F0000000000000F901074090142907004050250800405405064090740C02480A0B40
1001
ACAD
1000
AcDbSavedByObjectVersion
1070
     0
  0
ACAD_PROXY_OBJECT
  5
3E
102
{ACAD_REACTORS
330
2A
102
}
330
2A
100
AcDbProxyObject
 90
      499
 91
      501
 93
      532
310
4394DA1859195CC81BD98811DC985E5174090240C333333333333E33F0000000000000F901079024090741D01000000000000111010841D405064090740C02480A0340
1001
ACAD
1000
AcDbSavedByObjectVersion
1070
     0
  0
ACAD_PROXY_OBJECT
  5
3F
102
{ACAD_REACTORS
330
2A
102
}
330
2A
100
AcDbProxyObject
 90
      499
 91
      501
 93
      476
310
41D4DAD95D18DA1E51840502408333333333333E33F0000000000000F901079024090741D01000000000000111010B41D405064090741802480A0340
1001
ACAD
1000
AcDbSavedByObjectVersion
1070
     0
  0
ACAD_PROXY_OBJECT
  5
37
102
{ACAD_REACTORS
330
2A
102
}
330
2A
100
AcDbProxyObject
 90
      499
 91
      501
 93
      412
310
41D51A1A58DAD95B90D409028333333333333E33F0000000000000F9010790141107004050150C41D405064090741402480A0350
1001
ACAD
1000
AcDbSavedByObjectVersion
1070
     0
  0
ACAD_PROXY_OBJECT
  5
30
102
{ACAD_REACTORS
330
2A
102
}
330
2A
100
AcDbProxyObject
 90
      499
 91
      501
 93
      420
310
4255DA5C99599C985B595059028333333333333E33F0000000000000F90107901411070040501600405405064090740C02480A0340
1001
ACAD
1000
AcDbSavedByObjectVersion
1070
     0
  0
ACAD_PROXY_OBJECT
  5
40
102
{ACAD_REACTORS
330
2A
102
}
330
2A
100
AcDbProxyObject
 90
      499
 91
      501
 93
      404
310
41560B54985E51940902404000000000000E03F0000000000000F9010740501907004050150841D405064090740C02480A1B40
1001
ACAD
1000
AcDbSavedByObjectVersion
1070
     0
  0
XRECORD
  5
408
102
{ACAD_REACTORS
330
3FE
102
}
330
3FE
100
AcDbXrecord
340
0
  0
XRECORD
  5
407
102
{ACAD_REACTORS
330
3FE
102
}
330
3FE
100
AcDbXrecord
 90
        0
  0
XRECORD
  5
41E
102
{ACAD_REACTORS
330
3FE
102
}
330
3FE
100
AcDbXrecord
1000
DSTYLE
1002
{
1070
   279
 70
     2
1070
   340
340
11
1002
}
  0
XRECORD
  5
409
102
{ACAD_REACTORS
330
3FE
102
}
330
3FE
100
AcDbXrecord
  1
{32050c67-c5b1-4ac3-9830-73a4de280040}
  0
XRECORD
  5
401
102
{ACAD_REACTORS
330
3FE
102
}
330
3FE
100
AcDbXrecord
  1

  0
XRECORD
  5
406
102
{ACAD_REACTORS
330
3FE
102
}
330
3FE
100
AcDbXrecord
 90
        1
  0
XRECORD
  5
403
102
{ACAD_REACTORS
330
3FE
102
}
330
3FE
100
AcDbXrecord
340
1A
  0
XRECORD
  5
405
102
{ACAD_REACTORS
330
3FE
102
}
330
3FE
100
AcDbXrecord
 90
    10781
  0
XRECORD
  5
404
102
{ACAD_REACTORS
330
3FE
102
}
330
3FE
100
AcDbXrecord
340
19
  0
XRECORD
  5
40B
102
{ACAD_REACTORS
330
3FE
102
}
330
3FE
100
AcDbXrecord
 40
0.0
  0
XRECORD
  5
40E
102
{ACAD_REACTORS
330
3FE
102
}
330
3FE
100
AcDbXrecord
340
0
  0
XRECORD
  5
414
102
{ACAD_REACTORS
330
3FE
102
}
330
3FE
100
AcDbXrecord
 10
0.0
 20
0.0
 30
0.0
  0
XRECORD
  5
410
102
{ACAD_REACTORS
330
3FE
102
}
330
3FE
100
AcDbXrecord
 10
0.0
 20
0.0
 30
0.0
  0
XRECORD
  5
413
102
{ACAD_REACTORS
330
3FE
102
}
330
3FE
100
AcDbXrecord
 10
0.0
 20
0.0
 30
0.0
  0
XRECORD
  5
411
102
{ACAD_REACTORS
330
3FE
102
}
330
3FE
100
AcDbXrecord
 10
0.0
 20
0.0
 30
0.0
  0
XRECORD
  5
412
102
{ACAD_REACTORS
330
3FE
102
}
330
3FE
100
AcDbXrecord
 10
0.0
 20
0.0
 30
0.0
  0
XRECORD
  5
40F
102
{ACAD_REACTORS
330
3FE
102
}
330
3FE
100
AcDbXrecord
 10
0.0
 20
0.0
 30
0.0
  0
XRECORD
  5
40C
102
{ACAD_REACTORS
330
3FE
102
}
330
3FE
100
AcDbXrecord
340
0
  0
XRECORD
  5
40D
102
{ACAD_REACTORS
330
3FE
102
}
330
3FE
100
AcDbXrecord
 70
     0
  0
XRECORD
  5
402
102
{ACAD_REACTORS
330
3FE
102
}
330
3FE
100
AcDbXrecord
  1

  0
XRECORD
  5
3FF
102
{ACAD_REACTORS
330
3FE
102
}
330
3FE
100
AcDbXrecord
 90
        1
  0
XRECORD
  5
400
102
{ACAD_REACTORS
330
3FE
102
}
330
3FE
100
AcDbXrecord
 90
       70
  0
XRECORD
  5
417
102
{ACAD_REACTORS
330
3FE
102
}
330
3FE
100
AcDbXrecord
340
0
  0
XRECORD
  5
41D
102
{ACAD_REACTORS
330
3FE
102
}
330
3FE
100
AcDbXrecord
 10
0.0
 20
0.0
 30
0.0
  0
XRECORD
  5
419
102
{ACAD_REACTORS
330
3FE
102
}
330
3FE
100
AcDbXrecord
 10
0.0
 20
0.0
 30
0.0
  0
XRECORD
  5
41C
102
{ACAD_REACTORS
330
3FE
102
}
330
3FE
100
AcDbXrecord
 10
0.0
 20
0.0
 30
0.0
  0
XRECORD
  5
41A
102
{ACAD_REACTORS
330
3FE
102
}
330
3FE
100
AcDbXrecord
 10
0.0
 20
0.0
 30
0.0
  0
XRECORD
  5
41B
102
{ACAD_REACTORS
330
3FE
102
}
330
3FE
100
AcDbXrecord
 10
0.0
 20
0.0
 30
0.0
  0
XRECORD
  5
418
102
{ACAD_REACTORS
330
3FE
102
}
330
3FE
100
AcDbXrecord
 10
0.0
 20
0.0
 30
0.0
  0
XRECORD
  5
415
102
{ACAD_REACTORS
330
3FE
102
}
330
3FE
100
AcDbXrecord
340
0
  0
XRECORD
  5
416
102
{ACAD_REACTORS
330
3FE
102
}
330
3FE
100
AcDbXrecord
 70
     0
  0
XRECORD
  5
40A
102
{ACAD_REACTORS
330
3FE
102
}
330
3FE
100
AcDbXrecord
  1
{FAEB1C32-E019-11D5-929B-00C0DF256EC4}
  0
DICTIONARYVAR
  5
3C2
102
{ACAD_REACTORS
330
3C1
102
}
330
3C1
100
DictionaryVariables
280
     0
  1
1:1
  0
DICTIONARYVAR
  5
3FB
102
{ACAD_REACTORS
330
3C1
102
}
330
3C1
100
DictionaryVariables
280
     0
  1
Standard
  0
DICTIONARYVAR
  5
3FA
102
{ACAD_REACTORS
330
3C1
102
}
330
3C1
100
DictionaryVariables
280
     0
  1
Standard
  0
DICTIONARYVAR
  5
41F
102
{ACAD_REACTORS
330
3C1
102
}
330
3C1
100
DictionaryVariables
280
     0
  1
2
  0
DICTIONARYVAR
  5
420
102
{ACAD_REACTORS
330
3C1
102
}
330
3C1
100
DictionaryVariables
280
     0
  1
1
  0
DICTIONARYVAR
  5
424
102
{ACAD_REACTORS
330
3C1
102
}
330
3C1
100
DictionaryVariables
280
     0
  1
1
  0
DICTIONARYVAR
  5
3C3
102
{ACAD_REACTORS
330
3C1
102
}
330
3C1
100
DictionaryVariables
280
     0
  1
2
  0
DICTIONARY
  5
425
330
45
100
AcDbDictionary
280
     1
  3
ACAD_XREC_ROUNDTRIP
360
426
  0
DICTIONARY
  5
427
330
44
100
AcDbDictionary
280
     1
  3
ACAD_XREC_ROUNDTRIP
360
428
  0
DICTIONARY
  5
429
330
46
100
AcDbDictionary
280
     1
  3
ACAD_XREC_ROUNDTRIP
360
42A
  0
XRECORD
  5
426
102
{ACAD_REACTORS
330
425
102
}
330
425
100
AcDbXrecord
102
MATERIAL
148
0.0
149
0.0
149
0.0
 93
        0
 94
      127
282
     0
 72
     1
 77
     1
171
     1
175
     1
179
     1
273
     0
  0
XRECORD
  5
428
102
{ACAD_REACTORS
330
427
102
}
330
427
100
AcDbXrecord
102
MATERIAL
148
0.0
149
0.0
149
0.0
 93
        0
 94
      127
282
     0
 72
     1
 77
     1
171
     1
175
     1
179
     1
273
     0
  0
XRECORD
  5
42A
102
{ACAD_REACTORS
330
429
102
}
330
429
100
AcDbXrecord
102
MATERIAL
148
0.0
149
0.0
149
0.0
 93
        0
 94
      127
282
     0
 72
     1
 77
     1
171
     1
175
     1
179
     1
273
     0
  0
ENDSEC
  0
EOF
