0
SECTION
2
HEADER
9
$INSUNITS
70
4
9
$ACADVER
1
AC1014
9
$HANDSEED
5
FFFF
0
ENDSEC
0
SECTION
2
TABLES
0
TABLE
2
VPORT
5
8
100
AcDbSymbolTable
0
ENDTAB
0
TABLE
2
LTYPE
5
5
100
AcDbSymbolTable
0
LTYPE
5
14
100
AcDbSymbolTableRecord
100
AcDbLinetypeTableRecord
2
BYBLOCK
70
0
0
LTYPE
5
15
100
AcDbSymbolTableRecord
100
AcDbLinetypeTableRecord
2
BYLAYER
70
0
0
ENDTAB
0
TABLE
2
LAYER
5
2
100
AcDbSymbolTable
70
2
0
LAYER
5
50
100
AcDbSymbolTableRecord
100
AcDbLayerTableRecord
2
0
70
0
6
CONTINUOUS
0
ENDTAB
0
TABLE
2
STYLE
5
3
100
AcDbSymbolTable
70
1
0
STYLE
5
11
100
AcDbSymbolTableRecord
100
AcDbTextStyleTableRecord
2
STANDARD
70
0
0
ENDTAB
0
TABLE
2
VIEW
5
6
100
AcDbSymbolTable
70
0
0
ENDTAB
0
TABLE
2
UCS
5
7
100
AcDbSymbolTable
70
0
0
ENDTAB
0
TABLE
2
APPID
5
9
100
AcDbSymbolTable
70
2
0
APPID
5
12
100
AcDbSymbolTableRecord
100
AcDbRegAppTableRecord
2
ACAD
70
0
0
ENDTAB
0
TABLE
2
DIMSTYLE
5
A
100
AcDbSymbolTable
70
1
0
ENDTAB
0
TABLE
2
BLOCK_RECORD
5
1
100
AcDbSymbolTable
70
1
0
BLOCK_RECORD
5
1F
100
AcDbSymbolTableRecord
100
AcDbBlockTableRecord
2
*MODEL_SPACE
0
BLOCK_RECORD
5
1B
100
AcDbSymbolTableRecord
100
AcDbBlockTableRecord
2
*PAPER_SPACE
0
ENDTAB
0
ENDSEC
0
SECTION
2
BLOCKS
0
BLOCK
5
20
100
AcDbEntity
100
AcDbBlockBegin
2
*MODEL_SPACE
0
ENDBLK
5
21
100
AcDbEntity
100
AcDbBlockEnd
0
BLOCK
5
1C
100
AcDbEntity
100
AcDbBlockBegin
2
*PAPER_SPACE
0
ENDBLK
5
1D
100
AcDbEntity
100
AcDbBlockEnd
0
ENDSEC
0
SECTION
2
ENTITIES
0
LWPOLYLINE
5
100
100
AcDbEntity
8
0
100
AcDbPolyline
90
16
70
1
43
0.0
10
-28.499999999999996
20
41.49999999999995
10
12.999999999999989
20
41.49999999999995
10
12.999999999999989
20
26.499999999999954
10
8.9999999999999858
20
26.499999999999954
10
8.9999999999999893
20
11.499999999999954
10
12.999999999999989
20
11.499999999999954
10
12.999999999999989
20
-3.5000000000000453
10
-1.9999999999999929
20
-3.5000000000000453
10
-1.9999999999999929
20
0.49999999999995492
10
-13.500000000000012
20
0.49999999999995492
10
-13.500000000000014
20
-3.5000000000000453
10
-28.500000000000011
20
-3.5000000000000453
10
-28.499999999999996
20
11.499999999999954
10
-24.499999999999996
20
11.499999999999954
10
-24.499999999999996
20
26.499999999999954
10
-28.499999999999996
20
26.499999999999954
0
LWPOLYLINE
5
101
100
AcDbEntity
8
0
100
AcDbPolyline
90
16
70
1
43
0.0
10
-76.5
20
3.9999999999999685
10
-76.5
20
37.499999999999972
10
-61.499999999999993
20
37.499999999999972
10
-61.499999999999993
20
41.499999999999979
10
-46.499999999999993
20
41.499999999999972
10
-46.499999999999993
20
37.499999999999972
10
-31.499999999999993
20
37.499999999999972
10
-31.499999999999993
20
26.499999999999968
10
-35.499999999999993
20
26.499999999999968
10
-35.5
20
14.999999999999964
10
-31.5
20
14.999999999999961
10
-31.5
20
3.9999999999999631
10
-46.5
20
3.9999999999999645
10
-46.5
20
-3.4416913763379853e-14
10
-61.499999999999993
20
-3.2474023470285829e-14
10
-61.499999999999993
20
3.9999999999999671
0
LWPOLYLINE
5
102
100
AcDbEntity
8
0
100
AcDbPolyline
90
16
70
1
43
0.0
10
-124.5
20
3.9999999999999964
10
-124.5
20
37.5
10
-109.5
20
37.5
10
-109.5
20
41.5
10
-94.5
20
41.499999999999993
10
-94.5
20
37.499999999999993
10
-79.5
20
37.499999999999993
10
-79.5
20
26.499999999999993
10
-83.5
20
26.499999999999993
10
-83.5
20
14.999999999999991
10
-79.5
20
14.999999999999989
10
-79.5
20
3.9999999999999907
10
-94.5
20
3.9999999999999925
10
-94.5
20
-6.6613381477509392e-15
10
-109.5
20
-4.7184478546569153e-15
10
-109.5
20
3.9999999999999947
0
LWPOLYLINE
5
103
100
AcDbEntity
8
0
100
AcDbPolyline
90
20
70
1
43
0.0
10
-154
20
41.5
10
-154
20
37.500000000000007
10
-165
20
37.500000000000007
10
-165
20
26.500000000000004
10
-169
20
26.500000000000004
10
-169
20
15
10
-165
20
15
10
-165
20
4
10
-154
20
4
10
-154
20
0
10
-142.50000000000003
20
0
10
-142.50000000000003
20
4
10
-131.5
20
4
10
-131.5
20
15
10
-127.5
20
15
10
-127.5
20
26.500000000000004
10
-131.5
20
26.500000000000004
10
-131.5
20
37.500000000000007
10
-142.50000000000003
20
37.500000000000007
10
-142.50000000000003
20
41.5
0
LWPOLYLINE
5
104
100
AcDbEntity
8
0
100
AcDbPolyline
90
16
70
1
43
0.0
10
-213.49999999999997
20
41.5
10
-172
20
41.5
10
-172
20
26.500000000000004
10
-176
20
26.500000000000004
10
-175.99999999999997
20
11.500000000000004
10
-172
20
11.500000000000004
10
-172
20
-3.4999999999999964
10
-186.99999999999994
20
-3.4999999999999964
10
-186.99999999999994
20
0.50000000000000377
10
-198.49999999999997
20
0.50000000000000377
10
-198.5
20
-3.4999999999999964
10
-213.49999999999997
20
-3.4999999999999964
10
-213.49999999999997
20
11.500000000000004
10
-209.5
20
11.500000000000004
10
-209.5
20
26.500000000000004
10
-213.49999999999997
20
26.500000000000004
0
ENDSEC
0
SECTION
2
OBJECTS
0
DICTIONARY
5
C
100
AcDbDictionary
3
ACAD_GROUP
350
D
3
ACAD_MLINESTYLE
350
17
0
DICTIONARY
5
D
100
AcDbDictionary
0
DICTIONARY
5
1A
330
C
100
AcDbDictionary
0
DICTIONARY
5
17
100
AcDbDictionary
0
ENDSEC
0
EOF
