<?xml version="1.0" encoding="utf-8"?>
<!-- Generator: Adobe Illustrator 15.1.0, SVG Export Plug-In . SVG Version: 6.00 Build 0)  -->
<!DOCTYPE svg PUBLIC "-//W3C//DTD SVG 1.1//EN" "http://www.w3.org/Graphics/SVG/1.1/DTD/svg11.dtd">
<svg version="1.1" id="Layer_1" xmlns="http://www.w3.org/2000/svg" xmlns:xlink="http://www.w3.org/1999/xlink" x="0px" y="0px"
	 width="3456px" height="6912px" viewBox="0 0 3456 6912" enable-background="new 0 0 3456 6912" xml:space="preserve">
<rect x="238" y="216" fill="#FFFFFF" stroke="#000000" stroke-miterlimit="10" width="2640" height="1970"/>
<image overflow="visible" enable-background="new    " width="511" height="511" xlink:href="logo.png"  transform="matrix(0.48 0 0 0.48 1048.2539 2588.4609)">
</image>
<polygon fill="none" stroke="#000000" stroke-miterlimit="10" points="1108.252,2862.295 1019.679,2773.722 1019.679,2648.459 
	1108.252,2559.886 1233.515,2559.886 1322.088,2648.459 1322.088,2773.722 1233.515,2862.295 "/>
<polygon fill="#FFFFFF" stroke="#000000" stroke-miterlimit="10" points="762.735,2570.775 461.706,2570.775 392.862,2639.62 
	392.862,2740.684 456.609,2804.429 758.833,2804.429 825.369,2737.893 825.369,2633.41 "/>
<image overflow="visible" enable-background="new    " width="439" height="155" xlink:href="text.png"  transform="matrix(1.0002 0 0 1.0002 392.5669 2614.9814)">
</image>
<image overflow="visible" enable-background="new    " width="511" height="511" xlink:href="logo.png"  transform="matrix(0.48 0 0 0.48 2162.0449 2588.4609)">
</image>
<polygon fill="none" stroke="#000000" stroke-miterlimit="10" points="2222.043,2862.295 2133.471,2773.722 2133.471,2648.459 
	2222.043,2559.886 2347.307,2559.886 2435.879,2648.459 2435.879,2773.722 2347.307,2862.295 "/>
<polygon fill="#FFFFFF" stroke="#000000" stroke-miterlimit="10" points="1876.527,2570.775 1575.498,2570.775 1506.654,2639.62 
	1506.654,2740.684 1570.401,2804.429 1872.625,2804.429 1939.16,2737.893 1939.16,2633.41 "/>
<image overflow="visible" enable-background="new    " width="439" height="155" xlink:href="text.png"  transform="matrix(1.0002 0 0 1.0002 1506.3584 2614.9814)">
</image>
<image overflow="visible" enable-background="new    " width="511" height="511" xlink:href="logo.png"  transform="matrix(0.48 0 0 0.48 1048.2539 3014.376)">
</image>
<polygon fill="none" stroke="#000000" stroke-miterlimit="10" points="1108.252,3288.21 1019.679,3199.637 1019.679,3074.374 
	1108.252,2985.801 1233.515,2985.801 1322.088,3074.374 1322.088,3199.637 1233.515,3288.21 "/>
<polygon fill="#FFFFFF" stroke="#000000" stroke-miterlimit="10" points="762.735,2996.69 461.706,2996.69 392.862,3065.535 
	392.862,3166.599 456.609,3230.344 758.833,3230.344 825.369,3163.808 825.369,3059.325 "/>
<image overflow="visible" enable-background="new    " width="439" height="155" xlink:href="text.png"  transform="matrix(1.0002 0 0 1.0002 392.5669 3040.8965)">
</image>
<image overflow="visible" enable-background="new    " width="511" height="511" xlink:href="logo.png"  transform="matrix(0.48 0 0 0.48 2162.0449 3014.376)">
</image>
<polygon fill="none" stroke="#000000" stroke-miterlimit="10" points="2222.043,3288.21 2133.471,3199.637 2133.471,3074.374 
	2222.043,2985.801 2347.307,2985.801 2435.879,3074.374 2435.879,3199.637 2347.307,3288.21 "/>
<polygon fill="#FFFFFF" stroke="#000000" stroke-miterlimit="10" points="1876.527,2996.69 1575.498,2996.69 1506.654,3065.535 
	1506.654,3166.599 1570.401,3230.344 1872.625,3230.344 1939.16,3163.808 1939.16,3059.325 "/>
<image overflow="visible" enable-background="new    " width="439" height="155" xlink:href="text.png"  transform="matrix(1.0002 0 0 1.0002 1506.3584 3040.8965)">
</image>
<image overflow="visible" enable-background="new    " width="511" height="511" xlink:href="logo.png"  transform="matrix(0.48 0 0 0.48 1048.2539 3440.291)">
</image>
<polygon fill="none" stroke="#000000" stroke-miterlimit="10" points="1108.252,3714.125 1019.679,3625.552 1019.679,3500.289 
	1108.252,3411.716 1233.515,3411.716 1322.088,3500.289 1322.088,3625.552 1233.515,3714.125 "/>
<polygon fill="#FFFFFF" stroke="#000000" stroke-miterlimit="10" points="762.735,3422.605 461.706,3422.605 392.862,3491.45 
	392.862,3592.514 456.609,3656.259 758.833,3656.259 825.369,3589.723 825.369,3485.24 "/>
<image overflow="visible" enable-background="new    " width="439" height="155" xlink:href="text.png"  transform="matrix(1.0002 0 0 1.0002 392.5669 3466.8115)">
</image>
<image overflow="visible" enable-background="new    " width="511" height="511" xlink:href="logo.png"  transform="matrix(0.48 0 0 0.48 2162.0449 3440.291)">
</image>
<polygon fill="none" stroke="#000000" stroke-miterlimit="10" points="2222.043,3714.125 2133.471,3625.552 2133.471,3500.289 
	2222.043,3411.716 2347.307,3411.716 2435.879,3500.289 2435.879,3625.552 2347.307,3714.125 "/>
<polygon fill="#FFFFFF" stroke="#000000" stroke-miterlimit="10" points="1876.527,3422.605 1575.498,3422.605 1506.654,3491.45 
	1506.654,3592.514 1570.401,3656.259 1872.625,3656.259 1939.16,3589.723 1939.16,3485.24 "/>
<image overflow="visible" enable-background="new    " width="439" height="155" xlink:href="text.png"  transform="matrix(1.0002 0 0 1.0002 1506.3584 3466.8115)">
</image>
<image overflow="visible" enable-background="new    " width="511" height="511" xlink:href="logo.png"  transform="matrix(0.48 0 0 0.48 1048.2539 3866.2061)">
</image>
<polygon fill="none" stroke="#000000" stroke-miterlimit="10" points="1108.252,4140.04 1019.679,4051.467 1019.679,3926.204 
	1108.252,3837.631 1233.515,3837.631 1322.088,3926.204 1322.088,4051.467 1233.515,4140.04 "/>
<polygon fill="#FFFFFF" stroke="#000000" stroke-miterlimit="10" points="762.735,3848.521 461.706,3848.521 392.862,3917.365 
	392.862,4018.429 456.609,4082.174 758.833,4082.174 825.369,4015.638 825.369,3911.155 "/>
<image overflow="visible" enable-background="new    " width="439" height="155" xlink:href="text.png"  transform="matrix(1.0002 0 0 1.0002 392.5669 3892.7266)">
</image>
<image overflow="visible" enable-background="new    " width="511" height="511" xlink:href="logo.png"  transform="matrix(0.48 0 0 0.48 2162.0449 3866.2061)">
</image>
<polygon fill="none" stroke="#000000" stroke-miterlimit="10" points="2222.043,4140.04 2133.471,4051.467 2133.471,3926.204 
	2222.043,3837.631 2347.307,3837.631 2435.879,3926.204 2435.879,4051.467 2347.307,4140.04 "/>
<polygon fill="#FFFFFF" stroke="#000000" stroke-miterlimit="10" points="1876.527,3848.521 1575.498,3848.521 1506.654,3917.365 
	1506.654,4018.429 1570.401,4082.174 1872.625,4082.174 1939.16,4015.638 1939.16,3911.155 "/>
<image overflow="visible" enable-background="new    " width="439" height="155" xlink:href="text.png"  transform="matrix(1.0002 0 0 1.0002 1506.3584 3892.7266)">
</image>
<image overflow="visible" enable-background="new    " width="511" height="511" xlink:href="logo.png"  transform="matrix(0.48 0 0 0.48 1048.2539 4286.1211)">
</image>
<polygon fill="none" stroke="#000000" stroke-miterlimit="10" points="1108.252,4559.955 1019.679,4471.383 1019.679,4346.119 
	1108.252,4257.547 1233.515,4257.547 1322.088,4346.119 1322.088,4471.383 1233.515,4559.955 "/>
<polygon fill="#FFFFFF" stroke="#000000" stroke-miterlimit="10" points="762.735,4268.436 461.706,4268.436 392.862,4337.281 
	392.862,4438.344 456.609,4502.09 758.833,4502.09 825.369,4435.553 825.369,4331.07 "/>
<image overflow="visible" enable-background="new    " width="439" height="155" xlink:href="text.png"  transform="matrix(1.0002 0 0 1.0002 392.5669 4312.6416)">
</image>
<image overflow="visible" enable-background="new    " width="511" height="511" xlink:href="logo.png"  transform="matrix(0.48 0 0 0.48 2162.0449 4286.1211)">
</image>
<polygon fill="none" stroke="#000000" stroke-miterlimit="10" points="2222.043,4559.955 2133.471,4471.383 2133.471,4346.119 
	2222.043,4257.547 2347.307,4257.547 2435.879,4346.119 2435.879,4471.383 2347.307,4559.955 "/>
<polygon fill="#FFFFFF" stroke="#000000" stroke-miterlimit="10" points="1876.527,4268.436 1575.498,4268.436 1506.654,4337.281 
	1506.654,4438.344 1570.401,4502.09 1872.625,4502.09 1939.16,4435.553 1939.16,4331.07 "/>
<image overflow="visible" enable-background="new    " width="439" height="155" xlink:href="text.png"  transform="matrix(1.0002 0 0 1.0002 1506.3584 4312.6416)">
</image>
<image overflow="visible" enable-background="new    " width="511" height="511" xlink:href="logo.png"  transform="matrix(0.48 0 0 0.48 3320.2539 2588.4609)">
</image>
<polygon fill="none" stroke="#000000" stroke-miterlimit="10" points="3380.252,2862.295 3291.679,2773.722 3291.679,2648.459 
	3380.252,2559.886 3505.515,2559.886 3594.088,2648.459 3594.088,2773.722 3505.515,2862.295 "/>
<polygon fill="#FFFFFF" stroke="#000000" stroke-miterlimit="10" points="3034.735,2570.775 2733.706,2570.775 2664.862,2639.62 
	2664.862,2740.684 2728.609,2804.429 3030.833,2804.429 3097.369,2737.893 3097.369,2633.41 "/>
<image overflow="visible" enable-background="new    " width="439" height="155" xlink:href="text.png"  transform="matrix(1.0002 0 0 1.0002 2664.5664 2614.9814)">
</image>
<image overflow="visible" enable-background="new    " width="511" height="511" xlink:href="logo.png"  transform="matrix(0.48 0 0 0.48 4434.0449 2588.4609)">
</image>
<polygon fill="none" stroke="#000000" stroke-miterlimit="10" points="4494.043,2862.295 4405.471,2773.722 4405.471,2648.459 
	4494.043,2559.886 4619.307,2559.886 4707.879,2648.459 4707.879,2773.722 4619.307,2862.295 "/>
<polygon fill="#FFFFFF" stroke="#000000" stroke-miterlimit="10" points="4148.527,2570.775 3847.498,2570.775 3778.654,2639.62 
	3778.654,2740.684 3842.4,2804.429 4144.625,2804.429 4211.16,2737.893 4211.16,2633.41 "/>
<image overflow="visible" enable-background="new    " width="439" height="155" xlink:href="text.png"  transform="matrix(1.0002 0 0 1.0002 3778.3584 2614.9814)">
</image>
<image overflow="visible" enable-background="new    " width="511" height="511" xlink:href="logo.png"  transform="matrix(0.48 0 0 0.48 3320.2539 3014.376)">
</image>
<polygon fill="none" stroke="#000000" stroke-miterlimit="10" points="3380.252,3288.21 3291.679,3199.637 3291.679,3074.374 
	3380.252,2985.801 3505.515,2985.801 3594.088,3074.374 3594.088,3199.637 3505.515,3288.21 "/>
<polygon fill="#FFFFFF" stroke="#000000" stroke-miterlimit="10" points="3034.735,2996.69 2733.706,2996.69 2664.862,3065.535 
	2664.862,3166.599 2728.609,3230.344 3030.833,3230.344 3097.369,3163.808 3097.369,3059.325 "/>
<image overflow="visible" enable-background="new    " width="439" height="155" xlink:href="text.png"  transform="matrix(1.0002 0 0 1.0002 2664.5664 3040.8965)">
</image>
<image overflow="visible" enable-background="new    " width="511" height="511" xlink:href="logo.png"  transform="matrix(0.48 0 0 0.48 4434.0449 3014.376)">
</image>
<polygon fill="none" stroke="#000000" stroke-miterlimit="10" points="4494.043,3288.21 4405.471,3199.637 4405.471,3074.374 
	4494.043,2985.801 4619.307,2985.801 4707.879,3074.374 4707.879,3199.637 4619.307,3288.21 "/>
<polygon fill="#FFFFFF" stroke="#000000" stroke-miterlimit="10" points="4148.527,2996.69 3847.498,2996.69 3778.654,3065.535 
	3778.654,3166.599 3842.4,3230.344 4144.625,3230.344 4211.16,3163.808 4211.16,3059.325 "/>
<image overflow="visible" enable-background="new    " width="439" height="155" xlink:href="text.png"  transform="matrix(1.0002 0 0 1.0002 3778.3584 3040.8965)">
</image>
<image overflow="visible" enable-background="new    " width="511" height="511" xlink:href="logo.png"  transform="matrix(0.48 0 0 0.48 3320.2539 3440.291)">
</image>
<polygon fill="none" stroke="#000000" stroke-miterlimit="10" points="3380.252,3714.125 3291.679,3625.552 3291.679,3500.289 
	3380.252,3411.716 3505.515,3411.716 3594.088,3500.289 3594.088,3625.552 3505.515,3714.125 "/>
<polygon fill="#FFFFFF" stroke="#000000" stroke-miterlimit="10" points="3034.735,3422.605 2733.706,3422.605 2664.862,3491.45 
	2664.862,3592.514 2728.609,3656.259 3030.833,3656.259 3097.369,3589.723 3097.369,3485.24 "/>
<image overflow="visible" enable-background="new    " width="439" height="155" xlink:href="text.png"  transform="matrix(1.0002 0 0 1.0002 2664.5664 3466.8115)">
</image>
<image overflow="visible" enable-background="new    " width="511" height="511" xlink:href="logo.png"  transform="matrix(0.48 0 0 0.48 4434.0449 3440.291)">
</image>
<polygon fill="none" stroke="#000000" stroke-miterlimit="10" points="4494.043,3714.125 4405.471,3625.552 4405.471,3500.289 
	4494.043,3411.716 4619.307,3411.716 4707.879,3500.289 4707.879,3625.552 4619.307,3714.125 "/>
<polygon fill="#FFFFFF" stroke="#000000" stroke-miterlimit="10" points="4148.527,3422.605 3847.498,3422.605 3778.654,3491.45 
	3778.654,3592.514 3842.4,3656.259 4144.625,3656.259 4211.16,3589.723 4211.16,3485.24 "/>
<image overflow="visible" enable-background="new    " width="439" height="155" xlink:href="text.png"  transform="matrix(1.0002 0 0 1.0002 3778.3584 3466.8115)">
</image>
<image overflow="visible" enable-background="new    " width="511" height="511" xlink:href="logo.png"  transform="matrix(0.48 0 0 0.48 3320.2539 3866.2061)">
</image>
<polygon fill="none" stroke="#000000" stroke-miterlimit="10" points="3380.252,4140.04 3291.679,4051.467 3291.679,3926.204 
	3380.252,3837.631 3505.515,3837.631 3594.088,3926.204 3594.088,4051.467 3505.515,4140.04 "/>
<polygon fill="#FFFFFF" stroke="#000000" stroke-miterlimit="10" points="3034.735,3848.521 2733.706,3848.521 2664.862,3917.365 
	2664.862,4018.429 2728.609,4082.174 3030.833,4082.174 3097.369,4015.638 3097.369,3911.155 "/>
<image overflow="visible" enable-background="new    " width="439" height="155" xlink:href="text.png"  transform="matrix(1.0002 0 0 1.0002 2664.5664 3892.7266)">
</image>
<image overflow="visible" enable-background="new    " width="511" height="511" xlink:href="logo.png"  transform="matrix(0.48 0 0 0.48 4434.0449 3866.2061)">
</image>
<polygon fill="none" stroke="#000000" stroke-miterlimit="10" points="4494.043,4140.04 4405.471,4051.467 4405.471,3926.204 
	4494.043,3837.631 4619.307,3837.631 4707.879,3926.204 4707.879,4051.467 4619.307,4140.04 "/>
<polygon fill="#FFFFFF" stroke="#000000" stroke-miterlimit="10" points="4148.527,3848.521 3847.498,3848.521 3778.654,3917.365 
	3778.654,4018.429 3842.4,4082.174 4144.625,4082.174 4211.16,4015.638 4211.16,3911.155 "/>
<image overflow="visible" enable-background="new    " width="439" height="155" xlink:href="text.png"  transform="matrix(1.0002 0 0 1.0002 3778.3584 3892.7266)">
</image>
<image overflow="visible" enable-background="new    " width="511" height="511" xlink:href="logo.png"  transform="matrix(0.48 0 0 0.48 3320.2539 4286.1211)">
</image>
<polygon fill="none" stroke="#000000" stroke-miterlimit="10" points="3380.252,4559.955 3291.679,4471.383 3291.679,4346.119 
	3380.252,4257.547 3505.515,4257.547 3594.088,4346.119 3594.088,4471.383 3505.515,4559.955 "/>
<polygon fill="#FFFFFF" stroke="#000000" stroke-miterlimit="10" points="3034.735,4268.436 2733.706,4268.436 2664.862,4337.281 
	2664.862,4438.344 2728.609,4502.09 3030.833,4502.09 3097.369,4435.553 3097.369,4331.07 "/>
<image overflow="visible" enable-background="new    " width="439" height="155" xlink:href="text.png"  transform="matrix(1.0002 0 0 1.0002 2664.5664 4312.6416)">
</image>
<image overflow="visible" enable-background="new    " width="511" height="511" xlink:href="logo.png"  transform="matrix(0.48 0 0 0.48 4434.0449 4286.1211)">
</image>
<polygon fill="none" stroke="#000000" stroke-miterlimit="10" points="4494.043,4559.955 4405.471,4471.383 4405.471,4346.119 
	4494.043,4257.547 4619.307,4257.547 4707.879,4346.119 4707.879,4471.383 4619.307,4559.955 "/>
<polygon fill="#FFFFFF" stroke="#000000" stroke-miterlimit="10" points="4148.527,4268.436 3847.498,4268.436 3778.654,4337.281 
	3778.654,4438.344 3842.4,4502.09 4144.625,4502.09 4211.16,4435.553 4211.16,4331.07 "/>
<image overflow="visible" enable-background="new    " width="439" height="155" xlink:href="text.png"  transform="matrix(1.0002 0 0 1.0002 3778.3584 4312.6416)">
</image>
</svg>
