<?xml version="1.0" encoding="utf-8"?>
<!-- Generator: Adobe Illustrator 15.1.0, SVG Export Plug-In . SVG Version: 6.00 Build 0)  -->
<!DOCTYPE svg PUBLIC "-//W3C//DTD SVG 1.1//EN" "http://www.w3.org/Graphics/SVG/1.1/DTD/svg11.dtd">
<svg version="1.1" xmlns="http://www.w3.org/2000/svg" xmlns:xlink="http://www.w3.org/1999/xlink" x="0px" y="0px" width="1728px"
	 height="864px" viewBox="0 0 1728 864" enable-background="new 0 0 1728 864" xml:space="preserve">
<g id="Grid" display="none">
</g>
<g id="Layer_1">
</g>
<g id="Desktop">
</g>
<g id="Guides">
</g>
<g id="Page_1">
	<g id="Layer_1_1_">
		
			<rect x="68.32" y="68.432" fill="none" stroke="#231F20" stroke-width="0.216" stroke-miterlimit="2.4142" width="8.353" height="8.352"/>
		
			<polygon fill-rule="evenodd" clip-rule="evenodd" fill="none" stroke="#231F20" stroke-width="0.216" stroke-miterlimit="2.4142" points="
			22.125,326.616 94.125,398.616 670.125,398.616 742.125,326.616 22.125,326.616 		"/>
		
			<rect x="767.094" y="48.832" fill="none" stroke="#FF0000" stroke-width="0.216" stroke-miterlimit="2.4142" width="727.464" height="727.465"/>
		<g>
			
				<polygon fill-rule="evenodd" clip-rule="evenodd" fill="none" stroke="#231F20" stroke-width="0.216" stroke-miterlimit="2.4142" points="
				22.125,425.234 94.125,497.234 670.125,497.234 742.125,425.234 22.125,425.234 			"/>
			
				<rect x="254.271" y="457.059" fill="none" stroke="#231F20" stroke-width="0.216" stroke-miterlimit="2.4142" width="8.353" height="8.352"/>
			
				<rect x="281.271" y="457.059" fill="none" stroke="#231F20" stroke-width="0.216" stroke-miterlimit="2.4142" width="8.353" height="8.352"/>
			
				<rect x="308.271" y="457.059" fill="none" stroke="#231F20" stroke-width="0.216" stroke-miterlimit="2.4142" width="8.353" height="8.352"/>
			
				<rect x="335.271" y="457.059" fill="none" stroke="#231F20" stroke-width="0.216" stroke-miterlimit="2.4142" width="8.353" height="8.352"/>
			
				<rect x="362.271" y="457.059" fill="none" stroke="#231F20" stroke-width="0.216" stroke-miterlimit="2.4142" width="8.353" height="8.352"/>
			
				<rect x="389.271" y="457.059" fill="none" stroke="#231F20" stroke-width="0.216" stroke-miterlimit="2.4142" width="8.353" height="8.352"/>
			
				<rect x="416.271" y="457.059" fill="none" stroke="#231F20" stroke-width="0.216" stroke-miterlimit="2.4142" width="8.353" height="8.352"/>
			
				<rect x="443.271" y="457.059" fill="none" stroke="#231F20" stroke-width="0.216" stroke-miterlimit="2.4142" width="8.353" height="8.352"/>
			
				<rect x="470.271" y="457.059" fill="none" stroke="#231F20" stroke-width="0.216" stroke-miterlimit="2.4142" width="8.353" height="8.352"/>
			
				<rect x="497.271" y="457.059" fill="none" stroke="#231F20" stroke-width="0.216" stroke-miterlimit="2.4142" width="8.353" height="8.352"/>
			
				<rect x="524.271" y="457.059" fill="none" stroke="#231F20" stroke-width="0.216" stroke-miterlimit="2.4142" width="8.353" height="8.352"/>
			
				<rect x="551.271" y="457.059" fill="none" stroke="#231F20" stroke-width="0.216" stroke-miterlimit="2.4142" width="8.353" height="8.352"/>
			
				<rect x="578.271" y="457.059" fill="none" stroke="#231F20" stroke-width="0.216" stroke-miterlimit="2.4142" width="8.353" height="8.352"/>
			
				<rect x="605.271" y="457.059" fill="none" stroke="#231F20" stroke-width="0.216" stroke-miterlimit="2.4142" width="8.353" height="8.352"/>
			
				<rect x="632.271" y="457.059" fill="none" stroke="#231F20" stroke-width="0.216" stroke-miterlimit="2.4142" width="8.353" height="8.352"/>
			
				<rect x="659.271" y="457.059" fill="none" stroke="#231F20" stroke-width="0.216" stroke-miterlimit="2.4142" width="8.353" height="8.352"/>
		</g>
		
			<rect x="36.496" y="36.608" fill="none" stroke="#231F20" stroke-width="0.216" stroke-miterlimit="2.4142" width="72" height="72"/>
		
			<rect x="154.699" y="68.432" fill="none" stroke="#231F20" stroke-width="0.216" stroke-miterlimit="2.4142" width="8.353" height="8.352"/>
		
			<rect x="122.875" y="36.608" fill="none" stroke="#231F20" stroke-width="0.216" stroke-miterlimit="2.4142" width="72" height="72"/>
		
			<rect x="243.02" y="68.432" fill="none" stroke="#231F20" stroke-width="0.216" stroke-miterlimit="2.4142" width="8.353" height="8.352"/>
		
			<rect x="211.196" y="36.608" fill="none" stroke="#231F20" stroke-width="0.216" stroke-miterlimit="2.4142" width="72" height="72"/>
		
			<rect x="331.094" y="68.432" fill="none" stroke="#231F20" stroke-width="0.216" stroke-miterlimit="2.4142" width="8.353" height="8.352"/>
		
			<rect x="299.27" y="36.608" fill="none" stroke="#231F20" stroke-width="0.216" stroke-miterlimit="2.4142" width="72" height="72"/>
		
			<rect x="418.403" y="68.432" fill="none" stroke="#231F20" stroke-width="0.216" stroke-miterlimit="2.4142" width="8.353" height="8.352"/>
		
			<rect x="386.58" y="36.608" fill="none" stroke="#231F20" stroke-width="0.216" stroke-miterlimit="2.4142" width="72" height="72"/>
		
			<rect x="504.783" y="68.432" fill="none" stroke="#231F20" stroke-width="0.216" stroke-miterlimit="2.4142" width="8.353" height="8.352"/>
		
			<rect x="472.959" y="36.608" fill="none" stroke="#231F20" stroke-width="0.216" stroke-miterlimit="2.4142" width="72" height="72"/>
		
			<rect x="593.103" y="68.432" fill="none" stroke="#231F20" stroke-width="0.216" stroke-miterlimit="2.4142" width="8.353" height="8.352"/>
		
			<rect x="561.279" y="36.608" fill="none" stroke="#231F20" stroke-width="0.216" stroke-miterlimit="2.4142" width="72" height="72"/>
		
			<rect x="681.177" y="68.432" fill="none" stroke="#231F20" stroke-width="0.216" stroke-miterlimit="2.4142" width="8.353" height="8.352"/>
		
			<rect x="649.354" y="36.608" fill="none" stroke="#231F20" stroke-width="0.216" stroke-miterlimit="2.4142" width="72" height="72"/>
		
			<rect x="68.32" y="155.752" fill="none" stroke="#231F20" stroke-width="0.216" stroke-miterlimit="2.4142" width="8.353" height="8.352"/>
		
			<rect x="36.496" y="123.929" fill="none" stroke="#231F20" stroke-width="0.216" stroke-miterlimit="2.4142" width="72" height="72"/>
		
			<rect x="154.699" y="155.752" fill="none" stroke="#231F20" stroke-width="0.216" stroke-miterlimit="2.4142" width="8.353" height="8.352"/>
		
			<rect x="122.875" y="123.929" fill="none" stroke="#231F20" stroke-width="0.216" stroke-miterlimit="2.4142" width="72" height="72"/>
		
			<rect x="243.02" y="155.752" fill="none" stroke="#231F20" stroke-width="0.216" stroke-miterlimit="2.4142" width="8.353" height="8.352"/>
		
			<rect x="211.196" y="123.929" fill="none" stroke="#231F20" stroke-width="0.216" stroke-miterlimit="2.4142" width="72" height="72"/>
		
			<rect x="331.094" y="155.752" fill="none" stroke="#231F20" stroke-width="0.216" stroke-miterlimit="2.4142" width="8.353" height="8.352"/>
		
			<rect x="299.27" y="123.929" fill="none" stroke="#231F20" stroke-width="0.216" stroke-miterlimit="2.4142" width="72" height="72"/>
		
			<rect x="418.403" y="155.752" fill="none" stroke="#231F20" stroke-width="0.216" stroke-miterlimit="2.4142" width="8.353" height="8.352"/>
		
			<rect x="386.58" y="123.929" fill="none" stroke="#231F20" stroke-width="0.216" stroke-miterlimit="2.4142" width="72" height="72"/>
		
			<rect x="504.783" y="155.752" fill="none" stroke="#231F20" stroke-width="0.216" stroke-miterlimit="2.4142" width="8.353" height="8.352"/>
		
			<rect x="472.959" y="123.929" fill="none" stroke="#231F20" stroke-width="0.216" stroke-miterlimit="2.4142" width="72" height="72"/>
		
			<rect x="593.103" y="155.752" fill="none" stroke="#231F20" stroke-width="0.216" stroke-miterlimit="2.4142" width="8.353" height="8.352"/>
		
			<rect x="561.279" y="123.929" fill="none" stroke="#231F20" stroke-width="0.216" stroke-miterlimit="2.4142" width="72" height="72"/>
		
			<rect x="681.177" y="155.752" fill="none" stroke="#231F20" stroke-width="0.216" stroke-miterlimit="2.4142" width="8.353" height="8.352"/>
		
			<rect x="649.354" y="123.929" fill="none" stroke="#231F20" stroke-width="0.216" stroke-miterlimit="2.4142" width="72" height="72"/>
		
			<rect x="68.32" y="244.248" fill="none" stroke="#231F20" stroke-width="0.216" stroke-miterlimit="2.4142" width="8.353" height="8.352"/>
		
			<rect x="36.496" y="212.425" fill="none" stroke="#231F20" stroke-width="0.216" stroke-miterlimit="2.4142" width="72" height="72"/>
		
			<rect x="154.699" y="244.248" fill="none" stroke="#231F20" stroke-width="0.216" stroke-miterlimit="2.4142" width="8.353" height="8.352"/>
		
			<rect x="122.875" y="212.425" fill="none" stroke="#231F20" stroke-width="0.216" stroke-miterlimit="2.4142" width="72" height="72"/>
		
			<rect x="243.02" y="244.248" fill="none" stroke="#231F20" stroke-width="0.216" stroke-miterlimit="2.4142" width="8.353" height="8.352"/>
		
			<rect x="211.196" y="212.425" fill="none" stroke="#231F20" stroke-width="0.216" stroke-miterlimit="2.4142" width="72" height="72"/>
		
			<rect x="331.094" y="244.248" fill="none" stroke="#231F20" stroke-width="0.216" stroke-miterlimit="2.4142" width="8.353" height="8.352"/>
		
			<rect x="299.27" y="212.425" fill="none" stroke="#231F20" stroke-width="0.216" stroke-miterlimit="2.4142" width="72" height="72"/>
		
			<rect x="418.403" y="244.248" fill="none" stroke="#231F20" stroke-width="0.216" stroke-miterlimit="2.4142" width="8.353" height="8.352"/>
		
			<rect x="386.58" y="212.425" fill="none" stroke="#231F20" stroke-width="0.216" stroke-miterlimit="2.4142" width="72" height="72"/>
		
			<rect x="504.783" y="244.248" fill="none" stroke="#231F20" stroke-width="0.216" stroke-miterlimit="2.4142" width="8.353" height="8.352"/>
		
			<rect x="472.959" y="212.425" fill="none" stroke="#231F20" stroke-width="0.216" stroke-miterlimit="2.4142" width="72" height="72"/>
		
			<rect x="593.103" y="244.248" fill="none" stroke="#231F20" stroke-width="0.216" stroke-miterlimit="2.4142" width="8.353" height="8.352"/>
		
			<rect x="561.279" y="212.425" fill="none" stroke="#231F20" stroke-width="0.216" stroke-miterlimit="2.4142" width="72" height="72"/>
		
			<rect x="681.177" y="244.248" fill="none" stroke="#231F20" stroke-width="0.216" stroke-miterlimit="2.4142" width="8.353" height="8.352"/>
		
			<rect x="649.354" y="212.425" fill="none" stroke="#231F20" stroke-width="0.216" stroke-miterlimit="2.4142" width="72" height="72"/>
	</g>
</g>
</svg>
