<?xml version="1.0" encoding="utf-8"?>
<!-- Generator: Adobe Illustrator 15.1.0, SVG Export Plug-In . SVG Version: 6.00 Build 0)  -->
<!DOCTYPE svg PUBLIC "-//W3C//DTD SVG 1.1//EN" "http://www.w3.org/Graphics/SVG/1.1/DTD/svg11.dtd">
<svg version="1.1"
	 id="svg10668" sodipodi:docname="Mini Drawbot 3rd.svg" inkscape:version="0.91 r13725" xmlns:dc="http://purl.org/dc/elements/1.1/" xmlns:cc="http://creativecommons.org/ns#" xmlns:svg="http://www.w3.org/2000/svg" xmlns:rdf="http://www.w3.org/1999/02/22-rdf-syntax-ns#" xmlns:inkscape="http://www.inkscape.org/namespaces/inkscape" xmlns:sodipodi="http://sodipodi.sourceforge.net/DTD/sodipodi-0.dtd"
	 xmlns="http://www.w3.org/2000/svg" xmlns:xlink="http://www.w3.org/1999/xlink" x="0px" y="0px" width="3700.547px"
	 height="1728px" viewBox="0 -185.319 3700.547 1728" enable-background="new 0 -185.319 3700.547 1728" xml:space="preserve">
<sodipodi:namedview  id="namedview13135" pagecolor="#ffffff" borderopacity="1" objecttolerance="10" bordercolor="#666666" inkscape:window-width="1920" gridtolerance="10" guidetolerance="10" inkscape:pageopacity="0" inkscape:pageshadow="2" inkscape:window-height="1017" showgrid="false" inkscape:zoom="0.61088506" inkscape:cx="636.02116" inkscape:cy="823.09727" inkscape:window-x="-8" inkscape:window-y="-8" inkscape:window-maximized="1" inkscape:current-layer="g10725">
	</sodipodi:namedview>
<desc  id="desc10670">
	C:\Users\Gaurav\Desktop\Projects\Mini Drawbot\Mini Drawbot 2D.DXF - scale = 1.000000, origin = (0.000000, 0.000000), auto = False
	</desc>
<g id="g10725" inkscape:groupmode="layer" inkscape:label="0">
	<path id="path11415" fill="none" stroke="#000000" stroke-width="0.5" stroke-linecap="round" d="M2511.854,122.596V113.2
		 M2507.531,122.596h4.322 M2507.531,136.061v-13.465 M2511.854,136.061h-4.321 M2511.854,136.061v14.882 M2511.854,150.943h-26.573
		 M2485.279,120.403v30.54 M2485.279,53.924c-18.357,17.612-18.963,46.771-1.353,65.129c0.441,0.459,0.894,0.909,1.353,1.35
		 M2485.279-8.506v62.431 M2508.309-8.506h-23.028 M2508.309-8.506v10.63 M2511.854,2.125h-3.545 M2511.854,17.005V2.124
		 M2507.531,17.005h4.322 M2507.531,30.47V17.005 M2526.805,30.47h-19.272 M2526.805,30.47V17.005 M2522.484,17.005h4.319
		 M2522.484,17.005V2.124 M2526.027,2.125h-3.543 M2526.027-8.506v10.63 M2549.057-8.506h-23.029 M2549.057-8.506v62.431
		 M2549.057,120.403c18.357-17.612,18.963-46.771,1.353-65.13c-0.441-0.459-0.894-0.908-1.353-1.349 M2549.057,120.403v30.54
		 M2549.057,150.943h-26.572 M2522.484,136.061v14.882 M2526.805,136.061h-4.32 M2526.805,136.061v-13.465 M2522.484,122.596h4.319
		 M2522.484,122.596V113.2 M2522.484,113.201c14.379-2.935,23.655-16.973,20.723-31.353c-2.937-14.38-16.973-23.658-31.354-20.723
		c-14.381,2.935-23.657,16.973-20.725,31.353c2.131,10.438,10.287,18.593,20.725,20.723"/>
	<path id="path11479" fill="none" stroke="#000000" stroke-width="0.5" stroke-linecap="round" d="M2727.879,516.643h-9.395
		 M2596.779,543.218h62.43 M2607.408,516.643v3.543 M2622.289,520.965v-4.322 M2635.754,520.965h-13.465 M2635.754,501.69v19.274
		 M2635.754,501.69h-13.465 M2622.289,506.013v-4.322 M2659.207,543.218c17.613,18.357,46.771,18.961,65.129,1.351
		c0.459-0.439,0.91-0.892,1.35-1.351 M2596.779,479.438h62.43 M2725.686,479.438c-17.61-18.355-46.77-18.962-65.129-1.35
		c-0.459,0.439-0.907,0.891-1.35,1.35 M2725.686,479.438h30.541 M2741.344,501.69v4.322 M2727.879,506.013h-9.395 M2622.289,506.013
		h-14.881 M2607.408,502.469v3.544 M2596.779,502.469h10.629 M2596.779,479.438v23.031 M2596.779,520.186v23.032 M2756.227,479.438
		v26.575 M2622.289,516.643h-14.881 M2741.344,501.69h-13.463 M2727.881,506.013v-4.322 M2727.881,520.965v-4.322 M2741.344,520.965
		h-13.463 M2741.344,516.643v4.322 M2725.686,543.218h30.541 M2596.779,520.186h10.629 M2741.344,506.013h14.883 M2718.486,506.013
		c-2.938-14.381-16.976-23.659-31.354-20.724c-14.381,2.936-23.659,16.973-20.725,31.354c2.936,14.38,16.973,23.659,31.354,20.724
		c10.438-2.131,18.595-10.285,20.726-20.724 M2756.227,516.643v26.575 M2741.344,516.643h14.883"/>
	<path id="path11563" fill="none" stroke="#000000" stroke-width="0.5" stroke-linecap="round" d="M2524.143,186.041v106.3
		 M2676.504,186.041h-152.361 M2524.143,292.339h152.361 M2676.504,292.339v-106.3"/>
	<path id="path12085" fill="none" stroke="#000000" stroke-width="0.5" stroke-linecap="round" d="M2241.062,688.3h63
		 M2304.062,688.3v9.562 M2304.062,697.862h-10.632 M2293.432,697.862v10.631 M2293.432,708.493h10.631 M2304.062,708.493v22.328
		 M2304.062,730.821h-51.562 M2252.502,730.821l-10.369-10.371 M2228.15,720.45h13.981 M2223.797,708.491l4.354,11.959
		 M2219.158,708.491h4.639 M2214.805,720.45l4.354-11.959 M2211.453,720.45h3.352 M2207.1,708.491l4.354,11.959 M2202.459,708.491
		h4.641 M2198.107,720.45l4.354-11.959 M2194.754,720.45h3.354 M2190.402,708.491l4.354,11.959 M2185.762,708.491h4.642
		 M2181.41,720.45l4.354-11.959 M2178.057,720.45h3.354 M2173.705,708.491l4.352,11.959 M2169.066,708.491h4.639 M2164.713,720.45
		l4.354-11.959 M2161.359,720.45h3.354 M2157.006,708.491l4.354,11.959 M2152.369,708.491h4.639 M2148.014,720.45l4.355-11.959
		 M2144.662,720.45h3.354 M2140.309,708.491l4.354,11.959 M2135.67,708.491h4.639 M2131.318,720.45l4.352-11.959 M2127.965,720.45
		h3.354 M2123.613,708.491l4.352,11.959 M2118.973,708.491h4.642 M2114.621,720.45l4.352-11.959 M2111.268,720.45h3.354
		 M2106.914,708.491l4.354,11.959 M2102.275,708.491h4.641 M2097.922,720.45l4.354-11.959 M2094.57,720.45h3.354 M2090.217,708.491
		l4.354,11.959 M2085.578,708.491h4.639 M2081.225,720.45l4.354-11.959 M2077.871,720.45h3.354 M2073.52,708.491l4.354,11.959
		 M2068.881,708.491h4.639 M2064.529,720.45l4.352-11.959 M2061.174,720.45h3.355 M2056.822,708.491l4.354,11.959 M2052.182,708.491
		h4.642 M2047.83,720.45l4.352-11.959 M2044.477,720.45h3.354 M2040.125,708.491l4.352,11.959 M2035.486,708.491h4.639
		 M2031.133,720.45l4.354-11.959 M2027.781,720.45h3.352 M2023.428,708.491l4.354,11.959 M2018.789,708.491h4.639 M2014.436,720.45
		l4.354-11.959 M2011.082,720.45h3.354 M2006.73,708.491l4.354,11.959 M2002.09,708.491h4.641 M1997.738,720.45l4.354-11.959
		 M1994.385,720.45h3.354 M1990.033,708.491l4.352,11.959 M1985.393,708.491h4.642 M1981.041,720.45l4.352-11.959 M1977.688,720.45
		h3.354 M1973.334,708.491l4.354,11.959 M1968.695,708.491h4.641 M1964.342,720.45l4.354-11.959 M1960.99,720.45h3.354
		 M1956.637,708.491l4.354,11.959 M1951.998,708.491h4.639 M1947.645,720.45l4.355-11.959 M1944.293,720.45h3.352 M1939.939,708.491
		l4.354,11.959 M1935.301,708.491h4.641 M1930.948,720.45l4.353-11.959 M1927.596,720.45h3.354 M1923.244,708.491l4.352,11.959
		 M1918.604,708.491h4.642 M1914.25,720.45l4.354-11.959 M1910.898,720.45h3.354 M1906.545,708.491l4.354,11.959 M1901.906,708.491
		h4.641 M1897.553,720.45l4.354-11.959 M1894.201,720.45h3.354 M1889.848,708.491l4.354,11.959 M1885.209,708.491h4.639
		 M1880.855,720.45l4.354-11.959 M1877.502,720.45h3.354 M1873.15,708.491l4.354,11.959 M1868.512,708.491h4.64 M1864.159,720.45
		l4.353-11.959 M1860.805,720.45h3.354 M1856.453,708.491l4.354,11.959 M1851.812,708.491h4.641 M1847.461,720.45l4.354-11.959
		 M1844.108,720.45h3.353 M1839.756,708.491l4.354,11.959 M1835.116,708.491h4.64 M1830.764,720.45l4.354-11.959 M1761.157,720.45
		h69.605 M1761.157,720.45v-32.148 M1761.157,688.3h56.691 M1817.85,688.3l9.562,9.562 M2231.502,697.862h-404.09 M2231.502,697.862
		l9.561-9.562"/>
	<path id="path12241" fill="none" stroke="#000000" stroke-width="0.5" stroke-linecap="round" d="M1993.822,431.612h10.631
		 M2004.453,431.612v10.63 M1978.939,448.548h-13.463 M1947.051-34.121v19.275 M1901.697,40.022h46.062 M1960.516-34.121h-13.465
		 M1993.822,431.612v-17.718 M1937.129,420.982v60.234 M2004.453,481.217v-10.63 M1993.822,470.587h10.631 M1993.822,470.587v-7.086
		 M1993.822,463.501h-14.883 M1978.939,467.824v-4.322 M1960.516-14.845v-4.323 M1960.516-14.845h-13.465 M1993.822,442.242h10.631
		 M2004.453,481.217h-67.322 M1972.562,413.895V2.873 M1972.562,2.873h21.26 M1993.822,2.873v-5.67 M1993.822-2.798h10.631
		 M2004.453-13.428v10.63 M1993.822-13.428h10.631 M1978.939,452.873v-4.323 M1993.822,452.873h-14.883 M1993.822,452.873v-10.63
		 M1901.697,29.446v10.576 M1947.76,40.022v370.33 M1960.516-29.798v-4.322 M1993.822-29.798h-33.307 M1993.822-29.798v-10.63
		 M1993.822-40.428h10.631 M2004.453-40.428v-10.63 M1993.822-51.058h10.631 M1993.822-51.058v-50.651 M1813.114-101.709h180.708
		 M1978.939,467.824h-13.463 M1965.477,448.548v19.275 M1901.697,29.446h-17.717 M1813.114-66.223h-10.63 M1813.114-55.647h14.882
		 M1827.996-59.97v4.323 M1827.996-59.97h13.465 M1993.822,413.895h-21.26 M1827.996-40.694h13.465 M1813.114-45.017h14.882
		 M1813.114-45.017v67.323 M1813.114,22.306h-10.63 M1802.484,40.022V22.306 M1993.822-13.428v-5.74 M1802.484-66.223v-10.63
		 M1883.98,29.446v10.576 M1813.114-66.223v10.576 M1937.129,420.982l10.631-10.631 M1813.114-101.709v24.856 M1841.461-40.694
		V-59.97 M1827.996-45.017v4.323 M1813.114-76.853h-10.63 M1993.822-19.167h-33.307 M1802.484,40.022h81.496"/>
	<path id="path12321" fill="none" stroke="#000000" stroke-width="0.5" stroke-linecap="round" d="M1531.887,613.812v411.025
		 M1531.887,1024.839h-10.631 M1521.256,1024.839v4.535 M1521.256,1029.374h-14.881 M1506.375,1029.374v-4.322 M1506.375,1025.05
		h-13.466 M1492.91,1025.05v19.275 M1492.91,1044.327h13.465 M1506.375,1044.327v-4.322 M1506.375,1040.003h14.881
		 M1521.256,1040.003v5.314 M1521.256,1045.319h10.631 M1531.887,1045.319v10.629 M1531.887,1055.948h-10.631 M1521.256,1055.948
		v2.553 M1521.256,1058.501h-53.147 M1468.107,1058.501V509.233 M1521.256,509.233v14.174 M1521.256,523.407h-14.881
		 M1506.375,523.407v-4.322 M1506.375,519.084h-13.466 M1492.91,519.084v19.274 M1492.91,538.358h13.465 M1506.375,538.358v-4.32
		 M1506.375,534.038h14.881 M1521.256,534.038v7.086 M1521.256,541.124h10.631 M1531.887,541.124v10.629 M1531.887,551.753h-10.631
		 M1521.256,551.753v62.062 M1521.256,613.812h10.631 M1468.107,509.233h53.147"/>
	<path id="path12393" fill="none" stroke="#000000" stroke-width="0.5" stroke-linecap="round" d="M2337.742,43.442h-44.156
		 M2293.584,43.442v22.203 M2293.584,65.645h3.543 M2297.127,65.645v31.89 M2297.127,97.535h-3.543 M2293.584,97.535v49.606
		 M2293.584,147.141h-180.717 M2112.867,147.141V97.535 M2112.867,97.535h-3.543 M2109.324,97.535v-31.89 M2109.324,65.645h3.543
		 M2112.867,65.645V43.442 M2112.867,43.442h-33.787 M2079.08,43.442V-80.575 M2079.08-80.575h62.008 M2141.088-80.575V27.764
		 M2141.088,27.764l15.676,15.678 M2156.764,43.442h103.291 M2260.055,43.442l15.68-15.678 M2275.734,27.764V-80.575
		 M2337.742-80.575V43.442 M2275.734-80.575h62.008"/>
	<path id="path12419" fill="none" stroke="#000000" stroke-width="0.5" stroke-linecap="round" d="M2468.088,350.549v44.114
		 M2551.357,394.665h-83.271 M2551.357,343.462v51.201 M2636.395,433.817v-90.354 M2636.395,433.817h-207.28 M2429.113,433.817
		v-83.269 M2468.088,350.549h-38.977 M2636.395,343.462h-85.037"/>
	<path id="path12457" fill="none" stroke="#000000" stroke-width="0.5" stroke-linecap="round" d="M2571.734,622.413h77.065
		 M2648.801,622.413v-10.629 M2648.801,611.784h53.15 M2701.951,611.784v10.629 M2701.951,622.413h77.065 M2779.018,622.413v216.143
		 M2779.018,838.554h-77.065 M2701.951,838.554v10.631 M2701.951,849.185h-53.148 M2648.801,849.185v-10.631 M2648.801,838.554
		h-77.065 M2571.734,838.554v-56.02 M2571.734,782.536c28.748,23.58,71.168,19.393,94.748-9.355
		c23.582-28.745,19.393-71.168-9.354-94.748c-24.824-20.36-60.57-20.36-85.396,0 M2571.734,678.433v-56.02"/>
	<path id="path12689" fill="none" stroke="#000000" stroke-width="0.5" stroke-linecap="round" d="M2946.113,1009.97h-639.07
		 M2307.043,1009.97v-58.465 M2946.113,951.505v58.465 M2307.043,951.505h639.07"/>
	<g id="g14921" transform="translate(538.9721,103.12906)">
		<path id="path12743" fill="none" stroke="#000000" stroke-width="0.5" stroke-linecap="round" d="M2358.11,1063.358v-58.465
			 M1763.331,1004.893v10.629 M2358.11,1004.893h-19.475 M2338.635,1004.893v10.629 M2338.635,1015.522h-24.803 M2313.833,1015.522
			v-10.63 M2313.833,1004.893h-550.502 M1763.331,1015.522h-24.803 M1738.528,1015.522v-10.63 M1738.528,1004.893h-19.488
			 M1719.04,1004.893v58.465 M2358.11,1063.358h-639.07"/>
	</g>
	<path id="path12689_1_" fill="none" stroke="#000000" stroke-width="0.5" stroke-linecap="round" d="M2948.232,1309.061h-639.07
		 M2309.162,1309.061v-58.466 M2948.232,1250.595v58.465 M2309.162,1250.595h639.07"/>
	<g id="g14921_1_" transform="translate(538.9721,103.12906)">
		<path id="path12743_1_" fill="none" stroke="#000000" stroke-width="0.5" stroke-linecap="round" d="M2360.229,1362.448v-58.465
			 M1765.45,1303.983v10.629 M2360.229,1303.983h-19.475 M2340.754,1303.983v10.629 M2340.754,1314.612h-24.804 M2315.952,1314.612
			v-10.629 M2315.952,1303.983H1765.45 M1765.45,1314.612h-24.803 M1740.647,1314.612v-10.629 M1740.647,1303.983h-19.488
			 M1721.159,1303.983v58.465 M2360.229,1362.448h-639.07"/>
	</g>
	<path id="path11515" fill="none" stroke="#000000" stroke-width="0.5" stroke-linecap="round" d="M3258.816,317.079h67.321
		 M3326.139,317.079v-15.944 M3347.398,301.134c-0.017-5.871-4.787-10.617-10.658-10.602c-5.851,0.017-10.586,4.753-10.603,10.602
		 M3347.398,301.134v15.944 M3347.398,317.079h141.731 M3489.131,317.079v17.717 M3489.131,334.795h-141.731 M3347.398,334.795
		v33.661 M3347.398,368.458h-21.261 M3326.139,334.795h-67.322 M3258.816,334.795v-17.717 M3326.139,368.458v-33.661"/>
	<g id="g15992" transform="translate(1070.6985,-321.78833)">
		<path id="path11623" fill="none" stroke="#000000" stroke-width="0.5" stroke-linecap="round" d="M1844.969,645.247V627.53
			 M1855.598,627.53v-17.717 M1844.969,627.53h10.629 M1855.598,645.247h-10.629 M1855.598,662.963v-17.716 M1875.087,662.963
			h-19.488 M1875.087,618.672v44.291 M1958.356,618.672h-83.271 M1958.356,662.963v-44.291 M2025.677,662.963h-67.321
			 M2025.677,652.333v10.63 M2015.048,652.333h10.629 M2015.048,641.703v10.63 M2000.165,641.703h14.883 M2000.165,646.026v-4.323
			 M1986.7,646.026h13.465 M1986.7,626.751v19.275 M2000.165,626.751H1986.7 M2000.165,631.073v-4.322 M2015.048,631.073h-14.883
			 M2015.048,620.443v10.63 M2025.677,620.443h-10.629 M2025.677,609.813v10.63 M1944.182,609.813h81.494 M1944.182,599.183v10.63
			 M1926.466,599.183h17.717 M1926.466,609.813v-10.63 M1855.598,609.813h70.867"/>
	</g>
	<path id="path12799" fill="none" stroke="#000000" stroke-width="0.5" stroke-linecap="round" d="M3428.879,409.968h-639.07
		 M3428.879,647.37V409.968 M2789.809,409.968V647.37 M2789.809,647.37h639.07 M2912.684,484.377
		c-24.461,0.01-44.28,19.848-44.271,44.309c0.01,24.447,19.826,44.265,44.271,44.273 M3305.998,484.377h-393.314 M3305.998,572.96
		c24.461-0.01,44.283-19.848,44.271-44.311c-0.011-24.446-19.824-44.264-44.271-44.272 M2912.684,572.96h393.314"/>
	<path id="path12799_1_" fill="none" stroke="#000000" stroke-width="0.5" stroke-linecap="round" d="M3639.418,721.583h-639.07
		 M3639.418,958.985V721.583 M3000.348,721.583v237.402 M3000.348,958.985h639.07 M3123.223,795.993
		c-24.461,0.01-44.281,19.848-44.271,44.309c0.01,24.447,19.825,44.265,44.271,44.273 M3516.537,795.993h-393.314 M3516.537,884.575
		c24.461-0.01,44.283-19.849,44.271-44.312c-0.011-24.444-19.824-44.264-44.271-44.271 M3123.223,884.575h393.314"/>
	<path id="path3810" fill="none" stroke="#000000" stroke-width="0.5" stroke-linecap="round" d="M1671.93,584.274h550.488"/>
	<path id="path3808" fill="none" stroke="#000000" stroke-width="0.5" stroke-linecap="round" d="M1783.95,566.557h-156.312"/>
	<path id="path3806" fill="none" stroke="#000000" stroke-width="0.5" stroke-linecap="round" d="M1627.639,584.274v-17.718"/>
	<path id="path3804" fill="none" stroke="#000000" stroke-width="0.5" stroke-linecap="round" d="M1627.639,584.274h19.488"/>
	<path id="path3802" fill="none" stroke="#000000" stroke-width="0.5" stroke-linecap="round" d="M1647.127,605.534v-21.26"/>
	<path id="path3800" fill="none" stroke="#000000" stroke-width="0.5" stroke-linecap="round" d="M1671.93,605.534h-24.803"/>
	<path id="path3798" fill="none" stroke="#000000" stroke-width="0.5" stroke-linecap="round" d="M1671.93,605.534v-21.26"/>
	<path id="path3796" fill="none" stroke="#000000" stroke-width="0.5" stroke-linecap="round" d="M2222.418,605.534v-21.26"/>
	<path id="path3794" fill="none" stroke="#000000" stroke-width="0.5" stroke-linecap="round" d="M2247.221,605.534h-24.803"/>
	<path id="path3792" fill="none" stroke="#000000" stroke-width="0.5" stroke-linecap="round" d="M2247.221,605.534v-21.26"/>
	<path id="path3790" fill="none" stroke="#000000" stroke-width="0.5" stroke-linecap="round" d="M2247.221,584.274h19.488"/>
	<path id="path3788" fill="none" stroke="#000000" stroke-width="0.5" stroke-linecap="round" d="M2266.709,566.557v17.718"/>
	<path id="path3786" fill="none" stroke="#000000" stroke-width="0.5" stroke-linecap="round" d="M2266.709,566.557h-73.174"/>
	<path id="path3784" fill="none" stroke="#000000" stroke-width="0.5" stroke-linecap="round" d="M2193.537,566.557l-1.328-3.646"/>
	<path id="path3782" fill="none" stroke="#000000" stroke-width="0.5" stroke-linecap="round" d="M2192.209,562.911h-6.232"/>
	<path id="path3780" fill="none" stroke="#000000" stroke-width="0.5" stroke-linecap="round" d="M2180.82,577.188l5.156-14.276"/>
	<path id="path3778" fill="none" stroke="#000000" stroke-width="0.5" stroke-linecap="round" d="M2180.82,577.188h-5.973"/>
	<path id="path3776" fill="none" stroke="#000000" stroke-width="0.5" stroke-linecap="round" d="M2174.848,577.188l-5.158-14.174"
		/>
	<path id="path3774" fill="none" stroke="#000000" stroke-width="0.5" stroke-linecap="round" d="M2169.689,563.014h-5.976"/>
	<path id="path3772" fill="none" stroke="#000000" stroke-width="0.5" stroke-linecap="round" d="M2158.557,577.188l5.158-14.174"/>
	<path id="path3770" fill="none" stroke="#000000" stroke-width="0.5" stroke-linecap="round" d="M2158.557,577.188h-5.973"/>
	<path id="path3768" fill="none" stroke="#000000" stroke-width="0.5" stroke-linecap="round" d="M2152.584,577.188l-5.158-14.174"
		/>
	<path id="path3766" fill="none" stroke="#000000" stroke-width="0.5" stroke-linecap="round" d="M2147.426,563.014h-5.975"/>
	<path id="path3764" fill="none" stroke="#000000" stroke-width="0.5" stroke-linecap="round" d="M2136.293,577.188l5.158-14.174"/>
	<path id="path3762" fill="none" stroke="#000000" stroke-width="0.5" stroke-linecap="round" d="M2130.322,577.188h5.971"/>
	<path id="path3760" fill="none" stroke="#000000" stroke-width="0.5" stroke-linecap="round" d="M2130.322,577.188l-5.158-14.174"
		/>
	<path id="path3758" fill="none" stroke="#000000" stroke-width="0.5" stroke-linecap="round" d="M2125.164,563.014h-5.977"/>
	<path id="path3756" fill="none" stroke="#000000" stroke-width="0.5" stroke-linecap="round" d="M2114.098,577.001l5.09-13.986"/>
	<path id="path3754" fill="none" stroke="#000000" stroke-width="0.5" stroke-linecap="round" d="M2107.99,577.001h6.106"/>
	<path id="path3752" fill="none" stroke="#000000" stroke-width="0.5" stroke-linecap="round" d="M2107.99,577.001l-5.092-13.986"/>
	<path id="path3750" fill="none" stroke="#000000" stroke-width="0.5" stroke-linecap="round" d="M2102.9,563.014h-5.976"/>
	<path id="path3748" fill="none" stroke="#000000" stroke-width="0.5" stroke-linecap="round" d="M2091.834,577.001l5.092-13.986"/>
	<path id="path3746" fill="none" stroke="#000000" stroke-width="0.5" stroke-linecap="round" d="M2085.727,577.001h6.107"/>
	<path id="path3744" fill="none" stroke="#000000" stroke-width="0.5" stroke-linecap="round" d="M2085.727,577.001l-5.09-13.986"/>
	<path id="path3742" fill="none" stroke="#000000" stroke-width="0.5" stroke-linecap="round" d="M2080.637,563.014h-5.975"/>
	<path id="path3740" fill="none" stroke="#000000" stroke-width="0.5" stroke-linecap="round" d="M2069.572,577.001l5.09-13.986"/>
	<path id="path3738" fill="none" stroke="#000000" stroke-width="0.5" stroke-linecap="round" d="M2063.463,577.001h6.107"/>
	<path id="path3736" fill="none" stroke="#000000" stroke-width="0.5" stroke-linecap="round" d="M2063.463,577.001l-5.09-13.986"/>
	<path id="path3734" fill="none" stroke="#000000" stroke-width="0.5" stroke-linecap="round" d="M2058.373,563.014h-5.977"/>
	<path id="path3732" fill="none" stroke="#000000" stroke-width="0.5" stroke-linecap="round" d="M2047.309,577.001l5.09-13.986"/>
	<path id="path3730" fill="none" stroke="#000000" stroke-width="0.5" stroke-linecap="round" d="M2041.201,577.001h6.107"/>
	<path id="path3728" fill="none" stroke="#000000" stroke-width="0.5" stroke-linecap="round" d="M2041.201,577.001l-5.09-13.986"/>
	<path id="path3726" fill="none" stroke="#000000" stroke-width="0.5" stroke-linecap="round" d="M2036.111,563.014h-5.978"/>
	<path id="path3724" fill="none" stroke="#000000" stroke-width="0.5" stroke-linecap="round" d="M2025.045,577.001l5.09-13.986"/>
	<path id="path3722" fill="none" stroke="#000000" stroke-width="0.5" stroke-linecap="round" d="M2018.938,577.001h6.107"/>
	<path id="path3720" fill="none" stroke="#000000" stroke-width="0.5" stroke-linecap="round" d="M2018.938,577.001l-5.092-13.986"
		/>
	<path id="path3718" fill="none" stroke="#000000" stroke-width="0.5" stroke-linecap="round" d="M2013.846,563.014h-5.975"/>
	<path id="path3716" fill="none" stroke="#000000" stroke-width="0.5" stroke-linecap="round" d="M2002.783,577.001l5.09-13.986"/>
	<path id="path3714" fill="none" stroke="#000000" stroke-width="0.5" stroke-linecap="round" d="M1996.674,577.001h6.107"/>
	<path id="path3712" fill="none" stroke="#000000" stroke-width="0.5" stroke-linecap="round" d="M1996.674,577.001l-5.09-13.986"/>
	<path id="path3710" fill="none" stroke="#000000" stroke-width="0.5" stroke-linecap="round" d="M1991.584,563.014h-5.975"/>
	<path id="path3708" fill="none" stroke="#000000" stroke-width="0.5" stroke-linecap="round" d="M1980.518,577.001l5.092-13.986"/>
	<path id="path3706" fill="none" stroke="#000000" stroke-width="0.5" stroke-linecap="round" d="M1974.412,577.001h6.105"/>
	<path id="path3704" fill="none" stroke="#000000" stroke-width="0.5" stroke-linecap="round" d="M1974.412,577.001l-5.092-13.986"
		/>
	<path id="path3702" fill="none" stroke="#000000" stroke-width="0.5" stroke-linecap="round" d="M1969.32,563.014h-5.976"/>
	<path id="path3700" fill="none" stroke="#000000" stroke-width="0.5" stroke-linecap="round" d="M1958.254,577.001l5.092-13.986"/>
	<path id="path3698" fill="none" stroke="#000000" stroke-width="0.5" stroke-linecap="round" d="M1952.146,577.001h6.106"/>
	<path id="path3696" fill="none" stroke="#000000" stroke-width="0.5" stroke-linecap="round" d="M1952.146,577.001l-5.09-13.986"/>
	<path id="path3694" fill="none" stroke="#000000" stroke-width="0.5" stroke-linecap="round" d="M1947.057,563.014h-5.975"/>
	<path id="path3692" fill="none" stroke="#000000" stroke-width="0.5" stroke-linecap="round" d="M1935.992,577.001l5.092-13.986"/>
	<path id="path3690" fill="none" stroke="#000000" stroke-width="0.5" stroke-linecap="round" d="M1929.885,577.001h6.106"/>
	<path id="path3688" fill="none" stroke="#000000" stroke-width="0.5" stroke-linecap="round" d="M1929.885,577.001l-5.092-13.986"
		/>
	<path id="path3686" fill="none" stroke="#000000" stroke-width="0.5" stroke-linecap="round" d="M1924.793,563.014h-5.975"/>
	<path id="path3684" fill="none" stroke="#000000" stroke-width="0.5" stroke-linecap="round" d="M1913.729,577.001l5.092-13.986"/>
	<path id="path3682" fill="none" stroke="#000000" stroke-width="0.5" stroke-linecap="round" d="M1907.621,577.001h6.107"/>
	<path id="path3680" fill="none" stroke="#000000" stroke-width="0.5" stroke-linecap="round" d="M1907.621,577.001l-5.09-13.986"/>
	<path id="path3678" fill="none" stroke="#000000" stroke-width="0.5" stroke-linecap="round" d="M1902.531,563.014h-5.976"/>
	<path id="path3676" fill="none" stroke="#000000" stroke-width="0.5" stroke-linecap="round" d="M1891.465,577.001l5.092-13.986"/>
	<path id="path3674" fill="none" stroke="#000000" stroke-width="0.5" stroke-linecap="round" d="M1885.358,577.001h6.105"/>
	<path id="path3672" fill="none" stroke="#000000" stroke-width="0.5" stroke-linecap="round" d="M1885.358,577.001l-5.091-13.986"
		/>
	<path id="path3670" fill="none" stroke="#000000" stroke-width="0.5" stroke-linecap="round" d="M1880.268,563.014h-5.975"/>
	<path id="path3668" fill="none" stroke="#000000" stroke-width="0.5" stroke-linecap="round" d="M1869.203,577.001l5.09-13.986"/>
	<path id="path3666" fill="none" stroke="#000000" stroke-width="0.5" stroke-linecap="round" d="M1863.094,577.001h6.107"/>
	<path id="path3664" fill="none" stroke="#000000" stroke-width="0.5" stroke-linecap="round" d="M1863.094,577.001l-5.09-13.986"/>
	<path id="path3662" fill="none" stroke="#000000" stroke-width="0.5" stroke-linecap="round" d="M1858.004,563.014h-5.976"/>
	<path id="path3660" fill="none" stroke="#000000" stroke-width="0.5" stroke-linecap="round" d="M1846.939,577.001l5.09-13.986"/>
	<path id="path3658" fill="none" stroke="#000000" stroke-width="0.5" stroke-linecap="round" d="M1840.83,577.001h6.107"/>
	<path id="path3656" fill="none" stroke="#000000" stroke-width="0.5" stroke-linecap="round" d="M1840.83,577.001l-5.09-13.986"/>
	<path id="path3654" fill="none" stroke="#000000" stroke-width="0.5" stroke-linecap="round" d="M1835.741,563.014h-5.977"/>
	<path id="path3652" fill="none" stroke="#000000" stroke-width="0.5" stroke-linecap="round" d="M1824.676,577.001l5.09-13.986"/>
	<path id="path3650" fill="none" stroke="#000000" stroke-width="0.5" stroke-linecap="round" d="M1818.568,577.001h6.106"/>
	<path id="path3648" fill="none" stroke="#000000" stroke-width="0.5" stroke-linecap="round" d="M1818.568,577.001l-5.093-13.986"
		/>
	<path id="path3646" fill="none" stroke="#000000" stroke-width="0.5" stroke-linecap="round" d="M1813.477,563.014h-5.975"/>
	<path id="path3644" fill="none" stroke="#000000" stroke-width="0.5" stroke-linecap="round" d="M1802.344,577.188l5.158-14.174"/>
	<path id="path3642" fill="none" stroke="#000000" stroke-width="0.5" stroke-linecap="round" d="M1796.373,577.188h5.971"/>
	<path id="path3640" fill="none" stroke="#000000" stroke-width="0.5" stroke-linecap="round" d="M1796.373,577.188l-5.158-14.174"
		/>
	<path id="path3638" fill="none" stroke="#000000" stroke-width="0.5" stroke-linecap="round" d="M1791.215,563.014h-5.976"/>
	<path id="path12979" fill="none" stroke="#000000" stroke-width="0.5" stroke-linecap="round" d="M1783.95,566.557l1.29-3.543"/>
	<path id="path3634" fill="none" stroke="#000000" stroke-width="0.5" stroke-linecap="round" d="M2201.883,845.598h-17.717"/>
	<path id="path3632" fill="none" stroke="#000000" stroke-width="0.5" stroke-linecap="round" d="M2308.182,856.227h-26.561"/>
	<path id="path3630" fill="none" stroke="#000000" stroke-width="0.5" stroke-linecap="round" d="M2270.992,871.112v-14.886"/>
	<path id="path3628" fill="none" stroke="#000000" stroke-width="0.5" stroke-linecap="round" d="M1775.412,856.227h-69.095"/>
	<path id="path3626" fill="none" stroke="#000000" stroke-width="0.5" stroke-linecap="round" d="M1706.317,871.112h4.32"/>
	<path id="path3624" fill="none" stroke="#000000" stroke-width="0.5" stroke-linecap="round" d="M1706.317,856.227v14.886"/>
	<path id="path3622" fill="none" stroke="#000000" stroke-width="0.5" stroke-linecap="round" d="M2285.945,884.575h-19.277"/>
	<path id="path3620" fill="none" stroke="#000000" stroke-width="0.5" stroke-linecap="round" d="M2266.668,884.575v-13.463"/>
	<path id="path3618" fill="none" stroke="#000000" stroke-width="0.5" stroke-linecap="round" d="M2266.668,871.112h4.322"/>
	<path id="path3616" fill="none" stroke="#000000" stroke-width="0.5" stroke-linecap="round" d="M2201.883,856.227v-10.629"/>
	<path id="path3614" fill="none" stroke="#000000" stroke-width="0.5" stroke-linecap="round" d="M2270.992,856.227h-69.107"/>
	<path id="path3612" fill="none" stroke="#000000" stroke-width="0.5" stroke-linecap="round" d="M1669.112,914.694h52.021"/>
	<path id="path3610" fill="none" stroke="#000000" stroke-width="0.5" stroke-linecap="round" d="M1793.127,845.598h-17.717"/>
	<path id="path3608" fill="none" stroke="#000000" stroke-width="0.5" stroke-linecap="round" d="M2308.182,914.694v-58.468"/>
	<path id="path3606" fill="none" stroke="#000000" stroke-width="0.5" stroke-linecap="round" d="M2256.174,875.716v38.979"/>
	<path id="path3604" fill="none" stroke="#000000" stroke-width="0.5" stroke-linecap="round" d="M2256.174,914.694h52.008"/>
	<path id="path3602" fill="none" stroke="#000000" stroke-width="0.5" stroke-linecap="round" d="M1695.688,856.227h-26.574"/>
	<path id="path3600" fill="none" stroke="#000000" stroke-width="0.5" stroke-linecap="round" d="M2281.621,856.227v14.886"/>
	<path id="path3598" fill="none" stroke="#000000" stroke-width="0.5" stroke-linecap="round" d="M2281.621,871.112h4.324"/>
	<path id="path3596" fill="none" stroke="#000000" stroke-width="0.5" stroke-linecap="round" d="M2285.945,871.112v13.463"/>
	<path id="path3594" fill="none" stroke="#000000" stroke-width="0.5" stroke-linecap="round" d="M2184.166,845.598v10.631"/>
	<path id="path3592" fill="none" stroke="#000000" stroke-width="0.5" stroke-linecap="round" d="M2184.166,856.227h-391.039"/>
	<path id="path3590" fill="none" stroke="#000000" stroke-width="0.5" stroke-linecap="round" d="M1793.127,856.227v-10.629"/>
	<path id="path3588" fill="none" stroke="#000000" stroke-width="0.5" stroke-linecap="round" d="M1775.412,845.598v10.631"/>
	<path id="path3586" fill="none" stroke="#000000" stroke-width="0.5" stroke-linecap="round" d="M1710.639,871.112v13.463"/>
	<path id="path3584" fill="none" stroke="#000000" stroke-width="0.5" stroke-linecap="round" d="M1710.639,884.575h-19.273"/>
	<path id="path3582" fill="none" stroke="#000000" stroke-width="0.5" stroke-linecap="round" d="M1691.364,884.575v-13.463"/>
	<path id="path3580" fill="none" stroke="#000000" stroke-width="0.5" stroke-linecap="round" d="M1691.364,871.112h4.323"/>
	<path id="path3578" fill="none" stroke="#000000" stroke-width="0.5" stroke-linecap="round" d="M1695.688,871.112v-14.886"/>
	<path id="path3576" fill="none" stroke="#000000" stroke-width="0.5" stroke-linecap="round" d="M1669.112,856.227v58.468"/>
	<path id="path3574" fill="none" stroke="#000000" stroke-width="0.5" stroke-linecap="round" d="M1721.135,914.694v-38.979"/>
	<path id="path13047" fill="none" stroke="#000000" stroke-width="0.5" stroke-linecap="round" d="M1721.135,875.716h535.039"/>
	<path id="path13129" fill="none" stroke="#000000" stroke-width="0.5" stroke-linecap="round" d="M1609.082,1061.594h7.086
		 M1613.405,1057.343h-4.323 M1613.405,1043.88v13.463 M1594.129,1043.88h19.275 M1594.129,1057.343v-13.463 M1598.453,1057.343
		h-4.324 M1598.453,1061.594v-4.252 M1623.899,1013.76h-52.01 M1623.899,1052.739v-38.979 M2210.961,1013.76h-52.023
		 M2191.473,1061.594v10.631 M1678.189,1082.854h17.717 M1616.168,1061.594v10.631 M1591.365,1061.594h7.088 M1591.365,1072.225
		v-10.631 M1571.891,1013.76v58.465 M2158.938,1052.739h-486.789H1623.9 M1609.082,1057.343v4.252 M2210.961,1072.225v-58.465
		 M2184.387,1061.594h7.086 M1571.891,1072.225h19.476 M2169.434,1057.343v-13.463 M2173.756,1057.343h-4.322 M2173.756,1061.594
		v-4.252 M2166.67,1061.594h7.086 M2166.67,1072.225v-10.631 M2104.662,1072.225h62.008 M2104.662,1082.854v-10.629
		 M2086.945,1082.854h17.717 M2086.945,1072.225v10.629 M1695.906,1072.225h391.039 M1695.906,1082.854v-10.629 M2169.434,1043.88
		h19.275 M2188.709,1043.88v13.463 M2158.938,1013.76v38.979 M1678.189,1072.225v10.629 M1616.168,1072.225h62.021
		 M2191.473,1072.225h19.488 M2184.387,1057.343v4.252 M2188.709,1057.343h-4.322"/>
	<rect id="rect16023" x="68.53" y="44.147" fill="none" stroke="#000000" width="1309.576" height="1206.448"/>
</g>
<g id="g13133" inkscape:groupmode="layer" inkscape:label="FORMAT">
</g>
</svg>
