999
dxfrw 0.6.3
  0
SECTION
  2
HEADER
  9
$ACADVER
  1
AC1021
  9
$DWGCODEPAGE
  3
ANSI_1252
  9
$INSBASE
 10
0
 20
0
 30
0
  9
$EXTMIN
 10
-19.04
 20
-145.87
 30
0
  9
$EXTMAX
 10
621.27
 20
616.25
 30
0
  9
$LIMMIN
 10
-64.48
 20
-181.49
  9
$LIMMAX
 10
637.8
 20
625.41
  9
$ORTHOMODE
 70
    0
  9
$REGENMODE
 70
    1
  9
$FILLMODE
 70
    1
  9
$QTEXTMODE
 70
    0
  9
$MIRRTEXT
 70
    0
  9
$LTSCALE
 40
1
  9
$ATTMODE
 70
    0
  9
$TEXTSIZE
 40
2.5
  9
$TRACEWID
 40
15.68
  9
$TEXTSTYLE
  7
STANDARD
  9
$CLAYER
  8
0
  9
$CELTYPE
  6
BYLAYER
  9
$CECOLOR
 62
  256
  9
$CELTSCALE
 40
1
  9
$DISPSILH
 70
    0
  9
$DIMSCALE
 40
2.5
  9
$DIMASZ
 40
2.5
  9
$DIMEXO
 40
0.625
  9
$DIMDLI
 40
3.75
  9
$DIMRND
 40
0
  9
$DIMDLE
 40
0
  9
$DIMEXE
 40
1.25
  9
$DIMTP
 40
0
  9
$DIMTM
 40
0
  9
$DIMTXT
 40
2.5
  9
$DIMCEN
 40
2.5
  9
$DIMTSZ
 40
0
  9
$DIMTOL
 70
    0
  9
$DIMLIM
 70
    0
  9
$DIMTIH
 70
    0
  9
$DIMTOH
 70
    0
  9
$DIMSE1
 70
    0
  9
$DIMSE2
 70
    0
  9
$DIMTAD
 70
    1
  9
$DIMZIN
 70
    8
  9
$DIMBLK
  1

  9
$DIMASO
 70
    1
  9
$DIMSHO
 70
    1
  9
$DIMPOST
  1

  9
$DIMAPOST
  1

  9
$DIMALT
 70
    0
  9
$DIMALTD
 70
    3
  9
$DIMALTF
 40
0.03937
  9
$DIMLFAC
 40
1
  9
$DIMTOFL
 70
    1
  9
$DIMTVP
 40
0
  9
$DIMTIX
 70
    0
  9
$DIMSOXD
 70
    0
  9
$DIMSAH
 70
    0
  9
$DIMBLK1
  1

  9
$DIMBLK2
  1

  9
$DIMSTYLE
  2
Standard
  9
$DIMCLRD
 70
    0
  9
$DIMCLRE
 70
    0
  9
$DIMCLRT
 70
    0
  9
$DIMTFAC
 40
1
  9
$DIMGAP
 40
0.625
  9
$DIMJUST
 70
    0
  9
$DIMSD1
 70
    0
  9
$DIMSD2
 70
    0
  9
$DIMTOLJ
 70
    0
  9
$DIMTZIN
 70
    8
  9
$DIMALTZ
 70
    0
  9
$DIMALTTZ
 70
    0
  9
$DIMUPT
 70
    0
  9
$DIMDEC
 70
    2
  9
$DIMTDEC
 70
    2
  9
$DIMALTU
 70
    2
  9
$DIMALTTD
 70
    3
  9
$DIMTXSTY
  7
STANDARD
  9
$DIMAUNIT
 70
    0
  9
$DIMADEC
 70
    0
  9
$DIMALTRND
 40
0
  9
$DIMAZIN
 70
    0
  9
$DIMDSEP
 70
   44
  9
$DIMATFIT
 70
    3
  9
$DIMFRAC
 70
    0
  9
$DIMLDRBLK
  1
STANDARD
  9
$DIMLUNIT
 70
    2
  9
$DIMLWD
 70
   -2
  9
$DIMLWE
 70
   -2
  9
$DIMTMOVE
 70
    0
  9
$DIMFXL
 40
1
  9
$DIMFXLON
 70
    0
  9
$DIMJOGANG
 40
0.7854
  9
$DIMTFILL
 70
    0
  9
$DIMTFILLCLR
 70
    0
  9
$DIMARCSYM
 70
    0
  9
$DIMLTYPE
  6

  9
$DIMLTEX1
  6

  9
$DIMLTEX2
  6

  9
$LUNITS
 70
    2
  9
$LUPREC
 70
    4
  9
$SKETCHINC
 40
1
  9
$FILLETRAD
 40
0
  9
$AUNITS
 70
    0
  9
$AUPREC
 70
    2
  9
$MENU
  1
.
  9
$ELEVATION
 40
0
  9
$PELEVATION
 40
0
  9
$THICKNESS
 40
0
  9
$LIMCHECK
 70
    0
  9
$CHAMFERA
 40
0
  9
$CHAMFERB
 40
0
  9
$CHAMFERC
 40
0
  9
$CHAMFERD
 40
0
  9
$SKPOLY
 70
    0
  9
$USRTIMER
 70
    1
  9
$ANGBASE
 50
0
  9
$ANGDIR
 70
    0
  9
$PDMODE
 70
   34
  9
$PDSIZE
 40
0
  9
$PLINEWID
 40
0
  9
$SPLFRAME
 70
    0
  9
$SPLINETYPE
 70
    2
  9
$SPLINESEGS
 70
    8
  9
$HANDSEED
  5
20000
  9
$SURFTAB1
 70
    6
  9
$SURFTAB2
 70
    6
  9
$SURFTYPE
 70
    6
  9
$SURFU
 70
    6
  9
$SURFV
 70
    6
  9
$UCSBASE
  2

  9
$UCSNAME
  2

  9
$UCSORG
 10
0
 20
0
 30
0
  9
$UCSXDIR
 10
1
 20
0
 30
0
  9
$UCSYDIR
 10
0
 20
1
 30
0
  9
$UCSORTHOREF
  2

  9
$UCSORTHOVIEW
 70
    0
  9
$UCSORGTOP
 10
0
 20
0
 30
0
  9
$UCSORGBOTTOM
 10
0
 20
0
 30
0
  9
$UCSORGLEFT
 10
0
 20
0
 30
0
  9
$UCSORGRIGHT
 10
0
 20
0
 30
0
  9
$UCSORGFRONT
 10
0
 20
0
 30
0
  9
$UCSORGBACK
 10
0
 20
0
 30
0
  9
$PUCSBASE
  2

  9
$PUCSNAME
  2

  9
$PUCSORG
 10
0
 20
0
 30
0
  9
$PUCSXDIR
 10
1
 20
0
 30
0
  9
$PUCSYDIR
 10
0
 20
1
 30
0
  9
$PUCSORTHOREF
  2

  9
$PUCSORTHOVIEW
 70
    0
  9
$PUCSORGTOP
 10
0
 20
0
 30
0
  9
$PUCSORGBOTTOM
 10
0
 20
0
 30
0
  9
$PUCSORGLEFT
 10
0
 20
0
 30
0
  9
$PUCSORGRIGHT
 10
0
 20
0
 30
0
  9
$PUCSORGFRONT
 10
0
 20
0
 30
0
  9
$PUCSORGBACK
 10
0
 20
0
 30
0
  9
$USERI1
 70
    0
  9
$USERI2
 70
    0
  9
$USERI3
 70
    0
  9
$USERI4
 70
    0
  9
$USERI5
 70
    0
  9
$USERR1
 40
0
  9
$USERR2
 40
0
  9
$USERR3
 40
0
  9
$USERR4
 40
0
  9
$USERR5
 40
0
  9
$WORLDVIEW
 70
    1
  9
$SHADEDGE
 70
    3
  9
$SHADEDIF
 70
   70
  9
$TILEMODE
 70
    1
  9
$MAXACTVP
 70
   64
  9
$PINSBASE
 10
0
 20
0
 30
0
  9
$PLIMCHECK
 70
    0
  9
$PEXTMIN
 10
0
 20
0
 30
0
  9
$PEXTMAX
 10
0
 20
0
 30
0
  9
$GRIDMODE
 70
    0
  9
$SNAPSTYLE
 70
    0
  9
$PLIMMIN
 10
0
 20
0
  9
$PLIMMAX
 10
210
 20
297
  9
$UNITMODE
 70
    0
  9
$VISRETAIN
 70
    1
  9
$PLINEGEN
 70
    0
  9
$PSLTSCALE
 70
    1
  9
$TREEDEPTH
 70
 3020
  9
$CMLSTYLE
  2
Standard
  9
$CMLJUST
 70
    0
  9
$CMLSCALE
 40
20
  9
$PROXYGRAPHICS
 70
    1
  9
$MEASUREMENT
 70
    1
  9
$CELWEIGHT
370
   -1
  9
$ENDCAPS
280
    0
  9
$JOINSTYLE
280
    0
  9
$LWDISPLAY
290
    0
  9
$INSUNITS
 70
    4
  9
$HYPERLINKBASE
  1

  9
$STYLESHEET
  1

  9
$XEDIT
290
    1
  9
$CEPSNTYPE
380
    0
  9
$PSTYLEMODE
290
    1
  9
$EXTNAMES
290
    1
  9
$PSVPSCALE
 40
1
  9
$OLESTARTUP
290
    0
  9
$SORTENTS
280
  127
  9
$INDEXCTL
280
    0
  9
$HIDETEXT
280
    1
  9
$XCLIPFRAME
290
    0
  9
$HALOGAP
280
    0
  9
$OBSCOLOR
 70
  257
  9
$OBSLTYPE
280
    0
  9
$INTERSECTIONDISPLAY
280
    0
  9
$INTERSECTIONCOLOR
 70
  257
  9
$DIMASSOC
280
    1
  9
$PROJECTNAME
  1

  9
$CAMERADISPLAY
290
    0
  9
$LENSLENGTH
 40
50
  9
$CAMERAHEIGHT
 40
0
  9
$STEPSPERSEC
 40
2
  9
$STEPSIZE
 40
50
  9
$3DDWFPREC
 40
2
  9
$PSOLWIDTH
 40
5
  9
$PSOLHEIGHT
 40
80
  9
$LOFTANG1
 40
1.570796326794897
  9
$LOFTANG2
 40
1.570796326794897
  9
$LOFTMAG1
 40
0
  9
$LOFTMAG2
 40
0
  9
$LOFTPARAM
 70
    7
  9
$LOFTNORMALS
280
    1
  9
$LATITUDE
 40
1
  9
$LONGITUDE
 40
1
  9
$NORTHDIRECTION
 40
0
  9
$TIMEZONE
 70
-8000
  9
$LIGHTGLYPHDISPLAY
280
    1
  9
$TILEMODELIGHTSYNCH
280
    1
  9
$SOLIDHIST
280
    1
  9
$SHOWHIST
280
    1
  9
$DWFFRAME
280
    2
  9
$DGNFRAME
280
    0
  9
$REALWORLDSCALE
290
    1
  9
$INTERFERECOLOR
 62
    1
  9
$CSHADOW
280
    0
  9
$SHADOWPLANELOCATION
 40
0
  0
ENDSEC
  0
SECTION
  2
CLASSES
  0
ENDSEC
  0
SECTION
  2
TABLES
  0
TABLE
  2
VPORT
  5
8
330
0
100
AcDbSymbolTable
 70
    1
  0
VPORT
  5
31
330
2
100
AcDbSymbolTableRecord
100
AcDbViewportTableRecord
  2
*ACTIVE
 70
    0
 10
0
 20
0
 11
1
 21
1
 12
618.9971648740294
 22
373.770228728014
 13
0
 23
0
 14
10
 24
10
 15
10
 25
10
 16
0
 26
0
 36
1
 17
0
 27
0
 37
0
 40
924.2874847562763
 41
1.716059602649007
 42
50
 43
0
 44
0
 50
0
 51
0
 71
    0
 72
  100
 73
    1
 74
    3
 75
    0
 76
    0
 77
    0
 78
    0
281
    0
 65
    1
110
0
120
0
130
0
111
1
121
0
131
0
112
0
122
1
132
0
 79
    0
146
0
348
10020
 60
    7
 61
    5
292
1
282
    1
141
0
142
0
 63
  250
421
3358443
  0
ENDTAB
  0
TABLE
  2
LTYPE
  5
5
330
0
100
AcDbSymbolTable
 70
    4
  0
LTYPE
  5
14
330
5
100
AcDbSymbolTableRecord
100
AcDbLinetypeTableRecord
  2
ByBlock
 70
    0
  3

 72
   65
 73
    0
 40
0
  0
LTYPE
  5
15
330
5
100
AcDbSymbolTableRecord
100
AcDbLinetypeTableRecord
  2
ByLayer
 70
    0
  3

 72
   65
 73
    0
 40
0
  0
LTYPE
  5
16
330
5
100
AcDbSymbolTableRecord
100
AcDbLinetypeTableRecord
  2
Continuous
 70
    0
  3
Solid line
 72
   65
 73
    0
 40
0
  0
LTYPE
  5
32
330
5
100
AcDbSymbolTableRecord
100
AcDbLinetypeTableRecord
  2
DOT
 70
    0
  3
Dot . . . . . . . . . . . . . . . . . . . . . .
 72
   65
 73
    2
 40
6.35
 49
0
 74
    0
 49
-6.35
 74
    0
  0
LTYPE
  5
33
330
5
100
AcDbSymbolTableRecord
100
AcDbLinetypeTableRecord
  2
DOTTINY
 70
    0
  3
Dot (.15x) .....................................
 72
   65
 73
    2
 40
0.9525
 49
0
 74
    0
 49
-0.9525
 74
    0
  0
LTYPE
  5
34
330
5
100
AcDbSymbolTableRecord
100
AcDbLinetypeTableRecord
  2
DOT2
 70
    0
  3
Dot (.5x) .....................................
 72
   65
 73
    2
 40
3.175
 49
0
 74
    0
 49
-3.175
 74
    0
  0
LTYPE
  5
35
330
5
100
AcDbSymbolTableRecord
100
AcDbLinetypeTableRecord
  2
DOTX2
 70
    0
  3
Dot (2x) .  .  .  .  .  .  .  .  .  .  .  .  .
 72
   65
 73
    2
 40
12.7
 49
0
 74
    0
 49
-12.7
 74
    0
  0
LTYPE
  5
36
330
5
100
AcDbSymbolTableRecord
100
AcDbLinetypeTableRecord
  2
DASHED
 70
    0
  3
Dashed _ _ _ _ _ _ _ _ _ _ _ _ _ _ _ _ _
 72
   65
 73
    2
 40
19.05
 49
12.7
 74
    0
 49
-6.35
 74
    0
  0
LTYPE
  5
37
330
5
100
AcDbSymbolTableRecord
100
AcDbLinetypeTableRecord
  2
DASHEDTINY
 70
    0
  3
Dashed (.15x) _ _ _ _ _ _ _ _ _ _ _ _ _ _ _ _ _
 72
   65
 73
    2
 40
2.8575
 49
1.905
 74
    0
 49
-0.9525
 74
    0
  0
LTYPE
  5
38
330
5
100
AcDbSymbolTableRecord
100
AcDbLinetypeTableRecord
  2
DASHED2
 70
    0
  3
Dashed (.5x) _ _ _ _ _ _ _ _ _ _ _ _ _ _ _ _ _
 72
   65
 73
    2
 40
9.524999999999999
 49
6.35
 74
    0
 49
-3.175
 74
    0
  0
LTYPE
  5
39
330
5
100
AcDbSymbolTableRecord
100
AcDbLinetypeTableRecord
  2
DASHEDX2
 70
    0
  3
Dashed (2x) ____  ____  ____  ____  ____  ___
 72
   65
 73
    2
 40
38.09999999999999
 49
25.4
 74
    0
 49
-12.7
 74
    0
  0
LTYPE
  5
3A
330
5
100
AcDbSymbolTableRecord
100
AcDbLinetypeTableRecord
  2
DASHDOT
 70
    0
  3
Dash dot __ . __ . __ . __ . __ . __ . __ . __
 72
   65
 73
    4
 40
25.4
 49
12.7
 74
    0
 49
-6.35
 74
    0
 49
0
 74
    0
 49
-6.35
 74
    0
  0
LTYPE
  5
3B
330
5
100
AcDbSymbolTableRecord
100
AcDbLinetypeTableRecord
  2
DASHDOTTINY
 70
    0
  3
Dash dot (.15x) _._._._._._._._._._._._._._._.
 72
   65
 73
    4
 40
3.81
 49
1.905
 74
    0
 49
-0.9525
 74
    0
 49
0
 74
    0
 49
-0.9525
 74
    0
  0
LTYPE
  5
3C
330
5
100
AcDbSymbolTableRecord
100
AcDbLinetypeTableRecord
  2
DASHDOT2
 70
    0
  3
Dash dot (.5x) _._._._._._._._._._._._._._._.
 72
   65
 73
    4
 40
12.7
 49
6.35
 74
    0
 49
-3.175
 74
    0
 49
0
 74
    0
 49
-3.175
 74
    0
  0
LTYPE
  5
3D
330
5
100
AcDbSymbolTableRecord
100
AcDbLinetypeTableRecord
  2
DASHDOTX2
 70
    0
  3
Dash dot (2x) ____  .  ____  .  ____  .  ___
 72
   65
 73
    4
 40
50.8
 49
25.4
 74
    0
 49
-12.7
 74
    0
 49
0
 74
    0
 49
-12.7
 74
    0
  0
LTYPE
  5
3E
330
5
100
AcDbSymbolTableRecord
100
AcDbLinetypeTableRecord
  2
DIVIDE
 70
    0
  3
Divide ____ . . ____ . . ____ . . ____ . . ____
 72
   65
 73
    6
 40
31.75
 49
12.7
 74
    0
 49
-6.35
 74
    0
 49
0
 74
    0
 49
-6.35
 74
    0
 49
0
 74
    0
 49
-6.35
 74
    0
  0
LTYPE
  5
3F
330
5
100
AcDbSymbolTableRecord
100
AcDbLinetypeTableRecord
  2
DIVIDETINY
 70
    0
  3
Divide (.15x) __..__..__..__..__..__..__..__.._
 72
   65
 73
    6
 40
4.7625
 49
1.905
 74
    0
 49
-0.9525
 74
    0
 49
0
 74
    0
 49
-0.9525
 74
    0
 49
0
 74
    0
 49
-0.9525
 74
    0
  0
LTYPE
  5
40
330
5
100
AcDbSymbolTableRecord
100
AcDbLinetypeTableRecord
  2
DIVIDE2
 70
    0
  3
Divide (.5x) __..__..__..__..__..__..__..__.._
 72
   65
 73
    6
 40
15.875
 49
6.35
 74
    0
 49
-3.175
 74
    0
 49
0
 74
    0
 49
-3.175
 74
    0
 49
0
 74
    0
 49
-3.175
 74
    0
  0
LTYPE
  5
41
330
5
100
AcDbSymbolTableRecord
100
AcDbLinetypeTableRecord
  2
DIVIDEX2
 70
    0
  3
Divide (2x) ________  .  .  ________  .  .  _
 72
   65
 73
    6
 40
63.5
 49
25.4
 74
    0
 49
-12.7
 74
    0
 49
0
 74
    0
 49
-12.7
 74
    0
 49
0
 74
    0
 49
-12.7
 74
    0
  0
LTYPE
  5
42
330
5
100
AcDbSymbolTableRecord
100
AcDbLinetypeTableRecord
  2
BORDER
 70
    0
  3
Border __ __ . __ __ . __ __ . __ __ . __ __ .
 72
   65
 73
    6
 40
44.45
 49
12.7
 74
    0
 49
-6.35
 74
    0
 49
12.7
 74
    0
 49
-6.35
 74
    0
 49
0
 74
    0
 49
-6.35
 74
    0
  0
LTYPE
  5
43
330
5
100
AcDbSymbolTableRecord
100
AcDbLinetypeTableRecord
  2
BORDERTINY
 70
    0
  3
Border (.15x) __.__.__.__.__.__.__.__.__.__.__.
 72
   65
 73
    6
 40
6.6675
 49
1.905
 74
    0
 49
-0.9525
 74
    0
 49
1.905
 74
    0
 49
-0.9525
 74
    0
 49
0
 74
    0
 49
-0.9525
 74
    0
  0
LTYPE
  5
44
330
5
100
AcDbSymbolTableRecord
100
AcDbLinetypeTableRecord
  2
BORDER2
 70
    0
  3
Border (.5x) __.__.__.__.__.__.__.__.__.__.__.
 72
   65
 73
    6
 40
22.225
 49
6.35
 74
    0
 49
-3.175
 74
    0
 49
6.35
 74
    0
 49
-3.175
 74
    0
 49
0
 74
    0
 49
-3.175
 74
    0
  0
LTYPE
  5
45
330
5
100
AcDbSymbolTableRecord
100
AcDbLinetypeTableRecord
  2
BORDERX2
 70
    0
  3
Border (2x) ____  ____  .  ____  ____  .  ___
 72
   65
 73
    6
 40
88.89999999999999
 49
25.4
 74
    0
 49
-12.7
 74
    0
 49
25.4
 74
    0
 49
-12.7
 74
    0
 49
0
 74
    0
 49
-12.7
 74
    0
  0
LTYPE
  5
46
330
5
100
AcDbSymbolTableRecord
100
AcDbLinetypeTableRecord
  2
CENTER
 70
    0
  3
Center ____ _ ____ _ ____ _ ____ _ ____ _ ____
 72
   65
 73
    4
 40
50.8
 49
31.75
 74
    0
 49
-6.35
 74
    0
 49
6.35
 74
    0
 49
-6.35
 74
    0
  0
LTYPE
  5
47
330
5
100
AcDbSymbolTableRecord
100
AcDbLinetypeTableRecord
  2
CENTERTINY
 70
    0
  3
Center (.15x) ___ _ ___ _ ___ _ ___ _ ___ _ ___
 72
   65
 73
    4
 40
7.62
 49
4.7625
 74
    0
 49
-0.9525
 74
    0
 49
0.9525
 74
    0
 49
-0.9525
 74
    0
  0
LTYPE
  5
48
330
5
100
AcDbSymbolTableRecord
100
AcDbLinetypeTableRecord
  2
CENTER2
 70
    0
  3
Center (.5x) ___ _ ___ _ ___ _ ___ _ ___ _ ___
 72
   65
 73
    4
 40
28.575
 49
19.05
 74
    0
 49
-3.175
 74
    0
 49
3.175
 74
    0
 49
-3.175
 74
    0
  0
LTYPE
  5
49
330
5
100
AcDbSymbolTableRecord
100
AcDbLinetypeTableRecord
  2
CENTERX2
 70
    0
  3
Center (2x) ________  __  ________  __  _____
 72
   65
 73
    4
 40
101.6
 49
63.5
 74
    0
 49
-12.7
 74
    0
 49
12.7
 74
    0
 49
-12.7
 74
    0
  0
ENDTAB
  0
TABLE
  2
LAYER
  5
2
330
0
100
AcDbSymbolTable
 70
    1
  0
LAYER
  5
10
330
2
100
AcDbSymbolTableRecord
100
AcDbLayerTableRecord
  2
0
 70
    0
 62
    7
  6
CONTINUOUS
370
    0
390
F
  0
LAYER
  5
4A
330
2
100
AcDbSymbolTableRecord
100
AcDbLayerTableRecord
  2
0001_3900
 70
    0
 62
    4
  6
CONTINUOUS
370
   -3
390
F
  0
LAYER
  5
4B
330
2
100
AcDbSymbolTableRecord
100
AcDbLayerTableRecord
  2
0001_4000
 70
    0
 62
    5
  6
CONTINUOUS
370
   -3
390
F
  0
LAYER
  5
4C
330
2
100
AcDbSymbolTableRecord
100
AcDbLayerTableRecord
  2
0001_4100
 70
    0
 62
    6
  6
CONTINUOUS
370
   -3
390
F
  0
LAYER
  5
4D
330
2
100
AcDbSymbolTableRecord
100
AcDbLayerTableRecord
  2
0001_4150
 70
    0
 62
    1
  6
CONTINUOUS
370
   -3
390
F
  0
LAYER
  5
4E
330
2
100
AcDbSymbolTableRecord
100
AcDbLayerTableRecord
  2
0001_4200
 70
    0
 62
    7
  6
CONTINUOUS
370
   -3
390
F
  0
LAYER
  5
4F
330
2
100
AcDbSymbolTableRecord
100
AcDbLayerTableRecord
  2
0001_4300
 70
    0
 62
    8
  6
CONTINUOUS
370
   -3
390
F
  0
LAYER
  5
50
330
2
100
AcDbSymbolTableRecord
100
AcDbLayerTableRecord
  2
0001_4400
 70
    0
 62
    1
  6
CONTINUOUS
370
   -3
390
F
  0
LAYER
  5
51
330
2
100
AcDbSymbolTableRecord
100
AcDbLayerTableRecord
  2
0001_4500
 70
    0
 62
    2
  6
CONTINUOUS
370
   -3
390
F
  0
LAYER
  5
52
330
2
100
AcDbSymbolTableRecord
100
AcDbLayerTableRecord
  2
0001_4600
 70
    0
 62
    3
  6
CONTINUOUS
370
   -3
390
F
  0
LAYER
  5
53
330
2
100
AcDbSymbolTableRecord
100
AcDbLayerTableRecord
  2
0002_3900
 70
    0
 62
    4
  6
CONTINUOUS
370
   -3
390
F
  0
LAYER
  5
54
330
2
100
AcDbSymbolTableRecord
100
AcDbLayerTableRecord
  2
0002_4000
 70
    0
 62
    5
  6
CONTINUOUS
370
   -3
390
F
  0
LAYER
  5
55
330
2
100
AcDbSymbolTableRecord
100
AcDbLayerTableRecord
  2
0002_4100
 70
    0
 62
    6
  6
CONTINUOUS
370
   -3
390
F
  0
LAYER
  5
56
330
2
100
AcDbSymbolTableRecord
100
AcDbLayerTableRecord
  2
0002_4150
 70
    0
 62
    2
  6
CONTINUOUS
370
   -3
390
F
  0
LAYER
  5
57
330
2
100
AcDbSymbolTableRecord
100
AcDbLayerTableRecord
  2
0002_4200
 70
    0
 62
    7
  6
CONTINUOUS
370
   -3
390
F
  0
LAYER
  5
58
330
2
100
AcDbSymbolTableRecord
100
AcDbLayerTableRecord
  2
0002_4300
 70
    0
 62
    8
  6
CONTINUOUS
370
   -3
390
F
  0
LAYER
  5
59
330
2
100
AcDbSymbolTableRecord
100
AcDbLayerTableRecord
  2
0002_4400
 70
    0
 62
    1
  6
CONTINUOUS
370
   -3
390
F
  0
LAYER
  5
5A
330
2
100
AcDbSymbolTableRecord
100
AcDbLayerTableRecord
  2
0002_4500
 70
    0
 62
    2
  6
CONTINUOUS
370
   -3
390
F
  0
LAYER
  5
5B
330
2
100
AcDbSymbolTableRecord
100
AcDbLayerTableRecord
  2
0002_4600
 70
    0
 62
    3
  6
CONTINUOUS
370
   -3
390
F
  0
LAYER
  5
5C
330
2
100
AcDbSymbolTableRecord
100
AcDbLayerTableRecord
  2
0003_3900
 70
    0
 62
    4
  6
CONTINUOUS
370
   -3
390
F
  0
LAYER
  5
5D
330
2
100
AcDbSymbolTableRecord
100
AcDbLayerTableRecord
  2
0003_4000
 70
    0
 62
    5
  6
CONTINUOUS
370
   -3
390
F
  0
LAYER
  5
5E
330
2
100
AcDbSymbolTableRecord
100
AcDbLayerTableRecord
  2
0003_4100
 70
    0
 62
    6
  6
CONTINUOUS
370
   -3
390
F
  0
LAYER
  5
5F
330
2
100
AcDbSymbolTableRecord
100
AcDbLayerTableRecord
  2
0003_4150
 70
    0
 62
    3
  6
CONTINUOUS
370
   -3
390
F
  0
LAYER
  5
60
330
2
100
AcDbSymbolTableRecord
100
AcDbLayerTableRecord
  2
0003_4200
 70
    0
 62
    7
  6
CONTINUOUS
370
   -3
390
F
  0
LAYER
  5
61
330
2
100
AcDbSymbolTableRecord
100
AcDbLayerTableRecord
  2
0003_4300
 70
    0
 62
    8
  6
CONTINUOUS
370
   -3
390
F
  0
LAYER
  5
62
330
2
100
AcDbSymbolTableRecord
100
AcDbLayerTableRecord
  2
0003_4400
 70
    0
 62
    1
  6
CONTINUOUS
370
   -3
390
F
  0
LAYER
  5
63
330
2
100
AcDbSymbolTableRecord
100
AcDbLayerTableRecord
  2
0003_4500
 70
    0
 62
    2
  6
CONTINUOUS
370
   -3
390
F
  0
LAYER
  5
64
330
2
100
AcDbSymbolTableRecord
100
AcDbLayerTableRecord
  2
0003_4600
 70
    0
 62
    3
  6
CONTINUOUS
370
   -3
390
F
  0
LAYER
  5
65
330
2
100
AcDbSymbolTableRecord
100
AcDbLayerTableRecord
  2
0004_3900
 70
    0
 62
    4
  6
CONTINUOUS
370
   -3
390
F
  0
LAYER
  5
66
330
2
100
AcDbSymbolTableRecord
100
AcDbLayerTableRecord
  2
0004_4000
 70
    0
 62
    5
  6
CONTINUOUS
370
   -3
390
F
  0
LAYER
  5
67
330
2
100
AcDbSymbolTableRecord
100
AcDbLayerTableRecord
  2
0004_4100
 70
    0
 62
    6
  6
CONTINUOUS
370
   -3
390
F
  0
LAYER
  5
68
330
2
100
AcDbSymbolTableRecord
100
AcDbLayerTableRecord
  2
0004_4150
 70
    0
 62
    4
  6
CONTINUOUS
370
   -3
390
F
  0
LAYER
  5
69
330
2
100
AcDbSymbolTableRecord
100
AcDbLayerTableRecord
  2
0004_4200
 70
    0
 62
    7
  6
CONTINUOUS
370
   -3
390
F
  0
LAYER
  5
6A
330
2
100
AcDbSymbolTableRecord
100
AcDbLayerTableRecord
  2
0004_4300
 70
    0
 62
    8
  6
CONTINUOUS
370
   -3
390
F
  0
LAYER
  5
6B
330
2
100
AcDbSymbolTableRecord
100
AcDbLayerTableRecord
  2
0004_4400
 70
    0
 62
    1
  6
CONTINUOUS
370
   -3
390
F
  0
LAYER
  5
6C
330
2
100
AcDbSymbolTableRecord
100
AcDbLayerTableRecord
  2
0004_4500
 70
    0
 62
    2
  6
CONTINUOUS
370
   -3
390
F
  0
LAYER
  5
6D
330
2
100
AcDbSymbolTableRecord
100
AcDbLayerTableRecord
  2
0004_4600
 70
    0
 62
    3
  6
CONTINUOUS
370
   -3
390
F
  0
LAYER
  5
6E
330
2
100
AcDbSymbolTableRecord
100
AcDbLayerTableRecord
  2
0005_3900
 70
    0
 62
    4
  6
CONTINUOUS
370
   -3
390
F
  0
LAYER
  5
6F
330
2
100
AcDbSymbolTableRecord
100
AcDbLayerTableRecord
  2
0005_4000
 70
    0
 62
    5
  6
CONTINUOUS
370
   -3
390
F
  0
LAYER
  5
70
330
2
100
AcDbSymbolTableRecord
100
AcDbLayerTableRecord
  2
0005_4100
 70
    0
 62
    6
  6
CONTINUOUS
370
   -3
390
F
  0
LAYER
  5
71
330
2
100
AcDbSymbolTableRecord
100
AcDbLayerTableRecord
  2
0005_4150
 70
    0
 62
    5
  6
CONTINUOUS
370
   -3
390
F
  0
LAYER
  5
72
330
2
100
AcDbSymbolTableRecord
100
AcDbLayerTableRecord
  2
0005_4200
 70
    0
 62
    7
  6
CONTINUOUS
370
   -3
390
F
  0
LAYER
  5
73
330
2
100
AcDbSymbolTableRecord
100
AcDbLayerTableRecord
  2
0005_4300
 70
    0
 62
    8
  6
CONTINUOUS
370
   -3
390
F
  0
LAYER
  5
74
330
2
100
AcDbSymbolTableRecord
100
AcDbLayerTableRecord
  2
0005_4400
 70
    0
 62
    1
  6
CONTINUOUS
370
   -3
390
F
  0
LAYER
  5
75
330
2
100
AcDbSymbolTableRecord
100
AcDbLayerTableRecord
  2
0005_4500
 70
    0
 62
    2
  6
CONTINUOUS
370
   -3
390
F
  0
LAYER
  5
76
330
2
100
AcDbSymbolTableRecord
100
AcDbLayerTableRecord
  2
0005_4600
 70
    0
 62
    3
  6
CONTINUOUS
370
   -3
390
F
  0
LAYER
  5
77
330
2
100
AcDbSymbolTableRecord
100
AcDbLayerTableRecord
  2
0006_3900
 70
    0
 62
    4
  6
CONTINUOUS
370
   -3
390
F
  0
LAYER
  5
78
330
2
100
AcDbSymbolTableRecord
100
AcDbLayerTableRecord
  2
0006_4000
 70
    0
 62
    5
  6
CONTINUOUS
370
   -3
390
F
  0
LAYER
  5
79
330
2
100
AcDbSymbolTableRecord
100
AcDbLayerTableRecord
  2
0006_4100
 70
    0
 62
    6
  6
CONTINUOUS
370
   -3
390
F
  0
LAYER
  5
7A
330
2
100
AcDbSymbolTableRecord
100
AcDbLayerTableRecord
  2
0006_4150
 70
    0
 62
    6
  6
CONTINUOUS
370
   -3
390
F
  0
LAYER
  5
7B
330
2
100
AcDbSymbolTableRecord
100
AcDbLayerTableRecord
  2
0006_4200
 70
    0
 62
    7
  6
CONTINUOUS
370
   -3
390
F
  0
LAYER
  5
7C
330
2
100
AcDbSymbolTableRecord
100
AcDbLayerTableRecord
  2
0006_4300
 70
    0
 62
    8
  6
CONTINUOUS
370
   -3
390
F
  0
LAYER
  5
7D
330
2
100
AcDbSymbolTableRecord
100
AcDbLayerTableRecord
  2
0006_4400
 70
    0
 62
    1
  6
CONTINUOUS
370
   -3
390
F
  0
LAYER
  5
7E
330
2
100
AcDbSymbolTableRecord
100
AcDbLayerTableRecord
  2
0006_4500
 70
    0
 62
    2
  6
CONTINUOUS
370
   -3
390
F
  0
LAYER
  5
7F
330
2
100
AcDbSymbolTableRecord
100
AcDbLayerTableRecord
  2
0006_4600
 70
    0
 62
    3
  6
CONTINUOUS
370
   -3
390
F
  0
LAYER
  5
80
330
2
100
AcDbSymbolTableRecord
100
AcDbLayerTableRecord
  2
0007_3900
 70
    0
 62
    4
  6
CONTINUOUS
370
   -3
390
F
  0
LAYER
  5
81
330
2
100
AcDbSymbolTableRecord
100
AcDbLayerTableRecord
  2
0007_4000
 70
    0
 62
    5
  6
CONTINUOUS
370
   -3
390
F
  0
LAYER
  5
82
330
2
100
AcDbSymbolTableRecord
100
AcDbLayerTableRecord
  2
0007_4100
 70
    0
 62
    6
  6
CONTINUOUS
370
   -3
390
F
  0
LAYER
  5
83
330
2
100
AcDbSymbolTableRecord
100
AcDbLayerTableRecord
  2
0007_4150
 70
    0
 62
    7
  6
CONTINUOUS
370
   -3
390
F
  0
LAYER
  5
84
330
2
100
AcDbSymbolTableRecord
100
AcDbLayerTableRecord
  2
0007_4200
 70
    0
 62
    7
  6
CONTINUOUS
370
   -3
390
F
  0
LAYER
  5
85
330
2
100
AcDbSymbolTableRecord
100
AcDbLayerTableRecord
  2
0007_4300
 70
    0
 62
    8
  6
CONTINUOUS
370
   -3
390
F
  0
LAYER
  5
86
330
2
100
AcDbSymbolTableRecord
100
AcDbLayerTableRecord
  2
0007_4400
 70
    0
 62
    1
  6
CONTINUOUS
370
   -3
390
F
  0
LAYER
  5
87
330
2
100
AcDbSymbolTableRecord
100
AcDbLayerTableRecord
  2
0007_4500
 70
    0
 62
    2
  6
CONTINUOUS
370
   -3
390
F
  0
LAYER
  5
88
330
2
100
AcDbSymbolTableRecord
100
AcDbLayerTableRecord
  2
0007_4600
 70
    0
 62
    3
  6
CONTINUOUS
370
   -3
390
F
  0
LAYER
  5
89
330
2
100
AcDbSymbolTableRecord
100
AcDbLayerTableRecord
  2
0008_3900
 70
    0
 62
    4
  6
CONTINUOUS
370
   -3
390
F
  0
LAYER
  5
8A
330
2
100
AcDbSymbolTableRecord
100
AcDbLayerTableRecord
  2
0008_4000
 70
    0
 62
    5
  6
CONTINUOUS
370
   -3
390
F
  0
LAYER
  5
8B
330
2
100
AcDbSymbolTableRecord
100
AcDbLayerTableRecord
  2
0008_4100
 70
    0
 62
    6
  6
CONTINUOUS
370
   -3
390
F
  0
LAYER
  5
8C
330
2
100
AcDbSymbolTableRecord
100
AcDbLayerTableRecord
  2
0008_4150
 70
    0
 62
    8
  6
CONTINUOUS
370
   -3
390
F
  0
LAYER
  5
8D
330
2
100
AcDbSymbolTableRecord
100
AcDbLayerTableRecord
  2
0008_4200
 70
    0
 62
    7
  6
CONTINUOUS
370
   -3
390
F
  0
LAYER
  5
8E
330
2
100
AcDbSymbolTableRecord
100
AcDbLayerTableRecord
  2
0008_4300
 70
    0
 62
    8
  6
CONTINUOUS
370
   -3
390
F
  0
LAYER
  5
8F
330
2
100
AcDbSymbolTableRecord
100
AcDbLayerTableRecord
  2
0008_4400
 70
    0
 62
    1
  6
CONTINUOUS
370
   -3
390
F
  0
LAYER
  5
90
330
2
100
AcDbSymbolTableRecord
100
AcDbLayerTableRecord
  2
0008_4500
 70
    0
 62
    2
  6
CONTINUOUS
370
   -3
390
F
  0
LAYER
  5
91
330
2
100
AcDbSymbolTableRecord
100
AcDbLayerTableRecord
  2
0008_4600
 70
    0
 62
    3
  6
CONTINUOUS
370
   -3
390
F
  0
LAYER
  5
92
330
2
100
AcDbSymbolTableRecord
100
AcDbLayerTableRecord
  2
0009_3900
 70
    0
 62
    4
  6
CONTINUOUS
370
   -3
390
F
  0
LAYER
  5
93
330
2
100
AcDbSymbolTableRecord
100
AcDbLayerTableRecord
  2
0009_4000
 70
    0
 62
    5
  6
CONTINUOUS
370
   -3
390
F
  0
LAYER
  5
94
330
2
100
AcDbSymbolTableRecord
100
AcDbLayerTableRecord
  2
0009_4100
 70
    0
 62
    6
  6
CONTINUOUS
370
   -3
390
F
  0
LAYER
  5
95
330
2
100
AcDbSymbolTableRecord
100
AcDbLayerTableRecord
  2
0009_4150
 70
    0
 62
    1
  6
CONTINUOUS
370
   -3
390
F
  0
LAYER
  5
96
330
2
100
AcDbSymbolTableRecord
100
AcDbLayerTableRecord
  2
0009_4200
 70
    0
 62
    7
  6
CONTINUOUS
370
   -3
390
F
  0
LAYER
  5
97
330
2
100
AcDbSymbolTableRecord
100
AcDbLayerTableRecord
  2
0009_4300
 70
    0
 62
    8
  6
CONTINUOUS
370
   -3
390
F
  0
LAYER
  5
98
330
2
100
AcDbSymbolTableRecord
100
AcDbLayerTableRecord
  2
0009_4400
 70
    0
 62
    1
  6
CONTINUOUS
370
   -3
390
F
  0
LAYER
  5
99
330
2
100
AcDbSymbolTableRecord
100
AcDbLayerTableRecord
  2
0009_4500
 70
    0
 62
    2
  6
CONTINUOUS
370
   -3
390
F
  0
LAYER
  5
9A
330
2
100
AcDbSymbolTableRecord
100
AcDbLayerTableRecord
  2
0009_4600
 70
    0
 62
    3
  6
CONTINUOUS
370
   -3
390
F
  0
LAYER
  5
9B
330
2
100
AcDbSymbolTableRecord
100
AcDbLayerTableRecord
  2
0010_3900
 70
    0
 62
    4
  6
CONTINUOUS
370
   -3
390
F
  0
LAYER
  5
9C
330
2
100
AcDbSymbolTableRecord
100
AcDbLayerTableRecord
  2
0010_4000
 70
    0
 62
    5
  6
CONTINUOUS
370
   -3
390
F
  0
LAYER
  5
9D
330
2
100
AcDbSymbolTableRecord
100
AcDbLayerTableRecord
  2
0010_4100
 70
    0
 62
    6
  6
CONTINUOUS
370
   -3
390
F
  0
LAYER
  5
9E
330
2
100
AcDbSymbolTableRecord
100
AcDbLayerTableRecord
  2
0010_4150
 70
    0
 62
    2
  6
CONTINUOUS
370
   -3
390
F
  0
LAYER
  5
9F
330
2
100
AcDbSymbolTableRecord
100
AcDbLayerTableRecord
  2
0010_4200
 70
    0
 62
    7
  6
CONTINUOUS
370
   -3
390
F
  0
LAYER
  5
A0
330
2
100
AcDbSymbolTableRecord
100
AcDbLayerTableRecord
  2
0010_4300
 70
    0
 62
    8
  6
CONTINUOUS
370
   -3
390
F
  0
LAYER
  5
A1
330
2
100
AcDbSymbolTableRecord
100
AcDbLayerTableRecord
  2
0010_4400
 70
    0
 62
    1
  6
CONTINUOUS
370
   -3
390
F
  0
LAYER
  5
A2
330
2
100
AcDbSymbolTableRecord
100
AcDbLayerTableRecord
  2
0010_4500
 70
    0
 62
    2
  6
CONTINUOUS
370
   -3
390
F
  0
LAYER
  5
A3
330
2
100
AcDbSymbolTableRecord
100
AcDbLayerTableRecord
  2
0010_4600
 70
    0
 62
    3
  6
CONTINUOUS
370
   -3
390
F
  0
LAYER
  5
A4
330
2
100
AcDbSymbolTableRecord
100
AcDbLayerTableRecord
  2
0012_3900
 70
    0
 62
    4
  6
CONTINUOUS
370
   -3
390
F
  0
LAYER
  5
A5
330
2
100
AcDbSymbolTableRecord
100
AcDbLayerTableRecord
  2
0012_4000
 70
    0
 62
    5
  6
CONTINUOUS
370
   -3
390
F
  0
LAYER
  5
A6
330
2
100
AcDbSymbolTableRecord
100
AcDbLayerTableRecord
  2
0012_4100
 70
    0
 62
    6
  6
CONTINUOUS
370
   -3
390
F
  0
LAYER
  5
A7
330
2
100
AcDbSymbolTableRecord
100
AcDbLayerTableRecord
  2
0012_4150
 70
    0
 62
    3
  6
CONTINUOUS
370
   -3
390
F
  0
LAYER
  5
A8
330
2
100
AcDbSymbolTableRecord
100
AcDbLayerTableRecord
  2
0012_4200
 70
    0
 62
    7
  6
CONTINUOUS
370
   -3
390
F
  0
LAYER
  5
A9
330
2
100
AcDbSymbolTableRecord
100
AcDbLayerTableRecord
  2
0012_4300
 70
    0
 62
    8
  6
CONTINUOUS
370
   -3
390
F
  0
LAYER
  5
AA
330
2
100
AcDbSymbolTableRecord
100
AcDbLayerTableRecord
  2
0012_4400
 70
    0
 62
    1
  6
CONTINUOUS
370
   -3
390
F
  0
LAYER
  5
AB
330
2
100
AcDbSymbolTableRecord
100
AcDbLayerTableRecord
  2
0012_4500
 70
    0
 62
    2
  6
CONTINUOUS
370
   -3
390
F
  0
LAYER
  5
AC
330
2
100
AcDbSymbolTableRecord
100
AcDbLayerTableRecord
  2
0012_4600
 70
    0
 62
    3
  6
CONTINUOUS
370
   -3
390
F
  0
ENDTAB
  0
TABLE
  2
STYLE
  5
3
330
0
100
AcDbSymbolTable
 70
    3
  0
STYLE
  5
AD
330
2
100
AcDbSymbolTableRecord
100
AcDbTextStyleTableRecord
  2
Standard
 70
    0
 40
0
 41
1
 50
0
 71
    0
 42
1
  3
txt
  4

  0
ENDTAB
  0
TABLE
  2
VIEW
  5
6
330
0
100
AcDbSymbolTable
 70
    0
  0
ENDTAB
  0
TABLE
  2
UCS
  5
7
330
0
100
AcDbSymbolTable
 70
    0
  0
ENDTAB
  0
TABLE
  2
APPID
  5
9
330
0
100
AcDbSymbolTable
 70
    1
  0
APPID
  5
12
330
9
100
AcDbSymbolTableRecord
100
AcDbRegAppTableRecord
  2
ACAD
 70
    0
  0
APPID
  5
AE
330
9
100
AcDbSymbolTableRecord
100
AcDbRegAppTableRecord
  2
LibreCad
 70
    0
  0
ENDTAB
  0
TABLE
  2
DIMSTYLE
  5
A
330
0
100
AcDbSymbolTable
 70
    1
100
AcDbDimStyleTable
 71
    1
  0
DIMSTYLE
105
AF
330
A
100
AcDbSymbolTableRecord
100
AcDbDimStyleTableRecord
  2
Standard
 70
    0
 40
1
 41
2.5
 42
0.625
 43
0.38
 44
1.25
 45
0
 46
0
 47
0
 48
0
 49
1
140
2.5
141
0.09
142
2.5
143
25.4
144
1
145
0
146
1
147
0.625
148
0
 71
    0
 72
    0
 73
    0
 74
    1
 75
    0
 76
    0
 77
    0
 78
    1
 79
    0
170
    0
171
    2
172
    0
173
    0
174
    0
175
    0
176
    0
177
    0
178
    0
179
    0
271
    2
272
    4
273
    2
274
    2
275
    0
276
    0
277
    2
278
    0
279
    0
280
    0
281
    0
282
    0
283
    1
284
    0
285
    0
286
    0
288
    0
289
    3
340
standard
341

371
   -2
372
   -2
  0
ENDTAB
  0
TABLE
  2
BLOCK_RECORD
  5
1
330
0
100
AcDbSymbolTable
 70
    2
  0
BLOCK_RECORD
  5
1F
330
1
100
AcDbSymbolTableRecord
100
AcDbBlockTableRecord
  2
*Model_Space
 70
    0
280
    1
281
    0
  0
BLOCK_RECORD
  5
1E
330
1
100
AcDbSymbolTableRecord
100
AcDbBlockTableRecord
  2
*Paper_Space
 70
    0
280
    1
281
    0
  0
ENDTAB
  0
ENDSEC
  0
SECTION
  2
BLOCKS
  0
BLOCK
  5
20
330
1F
100
AcDbEntity
  8
0
100
AcDbBlockBegin
  2
*Model_Space
 70
    0
 10
0
 20
0
 30
0
  3
*Model_Space
  1

  0
ENDBLK
  5
21
330
1F
100
AcDbEntity
  8
0
100
AcDbBlockEnd
  0
BLOCK
  5
1C
330
1B
100
AcDbEntity
  8
0
100
AcDbBlockBegin
  2
*Paper_Space
 70
    0
 10
0
 20
0
 30
0
  3
*Paper_Space
  1

  0
ENDBLK
  5
1D
330
1F
100
AcDbEntity
  8
0
100
AcDbBlockEnd
  0
ENDSEC
  0
SECTION
  2
ENTITIES
  0
LINE
  5
B0
100
AcDbEntity
  8
0001_4150
  6
DASHED
 62
    3
370
   -1
100
AcDbLine
 10
617.62
 20
255.89
 11
348.92
 21
255.7
  0
LWPOLYLINE
  5
B1
100
AcDbEntity
  8
0001_4150
  6
CONTINUOUS
 62
    5
370
   -1
100
AcDbPolyline
 90
    5
 70
    0
 43
0
 10
421.49
 20
209.09
 10
421.47
 20
210.24
 10
421.45
 20
211.38
 10
421.42
 20
213.2
 10
421.4
 20
214.2
  0
LWPOLYLINE
  5
B2
100
AcDbEntity
  8
0001_4150
  6
CONTINUOUS
 62
    5
370
   -1
100
AcDbPolyline
 90
   73
 70
    0
 43
0
 10
506.67
 20
163.95
 10
507.85
 20
164.52
 10
509.5
 20
165.33
 10
511.17
 20
166.16
 10
512.84
 20
166.99
 10
514.53
 20
167.85
 10
516.24
 20
168.72
 10
517.95
 20
169.62
 10
519.66
 20
170.53
 10
521.38
 20
171.46
 10
523.08
 20
172.39
 10
524.76
 20
173.32
 10
526.39
 20
174.23
 10
527.97
 20
175.13
 10
529.48
 20
175.99
 10
530.91
 20
176.82
 10
532.24
 20
177.59
 10
533.84
 20
178.54
 10
535.3099999999999
 20
179.43
 10
536.74
 20
180.33
 10
538.1900000000001
 20
181.27
 10
539.74
 20
182.31
 10
541.01
 20
183.19
 10
542.36
 20
184.13
 10
543.77
 20
185.14
 10
545.23
 20
186.2
 10
546.73
 20
187.3
 10
548.24
 20
188.42
 10
549.75
 20
189.56
 10
551.25
 20
190.7
 10
552.72
 20
191.83
 10
554.39
 20
193.14
 10
556
 20
194.43
 10
557.54
 20
195.68
 10
559.03
 20
196.92
 10
560.46
 20
198.13
 10
561.84
 20
199.33
 10
563.17
 20
200.5
 10
564.71
 20
201.89
 10
566.1900000000001
 20
203.27
 10
567.61
 20
204.65
 10
569
 20
206.03
 10
570.34
 20
207.42
 10
571.6
 20
208.77
 10
572.8200000000001
 20
210.15
 10
574.01
 20
211.53
 10
575.16
 20
212.93
 10
576.26
 20
214.34
 10
577.48
 20
215.98
 10
578.63
 20
217.62
 10
579.71
 20
219.25
 10
580.71
 20
220.86
 10
581.55
 20
222.3
 10
582.34
 20
223.74
 10
583.09
 20
225.19
 10
583.8099999999999
 20
226.67
 10
584.54
 20
228.31
 10
585.25
 20
230
 10
585.9400000000001
 20
231.74
 10
586.59
 20
233.55
 10
587.13
 20
235.15
 10
587.64
 20
236.79
 10
588.12
 20
238.47
 10
588.5700000000001
 20
240.17
 10
588.99
 20
241.9
 10
589.39
 20
243.7
 10
589.73
 20
245.51
 10
590.03
 20
247.32
 10
590.28
 20
249.12
 10
590.46
 20
250.91
 10
590.5700000000001
 20
252.58
 10
590.64
 20
254.22
 10
590.66
 20
255.87
  0
LWPOLYLINE
  5
B3
100
AcDbEntity
  8
0001_4150
  6
CONTINUOUS
 62
    5
370
   -1
100
AcDbPolyline
 90
    5
 70
    0
 43
0
 10
421.4
 20
214.2
 10
422.47
 20
213.1
 10
423.86
 20
211.67
 10
425.25
 20
210.25
 10
426.5
 20
208.96
  0
LWPOLYLINE
  5
B4
100
AcDbEntity
  8
0001_4150
  6
CONTINUOUS
 62
    5
370
   -1
100
AcDbPolyline
 90
    4
 70
    0
 43
0
 10
503.54
 20
166.07
 10
504.88
 20
165.16
 10
506.22
 20
164.26
 10
506.67
 20
163.95
  0
LWPOLYLINE
  5
B5
100
AcDbEntity
  8
0001_4150
  6
CONTINUOUS
 62
    5
370
   -1
100
AcDbPolyline
 90
   72
 70
    0
 43
0
 10
426.5
 20
208.96
 10
428.22
 20
209.26
 10
430.19
 20
209.61
 10
432.16
 20
209.95
 10
434.12
 20
210.3
 10
436.07
 20
210.64
 10
438.02
 20
210.98
 10
439.96
 20
211.31
 10
441.88
 20
211.64
 10
443.79
 20
211.97
 10
445.69
 20
212.3
 10
447.58
 20
212.62
 10
449.45
 20
212.94
 10
451.3
 20
213.25
 10
453.13
 20
213.55
 10
454.95
 20
213.86
 10
456.74
 20
214.15
 10
458.51
 20
214.44
 10
460.26
 20
214.72
 10
462.54
 20
215.09
 10
464.77
 20
215.44
 10
466.93
 20
215.77
 10
469.01
 20
216.09
 10
471.01
 20
216.39
 10
472.91
 20
216.68
 10
474.69
 20
216.94
 10
476.36
 20
217.18
 10
477.9
 20
217.39
 10
479.29
 20
217.58
 10
480.53
 20
217.74
 10
482.27
 20
217.94
 10
482.86
 20
217.99
 10
483.41
 20
218
 10
483.92
 20
217.98
 10
484.4
 20
217.92
 10
484.83
 20
217.83
 10
485.16
 20
217.72
 10
485.47
 20
217.6
 10
485.78
 20
217.45
 10
486.08
 20
217.29
 10
486.45
 20
217.06
 10
486.79
 20
216.8
 10
487.11
 20
216.54
 10
487.5
 20
216.18
 10
487.86
 20
215.76
 10
488.56
 20
214.56
 10
489.39
 20
212.56
 10
489.81
 20
211.41
 10
490.27
 20
210.07
 10
490.77
 20
208.56
 10
491.31
 20
206.89
 10
491.88
 20
205.09
 10
492.47
 20
203.18
 10
493.09
 20
201.17
 10
493.73
 20
199.08
 10
494.37
 20
196.93
 10
495.03
 20
194.73
 10
495.68
 20
192.51
 10
496.34
 20
190.29
 10
496.99
 20
188.07
 10
497.63
 20
185.88
 10
498.25
 20
183.75
 10
498.86
 20
181.67
 10
499.43
 20
179.68
 10
499.98
 20
177.8
 10
500.5
 20
176.03
 10
500.97
 20
174.4
 10
501.4
 20
172.92
 10
501.79
 20
171.63
 10
502.59
 20
168.99
 10
503.13
 20
167.29
 10
503.54
 20
166.07
  0
LWPOLYLINE
  5
B6
100
AcDbEntity
  8
0001_4150
  6
CONTINUOUS
 62
    5
370
   -1
100
AcDbPolyline
 90
   59
 70
    0
 43
0
 10
421.49
 20
209.09
 10
419.72
 20
208.87
 10
417.92
 20
208.65
 10
416.06
 20
208.42
 10
414.11
 20
208.2
 10
412.04
 20
207.97
 10
409.83
 20
207.75
 10
408.01
 20
207.57
 10
406.11
 20
207.39
 10
404.14
 20
207.22
 10
402.14
 20
207.06
 10
400.12
 20
206.91
 10
398.1
 20
206.77
 10
396.1
 20
206.65
 10
394.16
 20
206.54
 10
392.28
 20
206.46
 10
390.5
 20
206.41
 10
388.47
 20
206.38
 10
386.6
 20
206.39
 10
384.85
 20
206.44
 10
383.21
 20
206.53
 10
381.67
 20
206.65
 10
380.2
 20
206.8
 10
378.52
 20
207.03
 10
376.89
 20
207.32
 10
375.31
 20
207.69
 10
373.76
 20
208.16
 10
371.86
 20
208.88
 10
370.08
 20
209.69
 10
368.55
 20
210.5
 10
367.22
 20
211.36
 10
366.1
 20
212.35
 10
365.24
 20
213.32
 10
364.4
 20
214.43
 10
363.59
 20
215.62
 10
362.81
 20
216.94
 10
362.1
 20
218.33
 10
361.46
 20
219.88
 10
360.95
 20
221.45
 10
360.48
 20
223.13
 10
360.07
 20
224.86
 10
359.71
 20
226.58
 10
359.43
 20
228.04
 10
359.18
 20
229.51
 10
358.95
 20
231.06
 10
358.75
 20
232.76
 10
358.55
 20
234.67
 10
358.41
 20
236.34
 10
358.27
 20
238.13
 10
358.14
 20
240.01
 10
358.03
 20
241.94
 10
357.92
 20
243.86
 10
357.82
 20
245.73
 10
357.75
 20
247.52
 10
357.68
 20
249.18
 10
357.64
 20
250.66
 10
357.61
 20
252.72
 10
357.61
 20
254.36
 10
357.63
 20
255.7
  0
LWPOLYLINE
  5
B7
100
AcDbEntity
  8
0001_4150
  6
CONTINUOUS
 62
    5
370
   -1
100
AcDbPolyline
 90
    5
 70
    0
 43
0
 10
421.43
 20
302.4
 10
421.41
 20
301.26
 10
421.39
 20
300.12
 10
421.36
 20
298.29
 10
421.35
 20
297.3
  0
LWPOLYLINE
  5
B8
100
AcDbEntity
  8
0001_4150
  6
CONTINUOUS
 62
    5
370
   -1
100
AcDbPolyline
 90
    5
 70
    0
 43
0
 10
421.35
 20
297.3
 10
422.41
 20
298.4
 10
423.8
 20
299.82
 10
425.19
 20
301.25
 10
426.44
 20
302.54
  0
LWPOLYLINE
  5
B9
100
AcDbEntity
  8
0001_4150
  6
CONTINUOUS
 62
    5
370
   -1
100
AcDbPolyline
 90
    4
 70
    0
 43
0
 10
503.41
 20
345.54
 10
504.75
 20
346.45
 10
506.09
 20
347.36
 10
506.54
 20
347.66
  0
LWPOLYLINE
  5
BA
100
AcDbEntity
  8
0001_4150
  6
CONTINUOUS
 62
    5
370
   -1
100
AcDbPolyline
 90
   72
 70
    0
 43
0
 10
426.44
 20
302.54
 10
428.15
 20
302.24
 10
430.12
 20
301.9
 10
432.09
 20
301.55
 10
434.06
 20
301.21
 10
436.01
 20
300.88
 10
437.96
 20
300.54
 10
439.89
 20
300.21
 10
441.82
 20
299.88
 10
443.73
 20
299.55
 10
445.63
 20
299.23
 10
447.52
 20
298.91
 10
449.39
 20
298.6
 10
451.24
 20
298.29
 10
453.08
 20
297.98
 10
454.89
 20
297.69
 10
456.68
 20
297.39
 10
458.46
 20
297.11
 10
460.2
 20
296.83
 10
462.48
 20
296.47
 10
464.71
 20
296.12
 10
466.87
 20
295.79
 10
468.95
 20
295.47
 10
470.95
 20
295.17
 10
472.85
 20
294.89
 10
474.64
 20
294.63
 10
476.31
 20
294.4
 10
477.84
 20
294.18
 10
479.24
 20
294
 10
480.48
 20
293.83
 10
482.22
 20
293.64
 10
482.81
 20
293.59
 10
483.36
 20
293.58
 10
483.86
 20
293.6
 10
484.34
 20
293.66
 10
484.77
 20
293.76
 10
485.1
 20
293.86
 10
485.42
 20
293.99
 10
485.73
 20
294.13
 10
486.02
 20
294.3
 10
486.39
 20
294.53
 10
486.74
 20
294.78
 10
487.06
 20
295.04
 10
487.44
 20
295.41
 10
487.8
 20
295.83
 10
488.5
 20
297.03
 10
489.33
 20
299.03
 10
489.74
 20
300.18
 10
490.2
 20
301.52
 10
490.7
 20
303.04
 10
491.24
 20
304.7
 10
491.81
 20
306.5
 10
492.4
 20
308.41
 10
493.01
 20
310.43
 10
493.64
 20
312.52
 10
494.29
 20
314.67
 10
494.94
 20
316.87
 10
495.59
 20
319.09
 10
496.25
 20
321.31
 10
496.89
 20
323.53
 10
497.53
 20
325.72
 10
498.15
 20
327.86
 10
498.75
 20
329.93
 10
499.33
 20
331.92
 10
499.87
 20
333.81
 10
500.38
 20
335.58
 10
500.86
 20
337.21
 10
501.29
 20
338.68
 10
501.67
 20
339.98
 10
502.46
 20
342.62
 10
503
 20
344.32
 10
503.41
 20
345.54
  0
LWPOLYLINE
  5
BB
100
AcDbEntity
  8
0001_4150
  6
CONTINUOUS
 62
    5
370
   -1
100
AcDbPolyline
 90
   59
 70
    0
 43
0
 10
421.43
 20
302.4
 10
419.65
 20
302.62
 10
417.85
 20
302.84
 10
415.99
 20
303.06
 10
414.04
 20
303.28
 10
411.98
 20
303.51
 10
409.76
 20
303.73
 10
407.94
 20
303.91
 10
406.04
 20
304.08
 10
404.07
 20
304.25
 10
402.07
 20
304.41
 10
400.05
 20
304.56
 10
398.03
 20
304.69
 10
396.04
 20
304.81
 10
394.09
 20
304.91
 10
392.21
 20
304.99
 10
390.43
 20
305.04
 10
388.4
 20
305.07
 10
386.53
 20
305.05
 10
384.78
 20
305
 10
383.14
 20
304.91
 10
381.6
 20
304.79
 10
380.13
 20
304.63
 10
378.45
 20
304.4
 10
376.83
 20
304.11
 10
375.25
 20
303.74
 10
373.69
 20
303.27
 10
371.79
 20
302.55
 10
370.02
 20
301.74
 10
368.49
 20
300.92
 10
367.16
 20
300.05
 10
366.03
 20
299.06
 10
365.18
 20
298.09
 10
364.34
 20
296.98
 10
363.54
 20
295.79
 10
362.75
 20
294.47
 10
362.04
 20
293.07
 10
361.41
 20
291.53
 10
360.9
 20
289.96
 10
360.44
 20
288.28
 10
360.03
 20
286.54
 10
359.67
 20
284.82
 10
359.39
 20
283.36
 10
359.14
 20
281.9
 10
358.92
 20
280.35
 10
358.71
 20
278.65
 10
358.52
 20
276.74
 10
358.38
 20
275.07
 10
358.25
 20
273.27
 10
358.12
 20
271.39
 10
358.01
 20
269.47
 10
357.9
 20
267.55
 10
357.81
 20
265.67
 10
357.73
 20
263.88
 10
357.67
 20
262.23
 10
357.63
 20
260.75
 10
357.6
 20
258.69
 10
357.61
 20
257.05
 10
357.63
 20
255.7
  0
LWPOLYLINE
  5
BC
100
AcDbEntity
  8
0001_4150
  6
CONTINUOUS
 62
    5
370
   -1
100
AcDbPolyline
 90
   73
 70
    0
 43
0
 10
506.54
 20
347.66
 10
507.72
 20
347.09
 10
509.37
 20
346.28
 10
511.04
 20
345.46
 10
512.72
 20
344.63
 10
514.41
 20
343.78
 10
516.11
 20
342.9
 10
517.83
 20
342.01
 10
519.54
 20
341.1
 10
521.26
 20
340.18
 10
522.96
 20
339.25
 10
524.64
 20
338.32
 10
526.28
 20
337.41
 10
527.86
 20
336.52
 10
529.37
 20
335.66
 10
530.8
 20
334.83
 10
532.13
 20
334.06
 10
533.73
 20
333.12
 10
535.21
 20
332.22
 10
536.63
 20
331.33
 10
538.09
 20
330.39
 10
539.64
 20
329.35
 10
540.91
 20
328.48
 10
542.26
 20
327.53
 10
543.67
 20
326.52
 10
545.13
 20
325.47
 10
546.63
 20
324.37
 10
548.15
 20
323.25
 10
549.66
 20
322.12
 10
551.16
 20
320.98
 10
552.63
 20
319.85
 10
554.3
 20
318.54
 10
555.91
 20
317.26
 10
557.46
 20
316
 10
558.9400000000001
 20
314.77
 10
560.38
 20
313.56
 10
561.76
 20
312.37
 10
563.09
 20
311.19
 10
564.63
 20
309.8
 10
566.11
 20
308.43
 10
567.54
 20
307.05
 10
568.9299999999999
 20
305.68
 10
570.27
 20
304.28
 10
571.53
 20
302.93
 10
572.76
 20
301.56
 10
573.95
 20
300.18
 10
575.1
 20
298.78
 10
576.2
 20
297.37
 10
577.42
 20
295.73
 10
578.58
 20
294.09
 10
579.65
 20
292.47
 10
580.66
 20
290.86
 10
581.5
 20
289.42
 10
582.3
 20
287.98
 10
583.05
 20
286.53
 10
583.76
 20
285.05
 10
584.5
 20
283.42
 10
585.22
 20
281.73
 10
585.9
 20
279.98
 10
586.5599999999999
 20
278.18
 10
587.1
 20
276.58
 10
587.61
 20
274.94
 10
588.1
 20
273.26
 10
588.55
 20
271.56
 10
588.97
 20
269.83
 10
589.37
 20
268.04
 10
589.72
 20
266.23
 10
590.02
 20
264.41
 10
590.27
 20
262.61
 10
590.45
 20
260.82
 10
590.5700000000001
 20
259.16
 10
590.63
 20
257.51
 10
590.66
 20
255.87
  0
LINE
  5
BD
100
AcDbEntity
  8
0001_4150
  6
CONTINUOUS
 62
    2
370
   -1
100
AcDbLine
 10
590.66
 20
253.87
 11
588.66
 21
255.87
  0
LINE
  5
BE
100
AcDbEntity
  8
0001_4150
  6
CONTINUOUS
 62
    2
370
   -1
100
AcDbLine
 10
588.66
 20
255.87
 11
590.66
 21
257.87
  0
CIRCLE
  5
BF
100
AcDbEntity
  8
0002_4150
  6
ByLayer
 62
    1
370
   -1
100
AcDbCircle
 10
288.59
 20
-37.61
 40
1
  0
CIRCLE
  5
C0
100
AcDbEntity
  8
0002_4150
  6
ByLayer
 62
    1
370
   -1
100
AcDbCircle
 10
366.13
 20
-62.55
 40
1
  0
CIRCLE
  5
C1
100
AcDbEntity
  8
0002_4150
  6
ByLayer
 62
    1
370
   -1
100
AcDbCircle
 10
350.62
 20
-57.57
 40
1
  0
CIRCLE
  5
C2
100
AcDbEntity
  8
0002_4150
  6
ByLayer
 62
    1
370
   -1
100
AcDbCircle
 10
335.11
 20
-52.58
 40
1
  0
CIRCLE
  5
C3
100
AcDbEntity
  8
0002_4150
  6
ByLayer
 62
    1
370
   -1
100
AcDbCircle
 10
319.6
 20
-47.59
 40
1
  0
CIRCLE
  5
C4
100
AcDbEntity
  8
0002_4150
  6
ByLayer
 62
    1
370
   -1
100
AcDbCircle
 10
304.1
 20
-42.6
 40
1
  0
CIRCLE
  5
C5
100
AcDbEntity
  8
0002_4150
  6
ByLayer
 62
    1
370
   -1
100
AcDbCircle
 10
381.63
 20
-67.54000000000001
 40
1
  0
LWPOLYLINE
  5
C6
100
AcDbEntity
  8
0002_4150
  6
CONTINUOUS
 62
    6
370
   -1
100
AcDbPolyline
 90
    6
 70
    0
 43
0
 10
387.7
 20
-75.42
 10
389.31
 20
-75.41
 10
390.91
 20
-75.39
 10
392.52
 20
-75.37
 10
394.12
 20
-75.34999999999999
 10
395.73
 20
-75.33
  0
LWPOLYLINE
  5
C7
100
AcDbEntity
  8
0002_4150
  6
CONTINUOUS
 62
    5
370
   -1
100
AcDbPolyline
 90
  184
 70
    0
 43
0
 10
405.09
 20
-135.9
 10
405.08
 20
-135.64
 10
405.03
 20
-133.6
 10
404.98
 20
-131.55
 10
404.93
 20
-129.52
 10
404.88
 20
-127.49
 10
404.83
 20
-125.47
 10
404.78
 20
-123.46
 10
404.72
 20
-121.46
 10
404.67
 20
-119.48
 10
404.62
 20
-117.51
 10
404.56
 20
-115.56
 10
404.51
 20
-113.62
 10
404.45
 20
-111.7
 10
404.4
 20
-109.81
 10
404.34
 20
-107.94
 10
404.28
 20
-106.09
 10
404.23
 20
-104.26
 10
404.17
 20
-102.46
 10
404.11
 20
-100.69
 10
404.05
 20
-98.95
 10
403.99
 20
-97.23999999999999
 10
403.93
 20
-95.56
 10
403.84
 20
-93.33
 10
403.75
 20
-91.15000000000001
 10
403.66
 20
-89.04000000000001
 10
403.57
 20
-87
 10
403.47
 20
-85.02
 10
403.37
 20
-83.11
 10
403.26
 20
-81.27
 10
403.15
 20
-79.48999999999999
 10
403.03
 20
-77.79000000000001
 10
402.91
 20
-76.15000000000001
 10
402.79
 20
-74.59
 10
402.65
 20
-73.09999999999999
 10
402.43
 20
-70.94
 10
402.19
 20
-68.95
 10
401.91
 20
-67.13
 10
401.58
 20
-65.45999999999999
 10
401.21
 20
-63.94
 10
400.68
 20
-62.34
 10
400.1
 20
-60.92
 10
399.47
 20
-59.65
 10
398.67
 20
-58.28
 10
397.84
 20
-57.1
 10
397
 20
-56.14
 10
395.99
 20
-55.24
 10
394.84
 20
-54.42
 10
393.48
 20
-53.61
 10
391.92
 20
-52.81
 10
390.76
 20
-52.29
 10
389.5
 20
-51.77
 10
388.08
 20
-51.23
 10
386.48
 20
-50.65
 10
384.66
 20
-50.03
 10
382.58
 20
-49.34
 10
380.2
 20
-48.57
 10
377.48
 20
-47.71
 10
376.08
 20
-47.26
 10
374.61
 20
-46.79
 10
373.06
 20
-46.3
 10
371.44
 20
-45.79
 10
369.75
 20
-45.25
 10
368.01
 20
-44.7
 10
366.21
 20
-44.14
 10
364.36
 20
-43.55
 10
362.46
 20
-42.96
 10
360.53
 20
-42.35
 10
358.55
 20
-41.73
 10
356.54
 20
-41.1
 10
354.5
 20
-40.46
 10
352.44
 20
-39.81
 10
350.36
 20
-39.16
 10
348.26
 20
-38.5
 10
346.15
 20
-37.84
 10
344.03
 20
-37.18
 10
341.91
 20
-36.52
 10
339.79
 20
-35.86
 10
337.68
 20
-35.21
 10
335.58
 20
-34.55
 10
333.49
 20
-33.9
 10
331.43
 20
-33.26
 10
329.39
 20
-32.63
 10
327.37
 20
-32.01
 10
325.39
 20
-31.39
 10
323.45
 20
-30.79
 10
321.55
 20
-30.2
 10
319.69
 20
-29.63
 10
317.89
 20
-29.08
 10
316.14
 20
-28.54
 10
314.45
 20
-28.02
 10
312.82
 20
-27.52
 10
311.26
 20
-27.05
 10
309.77
 20
-26.59
 10
308.36
 20
-26.17
 10
305.7
 20
-25.36
 10
303.36
 20
-24.66
 10
301.31
 20
-24.06
 10
299.53
 20
-23.55
 10
297.98
 20
-23.13
 10
296.64
 20
-22.78
 10
295.47
 20
-22.5
 10
294.46
 20
-22.29
 10
292.88
 20
-22.03
 10
291.43
 20
-21.86
 10
289.78
 20
-21.72
 10
289.1
 20
-21.69
 10
288.41
 20
-21.71
 10
287.72
 20
-21.78
 10
287.04
 20
-21.9
 10
286.37
 20
-22.08
 10
284.76
 20
-22.69
 10
283.44
 20
-23.4
 10
282
 20
-24.42
 10
280.22
 20
-25.94
 10
279.17
 20
-26.91
 10
278.01
 20
-28.02
 10
276.75
 20
-29.25
 10
275.4
 20
-30.58
 10
274
 20
-31.99
 10
272.55
 20
-33.46
 10
271.06
 20
-34.96
 10
269.57
 20
-36.48
 10
268.08
 20
-38
 10
266.6
 20
-39.49
 10
265.17
 20
-40.94
 10
263.79
 20
-42.32
 10
262.47
 20
-43.61
 10
260.67
 20
-45.34
 10
259.03
 20
-46.87
 10
257.53
 20
-48.21
 10
256.15
 20
-49.41
 10
254.85
 20
-50.5
 10
253.6
 20
-51.5
 10
252.21
 20
-52.58
 10
250.83
 20
-53.6
 10
249.44
 20
-54.59
 10
248.01
 20
-55.55
 10
246.43
 20
-56.56
 10
244.79
 20
-57.54
 10
243.09
 20
-58.49
 10
241.33
 20
-59.39
 10
239.85
 20
-60.09
 10
238.35
 20
-60.73
 10
236.82
 20
-61.33
 10
235.27
 20
-61.87
 10
233.7
 20
-62.36
 10
231.78
 20
-62.85
 10
229.86
 20
-63.26
 10
227.95
 20
-63.58
 10
226.08
 20
-63.8
 10
223.97
 20
-63.96
 10
221.98
 20
-64.01000000000001
 10
220.15
 20
-63.94
 10
218.7
 20
-63.79
 10
217.29
 20
-63.54
 10
215.82
 20
-63.19
 10
214.39
 20
-62.79
 10
212.88
 20
-62.32
 10
211.36
 20
-61.8
 10
209.88
 20
-61.26
 10
208.07
 20
-60.51
 10
206.32
 20
-59.67
 10
204.5
 20
-58.68
 10
203.14
 20
-57.89
 10
201.7
 20
-57
 10
200.17
 20
-56.01
 10
198.55
 20
-54.94
 10
196.84
 20
-53.78
 10
195.04
 20
-52.53
 10
193.62
 20
-51.53
 10
192.16
 20
-50.49
 10
190.67
 20
-49.43
 10
189.16
 20
-48.36
 10
187.64
 20
-47.28
 10
186.13
 20
-46.2
 10
184.62
 20
-45.14
 10
183.13
 20
-44.11
 10
181.68
 20
-43.11
 10
180.27
 20
-42.16
 10
178.43
 20
-40.97
 10
176.68
 20
-39.86
 10
174.99
 20
-38.82
 10
174.06
 20
-38.26
  0
LWPOLYLINE
  5
C8
100
AcDbEntity
  8
0002_4150
  6
CONTINUOUS
 62
    6
370
   -1
100
AcDbPolyline
 90
   57
 70
    0
 43
0
 10
170.14
 20
-66.05
 10
171.74
 20
-66.69
 10
173.37
 20
-67.36
 10
175.08
 20
-68.06999999999999
 10
176.88
 20
-68.86
 10
178.82
 20
-69.73
 10
180.39
 20
-70.45999999999999
 10
182.04
 20
-71.26000000000001
 10
183.75
 20
-72.09999999999999
 10
185.5
 20
-72.98999999999999
 10
187.28
 20
-73.91
 10
189.06
 20
-74.87
 10
190.82
 20
-75.84
 10
192.55
 20
-76.83
 10
194.24
 20
-77.83
 10
196.08
 20
-78.97
 10
197.84
 20
-80.11
 10
199.51
 20
-81.25
 10
201.11
 20
-82.38
 10
202.64
 20
-83.52
 10
204.1
 20
-84.66
 10
205.49
 20
-85.79000000000001
 10
206.82
 20
-86.92
 10
208.1
 20
-88.05
 10
209.34
 20
-89.19
 10
210.53
 20
-90.33
 10
211.69
 20
-91.48
 10
212.83
 20
-92.65000000000001
 10
214.13
 20
-94.05
 10
215.4
 20
-95.48
 10
216.63
 20
-96.94
 10
217.81
 20
-98.45999999999999
 10
218.95
 20
-100.03
 10
219.94
 20
-101.52
 10
220.9
 20
-103.07
 10
221.84
 20
-104.69
 10
222.78
 20
-106.39
 10
223.74
 20
-108.17
 10
224.73
 20
-110.05
 10
225.55
 20
-111.62
 10
226.39
 20
-113.25
 10
227.24
 20
-114.92
 10
228.1
 20
-116.61
 10
228.94
 20
-118.32
 10
229.76
 20
-120.03
 10
230.56
 20
-121.73
 10
231.32
 20
-123.4
 10
232.03
 20
-125.03
 10
232.79
 20
-126.89
 10
233.47
 20
-128.67
 10
234.08
 20
-130.35
 10
234.61
 20
-131.93
 10
235.07
 20
-133.39
 10
235.47
 20
-134.73
 10
235.89
 20
-136.31
 10
236.24
 20
-137.73
 10
236.56
 20
-139.07
  0
LWPOLYLINE
  5
C9
100
AcDbEntity
  8
0002_4150
  6
CONTINUOUS
 62
    6
370
   -1
100
AcDbPolyline
 90
   31
 70
    0
 43
0
 10
205.72
 20
-68.7
 10
204.64
 20
-70.11
 10
203.57
 20
-71.48999999999999
 10
202.51
 20
-72.84999999999999
 10
201.49
 20
-74.17
 10
200.49
 20
-75.42
 10
199.55
 20
-76.61
 10
198.17
 20
-78.27
 10
196.86
 20
-79.76000000000001
 10
195.57
 20
-81.09
 10
194.49
 20
-82.09
 10
193.42
 20
-82.97
 10
192.43
 20
-83.7
 10
191.39
 20
-84.31999999999999
 10
190.31
 20
-84.79000000000001
 10
188.81
 20
-85.22
 10
187.13
 20
-85.5
 10
185.8
 20
-85.58
 10
184.42
 20
-85.55
 10
182.95
 20
-85.43000000000001
 10
181.44
 20
-85.23999999999999
 10
179.8
 20
-84.95999999999999
 10
178.02
 20
-84.59
 10
176.09
 20
-84.13
 10
174.42
 20
-83.68000000000001
 10
172.65
 20
-83.18000000000001
 10
170.8
 20
-82.63
 10
168.88
 20
-82.04000000000001
 10
166.91
 20
-81.43000000000001
 10
164.92
 20
-80.79000000000001
 10
162.9
 20
-80.15000000000001
  0
LWPOLYLINE
  5
CA
100
AcDbEntity
  8
0002_4150
  6
CONTINUOUS
 62
    5
370
   -1
100
AcDbPolyline
 90
   64
 70
    0
 43
0
 10
174.06
 20
-38.26
 10
173.77
 20
-38.86
 10
172.88
 20
-40.76
 10
172
 20
-42.62
 10
171.14
 20
-44.45
 10
170.31
 20
-46.22
 10
169.51
 20
-47.93
 10
168.76
 20
-49.58
 10
168.04
 20
-51.14
 10
167.38
 20
-52.6
 10
166.77
 20
-53.97
 10
165.99
 20
-55.77
 10
165.29
 20
-57.42
 10
164.65
 20
-59.01
 10
164.03
 20
-60.62
 10
163.39
 20
-62.35
 10
162.8
 20
-63.96
 10
162.19
 20
-65.68000000000001
 10
161.57
 20
-67.47
 10
160.95
 20
-69.28
 10
160.35
 20
-71.09
 10
159.78
 20
-72.86
 10
159.26
 20
-74.53
 10
158.63
 20
-76.65000000000001
 10
158.1
 20
-78.59999999999999
 10
157.64
 20
-80.43000000000001
 10
157.22
 20
-82.19
 10
156.84
 20
-83.83
 10
156.47
 20
-85.5
 10
156.12
 20
-87.20999999999999
 10
155.79
 20
-88.98999999999999
 10
155.5
 20
-90.66
 10
155.23
 20
-92.39
 10
154.98
 20
-94.13
 10
154.75
 20
-95.88
 10
154.56
 20
-97.61
 10
154.41
 20
-99.23999999999999
 10
154.29
 20
-100.84
 10
154.19
 20
-102.44
 10
154.13
 20
-104.07
 10
154.08
 20
-105.75
 10
154.07
 20
-107.39
 10
154.07
 20
-109.09
 10
154.11
 20
-110.83
 10
154.18
 20
-112.6
 10
154.3
 20
-114.4
 10
154.47
 20
-116.22
 10
154.67
 20
-117.89
 10
154.92
 20
-119.57
 10
155.2
 20
-121.26
 10
155.52
 20
-122.95
 10
155.86
 20
-124.64
 10
156.22
 20
-126.35
 10
156.6
 20
-128.06
 10
156.99
 20
-129.78
 10
157.4
 20
-131.51
 10
157.82
 20
-133.22
 10
158.25
 20
-134.92
 10
158.69
 20
-136.6
 10
159.15
 20
-138.25
 10
159.63
 20
-139.85
 10
160.26
 20
-141.82
 10
160.91
 20
-143.73
 10
161.43
 20
-145.2
  0
LWPOLYLINE
  5
CB
100
AcDbEntity
  8
0002_4150
  6
CONTINUOUS
 62
    5
370
   -1
100
AcDbPolyline
 90
  127
 70
    0
 43
0
 10
405.09
 20
-135.9
 10
404.24
 20
-136.08
 10
402.42
 20
-136.47
 10
400.62
 20
-136.85
 10
398.85
 20
-137.22
 10
397.1
 20
-137.57
 10
395.38
 20
-137.91
 10
393.69
 20
-138.23
 10
392.03
 20
-138.54
 10
390.4
 20
-138.84
 10
388.06
 20
-139.24
 10
385.78
 20
-139.61
 10
383.56
 20
-139.95
 10
381.42
 20
-140.27
 10
379.33
 20
-140.55
 10
377.31
 20
-140.82
 10
375.35
 20
-141.06
 10
373.44
 20
-141.28
 10
371.59
 20
-141.48
 10
369.79
 20
-141.67
 10
368.05
 20
-141.85
 10
366.35
 20
-142.02
 10
364.71
 20
-142.18
 10
362.85
 20
-142.35
 10
361.03
 20
-142.52
 10
359.24
 20
-142.69
 10
357.46
 20
-142.85
 10
355.66
 20
-143
 10
353.84
 20
-143.14
 10
351.96
 20
-143.28
 10
350.02
 20
-143.42
 10
347.99
 20
-143.55
 10
346.39
 20
-143.65
 10
344.73
 20
-143.74
 10
343.02
 20
-143.83
 10
341.26
 20
-143.92
 10
339.45
 20
-144.01
 10
337.6
 20
-144.09
 10
335.71
 20
-144.17
 10
333.79
 20
-144.25
 10
331.84
 20
-144.33
 10
329.86
 20
-144.41
 10
327.85
 20
-144.48
 10
325.83
 20
-144.55
 10
323.79
 20
-144.62
 10
321.74
 20
-144.69
 10
319.67
 20
-144.76
 10
317.61
 20
-144.83
 10
315.67
 20
-144.89
 10
313.74
 20
-144.95
 10
311.8
 20
-145.01
 10
309.86
 20
-145.06
 10
307.91
 20
-145.12
 10
305.97
 20
-145.17
 10
304.01
 20
-145.22
 10
302.06
 20
-145.27
 10
300.1
 20
-145.32
 10
298.13
 20
-145.37
 10
296.16
 20
-145.41
 10
294.19
 20
-145.46
 10
292.2
 20
-145.5
 10
290.21
 20
-145.54
 10
288.22
 20
-145.57
 10
286.21
 20
-145.61
 10
284.2
 20
-145.64
 10
282.18
 20
-145.67
 10
280.16
 20
-145.7
 10
278.34
 20
-145.72
 10
276.52
 20
-145.74
 10
274.69
 20
-145.76
 10
272.85
 20
-145.78
 10
271.01
 20
-145.8
 10
269.15
 20
-145.81
 10
267.27
 20
-145.83
 10
265.39
 20
-145.84
 10
263.49
 20
-145.85
 10
261.58
 20
-145.86
 10
259.65
 20
-145.86
 10
257.7
 20
-145.87
 10
255.74
 20
-145.87
 10
253.76
 20
-145.87
 10
251.76
 20
-145.87
 10
249.74
 20
-145.87
 10
247.7
 20
-145.87
 10
245.64
 20
-145.87
 10
243.56
 20
-145.87
 10
241.46
 20
-145.86
 10
239.33
 20
-145.85
 10
237.18
 20
-145.84
 10
235
 20
-145.84
 10
232.79
 20
-145.82
 10
231.01
 20
-145.82
 10
229.22
 20
-145.81
 10
227.41
 20
-145.8
 10
225.58
 20
-145.78
 10
223.74
 20
-145.77
 10
221.88
 20
-145.76
 10
220.01
 20
-145.75
 10
218.12
 20
-145.73
 10
216.22
 20
-145.72
 10
214.31
 20
-145.7
 10
212.38
 20
-145.69
 10
210.44
 20
-145.67
 10
208.49
 20
-145.66
 10
206.53
 20
-145.64
 10
204.56
 20
-145.62
 10
202.58
 20
-145.61
 10
200.58
 20
-145.59
 10
198.58
 20
-145.57
 10
196.57
 20
-145.55
 10
194.55
 20
-145.53
 10
192.52
 20
-145.51
 10
190.49
 20
-145.49
 10
188.44
 20
-145.47
 10
186.39
 20
-145.45
 10
184.34
 20
-145.43
 10
182.28
 20
-145.41
 10
180.21
 20
-145.39
 10
178.14
 20
-145.37
 10
176.06
 20
-145.35
 10
173.98
 20
-145.33
 10
171.89
 20
-145.31
 10
169.81
 20
-145.28
 10
167.71
 20
-145.26
 10
165.62
 20
-145.24
 10
163.53
 20
-145.22
 10
161.43
 20
-145.2
  0
LWPOLYLINE
  5
CC
100
AcDbEntity
  8
0002_4150
  6
CONTINUOUS
 62
    7
370
   -1
100
AcDbPolyline
 90
    4
 70
    0
 43
0
 10
403.59
 20
-83.84999999999999
 10
401.84
 20
-83.94
 10
400.09
 20
-84.03
 10
398.35
 20
-84.12
  0
LWPOLYLINE
  5
CD
100
AcDbEntity
  8
0003_4150
  6
CONTINUOUS
 62
    5
370
   -1
100
AcDbPolyline
 90
   49
 70
    0
 43
0
 10
435.5
 20
24.55
 10
436.05
 20
24.59
 10
438.11
 20
24.72
 10
440.1
 20
24.84
 10
441.98
 20
24.94
 10
443.73
 20
25.02
 10
445.32
 20
25.08
 10
447.32
 20
25.11
 10
449.03
 20
25.05
 10
450.56
 20
24.86
 10
452.27
 20
24.42
 10
452.91
 20
24.17
 10
453.53
 20
23.88
 10
454.1
 20
23.56
 10
454.64
 20
23.21
 10
455.16
 20
22.82
 10
456.34
 20
21.7
 10
457.46
 20
20.3
 10
458.48
 20
18.71
 10
459.22
 20
17.41
 10
459.94
 20
16
 10
460.63
 20
14.46
 10
461.13
 20
13.22
 10
461.63
 20
11.87
 10
462.15
 20
10.36
 10
462.7
 20
8.68
 10
463.3
 20
6.78
 10
463.95
 20
4.65
 10
464.35
 20
3.36
 10
464.76
 20
1.99
 10
465.2
 20
0.54
 10
465.66
 20
-0.98
 10
466.13
 20
-2.56
 10
466.62
 20
-4.21
 10
467.13
 20
-5.92
 10
467.66
 20
-7.68
 10
468.19
 20
-9.5
 10
468.75
 20
-11.37
 10
469.31
 20
-13.28
 10
469.89
 20
-15.23
 10
470.47
 20
-17.23
 10
471.07
 20
-19.25
 10
471.67
 20
-21.3
 10
472.28
 20
-23.39
 10
472.9
 20
-25.49
 10
473.52
 20
-27.61
 10
474.15
 20
-29.75
 10
474.78
 20
-31.9
 10
474.81
 20
-32.03
  0
LWPOLYLINE
  5
CE
100
AcDbEntity
  8
0003_4150
  6
CONTINUOUS
 62
    5
370
   -1
100
AcDbPolyline
 90
   35
 70
    0
 43
0
 10
435.5
 20
24.55
 10
435.18
 20
26.5
 10
434.87
 20
28.41
 10
434.57
 20
30.28
 10
434.29
 20
32.12
 10
434.01
 20
33.91
 10
433.75
 20
35.65
 10
433.51
 20
37.33
 10
433.29
 20
38.94
 10
433.09
 20
40.46
 10
432.87
 20
42.37
 10
432.68
 20
44.16
 10
432.52
 20
45.87
 10
432.4
 20
47.53
 10
432.29
 20
49.19
 10
432.2
 20
50.88
 10
432.13
 20
52.65
 10
432.07
 20
54.46
 10
432.03
 20
56.29
 10
432.02
 20
58.12
 10
432.03
 20
59.92
 10
432.08
 20
61.67
 10
432.17
 20
63.58
 10
432.31
 20
65.44
 10
432.5
 20
67.3
 10
432.71
 20
69.20999999999999
 10
432.97
 20
71.2
 10
433.18
 20
72.81
 10
433.41
 20
74.48
 10
433.65
 20
76.22
 10
433.91
 20
78
 10
434.17
 20
79.81999999999999
 10
434.44
 20
81.67
 10
434.72
 20
83.54000000000001
 10
435
 20
85.42
  0
LWPOLYLINE
  5
CF
100
AcDbEntity
  8
0003_4150
  6
CONTINUOUS
 62
    5
370
   -1
100
AcDbPolyline
 90
  136
 70
    0
 43
0
 10
473.73
 20
143.32
 10
475.04
 20
142.69
 10
476.81
 20
141.84
 10
478.55
 20
141
 10
480.25
 20
140.17
 10
481.9
 20
139.35
 10
483.5
 20
138.54
 10
485.04
 20
137.75
 10
486.65
 20
136.89
 10
488.2
 20
136.05
 10
489.72
 20
135.2
 10
491.23
 20
134.34
 10
492.75
 20
133.45
 10
494.31
 20
132.52
 10
495.93
 20
131.53
 10
497.5
 20
130.57
 10
499.12
 20
129.56
 10
500.79
 20
128.51
 10
502.48
 20
127.44
 10
504.18
 20
126.35
 10
505.88
 20
125.25
 10
507.55
 20
124.16
 10
509.18
 20
123.08
 10
510.75
 20
122.02
 10
512.41
 20
120.88
 10
514
 20
119.77
 10
515.52
 20
118.67
 10
517
 20
117.59
 10
518.45
 20
116.49
 10
519.87
 20
115.38
 10
521.29
 20
114.25
 10
522.87
 20
112.95
 10
524.4400000000001
 20
111.62
 10
525.98
 20
110.29
 10
527.46
 20
108.98
 10
528.86
 20
107.7
 10
530.16
 20
106.48
 10
531.55
 20
105.15
 10
532.8099999999999
 20
103.88
 10
534.01
 20
102.63
 10
535.2
 20
101.35
 10
536.46
 20
99.94
 10
537.75
 20
98.45999999999999
 10
539.03
 20
96.93000000000001
 10
540.28
 20
95.34
 10
541.28
 20
94.01000000000001
 10
542.23
 20
92.65000000000001
 10
543.15
 20
91.28
 10
544.03
 20
89.90000000000001
 10
544.86
 20
88.51000000000001
 10
545.8099999999999
 20
86.81
 10
546.7
 20
85.09999999999999
 10
547.54
 20
83.34999999999999
 10
548.3200000000001
 20
81.56999999999999
 10
548.9299999999999
 20
80.06999999999999
 10
549.5
 20
78.54000000000001
 10
550.03
 20
77
 10
550.52
 20
75.44
 10
550.95
 20
73.89
 10
551.4
 20
72.09999999999999
 10
551.78
 20
70.34999999999999
 10
552.11
 20
68.66
 10
552.38
 20
67.06
 10
552.64
 20
65.23
 10
552.84
 20
63.37
 10
552.98
 20
61.29
 10
553.04
 20
59.71
 10
553.0700000000001
 20
58
 10
553.08
 20
56.22
 10
553.0599999999999
 20
54.43
 10
553.03
 20
52.67
 10
552.98
 20
51.01
 10
552.89
 20
49.14
 10
552.77
 20
47.42
 10
552.6
 20
45.76
 10
552.36
 20
44.09
 10
552.02
 20
42.23
 10
551.61
 20
40.31
 10
551.14
 20
38.37
 10
550.63
 20
36.46
 10
550.0700000000001
 20
34.63
 10
549.47
 20
32.83
 10
548.78
 20
31.03
 10
548
 20
29.19
 10
547.2
 20
27.5
 10
546.33
 20
25.77
 10
545.4
 20
24.06
 10
544.4299999999999
 20
22.39
 10
543.45
 20
20.79
 10
542.54
 20
19.4
 10
541.62
 20
18.08
 10
540.66
 20
16.78
 10
539.64
 20
15.49
 10
538.54
 20
14.15
 10
537.36
 20
12.77
 10
536.12
 20
11.35
 10
534.8099999999999
 20
9.9
 10
533.47
 20
8.460000000000001
 10
532.13
 20
7.04
 10
530.79
 20
5.68
 10
529.5700000000001
 20
4.47
 10
528.36
 20
3.31
 10
527.16
 20
2.18
 10
525.9400000000001
 20
1.08
 10
524.6900000000001
 20
-0.01
 10
523.4
 20
-1.11
 10
522.08
 20
-2.21
 10
520.6900000000001
 20
-3.34
 10
519.25
 20
-4.48
 10
517.75
 20
-5.65
 10
516.1900000000001
 20
-6.83
 10
514.5700000000001
 20
-8.039999999999999
 10
512.88
 20
-9.26
 10
511.31
 20
-10.37
 10
509.71
 20
-11.48
 10
508.07
 20
-12.6
 10
506.42
 20
-13.71
 10
504.76
 20
-14.82
 10
503.1
 20
-15.91
 10
501.46
 20
-16.98
 10
499.84
 20
-18.02
 10
498.27
 20
-19.03
 10
496.52
 20
-20.14
 10
494.81
 20
-21.22
 10
493.14
 20
-22.25
 10
491.47
 20
-23.26
 10
489.78
 20
-24.25
 10
488.07
 20
-25.23
 10
486.31
 20
-26.21
 10
484.73
 20
-27.06
 10
483.1
 20
-27.91
 10
481.44
 20
-28.76
 10
479.74
 20
-29.61
 10
478.01
 20
-30.47
 10
476.25
 20
-31.33
 10
474.81
 20
-32.03
  0
LWPOLYLINE
  5
D0
100
AcDbEntity
  8
0003_4150
  6
CONTINUOUS
 62
    5
370
   -1
100
AcDbPolyline
 90
   46
 70
    0
 43
0
 10
473.73
 20
143.32
 10
473.6
 20
142.85
 10
472.98
 20
140.59
 10
472.36
 20
138.34
 10
471.75
 20
136.11
 10
471.14
 20
133.9
 10
470.54
 20
131.72
 10
469.95
 20
129.56
 10
469.36
 20
127.43
 10
468.78
 20
125.34
 10
468.21
 20
123.29
 10
467.65
 20
121.28
 10
467.1
 20
119.32
 10
466.56
 20
117.42
 10
466.04
 20
115.56
 10
465.53
 20
113.77
 10
465.03
 20
112.04
 10
464.55
 20
110.38
 10
464.09
 20
108.79
 10
463.64
 20
107.28
 10
463.21
 20
105.84
 10
462.8
 20
104.49
 10
462.42
 20
103.23
 10
462.05
 20
102.06
 10
461.38
 20
99.98999999999999
 10
460.77
 20
98.23999999999999
 10
460.22
 20
96.76000000000001
 10
459.7
 20
95.48
 10
459.2
 20
94.34999999999999
 10
458.36
 20
92.68000000000001
 10
457.48
 20
91.22
 10
456.64
 20
90.08
 10
455.73
 20
89.06999999999999
 10
454.61
 20
88.13
 10
453.23
 20
87.3
 10
451.87
 20
86.73999999999999
 10
450.43
 20
86.28
 10
449.08
 20
85.93000000000001
 10
447.64
 20
85.68000000000001
 10
446.01
 20
85.56
 10
444.66
 20
85.51000000000001
 10
443.04
 20
85.48
 10
441.21
 20
85.45
 10
439.23
 20
85.44
 10
437.14
 20
85.43000000000001
 10
435
 20
85.42
  0
LINE
  5
D1
100
AcDbEntity
  8
0003_4150
  6
CONTINUOUS
 62
    2
370
   -1
100
AcDbLine
 10
553.08
 20
54.16
 11
551.08
 21
56.16
  0
LINE
  5
D2
100
AcDbEntity
  8
0003_4150
  6
CONTINUOUS
 62
    2
370
   -1
100
AcDbLine
 10
551.08
 20
56.16
 11
553.08
 21
58.16
  0
LINE
  5
D3
100
AcDbEntity
  8
0003_4150
  6
CONTINUOUS
 62
    2
370
   -1
100
AcDbLine
 10
431.99
 20
57.35
 11
434.05
 21
55.41
  0
LINE
  5
D4
100
AcDbEntity
  8
0003_4150
  6
CONTINUOUS
 62
    2
370
   -1
100
AcDbLine
 10
434.05
 20
55.41
 11
432.1
 21
53.35
  0
LWPOLYLINE
  5
D5
100
AcDbEntity
  8
0004_4150
  6
CONTINUOUS
 62
    5
370
   -1
100
AcDbPolyline
 90
   53
 70
    0
 43
0
 10
274.01
 20
469.97
 10
275.89
 20
470.15
 10
277.98
 20
470.36
 10
280.06
 20
470.56
 10
282.14
 20
470.76
 10
284.2
 20
470.97
 10
286.25
 20
471.17
 10
288.29
 20
471.38
 10
290.32
 20
471.58
 10
292.33
 20
471.79
 10
294.32
 20
471.99
 10
296.3
 20
472.2
 10
298.25
 20
472.41
 10
300.19
 20
472.61
 10
302.1
 20
472.82
 10
303.99
 20
473.03
 10
305.85
 20
473.23
 10
307.68
 20
473.44
 10
309.49
 20
473.65
 10
311.27
 20
473.86
 10
313.01
 20
474.07
 10
314.73
 20
474.28
 10
316.41
 20
474.49
 10
318.05
 20
474.7
 10
319.66
 20
474.91
 10
321.87
 20
475.21
 10
324
 20
475.51
 10
326.07
 20
475.82
 10
328.07
 20
476.12
 10
330.01
 20
476.42
 10
331.88
 20
476.72
 10
333.71
 20
477.03
 10
335.47
 20
477.33
 10
337.19
 20
477.63
 10
338.86
 20
477.94
 10
340.49
 20
478.24
 10
342.08
 20
478.54
 10
343.64
 20
478.84
 10
345.55
 20
479.21
 10
347.42
 20
479.59
 10
349.25
 20
479.96
 10
351.04
 20
480.34
 10
352.81
 20
480.72
 10
354.56
 20
481.1
 10
356.28
 20
481.49
 10
358
 20
481.88
 10
359.88
 20
482.32
 10
361.75
 20
482.76
 10
363.62
 20
483.21
 10
365.49
 20
483.66
 10
367.35
 20
484.12
 10
369.22
 20
484.58
 10
371.08
 20
485.04
  0
LWPOLYLINE
  5
D6
100
AcDbEntity
  8
0004_4150
  6
CONTINUOUS
 62
    5
370
   -1
100
AcDbPolyline
 90
    4
 70
    0
 43
0
 10
365.97
 20
535.3200000000001
 10
367.4
 20
535.4
 10
369.28
 20
535.51
 10
371
 20
535.61
  0
LWPOLYLINE
  5
D7
100
AcDbEntity
  8
0004_4150
  6
CONTINUOUS
 62
    5
370
   -1
100
AcDbPolyline
 90
   57
 70
    0
 43
0
 10
371
 20
535.61
 10
370.96
 20
536.4299999999999
 10
370.86
 20
537.92
 10
370.7
 20
539.66
 10
370.52
 20
541.2
 10
370.29
 20
542.9
 10
370.01
 20
544.7
 10
369.69
 20
546.55
 10
369.34
 20
548.39
 10
368.95
 20
550.1799999999999
 10
368.44
 20
552.24
 10
367.92
 20
554.1
 10
367.38
 20
555.73
 10
366.87
 20
557.11
 10
366.22
 20
558.54
 10
365.49
 20
559.8
 10
364.55
 20
561.12
 10
363.53
 20
562.35
 10
362.64
 20
563.24
 10
361.62
 20
564.03
 10
360.51
 20
564.73
 10
359.23
 20
565.41
 10
357.84
 20
566.05
 10
356.46
 20
566.58
 10
354.96
 20
567.0700000000001
 10
353.25
 20
567.55
 10
351.25
 20
568.0599999999999
 10
349.69
 20
568.45
 10
347.99
 20
568.85
 10
346.19
 20
569.28
 10
344.33
 20
569.71
 10
342.45
 20
570.15
 10
340.59
 20
570.58
 10
338.78
 20
571
 10
337.06
 20
571.39
 10
335.48
 20
571.76
 10
333.52
 20
572.22
 10
331.75
 20
572.64
 10
330.01
 20
573.0599999999999
 10
328.16
 20
573.5
 10
326.06
 20
573.99
 10
324.75
 20
574.29
 10
323.32
 20
574.61
 10
321.78
 20
574.96
 10
320.14
 20
575.33
 10
318.41
 20
575.72
 10
316.59
 20
576.13
 10
314.7
 20
576.55
 10
312.73
 20
576.99
 10
310.7
 20
577.4400000000001
 10
308.61
 20
577.9
 10
306.47
 20
578.38
 10
304.29
 20
578.86
 10
302.07
 20
579.35
 10
299.82
 20
579.85
 10
297.55
 20
580.35
 10
297.42
 20
580.38
  0
LWPOLYLINE
  5
D8
100
AcDbEntity
  8
0004_4150
  6
CONTINUOUS
 62
    5
370
   -1
100
AcDbPolyline
 90
   58
 70
    0
 43
0
 10
297.42
 20
580.38
 10
296.99
 20
578.35
 10
296.58
 20
576.4
 10
296.16
 20
574.45
 10
295.75
 20
572.5
 10
295.34
 20
570.55
 10
294.92
 20
568.6
 10
294.51
 20
566.65
 10
294.1
 20
564.7
 10
293.68
 20
562.74
 10
293.27
 20
560.79
 10
292.85
 20
558.84
 10
292.44
 20
556.89
 10
292.03
 20
554.9400000000001
 10
291.61
 20
552.99
 10
291.2
 20
551.04
 10
290.79
 20
549.09
 10
290.37
 20
547.14
 10
289.96
 20
545.1900000000001
 10
289.55
 20
543.24
 10
289.13
 20
541.29
 10
288.72
 20
539.34
 10
288.31
 20
537.39
 10
287.89
 20
535.4400000000001
 10
287.48
 20
533.49
 10
287.06
 20
531.54
 10
286.65
 20
529.59
 10
286.24
 20
527.64
 10
285.82
 20
525.6900000000001
 10
285.41
 20
523.74
 10
285
 20
521.79
 10
284.58
 20
519.84
 10
284.17
 20
517.89
 10
283.76
 20
515.9400000000001
 10
283.34
 20
513.99
 10
282.93
 20
512.04
 10
282.51
 20
510.09
 10
282.1
 20
508.14
 10
281.69
 20
506.18
 10
281.27
 20
504.23
 10
280.86
 20
502.28
 10
280.45
 20
500.33
 10
280.03
 20
498.38
 10
279.62
 20
496.43
 10
279.21
 20
494.48
 10
278.79
 20
492.53
 10
278.38
 20
490.58
 10
277.97
 20
488.63
 10
277.55
 20
486.68
 10
277.14
 20
484.73
 10
276.72
 20
482.78
 10
276.31
 20
480.83
 10
275.9
 20
478.88
 10
275.48
 20
476.93
 10
275.07
 20
474.98
 10
274.66
 20
473.03
 10
274.24
 20
471.08
 10
274.01
 20
469.97
  0
LWPOLYLINE
  5
D9
100
AcDbEntity
  8
0004_4150
  6
CONTINUOUS
 62
    7
370
   -1
100
AcDbPolyline
 90
   10
 70
    0
 43
0
 10
366.17
 20
535.33
 10
364.23
 20
535.22
 10
362.29
 20
535.1
 10
360.35
 20
534.99
 10
358.41
 20
534.88
 10
356.47
 20
534.77
 10
354.53
 20
534.65
 10
352.59
 20
534.54
 10
350.65
 20
534.4299999999999
 10
348.71
 20
534.3099999999999
  0
LWPOLYLINE
  5
DA
100
AcDbEntity
  8
0004_4150
  6
CONTINUOUS
 62
    5
370
   -1
100
AcDbPolyline
 90
   27
 70
    0
 43
0
 10
371.08
 20
485.04
 10
370.88
 20
487
 10
370.68
 20
488.95
 10
370.48
 20
490.91
 10
370.28
 20
492.87
 10
370.09
 20
494.82
 10
369.89
 20
496.78
 10
369.69
 20
498.74
 10
369.49
 20
500.69
 10
369.29
 20
502.65
 10
369.09
 20
504.61
 10
368.89
 20
506.56
 10
368.69
 20
508.52
 10
368.5
 20
510.48
 10
368.3
 20
512.4400000000001
 10
368.1
 20
514.39
 10
367.9
 20
516.35
 10
367.7
 20
518.3099999999999
 10
367.5
 20
520.26
 10
367.3
 20
522.22
 10
367.1
 20
524.1799999999999
 10
366.91
 20
526.13
 10
366.71
 20
528.09
 10
366.51
 20
530.05
 10
366.31
 20
532
 10
366.11
 20
533.96
 10
365.97
 20
535.3200000000001
  0
LWPOLYLINE
  5
DB
100
AcDbEntity
  8
0005_4150
  6
CONTINUOUS
 62
    5
370
   -1
100
AcDbPolyline
 90
   43
 70
    0
 43
0
 10
375.78
 20
131.14
 10
375.8
 20
129.5
 10
375.82
 20
127.51
 10
375.84
 20
125.53
 10
375.86
 20
123.54
 10
375.88
 20
121.55
 10
375.9
 20
119.57
 10
375.92
 20
117.58
 10
375.94
 20
115.59
 10
375.96
 20
113.6
 10
375.98
 20
111.62
 10
376
 20
109.63
 10
376.02
 20
107.64
 10
376.04
 20
105.66
 10
376.07
 20
103.67
 10
376.09
 20
101.68
 10
376.11
 20
99.7
 10
376.13
 20
97.70999999999999
 10
376.15
 20
95.72
 10
376.17
 20
93.73
 10
376.19
 20
91.75
 10
376.21
 20
89.76000000000001
 10
376.17
 20
87.77
 10
376.13
 20
85.79000000000001
 10
376.09
 20
83.8
 10
376.06
 20
81.81
 10
376.02
 20
79.83
 10
375.98
 20
77.84
 10
375.94
 20
75.84999999999999
 10
375.9
 20
73.87
 10
375.87
 20
71.88
 10
375.83
 20
69.89
 10
375.79
 20
67.91
 10
375.75
 20
65.92
 10
375.71
 20
63.93
 10
375.68
 20
61.95
 10
375.64
 20
59.96
 10
375.6
 20
57.97
 10
375.56
 20
55.98
 10
375.52
 20
54
 10
375.49
 20
52.01
 10
375.45
 20
50.02
 10
375.42
 20
48.39
  0
LWPOLYLINE
  5
DC
100
AcDbEntity
  8
0005_4150
  6
CONTINUOUS
 62
    5
370
   -1
100
AcDbPolyline
 90
  111
 70
    0
 43
0
 10
375.78
 20
131.13
 10
375.49
 20
131.17
 10
373.43
 20
131.41
 10
371.38
 20
131.64
 10
369.35
 20
131.87
 10
367.35
 20
132.1
 10
365.38
 20
132.32
 10
363.45
 20
132.53
 10
361.57
 20
132.73
 10
359.73
 20
132.92
 10
357.95
 20
133.1
 10
356.23
 20
133.27
 10
354.58
 20
133.43
 10
352.99
 20
133.57
 10
351.48
 20
133.69
 10
349.28
 20
133.86
 10
347.26
 20
133.98
 10
345.39
 20
134.06
 10
343.64
 20
134.1
 10
341.99
 20
134.09
 10
340.41
 20
134.05
 10
338.69
 20
133.94
 10
337.04
 20
133.78
 10
335.49
 20
133.57
 10
334.06
 20
133.31
 10
332.66
 20
132.97
 10
331.37
 20
132.59
 10
330.11
 20
132.16
 10
328.28
 20
131.43
 10
327.57
 20
131.09
 10
326.89
 20
130.71
 10
326.23
 20
130.28
 10
325.62
 20
129.79
 10
325.03
 20
129.26
 10
323.71
 20
127.73
 10
322.86
 20
126.47
 10
322.11
 20
125.11
 10
321.46
 20
123.68
 10
320.87
 20
122.03
 10
320.39
 20
120.24
 10
319.96
 20
118.24
 10
319.66
 20
116.47
 10
319.37
 20
114.56
 10
319.11
 20
112.57
 10
318.88
 20
110.54
 10
318.67
 20
108.52
 10
318.52
 20
106.82
 10
318.39
 20
105.13
 10
318.28
 20
103.43
 10
318.19
 20
101.69
 10
318.12
 20
99.87
 10
318.05
 20
97.94
 10
318.01
 20
96.06
 10
317.97
 20
94.09999999999999
 10
317.95
 20
92.06999999999999
 10
317.93
 20
90.02
 10
317.93
 20
87.95999999999999
 10
317.94
 20
85.94
 10
317.95
 20
83.97
 10
317.98
 20
82.09
 10
318.03
 20
80.16
 10
318.09
 20
78.34
 10
318.17
 20
76.59999999999999
 10
318.26
 20
74.90000000000001
 10
318.37
 20
73.20999999999999
 10
318.51
 20
71.5
 10
318.7
 20
69.48999999999999
 10
318.91
 20
67.45999999999999
 10
319.16
 20
65.45999999999999
 10
319.42
 20
63.55
 10
319.72
 20
61.78
 10
320.12
 20
59.77
 10
320.59
 20
57.98
 10
321.17
 20
56.33
 10
321.8
 20
54.89
 10
322.54
 20
53.52
 10
323.38
 20
52.25
 10
323.88
 20
51.6
 10
324.41
 20
51
 10
324.97
 20
50.44
 10
325.57
 20
49.93
 10
326.2
 20
49.46
 10
327.92
 20
48.52
 10
329.74
 20
47.77
 10
330.99
 20
47.33
 10
332.28
 20
46.93
 10
333.68
 20
46.58
 10
335.11
 20
46.31
 10
336.65
 20
46.08
 10
338.3
 20
45.91
 10
340.03
 20
45.79
 10
341.6
 20
45.73
 10
343.25
 20
45.71
 10
345
 20
45.74
 10
346.87
 20
45.8
 10
348.9
 20
45.9
 10
351.1
 20
46.05
 10
352.61
 20
46.16
 10
354.19
 20
46.29
 10
355.85
 20
46.43
 10
357.57
 20
46.58
 10
359.35
 20
46.75
 10
361.19
 20
46.92
 10
363.08
 20
47.11
 10
365.01
 20
47.3
 10
366.98
 20
47.5
 10
368.98
 20
47.71
 10
371.01
 20
47.92
 10
373.06
 20
48.14
 10
375.13
 20
48.36
 10
375.42
 20
48.39
  0
LWPOLYLINE
  5
DD
100
AcDbEntity
  8
0006_4150
  6
CONTINUOUS
 62
    5
370
   -1
100
AcDbPolyline
 90
  144
 70
    0
 43
0
 10
264.82
 20
179.56
 10
264.74
 20
179.36
 10
263.98
 20
177.42
 10
263.22
 20
175.5
 10
262.46
 20
173.61
 10
261.71
 20
171.75
 10
260.97
 20
169.94
 10
260.25
 20
168.18
 10
259.54
 20
166.49
 10
258.84
 20
164.88
 10
258.16
 20
163.35
 10
257.35
 20
161.58
 10
256.56
 20
159.92
 10
255.77
 20
158.35
 10
254.98
 20
156.84
 10
254.17
 20
155.35
 10
253.33
 20
153.87
 10
252.46
 20
152.41
 10
251.57
 20
150.93
 10
250.66
 20
149.46
 10
249.73
 20
148.01
 10
248.8
 20
146.61
 10
247.88
 20
145.26
 10
246.89
 20
143.87
 10
245.91
 20
142.54
 10
244.9
 20
141.26
 10
243.86
 20
139.99
 10
242.77
 20
138.72
 10
241.6
 20
137.42
 10
240.4
 20
136.14
 10
239.19
 20
134.9
 10
238.01
 20
133.75
 10
236.9
 20
132.72
 10
235.59
 20
131.6
 10
234.32
 20
130.63
 10
232.96
 20
129.71
 10
231.62
 20
128.87
 10
230.18
 20
128.03
 10
228.7
 20
127.2
 10
227.23
 20
126.44
 10
225.5
 20
125.62
 10
223.81
 20
124.92
 10
222.09
 20
124.32
 10
220.52
 20
123.85
 10
218.84
 20
123.45
 10
217
 20
123.11
 10
214.96
 20
122.85
 10
213.13
 20
122.7
 10
211.21
 20
122.61
 10
209.26
 20
122.57
 10
207.35
 20
122.58
 10
205.54
 20
122.64
 10
203.89
 20
122.73
 10
202.11
 20
122.91
 10
200.44
 20
123.18
 10
198.63
 20
123.55
 10
196.45
 20
124.05
 10
194.96
 20
124.41
 10
193.31
 20
124.81
 10
191.52
 20
125.24
 10
189.64
 20
125.7
 10
187.68
 20
126.17
 10
185.7
 20
126.65
 10
183.71
 20
127.12
 10
181.76
 20
127.58
 10
179.88
 20
128.03
 10
178.09
 20
128.44
 10
176.44
 20
128.81
 10
174.96
 20
129.13
 10
172.98
 20
129.53
 10
171.38
 20
129.8
 10
170.04
 20
129.95
 10
168.82
 20
130
 10
167.29
 20
129.93
 10
165.56
 20
129.72
 10
163.46
 20
129.35
 10
161.99
 20
129.06
 10
160.35
 20
128.71
 10
158.58
 20
128.33
 10
156.72
 20
127.92
 10
154.79
 20
127.5
 10
152.82
 20
127.07
 10
150.85
 20
126.65
 10
148.92
 20
126.24
 10
147.05
 20
125.85
 10
145.1
 20
125.47
 10
143.25
 20
125.14
 10
141.49
 20
124.84
 10
139.81
 20
124.59
 10
138.17
 20
124.39
 10
136.59
 20
124.22
 10
135.02
 20
124.1
 10
132.86
 20
123.99
 10
130.77
 20
123.96
 10
128.84
 20
123.99
 10
127.1
 20
124.06
 10
125.62
 20
124.18
 10
124.25
 20
124.35
 10
122.84
 20
124.61
 10
121.41
 20
124.93
 10
119.87
 20
125.33
 10
118.27
 20
125.82
 10
116.66
 20
126.39
 10
114.95
 20
127.09
 10
113.27
 20
127.88
 10
111.63
 20
128.75
 10
110.01
 20
129.68
 10
108.42
 20
130.68
 10
106.87
 20
131.74
 10
105.37
 20
132.84
 10
103.93
 20
133.99
 10
102.6
 20
135.14
 10
101.34
 20
136.33
 10
100.13
 20
137.56
 10
98.95999999999999
 20
138.82
 10
97.81
 20
140.15
 10
96.69
 20
141.53
 10
95.58
 20
142.97
 10
94.48
 20
144.48
 10
93.52
 20
145.84
 10
92.56999999999999
 20
147.25
 10
91.64
 20
148.69
 10
90.73999999999999
 20
150.13
 10
89.89
 20
151.56
 10
88.95
 20
153.2
 10
88.06999999999999
 20
154.83
 10
87.22
 20
156.46
 10
86.37
 20
158.11
 10
85.68000000000001
 20
159.45
 10
84.98999999999999
 20
160.85
 10
84.27
 20
162.33
 10
83.52
 20
163.92
 10
82.75
 20
165.65
 10
81.95
 20
167.55
 10
81.39
 20
168.96
 10
80.8
 20
170.45
 10
80.20999999999999
 20
172.02
 10
79.59999999999999
 20
173.67
 10
78.98
 20
175.38
 10
78.34999999999999
 20
177.14
 10
77.70999999999999
 20
178.96
 10
77.06
 20
180.83
 10
76.41
 20
182.73
 10
76.26000000000001
 20
183.16
  0
LWPOLYLINE
  5
DE
100
AcDbEntity
  8
0006_4150
  6
CONTINUOUS
 62
    5
370
   -1
100
AcDbPolyline
 90
  200
 70
    0
 43
0
 10
264.82
 20
179.56
 10
265.73
 20
179.32
 10
267.65
 20
178.79
 10
269.44
 20
178.25
 10
271.06
 20
177.71
 10
272.99
 20
176.91
 10
274.61
 20
176.06
 10
275.11
 20
175.76
 10
275.58
 20
175.46
 10
276.02
 20
175.13
 10
276.42
 20
174.78
 10
276.67
 20
174.53
 10
276.88
 20
174.26
 10
277.07
 20
174
 10
277.23
 20
173.73
 10
277.37
 20
173.44
 10
277.79
 20
172.38
 10
278.14
 20
171.13
 10
278.23
 20
170.68
 10
278.28
 20
170.2
 10
278.31
 20
169.68
 10
278.28
 20
168.89
 10
278.19
 20
168.03
 10
277.84
 20
166.17
 10
277.32
 20
164.22
 10
276.79
 20
162.55
 10
276.18
 20
160.86
 10
275.5
 20
159.14
 10
274.75
 20
157.34
 10
274.1
 20
155.86
 10
273.41
 20
154.33
 10
272.68
 20
152.77
 10
271.93
 20
151.2
 10
271.16
 20
149.64
 10
270.36
 20
148.09
 10
269.56
 20
146.59
 10
268.74
 20
145.11
 10
267.89
 20
143.65
 10
267.02
 20
142.2
 10
266.12
 20
140.73
 10
265.17
 20
139.25
 10
264.12
 20
137.64
 10
263.02
 20
136.02
 10
261.9
 20
134.4
 10
260.75
 20
132.81
 10
259.58
 20
131.26
 10
258.41
 20
129.77
 10
257.16
 20
128.27
 10
255.92
 20
126.85
 10
254.66
 20
125.49
 10
253.4
 20
124.18
 10
252.12
 20
122.9
 10
250.88
 20
121.69
 10
249.62
 20
120.49
 10
248.34
 20
119.32
 10
247.06
 20
118.19
 10
245.76
 20
117.1
 10
244.49
 20
116.08
 10
243.19
 20
115.11
 10
241.85
 20
114.17
 10
240.46
 20
113.27
 10
238.99
 20
112.4
 10
237.32
 20
111.48
 10
235.59
 20
110.61
 10
233.82
 20
109.8
 10
232.05
 20
109.05
 10
230.32
 20
108.4
 10
228.52
 20
107.81
 10
226.79
 20
107.31
 10
225.12
 20
106.88
 10
223.5
 20
106.49
 10
222
 20
106.15
 10
220.5
 20
105.82
 10
218.96
 20
105.54
 10
217.35
 20
105.3
 10
215.44
 20
105.12
 10
213.46
 20
104.99
 10
211.47
 20
104.93
 10
209.53
 20
104.9
 10
207.77
 20
104.9
 10
206.04
 20
104.93
 10
204.28
 20
105.03
 10
202.42
 20
105.19
 10
200.93
 20
105.37
 10
199.35
 20
105.59
 10
197.68
 20
105.85
 10
195.93
 20
106.16
 10
194.1
 20
106.5
 10
192.19
 20
106.88
 10
190.21
 20
107.28
 10
188.17
 20
107.71
 10
186.1
 20
108.15
 10
184.02
 20
108.61
 10
181.97
 20
109.05
 10
179.97
 20
109.49
 10
178.07
 20
109.9
 10
176.3
 20
110.27
 10
174.68
 20
110.6
 10
172.86
 20
110.95
 10
171.25
 20
111.2
 10
169.72
 20
111.33
 10
168.17
 20
111.35
 10
166.56
 20
111.24
 10
164.82
 20
111.04
 10
162.93
 20
110.75
 10
160.89
 20
110.39
 10
158.69
 20
109.98
 10
156.98
 20
109.66
 10
155.21
 20
109.33
 10
153.37
 20
109
 10
151.51
 20
108.66
 10
149.62
 20
108.33
 10
147.74
 20
108.01
 10
145.88
 20
107.7
 10
144.05
 20
107.41
 10
142.27
 20
107.15
 10
140.15
 20
106.86
 10
138.13
 20
106.61
 10
136.19
 20
106.42
 10
134.33
 20
106.28
 10
132.53
 20
106.2
 10
130.78
 20
106.17
 10
128.96
 20
106.2
 10
127.18
 20
106.3
 10
125.4
 20
106.46
 10
123.63
 20
106.68
 10
121.85
 20
106.96
 10
120.03
 20
107.29
 10
118.19
 20
107.68
 10
116.37
 20
108.12
 10
114.58
 20
108.59
 10
112.84
 20
109.1
 10
110.94
 20
109.71
 10
109.12
 20
110.35
 10
107.36
 20
111.05
 10
105.66
 20
111.79
 10
104.08
 20
112.54
 10
102.54
 20
113.34
 10
101.05
 20
114.19
 10
99.61
 20
115.08
 10
98.28
 20
115.97
 10
97
 20
116.89
 10
95.76000000000001
 20
117.85
 10
94.55
 20
118.85
 10
93.28
 20
119.94
 10
92.01000000000001
 20
121.1
 10
90.70999999999999
 20
122.33
 10
89.37
 20
123.66
 10
88.23999999999999
 20
124.82
 10
87.09
 20
126.04
 10
85.92
 20
127.31
 10
84.76000000000001
 20
128.61
 10
83.63
 20
129.93
 10
82.54000000000001
 20
131.26
 10
81.34999999999999
 20
132.76
 10
80.22
 20
134.27
 10
79.15000000000001
 20
135.77
 10
78.09999999999999
 20
137.3
 10
77.08
 20
138.86
 10
76.04000000000001
 20
140.51
 10
75.01000000000001
 20
142.21
 10
74
 20
143.94
 10
73
 20
145.7
 10
72.03
 20
147.48
 10
71.22
 20
149.03
 10
70.43000000000001
 20
150.6
 10
69.66
 20
152.19
 10
68.90000000000001
 20
153.8
 10
68.16
 20
155.44
 10
67.42
 20
157.1
 10
66.72
 20
158.73
 10
66.05
 20
160.37
 10
65.40000000000001
 20
161.98
 10
64.81
 20
163.55
 10
64.27
 20
165.05
 10
63.81
 20
166.45
 10
63.3
 20
168.27
 10
62.94
 20
169.92
 10
62.72
 20
171.48
 10
62.62
 20
173.41
 10
62.64
 20
174.14
 10
62.7
 20
174.83
 10
62.8
 20
175.42
 10
62.92
 20
175.92
 10
63.07
 20
176.39
 10
63.26
 20
176.84
 10
63.49
 20
177.28
 10
63.78
 20
177.73
 10
64.11
 20
178.18
 10
64.48999999999999
 20
178.63
 10
65.53
 20
179.62
 10
66.48
 20
180.26
 10
67.69
 20
180.82
 10
69.38
 20
181.39
 10
70.39
 20
181.69
 10
71.55
 20
182
 10
72.84
 20
182.33
 10
74.27
 20
182.69
 10
75.81
 20
183.05
 10
76.26000000000001
 20
183.16
  0
LWPOLYLINE
  5
DF
100
AcDbEntity
  8
0007_4150
  6
CONTINUOUS
 62
    5
370
   -1
100
AcDbPolyline
 90
   70
 70
    0
 43
0
 10
276.09
 20
-45.98
 10
276.35
 20
-46.07
 10
278.24
 20
-46.71
 10
280.12
 20
-47.35
 10
282.01
 20
-47.99
 10
283.9
 20
-48.64
 10
285.79
 20
-49.28
 10
287.67
 20
-49.92
 10
289.56
 20
-50.56
 10
291.45
 20
-51.21
 10
293.34
 20
-51.85
 10
295.22
 20
-52.49
 10
297.11
 20
-53.13
 10
299
 20
-53.77
 10
300.89
 20
-54.42
 10
302.77
 20
-55.06
 10
304.66
 20
-55.7
 10
306.55
 20
-56.34
 10
308.44
 20
-56.98
 10
310.32
 20
-57.63
 10
312.21
 20
-58.27
 10
314.1
 20
-58.91
 10
315.99
 20
-59.55
 10
317.87
 20
-60.2
 10
319.76
 20
-60.84
 10
321.65
 20
-61.48
 10
323.54
 20
-62.12
 10
325.42
 20
-62.76
 10
327.31
 20
-63.41
 10
329.2
 20
-64.05
 10
331.09
 20
-64.69
 10
332.97
 20
-65.33
 10
334.86
 20
-65.98
 10
336.75
 20
-66.62
 10
338.64
 20
-67.26000000000001
 10
340.52
 20
-67.90000000000001
 10
342.41
 20
-68.54000000000001
 10
344.3
 20
-69.19
 10
346.19
 20
-69.83
 10
348.07
 20
-70.47
 10
349.96
 20
-71.11
 10
351.85
 20
-71.75
 10
353.74
 20
-72.40000000000001
 10
355.62
 20
-73.04000000000001
 10
357.51
 20
-73.68000000000001
 10
359.4
 20
-74.31999999999999
 10
361.29
 20
-74.97
 10
363.18
 20
-75.61
 10
365.06
 20
-76.25
 10
366.95
 20
-76.89
 10
368.84
 20
-77.53
 10
370.73
 20
-78.18000000000001
 10
372.61
 20
-78.81999999999999
 10
374.5
 20
-79.45999999999999
 10
376.39
 20
-80.09999999999999
 10
378.28
 20
-80.73999999999999
 10
380.16
 20
-81.39
 10
382.05
 20
-82.03
 10
383.94
 20
-82.67
 10
385.83
 20
-83.31
 10
387.71
 20
-83.95999999999999
 10
389.6
 20
-84.59999999999999
 10
391.49
 20
-85.23999999999999
 10
393.38
 20
-85.88
 10
395.26
 20
-86.52
 10
397.15
 20
-87.17
 10
399.04
 20
-87.81
 10
400.93
 20
-88.45
 10
402.81
 20
-89.09
 10
404.45
 20
-89.65000000000001
  0
LWPOLYLINE
  5
E0
100
AcDbEntity
  8
0007_4150
  6
CONTINUOUS
 62
    5
370
   -1
100
AcDbPolyline
 90
   91
 70
    0
 43
0
 10
276.09
 20
-45.98
 10
276.85
 20
-45.24
 10
278.04
 20
-44.06
 10
279.24
 20
-42.88
 10
280.45
 20
-41.69
 10
281.67
 20
-40.49
 10
282.92
 20
-39.28
 10
284.42
 20
-37.83
 10
285.94
 20
-36.39
 10
287.44
 20
-35.01
 10
288.9
 20
-33.71
 10
290.3
 20
-32.54
 10
291.84
 20
-31.37
 10
293.26
 20
-30.46
 10
293.91
 20
-30.12
 10
294.53
 20
-29.87
 10
294.94
 20
-29.74
 10
295.34
 20
-29.65
 10
295.73
 20
-29.6
 10
296.96
 20
-29.62
 10
298.24
 20
-29.78
 10
299.85
 20
-30.11
 10
301.92
 20
-30.63
 10
304.59
 20
-31.38
 10
305.75
 20
-31.72
 10
307.01
 20
-32.09
 10
308.36
 20
-32.49
 10
309.79
 20
-32.92
 10
311.31
 20
-33.39
 10
312.9
 20
-33.88
 10
314.57
 20
-34.39
 10
316.3
 20
-34.93
 10
318.09
 20
-35.49
 10
319.95
 20
-36.08
 10
321.85
 20
-36.68
 10
323.81
 20
-37.3
 10
325.8
 20
-37.94
 10
327.84
 20
-38.59
 10
329.9
 20
-39.25
 10
332
 20
-39.93
 10
334.12
 20
-40.62
 10
336.26
 20
-41.31
 10
338.42
 20
-42.01
 10
340.58
 20
-42.72
 10
342.75
 20
-43.43
 10
344.92
 20
-44.14
 10
347.08
 20
-44.86
 10
349.24
 20
-45.57
 10
351.38
 20
-46.28
 10
353.5
 20
-46.99
 10
355.59
 20
-47.69
 10
357.66
 20
-48.38
 10
359.69
 20
-49.06
 10
361.69
 20
-49.74
 10
364.24
 20
-50.6
 10
366.72
 20
-51.45
 10
369.12
 20
-52.27
 10
371.44
 20
-53.07
 10
373.67
 20
-53.84
 10
375.81
 20
-54.59
 10
377.87
 20
-55.31
 10
379.83
 20
-56
 10
381.7
 20
-56.66
 10
383.48
 20
-57.29
 10
385.15
 20
-57.89
 10
386.73
 20
-58.46
 10
388.2
 20
-58.99
 10
389.56
 20
-59.49
 10
390.81
 20
-59.95
 10
391.96
 20
-60.38
 10
392.99
 20
-60.77
 10
394.93
 20
-61.52
 10
396.47
 20
-62.21
 10
397.83
 20
-62.97
 10
399.02
 20
-63.8
 10
400.16
 20
-64.76000000000001
 10
401.16
 20
-65.81999999999999
 10
402.23
 20
-67.3
 10
402.99
 20
-68.81
 10
403.48
 20
-70.17
 10
403.81
 20
-71.61
 10
404.03
 20
-73.12
 10
404.18
 20
-74.95
 10
404.29
 20
-77.23
 10
404.33
 20
-78.67
 10
404.36
 20
-80.28
 10
404.39
 20
-82.02
 10
404.42
 20
-83.88
 10
404.43
 20
-85.84999999999999
 10
404.45
 20
-87.91
 10
404.45
 20
-89.65000000000001
  0
LINE
  5
E1
100
AcDbEntity
  8
0008_4150
  6
DASHED
 62
    3
370
   -1
100
AcDbLine
 10
139.82
 20
616.25
 11
136.02
 21
390.02
  0
LWPOLYLINE
  5
E2
100
AcDbEntity
  8
0008_4150
  6
CONTINUOUS
 62
    7
370
   -1
100
AcDbPolyline
 90
   15
 70
    0
 43
0
 10
138.58
 20
478.42
 10
139.17
 20
476.87
 10
139.8
 20
475.25
 10
140.54
 20
473.49
 10
141.41
 20
471.53
 10
142.19
 20
469.9
 10
143.03
 20
468.18
 10
143.93
 20
466.41
 10
144.84
 20
464.67
 10
145.73
 20
463
 10
146.57
 20
461.47
 10
147.34
 20
460.14
 10
148.2
 20
458.7
 10
148.94
 20
457.56
 10
149.61
 20
456.57
  0
LWPOLYLINE
  5
E3
100
AcDbEntity
  8
0008_4150
  6
CONTINUOUS
 62
    5
370
   -1
100
AcDbPolyline
 90
   59
 70
    0
 43
0
 10
-19.04
 20
587.5599999999999
 10
-18.73
 20
585.73
 10
-18.4
 20
583.79
 10
-18.07
 20
581.84
 10
-17.74
 20
579.9
 10
-17.41
 20
577.95
 10
-17.08
 20
576.01
 10
-16.74
 20
574.0599999999999
 10
-16.41
 20
572.12
 10
-16.08
 20
570.17
 10
-15.75
 20
568.23
 10
-15.42
 20
566.28
 10
-15.09
 20
564.34
 10
-14.75
 20
562.39
 10
-14.42
 20
560.45
 10
-14.09
 20
558.5
 10
-13.76
 20
556.5599999999999
 10
-13.43
 20
554.61
 10
-13.1
 20
552.67
 10
-12.76
 20
550.72
 10
-12.43
 20
548.78
 10
-12.1
 20
546.83
 10
-11.77
 20
544.89
 10
-11.44
 20
542.9400000000001
 10
-11.11
 20
541
 10
-10.78
 20
539.05
 10
-10.44
 20
537.11
 10
-10.11
 20
535.16
 10
-9.779999999999999
 20
533.22
 10
-9.449999999999999
 20
531.27
 10
-9.119999999999999
 20
529.33
 10
-8.789999999999999
 20
527.38
 10
-8.449999999999999
 20
525.4400000000001
 10
-8.119999999999999
 20
523.49
 10
-7.79
 20
521.55
 10
-7.46
 20
519.6
 10
-7.13
 20
517.66
 10
-6.8
 20
515.71
 10
-6.46
 20
513.77
 10
-6.13
 20
511.82
 10
-5.8
 20
509.88
 10
-5.47
 20
507.93
 10
-5.14
 20
505.99
 10
-4.81
 20
504.04
 10
-4.47
 20
502.1
 10
-4.14
 20
500.15
 10
-3.81
 20
498.21
 10
-3.48
 20
496.26
 10
-3.15
 20
494.32
 10
-2.82
 20
492.37
 10
-2.49
 20
490.43
 10
-2.15
 20
488.48
 10
-1.82
 20
486.54
 10
-1.49
 20
484.59
 10
-1.16
 20
482.65
 10
-0.83
 20
480.7
 10
-0.5
 20
478.76
 10
-0.16
 20
476.81
 10
-0.1
 20
476.42
  0
LWPOLYLINE
  5
E4
100
AcDbEntity
  8
0008_4150
  6
CONTINUOUS
 62
    5
370
   -1
100
AcDbPolyline
 90
   72
 70
    0
 43
0
 10
-0.1
 20
476.42
 10
0.5
 20
476.33
 10
2.46
 20
476.04
 10
4.42
 20
475.75
 10
6.38
 20
475.45
 10
8.34
 20
475.16
 10
10.3
 20
474.87
 10
12.26
 20
474.58
 10
14.22
 20
474.28
 10
16.18
 20
473.99
 10
18.15
 20
473.7
 10
20.11
 20
473.41
 10
22.07
 20
473.11
 10
24.03
 20
472.82
 10
25.99
 20
472.53
 10
27.95
 20
472.24
 10
29.91
 20
471.95
 10
31.87
 20
471.65
 10
33.83
 20
471.36
 10
35.79
 20
471.07
 10
37.75
 20
470.78
 10
39.71
 20
470.48
 10
41.67
 20
470.19
 10
43.63
 20
469.9
 10
45.6
 20
469.61
 10
47.56
 20
469.31
 10
49.52
 20
469.02
 10
51.48
 20
468.73
 10
53.44
 20
468.44
 10
55.4
 20
468.14
 10
57.36
 20
467.85
 10
59.32
 20
467.56
 10
61.28
 20
467.27
 10
63.24
 20
466.98
 10
65.2
 20
466.68
 10
67.16
 20
466.39
 10
69.12
 20
466.1
 10
71.08
 20
465.81
 10
73.04000000000001
 20
465.51
 10
75.01000000000001
 20
465.22
 10
76.97
 20
464.93
 10
78.93000000000001
 20
464.64
 10
80.89
 20
464.34
 10
82.84999999999999
 20
464.05
 10
84.81
 20
463.76
 10
86.77
 20
463.47
 10
88.73
 20
463.18
 10
90.69
 20
462.88
 10
92.65000000000001
 20
462.59
 10
94.61
 20
462.3
 10
96.56999999999999
 20
462.01
 10
98.53
 20
461.71
 10
100.49
 20
461.42
 10
102.45
 20
461.13
 10
104.42
 20
460.84
 10
106.38
 20
460.54
 10
108.34
 20
460.25
 10
110.3
 20
459.96
 10
112.26
 20
459.67
 10
114.22
 20
459.38
 10
116.18
 20
459.08
 10
118.14
 20
458.79
 10
120.1
 20
458.5
 10
122.06
 20
458.21
 10
124.02
 20
457.91
 10
125.98
 20
457.62
 10
127.94
 20
457.33
 10
129.9
 20
457.04
 10
131.87
 20
456.74
 10
133.83
 20
456.45
 10
135.79
 20
456.16
 10
137.13
 20
455.96
  0
LWPOLYLINE
  5
E5
100
AcDbEntity
  8
0008_4150
  6
CONTINUOUS
 62
    5
370
   -1
100
AcDbPolyline
 90
  105
 70
    0
 43
0
 10
138.93
 20
563.24
 10
137.85
 20
563.01
 10
135.86
 20
562.45
 10
134.53
 20
561.96
 10
133.07
 20
561.34
 10
131.48
 20
560.6
 10
129.76
 20
559.75
 10
127.88
 20
558.79
 10
126.35
 20
557.99
 10
124.75
 20
557.14
 10
123.1
 20
556.27
 10
121.42
 20
555.37
 10
119.73
 20
554.47
 10
118.06
 20
553.5700000000001
 10
116.42
 20
552.7
 10
114.83
 20
551.87
 10
113.32
 20
551.09
 10
111.46
 20
550.15
 10
109.74
 20
549.3200000000001
 10
108.15
 20
548.58
 10
106.66
 20
547.9299999999999
 10
105.25
 20
547.37
 10
103.43
 20
546.72
 10
101.61
 20
546.1799999999999
 10
99.68000000000001
 20
545.71
 10
97.87
 20
545.33
 10
95.95
 20
545.02
 10
93.98999999999999
 20
544.78
 10
92.04000000000001
 20
544.64
 10
90.31999999999999
 20
544.63
 10
88.67
 20
544.71
 10
87.11
 20
544.86
 10
85.64
 20
545.0599999999999
 10
84.05
 20
545.33
 10
82.51000000000001
 20
545.67
 10
80.95
 20
546.11
 10
79.14
 20
546.71
 10
77.3
 20
547.41
 10
75.55
 20
548.14
 10
74.08
 20
548.8
 10
72.68000000000001
 20
549.51
 10
71.26000000000001
 20
550.3099999999999
 10
69.86
 20
551.1900000000001
 10
68.39
 20
552.1799999999999
 10
66.86
 20
553.29
 10
65.3
 20
554.49
 10
64.06999999999999
 20
555.5
 10
62.84
 20
556.55
 10
61.6
 20
557.66
 10
60.35
 20
558.8200000000001
 10
59.1
 20
560.03
 10
57.84
 20
561.3
 10
56.59
 20
562.62
 10
55.33
 20
563.98
 10
54.06
 20
565.41
 10
52.78
 20
566.88
 10
51.49
 20
568.4
 10
50.19
 20
569.98
 10
48.88
 20
571.6
 10
47.65
 20
573.16
 10
46.41
 20
574.74
 10
45.18
 20
576.34
 10
43.96
 20
577.9299999999999
 10
42.76
 20
579.5
 10
41.58
 20
581.03
 10
40.45
 20
582.51
 10
39.35
 20
583.92
 10
37.9
 20
585.78
 10
36.57
 20
587.4299999999999
 10
35.4
 20
588.85
 10
34.42
 20
589.99
 10
33.47
 20
591
 10
32.43
 20
591.86
 10
31.23
 20
592.64
 10
29.84
 20
593.4
 10
28.41
 20
594.0599999999999
 10
27.68
 20
594.33
 10
26.96
 20
594.55
 10
26.24
 20
594.7
 10
25.51
 20
594.8099999999999
 10
24.75
 20
594.87
 10
23.32
 20
594.86
 10
21.71
 20
594.75
 10
19.88
 20
594.53
 10
17.78
 20
594.24
 10
16.32
 20
594.02
 10
14.76
 20
593.79
 10
13.1
 20
593.53
 10
11.36
 20
593.25
 10
9.529999999999999
 20
592.95
 10
7.64
 20
592.64
 10
5.7
 20
592.3099999999999
 10
3.71
 20
591.96
 10
1.68
 20
591.6
 10
-0.37
 20
591.23
 10
-2.44
 20
590.85
 10
-4.31
 20
590.5
 10
-6.18
 20
590.14
 10
-8.050000000000001
 20
589.78
 10
-9.93
 20
589.41
 10
-11.81
 20
589.03
 10
-13.7
 20
588.66
 10
-15.58
 20
588.27
 10
-17.47
 20
587.88
 10
-19.04
 20
587.5599999999999
  0
LWPOLYLINE
  5
E6
100
AcDbEntity
  8
0008_4150
  6
CONTINUOUS
 62
    5
370
   -1
100
AcDbPolyline
 90
   59
 70
    0
 43
0
 10
297.63
 20
582.24
 10
297.26
 20
580.4299999999999
 10
296.86
 20
578.49
 10
296.46
 20
576.5599999999999
 10
296.07
 20
574.63
 10
295.67
 20
572.7
 10
295.27
 20
570.76
 10
294.88
 20
568.83
 10
294.48
 20
566.9
 10
294.08
 20
564.96
 10
293.69
 20
563.03
 10
293.29
 20
561.1
 10
292.89
 20
559.17
 10
292.5
 20
557.23
 10
292.1
 20
555.3
 10
291.7
 20
553.37
 10
291.3
 20
551.4400000000001
 10
290.91
 20
549.5
 10
290.51
 20
547.5700000000001
 10
290.11
 20
545.64
 10
289.72
 20
543.7
 10
289.32
 20
541.77
 10
288.92
 20
539.84
 10
288.53
 20
537.91
 10
288.13
 20
535.97
 10
287.73
 20
534.04
 10
287.34
 20
532.11
 10
286.94
 20
530.1799999999999
 10
286.54
 20
528.24
 10
286.15
 20
526.3099999999999
 10
285.75
 20
524.38
 10
285.35
 20
522.4400000000001
 10
284.96
 20
520.51
 10
284.56
 20
518.58
 10
284.16
 20
516.65
 10
283.77
 20
514.71
 10
283.37
 20
512.78
 10
282.97
 20
510.85
 10
282.58
 20
508.91
 10
282.18
 20
506.98
 10
281.78
 20
505.05
 10
281.39
 20
503.12
 10
280.99
 20
501.18
 10
280.59
 20
499.25
 10
280.2
 20
497.32
 10
279.8
 20
495.39
 10
279.4
 20
493.45
 10
279.01
 20
491.52
 10
278.61
 20
489.59
 10
278.21
 20
487.65
 10
277.82
 20
485.72
 10
277.42
 20
483.79
 10
277.02
 20
481.86
 10
276.63
 20
479.92
 10
276.23
 20
477.99
 10
275.83
 20
476.06
 10
275.44
 20
474.13
 10
275.04
 20
472.19
 10
274.96
 20
471.8
  0
LWPOLYLINE
  5
E7
100
AcDbEntity
  8
0008_4150
  6
CONTINUOUS
 62
    5
370
   -1
100
AcDbPolyline
 90
   72
 70
    0
 43
0
 10
274.96
 20
471.8
 10
274.36
 20
471.73
 10
272.39
 20
471.5
 10
270.42
 20
471.28
 10
268.45
 20
471.05
 10
266.48
 20
470.83
 10
264.51
 20
470.6
 10
262.54
 20
470.37
 10
260.57
 20
470.15
 10
258.61
 20
469.92
 10
256.64
 20
469.69
 10
254.67
 20
469.47
 10
252.7
 20
469.24
 10
250.73
 20
469.01
 10
248.76
 20
468.79
 10
246.79
 20
468.56
 10
244.82
 20
468.34
 10
242.85
 20
468.11
 10
240.88
 20
467.88
 10
238.91
 20
467.66
 10
236.94
 20
467.43
 10
234.97
 20
467.2
 10
233
 20
466.98
 10
231.03
 20
466.75
 10
229.06
 20
466.53
 10
227.09
 20
466.3
 10
225.13
 20
466.07
 10
223.16
 20
465.85
 10
221.19
 20
465.62
 10
219.22
 20
465.39
 10
217.25
 20
465.17
 10
215.28
 20
464.94
 10
213.31
 20
464.71
 10
211.34
 20
464.49
 10
209.37
 20
464.26
 10
207.4
 20
464.04
 10
205.43
 20
463.81
 10
203.46
 20
463.58
 10
201.49
 20
463.36
 10
199.52
 20
463.13
 10
197.55
 20
462.9
 10
195.58
 20
462.68
 10
193.62
 20
462.45
 10
191.65
 20
462.23
 10
189.68
 20
462
 10
187.71
 20
461.77
 10
185.74
 20
461.55
 10
183.77
 20
461.32
 10
181.8
 20
461.09
 10
179.83
 20
460.87
 10
177.86
 20
460.64
 10
175.89
 20
460.41
 10
173.92
 20
460.19
 10
171.95
 20
459.96
 10
169.98
 20
459.74
 10
168.01
 20
459.51
 10
166.04
 20
459.28
 10
164.07
 20
459.06
 10
162.1
 20
458.83
 10
160.14
 20
458.6
 10
158.17
 20
458.38
 10
156.2
 20
458.15
 10
154.23
 20
457.93
 10
152.26
 20
457.7
 10
150.29
 20
457.47
 10
148.32
 20
457.25
 10
146.35
 20
457.02
 10
144.38
 20
456.79
 10
142.41
 20
456.57
 10
140.44
 20
456.34
 10
138.47
 20
456.11
 10
137.13
 20
455.96
  0
LWPOLYLINE
  5
E8
100
AcDbEntity
  8
0008_4150
  6
CONTINUOUS
 62
    5
370
   -1
100
AcDbPolyline
 90
  105
 70
    0
 43
0
 10
138.93
 20
563.24
 10
139.99
 20
562.98
 10
141.97
 20
562.35
 10
143.28
 20
561.8099999999999
 10
144.72
 20
561.15
 10
146.28
 20
560.36
 10
147.98
 20
559.45
 10
149.82
 20
558.42
 10
151.33
 20
557.5700000000001
 10
152.9
 20
556.67
 10
154.52
 20
555.74
 10
156.16
 20
554.78
 10
157.82
 20
553.83
 10
159.46
 20
552.88
 10
161.07
 20
551.95
 10
162.63
 20
551.0700000000001
 10
164.12
 20
550.24
 10
165.95
 20
549.23
 10
167.63
 20
548.34
 10
169.2
 20
547.55
 10
170.67
 20
546.86
 10
172.06
 20
546.25
 10
173.85
 20
545.54
 10
175.65
 20
544.9400000000001
 10
177.56
 20
544.4
 10
179.37
 20
543.97
 10
181.27
 20
543.58
 10
183.23
 20
543.28
 10
185.17
 20
543.08
 10
186.88
 20
543.01
 10
188.53
 20
543.04
 10
190.1
 20
543.13
 10
191.58
 20
543.28
 10
193.18
 20
543.5
 10
194.72
 20
543.79
 10
196.3
 20
544.17
 10
198.13
 20
544.71
 10
199.99
 20
545.35
 10
201.76
 20
546.02
 10
203.25
 20
546.63
 10
204.68
 20
547.29
 10
206.13
 20
548.05
 10
207.55
 20
548.88
 10
209.06
 20
549.8200000000001
 10
210.62
 20
550.88
 10
212.22
 20
552.02
 10
213.48
 20
552.99
 10
214.75
 20
554
 10
216.03
 20
555.0700000000001
 10
217.31
 20
556.1799999999999
 10
218.6
 20
557.35
 10
219.9
 20
558.58
 10
221.2
 20
559.85
 10
222.51
 20
561.1799999999999
 10
223.83
 20
562.5599999999999
 10
225.15
 20
563.98
 10
226.49
 20
565.46
 10
227.84
 20
566.99
 10
229.2
 20
568.5700000000001
 10
230.49
 20
570.09
 10
231.78
 20
571.63
 10
233.06
 20
573.1799999999999
 10
234.34
 20
574.73
 10
235.59
 20
576.26
 10
236.81
 20
577.75
 10
238
 20
579.1900000000001
 10
239.14
 20
580.5700000000001
 10
240.66
 20
582.37
 10
242.04
 20
583.98
 10
243.25
 20
585.35
 10
244.27
 20
586.47
 10
245.26
 20
587.4400000000001
 10
246.33
 20
588.26
 10
247.55
 20
589
 10
248.97
 20
589.72
 10
250.42
 20
590.33
 10
251.16
 20
590.58
 10
251.89
 20
590.77
 10
252.61
 20
590.9
 10
253.34
 20
590.98
 10
254.11
 20
591.02
 10
255.53
 20
590.96
 10
257.13
 20
590.79
 10
258.96
 20
590.52
 10
261.05
 20
590.15
 10
262.5
 20
589.89
 10
264.05
 20
589.6
 10
265.7
 20
589.29
 10
267.44
 20
588.95
 10
269.25
 20
588.59
 10
271.12
 20
588.21
 10
273.06
 20
587.8200000000001
 10
275.04
 20
587.4
 10
277.05
 20
586.98
 10
279.09
 20
586.54
 10
281.14
 20
586.09
 10
283
 20
585.6799999999999
 10
284.86
 20
585.26
 10
286.72
 20
584.83
 10
288.58
 20
584.4
 10
290.45
 20
583.96
 10
292.32
 20
583.52
 10
294.19
 20
583.0700000000001
 10
296.07
 20
582.62
 10
297.63
 20
582.24
  0
LINE
  5
E9
100
AcDbEntity
  8
0009_4150
  6
DASHED
 62
    3
370
   -1
100
AcDbLine
 10
621.27
 20
463.42
 11
336.85
 21
458.45
  0
CIRCLE
  5
EA
100
AcDbEntity
  8
0009_4150
  6
ByLayer
 62
    1
370
   -1
100
AcDbCircle
 10
493.96
 20
429.83
 40
1
  0
CIRCLE
  5
EB
100
AcDbEntity
  8
0009_4150
  6
ByLayer
 62
    1
370
   -1
100
AcDbCircle
 10
492.86
 20
492.53
 40
1
  0
LWPOLYLINE
  5
EC
100
AcDbEntity
  8
0009_4150
  6
CONTINUOUS
 62
    5
370
   -1
100
AcDbPolyline
 90
   58
 70
    0
 43
0
 10
367.61
 20
458.99
 10
367.64
 20
457.43
 10
367.68
 20
455.62
 10
367.72
 20
453.83
 10
367.78
 20
452.08
 10
367.85
 20
450.37
 10
367.95
 20
448.35
 10
368.07
 20
446.38
 10
368.21
 20
444.47
 10
368.37
 20
442.61
 10
368.54
 20
440.8
 10
368.74
 20
439.04
 10
368.95
 20
437.32
 10
369.23
 20
435.36
 10
369.54
 20
433.46
 10
369.88
 20
431.65
 10
370.24
 20
429.91
 10
370.64
 20
428.26
 10
371.22
 20
426.2
 10
371.85
 20
424.31
 10
372.51
 20
422.58
 10
373.07
 20
421.27
 10
373.68
 20
420.06
 10
374.37
 20
418.95
 10
375.51
 20
417.51
 10
376.81
 20
416.21
 10
378.28
 20
414.97
 10
379.88
 20
413.86
 10
381.1
 20
413.17
 10
382.41
 20
412.56
 10
383.84
 20
412.01
 10
385.57
 20
411.48
 10
387.37
 20
411.05
 10
389.08
 20
410.73
 10
390.49
 20
410.56
 10
391.89
 20
410.46
 10
393.46
 20
410.42
 10
394.74
 20
410.4
 10
396.19
 20
410.4
 10
397.78
 20
410.41
 10
399.52
 20
410.45
 10
401.39
 20
410.51
 10
403.39
 20
410.59
 10
405.52
 20
410.72
 10
407.2
 20
410.83
 10
408.95
 20
410.97
 10
410.75
 20
411.13
 10
412.6
 20
411.3
 10
414.51
 20
411.49
 10
416.45
 20
411.69
 10
418.44
 20
411.9
 10
420.45
 20
412.13
 10
422.5
 20
412.36
 10
424.57
 20
412.6
 10
426.65
 20
412.85
 10
428.75
 20
413.1
 10
430.87
 20
413.35
 10
432.1
 20
413.5
  0
LWPOLYLINE
  5
ED
100
AcDbEntity
  8
0009_4150
  6
CONTINUOUS
 62
    6
370
   -1
100
AcDbPolyline
 90
   27
 70
    0
 43
0
 10
512.85
 20
430.62
 10
513.45
 20
428.72
 10
514.05
 20
426.83
 10
514.65
 20
424.93
 10
515.25
 20
423.04
 10
515.85
 20
421.14
 10
516.45
 20
419.25
 10
517.05
 20
417.35
 10
517.65
 20
415.46
 10
518.25
 20
413.56
 10
518.85
 20
411.67
 10
519.45
 20
409.77
 10
520.05
 20
407.88
 10
520.65
 20
405.98
 10
521.25
 20
404.09
 10
521.85
 20
402.19
 10
522.45
 20
400.3
 10
523.05
 20
398.4
 10
523.65
 20
396.51
 10
524.25
 20
394.61
 10
524.85
 20
392.72
 10
525.45
 20
390.82
 10
526.05
 20
388.93
 10
526.65
 20
387.03
 10
527.25
 20
385.14
 10
527.85
 20
383.24
 10
528.45
 20
381.35
  0
LWPOLYLINE
  5
EE
100
AcDbEntity
  8
0009_4150
  6
CONTINUOUS
 62
    5
370
   -1
100
AcDbPolyline
 90
   76
 70
    0
 43
0
 10
519.55
 20
368.29
 10
521.09
 20
368.97
 10
522.66
 20
369.66
 10
524.28
 20
370.4
 10
525.97
 20
371.2
 10
527.4299999999999
 20
371.92
 10
528.9400000000001
 20
372.68
 10
530.5
 20
373.5
 10
532.09
 20
374.34
 10
533.7
 20
375.22
 10
535.3200000000001
 20
376.12
 10
536.87
 20
376.99
 10
538.42
 20
377.88
 10
539.99
 20
378.79
 10
541.5700000000001
 20
379.74
 10
543.1799999999999
 20
380.73
 10
544.8200000000001
 20
381.76
 10
546.51
 20
382.84
 10
548.16
 20
383.94
 10
549.85
 20
385.07
 10
551.53
 20
386.23
 10
553.21
 20
387.4
 10
554.85
 20
388.57
 10
556.45
 20
389.72
 10
557.97
 20
390.84
 10
559.41
 20
391.91
 10
561.09
 20
393.19
 10
562.65
 20
394.42
 10
564.14
 20
395.61
 10
565.62
 20
396.82
 10
567.12
 20
398.08
 10
568.38
 20
399.14
 10
569.67
 20
400.24
 10
571
 20
401.38
 10
572.35
 20
402.56
 10
573.71
 20
403.76
 10
575.0599999999999
 20
404.99
 10
576.41
 20
406.22
 10
577.73
 20
407.47
 10
579.03
 20
408.72
 10
580.3
 20
409.97
 10
581.54
 20
411.24
 10
582.74
 20
412.5
 10
583.92
 20
413.77
 10
585.05
 20
415.04
 10
586.21
 20
416.39
 10
587.3200000000001
 20
417.73
 10
588.38
 20
419.07
 10
589.39
 20
420.4
 10
590.36
 20
421.71
 10
591.27
 20
423.01
 10
592.38
 20
424.65
 10
593.4
 20
426.26
 10
594.35
 20
427.85
 10
595.23
 20
429.42
 10
596.03
 20
430.94
 10
596.78
 20
432.48
 10
597.5
 20
434.09
 10
598.1900000000001
 20
435.78
 10
598.8
 20
437.4
 10
599.39
 20
439.09
 10
599.95
 20
440.81
 10
600.45
 20
442.54
 10
600.9
 20
444.23
 10
601.27
 20
445.82
 10
601.5700000000001
 20
447.38
 10
601.8200000000001
 20
448.96
 10
602.01
 20
450.59
 10
602.17
 20
452.3
 10
602.27
 20
453.9
 10
602.35
 20
455.58
 10
602.4
 20
457.33
 10
602.4400000000001
 20
459.13
 10
602.47
 20
460.98
 10
602.48
 20
462.85
 10
602.48
 20
463.09
  0
LWPOLYLINE
  5
EF
100
AcDbEntity
  8
0009_4150
  6
CONTINUOUS
 62
    5
370
   -1
100
AcDbPolyline
 90
    4
 70
    0
 43
0
 10
519.55
 20
368.29
 10
517.98
 20
369.18
 10
516.42
 20
370.07
 10
515.75
 20
370.46
  0
LWPOLYLINE
  5
F0
100
AcDbEntity
  8
0009_4150
  6
CONTINUOUS
 62
    5
370
   -1
100
AcDbPolyline
 90
   72
 70
    0
 43
0
 10
515.75
 20
370.46
 10
515.66
 20
370.73
 10
514.95
 20
373.02
 10
514.23
 20
375.3
 10
513.53
 20
377.57
 10
512.8200000000001
 20
379.81
 10
512.12
 20
382.04
 10
511.43
 20
384.24
 10
510.75
 20
386.41
 10
510.08
 20
388.54
 10
509.41
 20
390.64
 10
508.76
 20
392.7
 10
508.12
 20
394.72
 10
507.49
 20
396.68
 10
506.87
 20
398.6
 10
506.27
 20
400.46
 10
505.69
 20
402.26
 10
505.12
 20
404
 10
504.57
 20
405.67
 10
504.04
 20
407.28
 10
503.53
 20
408.81
 10
503.04
 20
410.26
 10
502.57
 20
411.63
 10
502.12
 20
412.92
 10
501.7
 20
414.12
 10
501.3
 20
415.22
 10
500.93
 20
416.24
 10
500.16
 20
418.22
 10
499.51
 20
419.76
 10
498.93
 20
420.96
 10
498.41
 20
421.91
 10
497.81
 20
422.84
 10
497.11
 20
423.66
 10
496.74
 20
424.03
 10
496.32
 20
424.39
 10
495.85
 20
424.73
 10
495.35
 20
425.03
 10
494.8
 20
425.28
 10
493.55
 20
425.6
 10
492.15
 20
425.72
 10
490.6
 20
425.71
 10
489.28
 20
425.65
 10
487.85
 20
425.55
 10
486.26
 20
425.41
 10
484.49
 20
425.23
 10
482.48
 20
425.02
 10
480.2
 20
424.77
 10
478.9
 20
424.62
 10
477.52
 20
424.46
 10
476.06
 20
424.3
 10
474.54
 20
424.12
 10
472.94
 20
423.94
 10
471.28
 20
423.75
 10
469.55
 20
423.55
 10
467.76
 20
423.35
 10
465.92
 20
423.13
 10
464.03
 20
422.91
 10
462.08
 20
422.69
 10
460.09
 20
422.46
 10
458.06
 20
422.22
 10
455.99
 20
421.98
 10
453.88
 20
421.73
 10
451.73
 20
421.48
 10
449.56
 20
421.23
 10
447.36
 20
420.97
 10
445.14
 20
420.71
 10
442.9
 20
420.45
 10
440.64
 20
420.18
 10
438.37
 20
419.92
 10
436.09
 20
419.65
 10
433.8
 20
419.38
 10
432.03
 20
419.18
  0
LWPOLYLINE
  5
F1
100
AcDbEntity
  8
0009_4150
  6
CONTINUOUS
 62
    7
370
   -1
100
AcDbPolyline
 90
    6
 70
    0
 43
0
 10
460.34
 20
465.61
 10
460.38
 20
463.61
 10
460.41
 20
461.61
 10
460.45
 20
459.61
 10
460.48
 20
457.61
 10
460.52
 20
455.61
  0
LWPOLYLINE
  5
F2
100
AcDbEntity
  8
0009_4150
  6
CONTINUOUS
 62
    7
370
   -1
100
AcDbPolyline
 90
    7
 70
    0
 43
0
 10
440.52
 20
455.26
 10
440.49
 20
456.93
 10
440.46
 20
458.59
 10
440.43
 20
460.26
 10
440.4
 20
461.93
 10
440.37
 20
463.59
 10
440.35
 20
465.26
  0
LWPOLYLINE
  5
F3
100
AcDbEntity
  8
0009_4150
  6
CONTINUOUS
 62
    5
370
   -1
100
AcDbPolyline
 90
    5
 70
    0
 43
0
 10
432.1
 20
413.5
 10
432.09
 20
414.3
 10
432.07
 20
416.08
 10
432.04
 20
417.86
 10
432.03
 20
419.18
  0
LWPOLYLINE
  5
F4
100
AcDbEntity
  8
0009_4150
  6
CONTINUOUS
 62
    5
370
   -1
100
AcDbPolyline
 90
   58
 70
    0
 43
0
 10
367.61
 20
458.99
 10
367.58
 20
460.55
 10
367.56
 20
462.36
 10
367.54
 20
464.14
 10
367.54
 20
465.89
 10
367.55
 20
467.61
 10
367.58
 20
469.63
 10
367.63
 20
471.6
 10
367.7
 20
473.52
 10
367.79
 20
475.38
 10
367.91
 20
477.2
 10
368.04
 20
478.97
 10
368.2
 20
480.69
 10
368.41
 20
482.66
 10
368.65
 20
484.56
 10
368.92
 20
486.39
 10
369.23
 20
488.14
 10
369.57
 20
489.8
 10
370.07
 20
491.88
 10
370.63
 20
493.79
 10
371.23
 20
495.54
 10
371.75
 20
496.87
 10
372.32
 20
498.1
 10
372.97
 20
499.24
 10
374.05
 20
500.72
 10
375.31
 20
502.06
 10
376.74
 20
503.35
 10
378.3
 20
504.52
 10
379.49
 20
505.25
 10
380.78
 20
505.91
 10
382.19
 20
506.5
 10
383.91
 20
507.09
 10
385.68
 20
507.59
 10
387.38
 20
507.96
 10
388.78
 20
508.19
 10
390.19
 20
508.33
 10
391.75
 20
508.43
 10
393.03
 20
508.49
 10
394.47
 20
508.55
 10
396.07
 20
508.59
 10
397.8
 20
508.61
 10
399.68
 20
508.62
 10
401.68
 20
508.6
 10
403.81
 20
508.55
 10
405.5
 20
508.49
 10
407.25
 20
508.42
 10
409.05
 20
508.33
 10
410.91
 20
508.22
 10
412.82
 20
508.1
 10
414.77
 20
507.96
 10
416.76
 20
507.82
 10
418.78
 20
507.67
 10
420.84
 20
507.5
 10
422.91
 20
507.33
 10
425.01
 20
507.16
 10
427.12
 20
506.98
 10
429.23
 20
506.8
 10
430.47
 20
506.69
  0
LWPOLYLINE
  5
F5
100
AcDbEntity
  8
0009_4150
  6
CONTINUOUS
 62
    5
370
   -1
100
AcDbPolyline
 90
    5
 70
    0
 43
0
 10
430.47
 20
506.69
 10
430.49
 20
505.9
 10
430.53
 20
504.12
 10
430.57
 20
502.34
 10
430.6
 20
501.02
  0
LWPOLYLINE
  5
F6
100
AcDbEntity
  8
0009_4150
  6
CONTINUOUS
 62
    5
370
   -1
100
AcDbPolyline
 90
   76
 70
    0
 43
0
 10
516.29
 20
554.9299999999999
 10
517.85
 20
554.3099999999999
 10
519.4400000000001
 20
553.67
 10
521.09
 20
552.99
 10
522.8099999999999
 20
552.25
 10
524.29
 20
551.58
 10
525.83
 20
550.87
 10
527.42
 20
550.11
 10
529.03
 20
549.3200000000001
 10
530.6799999999999
 20
548.5
 10
532.33
 20
547.66
 10
533.91
 20
546.85
 10
535.49
 20
546.01
 10
537.08
 20
545.15
 10
538.7
 20
544.26
 10
540.34
 20
543.33
 10
542.02
 20
542.35
 10
543.74
 20
541.33
 10
545.4299999999999
 20
540.29
 10
547.15
 20
539.22
 10
548.88
 20
538.12
 10
550.6
 20
537.01
 10
552.28
 20
535.9
 10
553.91
 20
534.8
 10
555.48
 20
533.74
 10
556.95
 20
532.72
 10
558.67
 20
531.49
 10
560.28
 20
530.33
 10
561.8099999999999
 20
529.1799999999999
 10
563.33
 20
528.03
 10
564.88
 20
526.8200000000001
 10
566.17
 20
525.8099999999999
 10
567.5
 20
524.75
 10
568.87
 20
523.65
 10
570.25
 20
522.53
 10
571.65
 20
521.37
 10
573.05
 20
520.2
 10
574.4400000000001
 20
519.01
 10
575.8
 20
517.8099999999999
 10
577.14
 20
516.61
 10
578.46
 20
515.39
 10
579.74
 20
514.1799999999999
 10
580.99
 20
512.95
 10
582.21
 20
511.73
 10
583.39
 20
510.49
 10
584.59
 20
509.19
 10
585.74
 20
507.88
 10
586.85
 20
506.58
 10
587.91
 20
505.29
 10
588.92
 20
504.01
 10
589.88
 20
502.75
 10
591.04
 20
501.15
 10
592.12
 20
499.58
 10
593.12
 20
498.02
 10
594.0599999999999
 20
496.48
 10
594.91
 20
494.99
 10
595.71
 20
493.47
 10
596.49
 20
491.89
 10
597.24
 20
490.23
 10
597.91
 20
488.63
 10
598.5599999999999
 20
486.96
 10
599.17
 20
485.26
 10
599.74
 20
483.56
 10
600.24
 20
481.87
 10
600.66
 20
480.31
 10
601.02
 20
478.75
 10
601.3200000000001
 20
477.19
 10
601.58
 20
475.57
 10
601.79
 20
473.86
 10
601.95
 20
472.26
 10
602.08
 20
470.58
 10
602.2
 20
468.84
 10
602.3
 20
467.04
 10
602.39
 20
465.2
 10
602.47
 20
463.33
 10
602.48
 20
463.09
  0
LWPOLYLINE
  5
F7
100
AcDbEntity
  8
0009_4150
  6
CONTINUOUS
 62
    6
370
   -1
100
AcDbPolyline
 90
   27
 70
    0
 43
0
 10
511.78
 20
492.41
 10
512.3099999999999
 20
494.33
 10
512.84
 20
496.24
 10
513.38
 20
498.15
 10
513.91
 20
500.07
 10
514.4400000000001
 20
501.98
 10
514.98
 20
503.9
 10
515.51
 20
505.81
 10
516.04
 20
507.73
 10
516.58
 20
509.64
 10
517.11
 20
511.56
 10
517.64
 20
513.47
 10
518.1799999999999
 20
515.39
 10
518.71
 20
517.3
 10
519.24
 20
519.22
 10
519.78
 20
521.13
 10
520.3099999999999
 20
523.05
 10
520.84
 20
524.96
 10
521.38
 20
526.87
 10
521.91
 20
528.79
 10
522.4400000000001
 20
530.7
 10
522.98
 20
532.62
 10
523.51
 20
534.53
 10
524.04
 20
536.45
 10
524.5700000000001
 20
538.36
 10
525.11
 20
540.28
 10
525.64
 20
542.1900000000001
  0
LWPOLYLINE
  5
F8
100
AcDbEntity
  8
0009_4150
  6
CONTINUOUS
 62
    5
370
   -1
100
AcDbPolyline
 90
    4
 70
    0
 43
0
 10
516.29
 20
554.9299999999999
 10
514.76
 20
553.99
 10
513.23
 20
553.04
 10
512.5700000000001
 20
552.64
  0
LWPOLYLINE
  5
F9
100
AcDbEntity
  8
0009_4150
  6
CONTINUOUS
 62
    5
370
   -1
100
AcDbPolyline
 90
   72
 70
    0
 43
0
 10
512.5700000000001
 20
552.64
 10
512.49
 20
552.36
 10
511.86
 20
550.04
 10
511.22
 20
547.74
 10
510.59
 20
545.45
 10
509.97
 20
543.1799999999999
 10
509.35
 20
540.9299999999999
 10
508.74
 20
538.71
 10
508.13
 20
536.52
 10
507.53
 20
534.36
 10
506.94
 20
532.24
 10
506.36
 20
530.16
 10
505.79
 20
528.12
 10
505.23
 20
526.14
 10
504.68
 20
524.2
 10
504.14
 20
522.3200000000001
 10
503.62
 20
520.5
 10
503.12
 20
518.74
 10
502.62
 20
517.05
 10
502.15
 20
515.4299999999999
 10
501.69
 20
513.88
 10
501.25
 20
512.41
 10
500.83
 20
511.03
 10
500.43
 20
509.72
 10
500.05
 20
508.51
 10
499.69
 20
507.39
 10
499.35
 20
506.37
 10
498.66
 20
504.36
 10
498.06
 20
502.8
 10
497.53
 20
501.58
 10
497.04
 20
500.61
 10
496.47
 20
499.66
 10
495.8
 20
498.81
 10
495.44
 20
498.43
 10
495.03
 20
498.05
 10
494.58
 20
497.7
 10
494.08
 20
497.39
 10
493.54
 20
497.12
 10
492.31
 20
496.75
 10
490.91
 20
496.58
 10
489.36
 20
496.54
 10
488.05
 20
496.55
 10
486.61
 20
496.6
 10
485.02
 20
496.69
 10
483.24
 20
496.8
 10
481.22
 20
496.94
 10
478.94
 20
497.12
 10
477.63
 20
497.22
 10
476.25
 20
497.33
 10
474.79
 20
497.44
 10
473.25
 20
497.56
 10
471.65
 20
497.69
 10
469.98
 20
497.82
 10
468.25
 20
497.96
 10
466.46
 20
498.1
 10
464.61
 20
498.25
 10
462.71
 20
498.41
 10
460.76
 20
498.56
 10
458.76
 20
498.73
 10
456.72
 20
498.89
 10
454.64
 20
499.06
 10
452.52
 20
499.23
 10
450.37
 20
499.41
 10
448.19
 20
499.59
 10
445.99
 20
499.77
 10
443.76
 20
499.95
 10
441.51
 20
500.13
 10
439.24
 20
500.32
 10
436.96
 20
500.5
 10
434.68
 20
500.69
 10
432.38
 20
500.88
 10
430.6
 20
501.02
  0
LINE
  5
FA
100
AcDbEntity
  8
0009_4150
  6
CONTINUOUS
 62
    2
370
   -1
100
AcDbLine
 10
602.51
 20
460.09
 11
599.48
 21
463.06
  0
LINE
  5
FB
100
AcDbEntity
  8
0009_4150
  6
CONTINUOUS
 62
    2
370
   -1
100
AcDbLine
 10
599.48
 20
463.06
 11
602.46
 21
466.09
  0
LWPOLYLINE
  5
FC
100
AcDbEntity
  8
0010_4150
  6
CONTINUOUS
 62
    5
370
   -1
100
AcDbPolyline
 90
  121
 70
    0
 43
0
 10
169.88
 20
-142.96
 10
171.26
 20
-142.96
 10
173.22
 20
-142.96
 10
175.18
 20
-142.96
 10
177.14
 20
-142.97
 10
179.1
 20
-142.97
 10
181.06
 20
-142.97
 10
183.02
 20
-142.97
 10
184.98
 20
-142.97
 10
186.94
 20
-142.97
 10
188.91
 20
-142.97
 10
190.87
 20
-142.97
 10
192.84
 20
-142.97
 10
194.8
 20
-142.97
 10
196.77
 20
-142.97
 10
198.74
 20
-142.97
 10
200.71
 20
-142.97
 10
202.68
 20
-142.96
 10
204.65
 20
-142.96
 10
206.63
 20
-142.96
 10
208.6
 20
-142.95
 10
210.58
 20
-142.95
 10
212.55
 20
-142.94
 10
214.53
 20
-142.94
 10
216.52
 20
-142.93
 10
218.5
 20
-142.92
 10
220.48
 20
-142.91
 10
222.47
 20
-142.91
 10
224.46
 20
-142.9
 10
226.45
 20
-142.88
 10
228.44
 20
-142.87
 10
230.44
 20
-142.86
 10
232.44
 20
-142.85
 10
234.44
 20
-142.83
 10
236.44
 20
-142.82
 10
238.44
 20
-142.8
 10
240.45
 20
-142.79
 10
242.46
 20
-142.77
 10
244.47
 20
-142.75
 10
246.49
 20
-142.73
 10
248.51
 20
-142.71
 10
250.53
 20
-142.68
 10
252.55
 20
-142.66
 10
254.58
 20
-142.63
 10
256.61
 20
-142.61
 10
258.64
 20
-142.58
 10
260.68
 20
-142.55
 10
262.91
 20
-142.52
 10
265.14
 20
-142.48
 10
267.37
 20
-142.45
 10
269.61
 20
-142.41
 10
271.84
 20
-142.37
 10
274.07
 20
-142.33
 10
276.3
 20
-142.29
 10
278.53
 20
-142.25
 10
280.74
 20
-142.2
 10
282.95
 20
-142.16
 10
285.16
 20
-142.11
 10
287.35
 20
-142.06
 10
289.53
 20
-142.01
 10
291.7
 20
-141.96
 10
293.85
 20
-141.91
 10
296
 20
-141.86
 10
298.12
 20
-141.81
 10
300.23
 20
-141.75
 10
302.32
 20
-141.7
 10
304.39
 20
-141.64
 10
306.44
 20
-141.58
 10
308.47
 20
-141.53
 10
310.47
 20
-141.47
 10
312.45
 20
-141.41
 10
314.41
 20
-141.35
 10
316.33
 20
-141.29
 10
318.23
 20
-141.23
 10
320.1
 20
-141.17
 10
321.94
 20
-141.1
 10
323.75
 20
-141.04
 10
325.52
 20
-140.98
 10
327.26
 20
-140.91
 10
328.97
 20
-140.85
 10
330.63
 20
-140.79
 10
332.26
 20
-140.72
 10
333.85
 20
-140.66
 10
335.4
 20
-140.59
 10
336.91
 20
-140.52
 10
338.38
 20
-140.46
 10
339.8
 20
-140.39
 10
342.12
 20
-140.28
 10
344.32
 20
-140.17
 10
346.41
 20
-140.05
 10
348.41
 20
-139.94
 10
350.32
 20
-139.82
 10
352.16
 20
-139.7
 10
353.94
 20
-139.57
 10
355.67
 20
-139.44
 10
357.37
 20
-139.31
 10
359.05
 20
-139.18
 10
360.71
 20
-139.04
 10
362.38
 20
-138.89
 10
364.05
 20
-138.74
 10
365.97
 20
-138.57
 10
367.91
 20
-138.38
 10
369.87
 20
-138.19
 10
371.85
 20
-137.98
 10
373.85
 20
-137.77
 10
375.86
 20
-137.54
 10
377.87
 20
-137.3
 10
379.88
 20
-137.05
 10
381.9
 20
-136.78
 10
383.9
 20
-136.5
 10
385.9
 20
-136.2
 10
387.85
 20
-135.89
 10
389.78
 20
-135.57
 10
391.71
 20
-135.23
 10
393.62
 20
-134.89
 10
395.52
 20
-134.53
 10
397.42
 20
-134.16
 10
399.31
 20
-133.78
 10
401.19
 20
-133.4
 10
403.07
 20
-133.02
 10
404.14
 20
-132.8
  0
LWPOLYLINE
  5
FD
100
AcDbEntity
  8
0010_4150
  6
CONTINUOUS
 62
    5
370
   -1
100
AcDbPolyline
 90
   57
 70
    0
 43
0
 10
179.72
 20
-46.8
 10
179.15
 20
-48.07
 10
178.36
 20
-49.81
 10
177.59
 20
-51.51
 10
176.85
 20
-53.17
 10
176.14
 20
-54.77
 10
175.46
 20
-56.32
 10
174.75
 20
-57.97
 10
174.07
 20
-59.56
 10
173.43
 20
-61.14
 10
172.81
 20
-62.72
 10
172.2
 20
-64.34
 10
171.6
 20
-66.03
 10
170.98
 20
-67.84
 10
170.36
 20
-69.7
 10
169.77
 20
-71.55
 10
169.22
 20
-73.31999999999999
 10
168.72
 20
-74.95
 10
168.3
 20
-76.38
 10
167.85
 20
-77.95
 10
167.47
 20
-79.39
 10
167.09
 20
-81
 10
166.74
 20
-82.56
 10
166.36
 20
-84.34999999999999
 10
165.96
 20
-86.31
 10
165.56
 20
-88.36
 10
165.18
 20
-90.43000000000001
 10
164.84
 20
-92.44
 10
164.53
 20
-94.43000000000001
 10
164.27
 20
-96.29000000000001
 10
164.05
 20
-98.03
 10
163.88
 20
-99.65000000000001
 10
163.74
 20
-101.16
 10
163.59
 20
-103.08
 10
163.51
 20
-104.98
 10
163.5
 20
-107.03
 10
163.54
 20
-108.58
 10
163.61
 20
-110.26
 10
163.73
 20
-112.04
 10
163.88
 20
-113.9
 10
164.06
 20
-115.82
 10
164.28
 20
-117.77
 10
164.51
 20
-119.57
 10
164.77
 20
-121.38
 10
165.05
 20
-123.17
 10
165.34
 20
-124.94
 10
165.66
 20
-126.67
 10
165.98
 20
-128.37
 10
166.32
 20
-130
 10
166.74
 20
-131.9
 10
167.17
 20
-133.71
 10
167.61
 20
-135.47
 10
168.08
 20
-137.18
 10
168.57
 20
-138.87
 10
169.06
 20
-140.46
 10
169.58
 20
-142.05
 10
169.88
 20
-142.96
  0
LWPOLYLINE
  5
FE
100
AcDbEntity
  8
0010_4150
  6
CONTINUOUS
 62
    5
370
   -1
100
AcDbPolyline
 90
  168
 70
    0
 43
0
 10
404.15
 20
-132.8
 10
404.1
 20
-131.04
 10
404.05
 20
-128.78
 10
404
 20
-126.54
 10
403.95
 20
-124.31
 10
403.89
 20
-122.09
 10
403.84
 20
-119.89
 10
403.79
 20
-117.7
 10
403.73
 20
-115.54
 10
403.68
 20
-113.4
 10
403.63
 20
-111.29
 10
403.57
 20
-109.2
 10
403.52
 20
-107.14
 10
403.46
 20
-105.12
 10
403.41
 20
-103.13
 10
403.35
 20
-101.17
 10
403.3
 20
-99.26000000000001
 10
403.24
 20
-97.38
 10
403.19
 20
-95.55
 10
403.13
 20
-93.77
 10
403.07
 20
-92.03
 10
403.02
 20
-90.34999999999999
 10
402.96
 20
-88.72
 10
402.9
 20
-87.14
 10
402.84
 20
-85.62
 10
402.78
 20
-84.16
 10
402.72
 20
-82.76000000000001
 10
402.6
 20
-80.15000000000001
 10
402.47
 20
-77.78
 10
402.34
 20
-75.63
 10
402.19
 20
-73.69
 10
402.02
 20
-71.93000000000001
 10
401.84
 20
-70.36
 10
401.63
 20
-68.93000000000001
 10
401.31
 20
-67.23999999999999
 10
400.95
 20
-65.77
 10
400.53
 20
-64.48999999999999
 10
399.96
 20
-63.17
 10
399.23
 20
-61.96
 10
398.16
 20
-60.62
 10
396.87
 20
-59.38
 10
395.36
 20
-58.3
 10
393.68
 20
-57.37
 10
392.2
 20
-56.7
 10
390.54
 20
-56.03
 10
388.62
 20
-55.33
 10
387.11
 20
-54.81
 10
385.46
 20
-54.25
 10
383.68
 20
-53.66
 10
381.76
 20
-53.04
 10
379.72
 20
-52.39
 10
377.57
 20
-51.72
 10
375.32
 20
-51.03
 10
373.75
 20
-50.56
 10
372.14
 20
-50.07
 10
370.48
 20
-49.58
 10
368.78
 20
-49.08
 10
367.04
 20
-48.57
 10
365.25
 20
-48.05
 10
363.43
 20
-47.51
 10
361.56
 20
-46.97
 10
359.64
 20
-46.41
 10
357.68
 20
-45.84
 10
355.68
 20
-45.26
 10
353.63
 20
-44.66
 10
351.54
 20
-44.05
 10
349.41
 20
-43.42
 10
347.23
 20
-42.78
 10
345.23
 20
-42.18
 10
343.21
 20
-41.58
 10
341.16
 20
-40.97
 10
339.1
 20
-40.35
 10
337.03
 20
-39.72
 10
334.96
 20
-39.1
 10
332.89
 20
-38.47
 10
330.84
 20
-37.85
 10
328.8
 20
-37.23
 10
326.79
 20
-36.61
 10
324.81
 20
-36.01
 10
322.87
 20
-35.42
 10
320.98
 20
-34.84
 10
319.14
 20
-34.28
 10
317.37
 20
-33.74
 10
315.66
 20
-33.22
 10
314.02
 20
-32.72
 10
312.47
 20
-32.25
 10
311
 20
-31.81
 10
308.67
 20
-31.11
 10
306.59
 20
-30.5
 10
304.72
 20
-29.99
 10
303.02
 20
-29.59
 10
301.45
 20
-29.28
 10
299.98
 20
-29.08
 10
298.02
 20
-28.98
 10
296.19
 20
-29.09
 10
294.48
 20
-29.39
 10
293.16
 20
-29.79
 10
291.84
 20
-30.4
 10
290.39
 20
-31.31
 10
288.73
 20
-32.6
 10
287.58
 20
-33.61
 10
286.31
 20
-34.77
 10
284.96
 20
-36.05
 10
283.54
 20
-37.44
 10
282.07
 20
-38.91
 10
280.56
 20
-40.44
 10
279.03
 20
-42
 10
277.49
 20
-43.58
 10
275.97
 20
-45.14
 10
274.47
 20
-46.67
 10
273.02
 20
-48.15
 10
271.64
 20
-49.54
 10
270.33
 20
-50.83
 10
268.61
 20
-52.47
 10
267.05
 20
-53.89
 10
265.62
 20
-55.14
 10
264.27
 20
-56.25
 10
262.99
 20
-57.27
 10
261.72
 20
-58.25
 10
260.42
 20
-59.23
 10
259.1
 20
-60.2
 10
257.77
 20
-61.15
 10
256.43
 20
-62.07
 10
255.06
 20
-62.97
 10
253.61
 20
-63.88
 10
252.11
 20
-64.73999999999999
 10
250.55
 20
-65.56999999999999
 10
248.89
 20
-66.37
 10
247.12
 20
-67.15000000000001
 10
245.45
 20
-67.8
 10
243.69
 20
-68.42
 10
241.85
 20
-69
 10
239.94
 20
-69.52
 10
237.99
 20
-69.98
 10
236
 20
-70.34999999999999
 10
234
 20
-70.64
 10
232.01
 20
-70.81999999999999
 10
230.04
 20
-70.90000000000001
 10
228.08
 20
-70.90000000000001
 10
226.15
 20
-70.8
 10
224.27
 20
-70.63
 10
222.44
 20
-70.38
 10
220.67
 20
-70.06
 10
218.7
 20
-69.59999999999999
 10
216.82
 20
-69.06
 10
215.04
 20
-68.47
 10
213.36
 20
-67.81999999999999
 10
211.77
 20
-67.14
 10
210.27
 20
-66.44
 10
208.78
 20
-65.68000000000001
 10
207.23
 20
-64.83
 10
205.55
 20
-63.84
 10
203.65
 20
-62.67
 10
202.48
 20
-61.93
 10
201.23
 20
-61.13
 10
199.9
 20
-60.27
 10
198.5
 20
-59.36
 10
197.02
 20
-58.39
 10
195.49
 20
-57.38
 10
193.9
 20
-56.33
 10
192.26
 20
-55.23
 10
190.57
 20
-54.1
 10
188.84
 20
-52.94
 10
187.07
 20
-51.76
 10
185.27
 20
-50.55
 10
183.45
 20
-49.32
 10
181.6
 20
-48.07
 10
179.72
 20
-46.8
  0
LINE
  5
FF
100
AcDbEntity
  8
0012_4150
  6
DASHED
 62
    3
370
   -1
100
AcDbLine
 10
137.07
 20
-46.81
 11
135.22
 21
31.83
  0
LWPOLYLINE
  5
100
100
AcDbEntity
  8
0012_4150
  6
CONTINUOUS
 62
    5
370
   -1
100
AcDbPolyline
 90
   23
 70
    0
 43
0
 10
135.97
 20
-0.07000000000000001
 10
134.29
 20
-0.19
 10
132.53
 20
-0.33
 10
130.77
 20
-0.48
 10
128.99
 20
-0.65
 10
127.2
 20
-0.85
 10
125.29
 20
-1.09
 10
123.37
 20
-1.36
 10
121.44
 20
-1.66
 10
119.49
 20
-1.99
 10
117.54
 20
-2.34
 10
115.83
 20
-2.66
 10
114.11
 20
-2.99
 10
112.37
 20
-3.36
 10
110.6
 20
-3.75
 10
108.8
 20
-4.18
 10
106.94
 20
-4.65
 10
105.28
 20
-5.1
 10
103.59
 20
-5.58
 10
101.86
 20
-6.09
 10
100.11
 20
-6.62
 10
98.33
 20
-7.17
 10
97.23999999999999
 20
-7.52
  0
LWPOLYLINE
  5
101
100
AcDbEntity
  8
0012_4150
  6
CONTINUOUS
 62
    5
370
   -1
100
AcDbPolyline
 90
   23
 70
    0
 43
0
 10
135.97
 20
-0.07000000000000001
 10
137.66
 20
-0.11
 10
139.42
 20
-0.17
 10
141.19
 20
-0.24
 10
142.98
 20
-0.32
 10
144.78
 20
-0.43
 10
146.69
 20
-0.59
 10
148.62
 20
-0.77
 10
150.57
 20
-0.98
 10
152.53
 20
-1.21
 10
154.49
 20
-1.47
 10
156.21
 20
-1.71
 10
157.95
 20
-1.96
 10
159.7
 20
-2.24
 10
161.49
 20
-2.55
 10
163.31
 20
-2.9
 10
165.19
 20
-3.28
 10
166.86
 20
-3.65
 10
168.58
 20
-4.05
 10
170.33
 20
-4.48
 10
172.11
 20
-4.93
 10
173.91
 20
-5.4
 10
175.02
 20
-5.69
  0
LWPOLYLINE
  5
102
100
AcDbEntity
  8
0012_4150
  6
CONTINUOUS
 62
    5
370
   -1
100
AcDbPolyline
 90
   35
 70
    0
 43
0
 10
175.02
 20
-5.69
 10
174.93
 20
-6.5
 10
174.71
 20
-8.51
 10
174.47
 20
-10.47
 10
174.23
 20
-12.39
 10
173.98
 20
-14.24
 10
173.72
 20
-16.02
 10
173.43
 20
-17.73
 10
173.14
 20
-19.34
 10
172.82
 20
-20.85
 10
172.32
 20
-22.85
 10
171.77
 20
-24.64
 10
171.16
 20
-26.28
 10
170.47
 20
-27.78
 10
169.7
 20
-29.18
 10
168.76
 20
-30.62
 10
167.68
 20
-31.96
 10
166.47
 20
-33.15
 10
165.1
 20
-34.16
 10
163.43
 20
-35.04
 10
161.59
 20
-35.72
 10
159.62
 20
-36.25
 10
157.53
 20
-36.67
 10
155.88
 20
-36.94
 10
154.2
 20
-37.19
 10
152.49
 20
-37.4
 10
150.75
 20
-37.59
 10
149
 20
-37.75
 10
147.25
 20
-37.89
 10
145.48
 20
-38.02
 10
143.71
 20
-38.13
 10
141.95
 20
-38.23
 10
140.19
 20
-38.32
 10
138.43
 20
-38.41
 10
136.88
 20
-38.48
  0
LWPOLYLINE
  5
103
100
AcDbEntity
  8
0012_4150
  6
CONTINUOUS
 62
    5
370
   -1
100
AcDbPolyline
 90
   35
 70
    0
 43
0
 10
97.23999999999999
 20
-7.52
 10
97.36
 20
-8.32
 10
97.68000000000001
 20
-10.32
 10
98
 20
-12.27
 10
98.33
 20
-14.17
 10
98.67
 20
-16.01
 10
99.02
 20
-17.78
 10
99.38
 20
-19.47
 10
99.76000000000001
 20
-21.06
 10
100.14
 20
-22.56
 10
100.73
 20
-24.53
 10
101.37
 20
-26.3
 10
102.05
 20
-27.9
 10
102.81
 20
-29.37
 10
103.65
 20
-30.73
 10
104.66
 20
-32.13
 10
105.8
 20
-33.41
 10
107.06
 20
-34.54
 10
108.48
 20
-35.49
 10
110.19
 20
-36.29
 10
112.05
 20
-36.88
 10
114.05
 20
-37.32
 10
116.16
 20
-37.64
 10
117.82
 20
-37.84
 10
119.51
 20
-38
 10
121.23
 20
-38.13
 10
122.97
 20
-38.24
 10
124.73
 20
-38.32
 10
126.48
 20
-38.38
 10
128.26
 20
-38.42
 10
130.03
 20
-38.45
 10
131.8
 20
-38.47
 10
133.56
 20
-38.48
 10
135.32
 20
-38.48
 10
136.88
 20
-38.48
  0
LINE
  5
104
100
AcDbEntity
  8
0001_3900
  6
DASHED
 62
    3
370
   -1
100
AcDbLine
 10
608.63
 20
254.49
 11
354.38
 21
254.3
  0
LWPOLYLINE
  5
105
100
AcDbEntity
  8
0001_3900
  6
CONTINUOUS
 62
    5
370
   -1
100
AcDbPolyline
 90
    5
 70
    0
 43
0
 10
423.05
 20
209.22
 10
423.03
 20
210.33
 10
423.01
 20
211.43
 10
422.98
 20
213.2
 10
422.96
 20
214.16
  0
LWPOLYLINE
  5
106
100
AcDbEntity
  8
0001_3900
  6
CONTINUOUS
 62
    5
370
   -1
100
AcDbPolyline
 90
   70
 70
    0
 43
0
 10
503.65
 20
165.56
 10
505.34
 20
166.4
 10
507.11
 20
167.29
 10
508.89
 20
168.2
 10
510.68
 20
169.12
 10
512.49
 20
170.07
 10
514.3200000000001
 20
171.04
 10
516.14
 20
172.03
 10
517.97
 20
173.04
 10
519.77
 20
174.06
 10
521.54
 20
175.06
 10
523.25
 20
176.05
 10
524.88
 20
177
 10
526.42
 20
177.9
 10
527.84
 20
178.75
 10
529.35
 20
179.67
 10
530.75
 20
180.53
 10
532.1
 20
181.4
 10
533.47
 20
182.31
 10
534.9400000000001
 20
183.32
 10
536.29
 20
184.28
 10
537.74
 20
185.32
 10
539.26
 20
186.44
 10
540.84
 20
187.61
 10
542.4400000000001
 20
188.82
 10
544.0599999999999
 20
190.05
 10
545.65
 20
191.29
 10
547.21
 20
192.53
 10
548.8
 20
193.79
 10
550.3200000000001
 20
195.04
 10
551.78
 20
196.25
 10
553.1900000000001
 20
197.45
 10
554.54
 20
198.62
 10
555.85
 20
199.78
 10
557.11
 20
200.91
 10
558.5599999999999
 20
202.26
 10
559.96
 20
203.59
 10
561.3099999999999
 20
204.92
 10
562.62
 20
206.26
 10
563.89
 20
207.61
 10
565.08
 20
208.92
 10
566.24
 20
210.24
 10
567.37
 20
211.59
 10
568.45
 20
212.94
 10
569.49
 20
214.3
 10
570.65
 20
215.89
 10
571.74
 20
217.48
 10
572.75
 20
219.05
 10
573.7
 20
220.6
 10
574.5
 20
222
 10
575.25
 20
223.39
 10
575.95
 20
224.79
 10
576.63
 20
226.23
 10
577.33
 20
227.81
 10
578
 20
229.44
 10
578.65
 20
231.14
 10
579.27
 20
232.88
 10
579.78
 20
234.43
 10
580.26
 20
236.02
 10
580.72
 20
237.64
 10
581.14
 20
239.29
 10
581.54
 20
240.96
 10
581.91
 20
242.7
 10
582.24
 20
244.45
 10
582.53
 20
246.2
 10
582.76
 20
247.95
 10
582.9299999999999
 20
249.67
 10
583.05
 20
251.69
 10
583.11
 20
253.67
 10
583.12
 20
254.47
  0
LWPOLYLINE
  5
107
100
AcDbEntity
  8
0001_3900
  6
CONTINUOUS
 62
    5
370
   -1
100
AcDbPolyline
 90
    5
 70
    0
 43
0
 10
422.96
 20
214.16
 10
423.97
 20
213.1
 10
425.29
 20
211.72
 10
426.6
 20
210.34
 10
427.79
 20
209.1
  0
LWPOLYLINE
  5
108
100
AcDbEntity
  8
0001_3900
  6
CONTINUOUS
 62
    5
370
   -1
100
AcDbPolyline
 90
    3
 70
    0
 43
0
 10
500.68
 20
167.6
 10
502.27
 20
166.51
 10
503.65
 20
165.56
  0
LWPOLYLINE
  5
109
100
AcDbEntity
  8
0001_3900
  6
CONTINUOUS
 62
    5
370
   -1
100
AcDbPolyline
 90
   69
 70
    0
 43
0
 10
427.79
 20
209.1
 10
429.7
 20
209.44
 10
431.67
 20
209.79
 10
433.63
 20
210.14
 10
435.58
 20
210.49
 10
437.52
 20
210.84
 10
439.46
 20
211.18
 10
441.38
 20
211.52
 10
443.29
 20
211.86
 10
445.19
 20
212.19
 10
447.08
 20
212.52
 10
448.94
 20
212.84
 10
450.79
 20
213.16
 10
452.62
 20
213.48
 10
454.43
 20
213.79
 10
456.22
 20
214.09
 10
457.99
 20
214.38
 10
459.73
 20
214.67
 10
462.1
 20
215.06
 10
464.41
 20
215.43
 10
466.64
 20
215.78
 10
468.78
 20
216.11
 10
470.81
 20
216.42
 10
472.72
 20
216.71
 10
474.5
 20
216.98
 10
476.14
 20
217.21
 10
477.61
 20
217.42
 10
478.91
 20
217.59
 10
480.56
 20
217.79
 10
481.12
 20
217.83
 10
481.64
 20
217.84
 10
482.12
 20
217.82
 10
482.57
 20
217.76
 10
482.98
 20
217.67
 10
483.29
 20
217.57
 10
483.59
 20
217.45
 10
483.88
 20
217.31
 10
484.16
 20
217.15
 10
484.51
 20
216.93
 10
484.84
 20
216.68
 10
485.14
 20
216.43
 10
485.51
 20
216.08
 10
485.84
 20
215.67
 10
486.51
 20
214.51
 10
487.29
 20
212.58
 10
487.71
 20
211.41
 10
488.17
 20
210.03
 10
488.67
 20
208.48
 10
489.21
 20
206.77
 10
489.78
 20
204.93
 10
490.38
 20
202.96
 10
490.99
 20
200.89
 10
491.63
 20
198.75
 10
492.27
 20
196.55
 10
492.92
 20
194.31
 10
493.57
 20
192.06
 10
494.22
 20
189.8
 10
494.86
 20
187.57
 10
495.48
 20
185.39
 10
496.09
 20
183.26
 10
496.67
 20
181.22
 10
497.22
 20
179.29
 10
497.73
 20
177.48
 10
498.21
 20
175.81
 10
498.64
 20
174.3
 10
499.02
 20
172.98
 10
499.78
 20
170.43
 10
500.29
 20
168.79
 10
500.68
 20
167.6
  0
LWPOLYLINE
  5
10A
100
AcDbEntity
  8
0001_3900
  6
CONTINUOUS
 62
    5
370
   -1
100
AcDbPolyline
 90
   55
 70
    0
 43
0
 10
423.05
 20
209.22
 10
421.37
 20
209.01
 10
419.67
 20
208.79
 10
417.91
 20
208.58
 10
416.06
 20
208.36
 10
414.11
 20
208.14
 10
412.01
 20
207.92
 10
410.29
 20
207.75
 10
408.49
 20
207.58
 10
406.63
 20
207.42
 10
404.73
 20
207.26
 10
402.82
 20
207.11
 10
400.91
 20
206.98
 10
399.02
 20
206.86
 10
397.18
 20
206.76
 10
395.41
 20
206.68
 10
393.72
 20
206.63
 10
391.44
 20
206.6
 10
389.35
 20
206.62
 10
387.43
 20
206.7
 10
385.65
 20
206.83
 10
383.98
 20
207.01
 10
382.38
 20
207.23
 10
380.85
 20
207.51
 10
379.35
 20
207.87
 10
377.88
 20
208.32
 10
376.08
 20
209.01
 10
374.4
 20
209.8
 10
372.95
 20
210.59
 10
371.69
 20
211.42
 10
370.63
 20
212.38
 10
369.42
 20
213.84
 10
368.26
 20
215.54
 10
367.51
 20
216.81
 10
366.84
 20
218.16
 10
366.24
 20
219.66
 10
365.75
 20
221.18
 10
365.32
 20
222.8
 10
364.93
 20
224.48
 10
364.58
 20
226.14
 10
364.26
 20
227.9
 10
363.97
 20
229.71
 10
363.72
 20
231.69
 10
363.49
 20
233.96
 10
363.34
 20
235.79
 10
363.19
 20
237.76
 10
363.06
 20
239.83
 10
362.94
 20
241.93
 10
362.83
 20
243.99
 10
362.74
 20
245.97
 10
362.67
 20
247.81
 10
362.63
 20
249.43
 10
362.59
 20
251.42
 10
362.6
 20
253.01
 10
362.62
 20
254.31
  0
LWPOLYLINE
  5
10B
100
AcDbEntity
  8
0001_3900
  6
CONTINUOUS
 62
    5
370
   -1
100
AcDbPolyline
 90
    5
 70
    0
 43
0
 10
422.98
 20
299.48
 10
422.96
 20
298.38
 10
422.95
 20
297.27
 10
422.92
 20
295.51
 10
422.9
 20
294.55
  0
LWPOLYLINE
  5
10C
100
AcDbEntity
  8
0001_3900
  6
CONTINUOUS
 62
    5
370
   -1
100
AcDbPolyline
 90
    5
 70
    0
 43
0
 10
422.9
 20
294.55
 10
423.91
 20
295.61
 10
425.23
 20
296.99
 10
426.54
 20
298.37
 10
427.72
 20
299.61
  0
LWPOLYLINE
  5
10D
100
AcDbEntity
  8
0001_3900
  6
CONTINUOUS
 62
    5
370
   -1
100
AcDbPolyline
 90
    3
 70
    0
 43
0
 10
500.55
 20
341.21
 10
502.14
 20
342.31
 10
503.52
 20
343.26
  0
LWPOLYLINE
  5
10E
100
AcDbEntity
  8
0001_3900
  6
CONTINUOUS
 62
    5
370
   -1
100
AcDbPolyline
 90
   69
 70
    0
 43
0
 10
427.72
 20
299.62
 10
429.64
 20
299.27
 10
431.6
 20
298.93
 10
433.56
 20
298.58
 10
435.52
 20
298.23
 10
437.46
 20
297.89
 10
439.4
 20
297.55
 10
441.32
 20
297.21
 10
443.23
 20
296.88
 10
445.13
 20
296.55
 10
447.01
 20
296.22
 10
448.88
 20
295.9
 10
450.73
 20
295.58
 10
452.56
 20
295.27
 10
454.38
 20
294.97
 10
456.17
 20
294.67
 10
457.93
 20
294.38
 10
459.67
 20
294.09
 10
462.04
 20
293.71
 10
464.35
 20
293.34
 10
466.58
 20
292.99
 10
468.72
 20
292.66
 10
470.75
 20
292.35
 10
472.67
 20
292.07
 10
474.45
 20
291.81
 10
476.09
 20
291.57
 10
477.56
 20
291.37
 10
478.86
 20
291.2
 10
480.5
 20
291
 10
481.07
 20
290.96
 10
481.58
 20
290.95
 10
482.06
 20
290.97
 10
482.51
 20
291.03
 10
482.92
 20
291.12
 10
483.24
 20
291.22
 10
483.54
 20
291.34
 10
483.83
 20
291.49
 10
484.1
 20
291.64
 10
484.45
 20
291.87
 10
484.78
 20
292.11
 10
485.08
 20
292.37
 10
485.45
 20
292.72
 10
485.79
 20
293.13
 10
486.45
 20
294.29
 10
487.23
 20
296.22
 10
487.64
 20
297.39
 10
488.1
 20
298.77
 10
488.6
 20
300.32
 10
489.14
 20
302.03
 10
489.71
 20
303.88
 10
490.3
 20
305.85
 10
490.92
 20
307.91
 10
491.55
 20
310.05
 10
492.19
 20
312.26
 10
492.84
 20
314.49
 10
493.48
 20
316.75
 10
494.13
 20
319
 10
494.76
 20
321.24
 10
495.38
 20
323.42
 10
495.99
 20
325.55
 10
496.56
 20
327.59
 10
497.11
 20
329.53
 10
497.62
 20
331.34
 10
498.1
 20
333.01
 10
498.53
 20
334.51
 10
498.91
 20
335.84
 10
499.66
 20
338.39
 10
500.17
 20
340.03
 10
500.55
 20
341.21
  0
LWPOLYLINE
  5
10F
100
AcDbEntity
  8
0001_3900
  6
CONTINUOUS
 62
    5
370
   -1
100
AcDbPolyline
 90
   55
 70
    0
 43
0
 10
422.98
 20
299.48
 10
421.3
 20
299.7
 10
419.6
 20
299.91
 10
417.84
 20
300.12
 10
416
 20
300.34
 10
414.04
 20
300.55
 10
411.94
 20
300.77
 10
410.22
 20
300.94
 10
408.42
 20
301.11
 10
406.56
 20
301.27
 10
404.66
 20
301.42
 10
402.75
 20
301.57
 10
400.84
 20
301.7
 10
398.96
 20
301.81
 10
397.11
 20
301.91
 10
395.34
 20
301.99
 10
393.65
 20
302.04
 10
391.37
 20
302.06
 10
389.28
 20
302.03
 10
387.36
 20
301.95
 10
385.58
 20
301.82
 10
383.91
 20
301.64
 10
382.31
 20
301.42
 10
380.78
 20
301.13
 10
379.28
 20
300.77
 10
377.81
 20
300.32
 10
376.01
 20
299.62
 10
374.33
 20
298.84
 10
372.89
 20
298.05
 10
371.63
 20
297.21
 10
370.57
 20
296.25
 10
369.36
 20
294.79
 10
368.2
 20
293.09
 10
367.46
 20
291.81
 10
366.79
 20
290.46
 10
366.19
 20
288.96
 10
365.71
 20
287.45
 10
365.27
 20
285.82
 10
364.88
 20
284.14
 10
364.54
 20
282.48
 10
364.22
 20
280.72
 10
363.94
 20
278.91
 10
363.69
 20
276.93
 10
363.46
 20
274.66
 10
363.31
 20
272.83
 10
363.17
 20
270.86
 10
363.04
 20
268.79
 10
362.92
 20
266.69
 10
362.82
 20
264.63
 10
362.73
 20
262.65
 10
362.66
 20
260.81
 10
362.62
 20
259.19
 10
362.59
 20
257.2
 10
362.6
 20
255.61
 10
362.62
 20
254.31
  0
ENDSEC
  0
SECTION
  2
OBJECTS
  0
DICTIONARY
  5
C
330
0
100
AcDbDictionary
281
    1
  3
ACAD_GROUP
350
D
  0
DICTIONARY
  5
D
330
C
100
AcDbDictionary
281
    1
  0
ENDSEC
  0
EOF
