<svg width="24" height="24" viewBox="0 0 24 24" fill="none" xmlns="http://www.w3.org/2000/svg">
<g clip-path="url(#clip0_52_1355)">
<mask id="mask0_52_1355" style="mask-type:alpha" maskUnits="userSpaceOnUse" x="-1" y="-1" width="26" height="26">
<path fill-rule="evenodd" clip-rule="evenodd" d="M11.0262 18.9328V24.7411H13.0262V18.9253C12.6912 18.9745 12.3486 19 12 19C11.6695 19 11.3444 18.9771 11.0262 18.9328ZM16.1971 17.6027L20.3147 21.7203L21.7289 20.3061L17.6101 16.1872C17.209 16.7237 16.7328 17.2007 16.1971 17.6027ZM18.9272 13.0132H24.7541V11.0132H18.931C18.9765 11.3356 19 11.665 19 12C19 12.3441 18.9752 12.6824 18.9272 13.0132ZM17.6232 7.83037L21.7333 3.72029L20.3191 2.30607L16.2146 6.41051C16.7491 6.81412 17.2238 7.29261 17.6232 7.83037ZM13.0262 5.07468V-0.714744H11.0262V5.06719C11.3444 5.0229 11.6695 5 12 5C12.3486 5 12.6912 5.02548 13.0262 5.07468ZM7.81276 6.38992L3.72891 2.30607L2.3147 3.72029L6.39731 7.8029C6.79928 7.26717 7.2763 6.79097 7.81276 6.38992ZM5.06902 11.0132H-0.701721V13.0132H5.07278C5.02483 12.6824 5 12.3441 5 12C5 11.665 5.02353 11.3356 5.06902 11.0132ZM6.4105 16.2146L2.31906 20.3061L3.73328 21.7203L7.83037 17.6232C7.2926 17.2238 6.81412 16.7491 6.4105 16.2146ZM7 12C7 9.23858 9.23858 7 12 7C14.7614 7 17 9.23858 17 12C17 14.7614 14.7614 17 12 17C9.23858 17 7 14.7614 7 12Z" fill="black" style="fill:black;fill-opacity:1;"/>
</mask>
<g mask="url(#mask0_52_1355)">
<path fill-rule="evenodd" clip-rule="evenodd" d="M24 24L-4.19629e-06 24L0 8.00217e-07L24 4.99651e-06L24 24Z" fill="black" style="fill:black;fill-opacity:1;"/>
</g>
</g>
<defs>
<clipPath id="clip0_52_1355">
<rect width="24" height="24" fill="white" style="fill:white;fill-opacity:1;"/>
</clipPath>
</defs>
</svg>
