<svg width="24" height="24" viewBox="0 0 24 24" fill="none" xmlns="http://www.w3.org/2000/svg">
<mask id="mask0_17_571" style="mask-type:alpha" maskUnits="userSpaceOnUse" x="7" y="1" width="10" height="22">
<path fill-rule="evenodd" clip-rule="evenodd" d="M13 3H11C9.89543 3 9 3.89543 9 5V8H7V5C7 2.79086 8.79086 1 11 1H13C15.2091 1 17 2.79086 17 5V8H15V5C15 3.89543 14.1046 3 13 3ZM7 16H9V19C9 20.1046 9.89543 21 11 21H13C14.1046 21 15 20.1046 15 19V16H17V19C17 21.2091 15.2091 23 13 23H11C8.79086 23 7 21.2091 7 19V16ZM11 8V16H13L13 8H11Z" fill="black" style="fill:black;fill-opacity:1;"/>
</mask>
<g mask="url(#mask0_17_571)">
<path fill-rule="evenodd" clip-rule="evenodd" d="M24 24L-4.19629e-06 24L0 8.00217e-07L24 4.99651e-06L24 24Z" fill="black" style="fill:black;fill-opacity:1;"/>
</g>
</svg>
