<svg width="24" height="24" viewBox="0 0 24 24" fill="none" xmlns="http://www.w3.org/2000/svg">
<mask id="mask0_17_591" style="mask-type:alpha" maskUnits="userSpaceOnUse" x="7" y="1" width="10" height="22">
<path fill-rule="evenodd" clip-rule="evenodd" d="M11 3H13C14.1046 3 15 3.89543 15 5V8H17V5C17 2.79086 15.2091 1 13 1H11C8.79086 1 7 2.79086 7 5V8H9V5C9 3.89543 9.89543 3 11 3ZM9 16H7V19C7 21.2091 8.79086 23 11 23H13C15.2091 23 17 21.2091 17 19V16H15V19C15 20.1046 14.1046 21 13 21H11C9.89543 21 9 20.1046 9 19V16Z" fill="black" style="fill:black;fill-opacity:1;"/>
</mask>
<g mask="url(#mask0_17_591)">
<path fill-rule="evenodd" clip-rule="evenodd" d="M24 24L-4.19629e-06 24L0 8.00217e-07L24 4.99651e-06L24 24Z" fill="black" style="fill:black;fill-opacity:1;"/>
</g>
</svg>
